<svg width="193" height="193" viewBox="0 0 193 193" fill="none" xmlns="http://www.w3.org/2000/svg" data-reactroot=""><circle cx="96.5" cy="96.5" r="96.5" fill="url(#1inch_icon_fcb8a7f2-fe9c-42a2-a451-55bc5dc186d8)"></circle><path d="M71.2542 100.175L73.7802 81.196L51.8701 65.9858L71.8891 72.7669L76.6169 65.5131L93.8803 54.8011L131.933 75.7657L133.905 107.753L116.952 131.311L103.552 133.364L110.482 120.68V108.469L105.443 98.9321L100.324 95.5416L92.4484 103.66V112.251L86.3022 118.006L78.4946 118.951L75.0365 120.91L69.3631 119.1L66.9992 110.59L71.2542 104.605V100.175Z" fill="#2C4260"></path><path d="M106.24 65.8237C102.066 64.9592 97.5005 65.1888 97.5005 65.1888C97.5005 65.1888 96.0011 72.1185 86.7075 73.9421C86.7751 73.9421 98.9864 78.1161 106.24 65.8237Z" fill="#2C4260"></path><path d="M110.023 128.704C115.061 124.76 118.844 119.329 120.586 113.183C120.667 112.953 121.37 112.548 121.842 112.238C122.626 111.765 123.423 111.373 123.571 110.738C123.882 108.928 124.044 107.037 124.044 105.146C124.044 104.443 123.328 103.727 122.626 103.025C122.072 102.552 121.518 101.998 121.518 101.607C120.735 94.4339 117.425 87.7339 112.144 82.8575L111.59 83.4113C116.709 88.2202 120.019 94.7581 120.735 101.688C120.816 102.323 121.437 102.944 122.072 103.579C122.626 104.052 123.261 104.768 123.261 105.078C123.261 106.888 123.099 108.698 122.788 110.509C122.707 110.819 122.005 111.143 121.451 111.454C120.667 111.846 119.951 112.238 119.803 112.872C117.912 119.572 113.576 125.408 107.821 129.19C108.848 126.988 112.076 119.816 113.805 116.182L113.494 104.524L103.485 94.8391L97.8116 95.6226L91.5843 105.713C91.5843 105.713 94.5021 109.414 90.3956 113.75C86.3837 118.006 83.2228 118.951 83.2228 118.951L80.3051 117.371C81.1696 116.263 82.9121 114.615 84.2494 113.507C86.5323 111.616 88.8152 111.454 88.8152 109.414C88.9097 105.146 84.3305 106.321 84.3305 106.321L82.669 107.901L81.9666 113.737L78.5085 118.073L78.1168 117.992L72.4434 116.736C72.4434 116.736 75.9149 114.926 76.4688 112.872C77.0226 110.9 75.3611 104.362 75.2801 103.971C75.3611 104.052 76.9416 105.389 77.644 107.591C78.9002 104.119 80.5617 100.81 81.0345 100.499C81.5073 100.188 87.8831 96.7978 87.8831 96.7978L85.7623 102.39L87.3428 101.526L91.1251 92.2321C91.1251 92.2321 94.8263 90.422 97.5819 90.422C102.539 90.3409 109.874 84.2758 106.565 73.4018C107.51 73.7935 123.896 81.9929 126.732 98.0676C128.853 110.427 121.842 122.004 110.023 128.704Z" fill="#2C4260"></path><path d="M91.2736 67.5528C93.0837 65.4185 92.3813 62.2711 92.3813 62.2711L87.0996 70.0788C87.0185 70.0788 88.9772 70.1598 91.2736 67.5528Z" fill="white"></path><path d="M73.5376 110.184L74.1724 107.037C74.1724 107.037 71.5654 111.603 71.3357 112.238C71.0926 112.954 71.4978 114.21 72.5109 114.129C73.5376 114.048 74.7938 112.548 74.7938 111.454C74.7938 110.036 73.5376 110.184 73.5376 110.184Z" fill="white"></path><path d="M120.343 60.0693C120.343 60.0693 124.287 60.2314 128.38 60.7042C119.154 53.4504 110.414 51.3296 103.323 51.3296C93.5563 51.3296 86.9373 55.355 86.5321 55.5846L89.6119 50.6947C89.6119 50.6947 77.3196 49.506 72.9835 62.5143C71.8758 59.7586 70.8627 55.7332 70.8627 55.7332C70.8627 55.7332 64.4734 61.3391 67.4722 70.6327C60.1373 67.958 49.6685 64.2433 49.2633 64.1758C48.7094 64.0947 48.5473 64.3379 48.5473 64.3379C48.5473 64.3379 48.3852 64.5675 48.858 64.9728C49.736 65.6617 66.2835 77.8865 69.9171 80.2504C69.1337 83.0871 69.1337 84.4244 69.9171 85.7617C71.0248 87.5718 71.0923 88.5174 70.9437 89.8547C70.7817 91.192 69.3633 102.782 69.0526 104.2C68.7419 105.619 65.4324 110.657 65.581 112.157C65.7431 113.656 67.7829 120.032 69.6064 120.748C70.9437 121.22 74.2532 122.247 76.455 122.247C77.2385 122.247 77.9544 122.085 78.2651 121.774C79.6024 120.599 79.9942 120.356 80.9397 120.356C81.0208 120.356 81.1018 120.356 81.1694 120.356C81.5611 120.356 82.0339 120.437 82.5877 120.437C83.844 120.437 85.5055 120.194 86.6807 119.1C88.4097 117.371 91.4085 115.007 92.3541 113.899C93.5428 112.4 94.1642 110.36 93.8535 108.307C93.6103 106.416 94.6369 104.754 95.8257 103.106C97.3251 101.134 100.081 97.5948 100.081 97.5948C105.524 101.674 108.915 107.901 108.915 114.831C108.915 127.123 98.2031 137.052 84.9652 137.052C82.9119 137.052 80.9532 136.822 78.9811 136.35C85.0462 138.47 90.1658 139.186 94.3533 139.186C103.255 139.186 107.983 135.958 107.983 135.958C107.983 135.958 106.335 138.092 103.647 140.524C103.728 140.524 103.728 140.524 103.728 140.524C118.465 138.47 125.638 126.34 125.638 126.34C125.638 126.34 125.084 130.284 124.382 132.959C143.982 118.222 140.673 99.7831 140.591 99.1617C140.754 99.3914 142.726 101.755 143.739 103.025C146.9 70.5516 120.343 60.0693 120.343 60.0693ZM90.1658 111.927C89.8551 112.319 88.5178 113.507 87.5722 114.372C86.6266 115.236 85.6 116.101 84.8166 116.898C84.5059 117.209 83.871 117.371 82.9254 117.371C82.6147 117.371 82.2905 117.371 82.0609 117.371C81.8988 117.371 81.7502 117.371 81.5881 117.371C81.426 117.371 81.345 117.371 81.2774 117.371C81.0343 117.371 80.8047 117.371 80.5615 117.371C81.7502 115.79 85.2083 112.17 86.397 111.387C87.8154 110.441 88.5313 109.495 87.6533 107.847C86.7887 106.186 84.5059 106.591 84.5059 106.591C84.5059 106.591 85.8432 106.037 87.0319 106.037C85.5325 105.646 83.6414 106.037 82.7768 106.902C81.8313 107.766 81.9934 110.846 81.6016 112.805C81.2099 114.858 79.8726 115.885 77.8194 117.776C76.7117 118.803 75.9282 119.113 75.2934 119.113C73.9561 118.884 72.3756 118.478 71.2679 118.087C70.4845 117.06 69.2958 113.669 68.9851 112.251C69.2147 111.468 70.1603 109.806 70.6331 108.861C71.5786 107.05 72.1325 106.024 72.2946 105.078C72.6052 103.741 73.6319 95.4605 74.0236 92.0025C75.0502 93.3398 76.4686 95.5551 76.1444 96.9734C78.4272 93.745 76.7792 90.5841 75.9823 89.3279C75.2798 88.0716 74.3343 85.5456 75.1177 82.871C75.9012 80.1964 78.7379 72.7804 78.7379 72.7804C78.7379 72.7804 79.6835 74.4419 81.0208 74.1177C82.3581 73.8071 93.1511 57.5703 93.1511 57.5703C93.1511 57.5703 96.0688 63.9461 92.989 68.6064C89.8416 73.2532 86.7617 74.1177 86.7617 74.1177C86.7617 74.1177 91.0978 74.9012 95.1097 71.9835C96.7577 75.8468 98.3382 79.8587 98.4192 80.4125C98.1761 80.9663 95.0287 88.5309 94.718 89.0037C94.5559 89.1658 93.4617 89.4764 92.6648 89.6385C91.3275 90.0303 90.544 90.2734 90.2198 90.5031C89.666 90.9758 87.14 97.9055 85.9648 101.296C84.5464 101.688 83.128 102.485 82.1014 104.052C82.6553 103.66 84.3843 103.417 85.6541 103.268C86.7617 103.187 90.1388 104.997 91.0168 108.388C91.0168 108.469 91.0168 108.469 91.0168 108.55C91.1924 109.793 90.8006 110.981 90.1658 111.927ZM82.7633 112.872C83.4793 111.846 83.3982 110.117 83.4793 109.563C83.5603 109.009 83.7089 107.983 84.3438 107.834C84.9787 107.672 86.4781 107.915 86.4781 109.009C86.4781 110.036 85.3704 110.265 84.5869 110.981C84.0196 111.522 82.9119 112.71 82.7633 112.872ZM114.197 97.8109C114.98 93.799 115.061 90.3275 114.832 87.4908C117.898 91.5837 119.789 96.5547 120.343 101.674C120.424 102.309 121.045 102.931 121.68 103.565C122.234 104.038 122.869 104.673 122.869 105.065C122.869 106.875 122.707 108.685 122.396 110.509C122.315 110.738 121.613 111.143 121.059 111.454C120.275 111.846 119.559 112.238 119.411 112.872C117.682 118.938 113.967 124.3 109.01 128.083C116.331 120.437 119.87 107.82 114.197 97.8109ZM109.239 128.785C114.359 124.841 118.303 119.329 120.032 113.102C120.113 112.872 120.816 112.467 121.288 112.157C122.072 111.765 122.869 111.292 123.017 110.657C123.328 108.847 123.49 106.956 123.49 105.065C123.49 104.362 122.774 103.646 122.072 102.944C121.68 102.471 121.045 101.917 121.045 101.526C120.41 95.7712 118.128 90.341 114.588 85.8428C113.008 76.3871 106.713 73.4693 106.551 73.3883C106.713 73.6314 110.806 79.5345 107.969 86.4641C105.052 93.4748 97.5682 92.3807 96.9333 92.4482C96.2984 92.4482 93.867 95.5956 90.7871 101.431C90.3954 101.269 88.7339 100.877 86.8428 101.201C88.2611 97.2571 90.3954 91.6648 90.7871 91.192C90.9492 91.0299 92.1244 90.7192 92.9214 90.4895C94.4208 90.0978 95.1232 89.8547 95.3664 89.544C95.5285 89.3008 96.312 87.4908 97.0954 85.5996C97.8113 85.5996 99.6214 85.4375 99.77 85.3565C99.9321 85.1944 101.432 81.3446 101.432 80.8718C101.432 80.4801 98.3517 72.8345 97.1765 69.9167C97.7303 69.2818 98.2841 68.4984 98.8245 67.6339C114.98 69.3764 127.597 83.0871 127.597 99.7021C127.597 112.467 120.113 123.584 109.239 128.785Z" fill="white"></path><path d="M88.2746 86.2345C89.774 84.5055 88.9905 81.277 86.2213 80.7232C86.9373 79.0752 87.9504 75.7657 87.9504 75.7657C87.9504 75.7657 79.9131 88.3688 79.2106 88.6119C78.4947 88.8551 77.7923 86.0859 77.7923 86.0859C76.2929 91.8404 80.3183 92.6238 80.7911 90.8138C82.9929 90.2464 86.7752 87.8825 88.2746 86.2345Z" fill="white"></path><path d="M81.4126 89.3009L85.5056 82.2902C85.5056 82.2902 87.8695 83.4789 86.6808 85.37C85.1949 87.5718 81.4126 89.3009 81.4126 89.3009Z" fill="#2C4260"></path><path d="M132.082 121.774C130.893 123.355 129.556 125.003 127.989 126.583C138.147 107.037 128.462 89.1522 128.07 88.4498C128.786 89.1658 129.488 89.9492 130.123 90.6516C137.917 99.3103 138.863 112.319 132.082 121.774Z" fill="#2C4260"></path><path d="M141.537 96.6357C137.985 87.099 132.946 78.9806 121.842 71.6593C111.131 64.5675 99.6217 65.1213 98.9868 65.2024C98.9058 65.2024 98.8247 65.2024 98.8247 65.2024C99.2164 65.0403 99.6082 64.9592 99.9999 64.8917C102.445 64.1082 105.592 63.4734 108.753 63.0816C117.115 61.8794 125.544 64.7161 131.298 70.7947C131.379 70.8758 131.379 70.8758 131.46 70.9568C137.998 77.8865 141.389 86.5452 141.537 96.6357Z" fill="#2C4260"></path><path d="M119.317 57.6243C107.578 55.4225 100.013 56.5167 94.5697 58.5699C94.4076 57.935 93.8538 56.6788 93.381 55.6521C91.7465 57.6243 90.004 59.9882 88.9098 61.4876C85.911 63.5409 84.6548 65.5131 84.6548 65.5131C86.3838 59.5965 91.4358 55.1929 97.582 54.0852C99.3111 53.7745 101.202 53.6124 103.255 53.6124C108.686 53.6935 114.116 55.0308 119.317 57.6243Z" fill="#2C4260"></path><path d="M75.901 72.7534C66.6885 72.4427 69.7548 61.7173 69.9169 61.0959C69.9169 61.177 70.5383 69.525 75.901 72.7534Z" fill="#2C4260"></path><path d="M84.9655 53.4504C77.8738 57.7054 79.2921 67.8635 79.2921 67.8635C72.5111 57.5568 84.4117 53.6935 84.9655 53.4504Z" fill="#2C4260"></path><path d="M73.3076 75.5902C73.7804 75.9819 74.2532 76.6978 73.6994 77.7244C73.3887 78.2783 72.9159 78.1972 72.2 77.8865C71.2544 77.4138 65.581 74.1043 60.4614 70.7137C66.2969 72.767 72.2 74.9688 73.1455 75.4416C73.1455 75.4416 73.2266 75.5226 73.3076 75.5902Z" fill="#2C4260"></path><defs><linearGradient id="1inch_icon_fcb8a7f2-fe9c-42a2-a451-55bc5dc186d8" x1="96.5" y1="0" x2="96.5" y2="193" gradientUnits="userSpaceOnUse"><stop stop-color="#394F6D"></stop><stop offset="1" stop-color="#1B314F"></stop></linearGradient></defs></svg>