<svg width="194" height="193" viewBox="0 0 194 193" fill="none" xmlns="http://www.w3.org/2000/svg" data-reactroot=""><path d="M97.5 193C150.795 193 194 149.795 194 96.5C194 43.2045 150.795 0 97.5 0C44.2045 0 1 43.2045 1 96.5C1 149.795 44.2045 193 97.5 193Z" fill="url(#1_crv_aethc_icon_b81a37e5-d25f-4798-8863-89dc4e53a713)"></path><path fill-rule="evenodd" clip-rule="evenodd" d="M77.2177 148.008C59.0775 148.008 51.0676 119.058 51.0676 92.6451C50.5964 79.5308 55.5908 52.6895 79.338 50.2394C109.022 47.1768 139.913 74.2693 146.245 87.2266C152.576 100.184 152.134 111.021 134.465 116.911C120.33 121.622 101.794 126.099 94.2934 127.748C92.6185 140.004 88.3085 148.008 77.2177 148.008ZM95.3088 100.097C95.3251 100.126 95.3414 100.155 95.3578 100.184C95.0618 100.184 94.9688 100.124 95.2418 99.9766C95.264 100.017 95.2864 100.057 95.3088 100.097ZM95.2418 99.9766C88.6197 88.0796 89.9805 80.3907 102.16 80.3908C114.411 80.3908 146.009 87.9334 118.681 94.0587C101.666 97.8724 96.1998 99.46 95.2418 99.9766ZM78.4365 141.465C86.3512 139.905 90.8504 128.913 88.4859 116.914C86.1213 104.914 77.7883 96.4506 69.8736 98.0103C61.9589 99.5699 57.4596 110.562 59.8242 122.562C62.1888 134.561 70.5218 143.025 78.4365 141.465Z" fill="white"></path><circle cx="44.5" cy="44.5" r="43" transform="rotate(-180 44.5 44.5)" fill="url(#2_crv_aethc_icon_b81a37e5-d25f-4798-8863-89dc4e53a713)" stroke="white" stroke-width="3"></circle><path opacity="0.9" fill-rule="evenodd" clip-rule="evenodd" d="M29.3839 29.8995C29.3839 36.0532 29.3768 36.75 29.3132 36.8209C29.2504 36.8907 28.9431 36.8997 26.611 36.8997H23.9795V39.3572V41.8147H26.611C28.9431 41.8147 29.2504 41.8237 29.3132 41.8935C29.3755 41.963 29.3839 42.2619 29.3839 44.4226C29.3839 46.5833 29.3755 46.8823 29.3132 46.9518C29.2504 47.0216 28.9431 47.0306 26.611 47.0306H23.9795V49.4881V51.9455H26.611C28.9431 51.9455 29.2504 51.9545 29.3132 52.0243C29.3768 52.0952 29.3839 52.7829 29.3839 58.8454V65.5876L37.3442 65.566C45.762 65.543 46.6577 65.52 48.0743 65.2905C48.2353 65.2644 48.519 65.2197 48.7048 65.1911C49.1175 65.1277 49.1708 65.1158 49.8757 64.9308C50.1854 64.8496 50.54 64.7582 50.6639 64.7278C51.1535 64.6073 52.6269 64.0691 53.276 63.7734C54.2364 63.336 55.5997 62.5702 56.2485 62.1038C56.3971 61.9969 56.6606 61.8079 56.834 61.6836C57.1348 61.468 58.3002 60.5079 58.4358 60.364C58.4713 60.3263 58.6113 60.1941 58.7469 60.0701C59.0669 59.7775 60.1985 58.5171 60.4588 58.1633C60.5699 58.0122 60.672 57.8773 60.6856 57.8636C60.6992 57.8498 60.8318 57.6692 60.9802 57.4623C61.5972 56.6022 62.3661 55.3212 62.6659 54.6538C62.7216 54.5297 62.8344 54.304 62.9165 54.1523C62.9986 54.0005 63.1702 53.6056 63.2978 53.2746C63.6919 52.2527 63.7653 52.0875 63.8578 52.0153C63.9314 51.9579 64.3558 51.9454 66.2455 51.9448C67.5094 51.9445 68.5897 51.9304 68.6461 51.9136L68.7486 51.883L68.7274 50.2216C68.6992 48.0119 68.6546 47.1417 68.5661 47.0795C68.5267 47.0519 67.7718 47.0318 66.7565 47.0313C65.1988 47.0307 65.0067 47.0218 64.9403 46.9479C64.8912 46.8931 64.877 46.8296 64.8984 46.7598C64.9911 46.4577 65.0382 44.2709 64.9846 42.7519C64.9642 42.1713 64.9711 41.9397 65.0105 41.8868C65.0555 41.8264 65.3437 41.8147 66.7894 41.8147C68.2977 41.8147 68.5235 41.8048 68.5854 41.7359C68.6476 41.6665 68.6562 41.3811 68.6562 39.3572C68.6562 37.3333 68.6476 37.0479 68.5854 36.9785C68.5229 36.909 68.25 36.8997 66.2639 36.8997H64.0132L63.9027 36.7766C63.8419 36.7089 63.7922 36.618 63.7922 36.5746C63.7922 36.5311 63.7314 36.3615 63.657 36.1976C63.5827 36.0336 63.5217 35.8707 63.5214 35.8354C63.5204 35.7286 62.587 33.6931 62.342 33.2636C61.6372 32.0278 61.057 31.1535 60.4472 30.4082C59.4836 29.2306 59.502 29.252 59.2884 29.0588C59.2017 28.9804 58.999 28.7835 58.8378 28.6213C58.1465 27.9253 57.1 27.0815 56.0908 26.4061C55.5365 26.0351 54.0454 25.1799 53.7152 25.0437C53.559 24.9792 53.4541 24.933 52.8594 24.6671C52.0463 24.3036 49.9615 23.6578 49.2002 23.5338C49.0887 23.5156 48.8861 23.4798 48.7498 23.4543C48.1093 23.3344 47.111 23.2149 46.2277 23.1525C45.7779 23.1207 42.3075 23.0915 37.4343 23.0785L29.3839 23.057V29.8995ZM46.6781 27.5621C47.6202 27.6905 47.8364 27.7211 47.9842 27.747C48.9858 27.9227 50.8138 28.4936 51.5226 28.852C53.2216 29.7111 54.137 30.3053 55.1451 31.2037C55.3308 31.3692 55.493 31.5171 55.5054 31.5323C55.5177 31.5474 55.6389 31.6611 55.7747 31.7848C56.0893 32.0716 56.5955 32.6349 56.8565 32.9886C56.9679 33.1397 57.1046 33.315 57.1601 33.3781C57.4241 33.6786 58.1786 34.8586 58.578 35.5957C59.0287 36.4278 59.1503 36.8017 58.992 36.8693C58.9529 36.886 53.2594 36.8997 46.3399 36.8997C34.9627 36.8997 33.7522 36.8922 33.6882 36.8209C33.6249 36.7504 33.6174 36.261 33.6174 32.1854C33.6174 28.0971 33.6247 27.6205 33.6886 27.5493C33.7531 27.4775 34.3571 27.4719 40.0276 27.49C43.9753 27.5026 46.437 27.5293 46.6781 27.5621ZM60.3589 41.8566C60.5143 41.9664 60.6041 42.9043 60.6048 44.4226C60.6054 45.803 60.5032 46.8869 60.3631 46.9857C60.3291 47.0098 54.3938 47.0294 47.0304 47.0298C35.0249 47.0305 33.7522 47.023 33.6882 46.9518C33.6258 46.8823 33.6174 46.5833 33.6174 44.4226C33.6174 42.2619 33.6258 41.963 33.6882 41.8935C33.7522 41.8222 35.0249 41.8147 47.0304 41.8154C54.3297 41.8159 60.3275 41.8344 60.3589 41.8566ZM59.0204 52.0237C59.093 52.1211 59.0212 52.2952 58.5383 53.1925C58.1952 53.83 57.7943 54.4592 57.2877 55.155C56.9317 55.6441 55.7563 56.9519 55.3249 57.3389C54.338 58.2244 53.2074 58.9777 51.7935 59.692C51.3696 59.9062 50.0023 60.3946 49.2903 60.5862C48.2313 60.8711 48.2345 60.8705 46.6781 61.0825C46.437 61.1153 43.9753 61.142 40.0276 61.1546C34.3571 61.1728 33.7531 61.1671 33.6886 61.0954C33.6247 61.0242 33.6174 60.5564 33.6174 56.5596C33.6174 52.5752 33.6249 52.0948 33.6882 52.0243C33.7522 51.9531 34.9646 51.9455 46.3606 51.9455C57.7169 51.9455 58.9679 51.9533 59.0204 52.0237Z" fill="white"></path><circle cx="149.5" cy="44.5" r="43" fill="url(#3_crv_aethc_icon_b81a37e5-d25f-4798-8863-89dc4e53a713)" stroke="white" stroke-width="3"></circle><path fill-rule="evenodd" clip-rule="evenodd" d="M143.889 24.07C143.889 23.1293 143.845 22.9844 143.428 22.5683C142.808 21.9479 142.748 21.9559 139.982 23.0241C137.941 23.8126 134.815 25.9779 132.779 28.0133C130.757 30.0361 128.569 33.1884 127.808 35.1767C127.641 35.614 127.372 36.3153 127.212 36.7348C126.952 37.4132 126.442 39.3028 126.164 40.6196C126.038 41.2196 125.751 44.2237 125.751 44.9522C125.751 45.7843 126.047 48.707 126.222 49.5998C126.5 51.0212 127.654 54.2618 128.376 55.6465C130.668 60.0451 135.168 64.4033 139.403 66.3263C142.162 67.5793 142.783 67.711 143.436 67.1818C143.758 66.9217 143.814 66.7164 143.863 65.6296C143.919 64.4056 143.908 64.3637 143.407 63.7923C142.904 63.2196 141.603 62.4399 141.15 62.4399C141.025 62.4399 140.078 61.8819 139.045 61.1999C135.891 59.1154 133.832 56.8051 132.157 53.4695C130.649 50.4679 130.124 48.2252 130.124 44.7946C130.124 41.3339 130.646 39.1303 132.198 36.0362C134.203 32.0412 137.076 29.2595 141.348 27.1778C143.764 26.0005 143.889 25.8477 143.889 24.07ZM164.087 26.003C161.951 24.353 160 23.2946 157.453 22.4052C156.334 22.0145 156.237 22.0243 155.676 22.5848C155.214 23.0476 155.201 23.0988 155.256 24.3018C155.299 25.2661 155.382 25.6194 155.627 25.8907C155.8 26.0827 156.828 26.6845 157.913 27.2284C162.214 29.3854 164.915 32.0383 166.965 36.1197C168.472 39.1213 168.998 41.364 168.998 44.7946C168.998 47.9665 168.792 48.9514 167.289 52.9803C165.946 56.5823 161.012 61.3943 157.26 62.7616C155.61 63.363 155.238 63.8624 155.235 65.4848C155.233 66.4651 155.273 66.6012 155.693 67.0209C156.393 67.7214 156.802 67.651 159.719 66.3263C163.198 64.7461 167.145 61.3012 169.389 57.8848C170.848 55.6645 171.998 53.236 172.492 51.3328C173.488 47.5007 173.623 43.7318 172.898 39.9894C172.625 38.5764 171.469 35.3314 170.746 33.9428C169.273 31.1164 166.636 27.9717 164.087 26.003ZM151.762 31.2385C151.693 29.9321 151.625 29.6167 151.354 29.3452C151.09 29.0815 150.806 29.014 149.861 28.9903C147.65 28.935 147.456 29.0909 147.389 30.9859C147.347 32.1461 147.337 32.6115 147.101 32.8707C146.935 33.0523 146.658 33.1326 146.181 33.2798C145.624 33.4518 144.891 33.7342 144.551 33.9073C143.651 34.3666 142.066 36.04 141.565 37.0586C141.169 37.8663 141.132 38.0952 141.132 39.7531C141.132 41.4034 141.17 41.6423 141.558 42.4325C142.373 44.0918 144.192 45.4313 146.252 45.8896C146.729 45.9956 147.375 46.147 147.688 46.2263C148.002 46.3053 148.444 46.3701 148.671 46.3701C149.114 46.3701 150.074 46.5752 151.436 46.9611C152.792 47.3453 153.972 48.5892 153.972 49.6335C153.972 50.1369 153.459 51.632 153.165 51.9868C152.71 52.5343 150.606 53.3022 149.561 53.3022C149.024 53.3022 147.668 52.9649 146.88 52.6354C146.141 52.3266 145.361 51.4113 145.142 50.5961C145.044 50.2319 144.729 49.6992 144.442 49.4123C143.937 48.9071 143.88 48.8909 142.632 48.8909C141.418 48.8909 141.317 48.9175 140.883 49.3514C140.63 49.6047 140.423 49.9119 140.423 50.0343C140.423 50.4394 141.073 52.2677 141.444 52.9083C142.335 54.443 144.199 55.8496 145.952 56.3099C146.578 56.4744 147.132 56.6505 147.183 56.7013C147.234 56.7522 147.313 57.497 147.359 58.3568C147.435 59.7975 147.476 59.9538 147.875 60.3529C148.274 60.7524 148.404 60.7857 149.561 60.7857C150.72 60.7857 150.847 60.7529 151.25 60.3499C151.645 59.9549 151.69 59.7928 151.732 58.6169C151.774 57.4562 151.782 56.9866 152.019 56.7237C152.19 56.5341 152.481 56.452 152.989 56.2957C154.263 55.9038 155.376 55.1945 156.488 54.0644C157.822 52.7093 158.38 51.3229 158.38 49.3635C158.38 46.7159 157.317 44.9668 154.964 43.74C154.054 43.2658 153.482 43.0926 151.688 42.7482C151.168 42.6484 150.486 42.5009 150.173 42.4204C149.859 42.3397 149.398 42.2739 149.148 42.2739C148.561 42.2739 146.598 41.5627 146.206 41.2085C145.699 40.7494 145.464 40.1241 145.464 39.2329C145.464 37.8249 146.247 36.9458 147.875 36.5239C148.922 36.2524 149.633 36.2251 150.286 36.4315C150.537 36.5111 150.939 36.6192 151.179 36.6719C151.839 36.8164 152.875 37.8414 153.277 38.7472C153.473 39.1905 153.751 39.5981 153.895 39.6531C154.038 39.708 154.752 39.7531 155.482 39.7531C156.598 39.7531 156.858 39.7032 157.123 39.438C157.596 38.9652 157.525 38.1124 156.907 36.8341C156.111 35.1864 154.698 33.9497 152.948 33.3674C152.515 33.2232 152.089 33.038 152.003 32.9556C151.916 32.8733 151.808 32.1006 151.762 31.2385Z" fill="white"></path><circle cx="97.5" cy="44.5" r="43" fill="url(#4_crv_aethc_icon_b81a37e5-d25f-4798-8863-89dc4e53a713)" stroke="white" stroke-width="3"></circle><path d="M101.866 40.0348V34.221H115.177V25.3627H78.9316V34.221H92.2439V40.0301C81.4249 40.5264 73.29 42.6665 73.29 45.2303C73.29 47.7941 81.4288 49.9342 92.2439 50.4337V69.0562H101.87V50.4321C112.669 49.9342 120.787 47.7957 120.787 45.2342C120.787 42.6728 112.669 40.5342 101.87 40.0363L101.866 40.0348ZM101.87 48.8548V48.8501C101.598 48.8673 100.203 48.9509 97.0959 48.9509C94.612 48.9509 92.8645 48.8806 92.2486 48.8485V48.8563C82.6903 48.4335 75.5556 46.7709 75.5556 44.7817C75.5556 42.7924 82.6911 41.1322 92.2486 40.7085V47.2C92.8747 47.243 94.6652 47.3486 97.1366 47.3486C100.105 47.3486 101.597 47.2251 101.871 47.2V40.7085C111.411 41.133 118.529 42.7971 118.529 44.7793C118.529 46.7615 111.408 48.4264 101.871 48.8509" fill="white"></path><defs><linearGradient id="1_crv_aethc_icon_b81a37e5-d25f-4798-8863-89dc4e53a713" x1="97.5" y1="0" x2="97.5" y2="193" gradientUnits="userSpaceOnUse"><stop stop-color="#3465A4"></stop><stop offset="1" stop-color="#164786"></stop></linearGradient><linearGradient id="2_crv_aethc_icon_b81a37e5-d25f-4798-8863-89dc4e53a713" x1="89" y1="1.13589" x2="89" y2="89" gradientUnits="userSpaceOnUse"><stop stop-color="#FBB82D"></stop><stop offset="1" stop-color="#FBCF6D"></stop></linearGradient><linearGradient id="3_crv_aethc_icon_b81a37e5-d25f-4798-8863-89dc4e53a713" x1="194" y1="1.13589" x2="194" y2="89" gradientUnits="userSpaceOnUse"><stop stop-color="#368CD1"></stop><stop offset="1" stop-color="#294C73"></stop></linearGradient><linearGradient id="4_crv_aethc_icon_b81a37e5-d25f-4798-8863-89dc4e53a713" x1="97.5" y1="0" x2="97.5" y2="89" gradientUnits="userSpaceOnUse"><stop stop-color="#53AE94"></stop><stop offset="1" stop-color="#3F9A80"></stop></linearGradient></defs></svg>