<svg width="193" height="193" viewBox="0 0 193 193" fill="none" xmlns="http://www.w3.org/2000/svg" data-reactroot=""><circle cx="96.5" cy="96.5" r="96.5" fill="url(#aave_icon_eadc0f2f-7ec4-41b5-97e2-97f1d3c72d20)"></circle><path d="M137.09 133.327L105.581 56.874C105.04 55.1899 103.985 53.7176 102.564 52.664C101.143 51.6104 99.4278 51.0285 97.659 51H94.8877C93.1242 51.0347 91.4155 51.6195 90.0005 52.6727C88.5856 53.7258 87.5349 55.1947 86.9954 56.874L73.2894 90.1903H62.8969C61.4026 90.206 59.9744 90.8087 58.9206 91.8682C57.8667 92.9277 57.2717 94.3591 57.2638 95.8534V95.9137C57.2717 97.408 57.8667 98.8394 58.9206 99.8989C59.9744 100.958 61.4026 101.561 62.8969 101.577H68.4697L55.3962 133.327C55.1472 134.023 55.0148 134.756 55.0046 135.496C54.9433 137.057 55.4946 138.582 56.5409 139.743C57.0821 140.297 57.7358 140.73 58.4581 141.01C59.1804 141.291 59.9544 141.413 60.728 141.37C61.8985 141.353 63.035 140.974 63.9813 140.285C64.9663 139.547 65.736 138.559 66.2104 137.423L80.6394 101.577H90.6102C92.1097 101.569 93.5456 100.97 94.6059 99.9094C95.6663 98.849 96.2655 97.4132 96.2734 95.9137V95.763C96.2655 94.2635 95.6663 92.8277 94.6059 91.7673C93.5456 90.707 92.1097 90.1078 90.6102 90.0999H85.2784L96.2734 62.6275L126.246 137.423C126.72 138.559 127.49 139.547 128.475 140.285C129.421 140.974 130.558 141.353 131.728 141.37C132.507 141.418 133.287 141.297 134.015 141.017C134.742 140.736 135.401 140.301 135.946 139.743C136.981 138.577 137.521 137.053 137.452 135.496C137.49 134.755 137.366 134.015 137.09 133.327Z" fill="white"></path><defs><linearGradient id="aave_icon_eadc0f2f-7ec4-41b5-97e2-97f1d3c72d20" x1="96.5" y1="0" x2="96.5" y2="193" gradientUnits="userSpaceOnUse"><stop stop-color="#2E8997"></stop><stop offset="1" stop-color="#3B698E"></stop></linearGradient></defs></svg>