<svg width="192" height="192" viewBox="0 0 192 192" fill="none" xmlns="http://www.w3.org/2000/svg">
    <path
        d="M0 96C0 42.9807 42.9807 0 96 0C149.019 0 192 42.9807 192 96C192 149.019 149.019 192 96 192C42.9807 192 0 149.019 0 96Z"
        fill="url(#paint0_linear_19_670)" />
    <path fill-rule="evenodd" clip-rule="evenodd"
        d="M36 97.1432C35.9913 63.379 62.8598 35.9995 96 35.9995C129.137 35.9995 156.006 63.379 156 97.1432H140.672C140.672 71.8395 120.83 51.3244 96 51.3244C71.1702 51.3244 51.3282 71.8395 51.3282 97.1432H36ZM80.0697 98.5901C86.8103 98.5901 92.2749 93.1256 92.2749 86.3848C92.2749 79.6444 86.8103 74.18 80.0697 74.18C73.3288 74.18 67.8643 79.6444 67.8643 86.3848C67.8643 93.1256 73.3288 98.5901 80.0697 98.5901ZM111.971 98.5901C118.712 98.5901 124.177 93.1256 124.177 86.3848C124.177 79.6444 118.712 74.18 111.971 74.18C105.231 74.18 99.766 79.6444 99.766 86.3848C99.766 93.1256 105.231 98.5901 111.971 98.5901Z"
        fill="white" />
    <defs>
        <linearGradient id="paint0_linear_19_670" x1="96" y1="0" x2="96.6167" y2="191.998"
            gradientUnits="userSpaceOnUse">
            <stop stop-color="#9391F7" />
            <stop offset="1" stop-color="#6562F4" />
        </linearGradient>
    </defs>
</svg>
    