<svg width="193" height="193" viewBox="0 0 193 193" fill="none" xmlns="http://www.w3.org/2000/svg" data-reactroot=""><circle cx="96.5" cy="96.5" r="96.5" transform="rotate(-180 96.5 96.5)" fill="url(#dai_icon_666ee147-759b-470f-9e03-6111c1686135)" fill-opacity="0.9"></circle><path opacity="0.9" fill-rule="evenodd" clip-rule="evenodd" d="M63.7197 64.8383C63.7197 78.1827 63.7043 79.6938 63.5663 79.8476C63.4303 79.999 62.7638 80.0185 57.7064 80.0185H52V85.3476V90.6768H57.7064C62.7638 90.6768 63.4303 90.6962 63.5663 90.8476C63.7016 90.9984 63.7197 91.6467 63.7197 96.3322C63.7197 101.018 63.7016 101.666 63.5663 101.817C63.4303 101.968 62.7638 101.988 57.7064 101.988H52V107.317V112.646H57.7064C62.7638 112.646 63.4303 112.665 63.5663 112.817C63.7043 112.97 63.7197 114.462 63.7197 127.609V142.229L80.9819 142.182C99.2362 142.133 101.179 142.083 104.25 141.585C104.6 141.528 105.215 141.431 105.618 141.369C106.513 141.232 106.628 141.206 108.157 140.805C108.828 140.629 109.598 140.431 109.866 140.365C110.928 140.104 114.123 138.936 115.531 138.295C117.613 137.347 120.57 135.686 121.977 134.675C122.299 134.443 122.87 134.033 123.246 133.763C123.898 133.296 126.426 131.214 126.72 130.902C126.797 130.82 127.1 130.533 127.395 130.264C128.088 129.63 130.542 126.897 131.107 126.129C131.348 125.802 131.569 125.509 131.599 125.479C131.628 125.449 131.916 125.058 132.237 124.609C133.576 122.744 135.243 119.966 135.893 118.519C136.014 118.25 136.258 117.76 136.436 117.431C136.614 117.102 136.987 116.246 137.263 115.528C138.118 113.312 138.277 112.954 138.478 112.797C138.637 112.673 139.558 112.646 143.655 112.644C146.396 112.644 148.739 112.613 148.861 112.577L149.083 112.51L149.038 108.908C148.977 104.116 148.88 102.229 148.688 102.094C148.602 102.034 146.965 101.99 144.764 101.989C141.386 101.988 140.969 101.969 140.825 101.808C140.719 101.69 140.688 101.552 140.734 101.4C140.935 100.745 141.037 96.0032 140.921 92.7092C140.877 91.4501 140.892 90.9478 140.977 90.8332C141.075 90.7021 141.7 90.6768 144.835 90.6768C148.106 90.6768 148.595 90.6552 148.73 90.5059C148.865 90.3555 148.883 89.7365 148.883 85.3476C148.883 80.9587 148.865 80.3397 148.73 80.1893C148.594 80.0386 148.002 80.0185 143.695 80.0185H138.815L138.575 79.7515C138.443 79.6046 138.335 79.4076 138.335 79.3134C138.335 79.2192 138.203 78.8514 138.042 78.4958C137.881 78.1403 137.749 77.787 137.748 77.7105C137.746 77.4788 135.722 73.0649 135.191 72.1335C133.662 69.4536 132.404 67.5575 131.082 65.9414C128.992 63.3876 129.032 63.434 128.569 63.0151C128.381 62.8451 127.941 62.4182 127.592 62.0664C126.092 60.557 123.823 58.7272 121.635 57.2627C120.433 56.4582 117.199 54.6036 116.483 54.3081C116.144 54.1683 115.917 54.0681 114.627 53.4916C112.864 52.7032 108.343 51.3029 106.692 51.0339C106.45 50.9944 106.011 50.9169 105.715 50.8616C104.326 50.6015 102.162 50.3425 100.246 50.2071C99.2707 50.1381 91.745 50.0747 81.1772 50.0465L63.7197 50V64.8383ZM101.223 59.7695C103.266 60.0478 103.735 60.1142 104.055 60.1704C106.227 60.5515 110.191 61.7895 111.728 62.5666C115.413 64.4296 117.398 65.7183 119.584 67.6664C119.987 68.0254 120.338 68.346 120.365 68.3789C120.392 68.4118 120.655 68.6582 120.949 68.9266C121.631 69.5485 122.729 70.77 123.295 71.5371C123.537 71.8647 123.833 72.2449 123.953 72.3818C124.526 73.0334 126.162 75.5923 127.028 77.1907C128.006 78.9952 128.269 79.8058 127.926 79.9524C127.841 79.9888 115.495 80.0185 100.489 80.0185C75.8175 80.0185 73.1924 80.0021 73.0536 79.8476C72.9164 79.6947 72.9002 78.6333 72.9002 69.7952C72.9002 60.9297 72.9161 59.896 73.0547 59.7417C73.1944 59.5861 74.5042 59.5738 86.801 59.6131C95.3616 59.6404 100.7 59.6984 101.223 59.7695ZM130.89 90.7677C131.227 91.0058 131.422 93.0396 131.423 96.3322C131.425 99.3256 131.203 101.676 130.899 101.89C130.826 101.942 117.955 101.985 101.987 101.986C75.9524 101.987 73.1925 101.971 73.0536 101.817C72.9183 101.666 72.9002 101.018 72.9002 96.3322C72.9002 91.6467 72.9183 90.9984 73.0536 90.8476C73.1925 90.6931 75.9524 90.6769 101.987 90.6784C117.816 90.6794 130.822 90.7195 130.89 90.7677ZM127.988 112.815C128.145 113.027 127.989 113.404 126.942 115.35C126.198 116.732 125.329 118.097 124.23 119.606C123.458 120.666 120.909 123.502 119.974 124.342C117.834 126.262 115.382 127.895 112.316 129.444C111.397 129.909 108.432 130.968 106.887 131.383C104.591 132.001 104.598 132 101.223 132.46C100.7 132.531 95.3616 132.589 86.801 132.616C74.5042 132.656 73.1944 132.643 73.0547 132.488C72.9161 132.333 72.9002 131.319 72.9002 122.652C72.9002 114.011 72.9164 112.97 73.0536 112.817C73.1925 112.662 75.8216 112.646 100.534 112.646C125.161 112.646 127.874 112.663 127.988 112.815Z" fill="white"></path><defs><linearGradient id="dai_icon_666ee147-759b-470f-9e03-6111c1686135" x1="193" y1="2.46321" x2="193" y2="193" gradientUnits="userSpaceOnUse"><stop stop-color="#FBB82D"></stop><stop offset="1" stop-color="#FBCF6D"></stop></linearGradient></defs></svg>