<svg width="193" height="193" viewBox="0 0 193 193" fill="none" xmlns="http://www.w3.org/2000/svg" data-reactroot=""><circle cx="96.5" cy="96.5" r="96.5" fill="url(#alusd_icon_96f67a30-1887-481e-b46e-5d0f5ddf4547)"></circle><path fill-rule="evenodd" clip-rule="evenodd" d="M97 149C125.719 149 149 125.719 149 97C149 68.2812 125.719 45 97 45C68.2812 45 45 68.2812 45 97C45 125.719 68.2812 149 97 149ZM51.9955 76.9324C58.88 60.4195 74.423 49.0709 92.5669 47.3098C94.0416 47.1665 95.4288 47.0297 95.6491 47.0055C96.3268 46.9313 96.1058 47.5945 94.6555 49.9865C93.8886 51.2516 87.6824 61.4771 80.864 72.7099C74.0458 83.943 68.467 93.3914 68.467 93.7067C68.467 94.0965 70.1589 95.3587 73.7524 97.6491C76.6592 99.5019 79.0387 101.091 79.04 101.179C79.0413 101.268 76.6627 102.34 73.7546 103.561C69.494 105.35 68.467 105.902 68.467 106.407C68.467 106.751 71.5964 111.416 75.4215 116.773C93.4441 142.015 96.093 145.78 95.9394 145.934C95.8489 146.026 94.2129 145.933 92.3042 145.728C80.2896 144.439 70.6952 139.858 62.1983 131.354C53.2281 122.377 48.5018 111.436 48.0473 98.5976C47.7542 90.3178 48.794 84.6113 51.9955 76.9324ZM111.94 70.5396C104.435 57.8874 98.2951 47.4244 98.2951 47.2882C98.2951 46.7699 105.407 47.711 109.421 48.7605C119.213 51.3206 128.358 57.2307 134.851 65.1956C145.408 78.1462 148.754 95.7989 143.658 111.668C142.723 114.58 140.14 120.214 138.627 122.641C133.115 131.482 123.95 139.075 114.284 142.806C109.13 144.795 98.2951 146.76 98.2951 145.705C98.2951 145.522 104.453 136.645 111.979 125.978C122.13 111.59 125.587 106.462 125.369 106.117C125.208 105.861 122.803 104.7 120.025 103.536C117.247 102.373 114.973 101.309 114.973 101.174C114.973 101.039 117.294 99.4406 120.131 97.6226C122.968 95.8047 125.356 94.1433 125.437 93.9303C125.518 93.7173 119.444 83.1917 111.94 70.5396ZM84.0854 71.6885C77.7718 82.0934 72.6629 90.6637 72.7325 90.7334C72.8021 90.8035 75.6595 89.6203 79.082 88.1042L95.7293 80.7328L95.7299 77.1596C95.7302 75.1942 95.8255 68.903 95.9419 63.1785C96.0693 56.916 96.0362 52.7706 95.8592 52.7706C95.6972 52.7706 90.3987 61.2838 84.0854 71.6885ZM98.0309 76.4909C97.9734 74.1834 98.026 67.9026 98.1479 62.5331C98.2695 57.1636 98.4613 52.7706 98.5742 52.7706L98.584 52.7705L98.5958 52.7704C98.8111 52.773 99.0221 53.1286 110.786 72.9521L111.327 73.8633C120.005 88.4866 121.347 90.8522 120.968 90.8522C120.914 90.8522 115.755 88.5647 109.502 85.7693L98.1348 80.6864L98.0309 76.4909ZM83.6165 88.5163C77.3953 91.2924 72.354 93.7106 72.4133 93.89C72.5099 94.1808 95.2347 108.925 95.5866 108.925C95.6651 108.925 95.7293 103.188 95.7293 96.1772C95.7293 86.1837 95.6427 83.4337 95.3284 83.4492C95.108 83.4602 89.8374 85.7402 83.6165 88.5163ZM98.1665 108.925C98.061 108.925 97.9744 103.172 97.9744 96.1394C97.9744 83.4582 97.9795 83.3556 98.6242 83.5254C99.7262 83.8152 121.695 93.5834 121.702 93.7864C121.709 93.99 98.4901 108.925 98.1665 108.925ZM76.8311 104.659C74.4634 105.679 72.4829 106.657 72.43 106.832C72.3771 107.007 74.314 108.48 76.7349 110.107C79.1554 111.733 84.723 115.488 89.1074 118.451L97.0789 123.838L102.418 120.179C105.354 118.167 110.838 114.412 114.604 111.835C118.37 109.258 121.446 107.019 121.44 106.859C121.43 106.594 112.904 102.794 112.317 102.793C112.179 102.793 108.776 104.899 104.753 107.473C100.731 110.046 97.1905 112.152 96.8862 112.152C96.5815 112.152 93.1358 110.098 89.2293 107.586C85.3228 105.075 81.9035 102.972 81.6312 102.912C81.3589 102.853 79.1987 103.639 76.8311 104.659ZM95.7501 141.143C95.3476 140.999 74.8817 112.269 74.8817 111.848C74.8817 111.511 95.3739 125.224 95.8047 125.849C96.1591 126.363 96.1061 141.271 95.7501 141.143ZM108.707 118.579L98.4555 125.621L98.3695 133.248C98.3221 137.442 98.3942 140.873 98.5299 140.87C98.739 140.866 105.37 131.574 116.537 115.636C118.014 113.528 119.164 111.743 119.091 111.67C119.019 111.597 114.346 114.706 108.707 118.579Z" fill="white"></path><defs><linearGradient id="alusd_icon_96f67a30-1887-481e-b46e-5d0f5ddf4547" x1="96.5" y1="0" x2="96.5" y2="193" gradientUnits="userSpaceOnUse"><stop stop-color="#F6C29E"></stop><stop offset="1" stop-color="#A57351"></stop></linearGradient></defs></svg>