<svg width="193" height="193" viewBox="0 0 193 193" fill="none" xmlns="http://www.w3.org/2000/svg" data-reactroot=""><circle cx="96.5" cy="96.5" r="96.5" fill="url(#alusd_icon_c74fd98d-097f-4e70-8578-e6edbe5944e1)"></circle><path fill-rule="evenodd" clip-rule="evenodd" d="M104.757 52.483C119.236 55.1539 131.136 64.0648 137.426 76.9445C141.676 85.6466 142.96 94.6954 141.297 104.226C138.907 117.923 129.843 129.976 117.208 136.258C109.91 139.887 102.094 141.439 93.8727 140.894C82.8971 140.165 72.4315 135.354 64.7518 127.507C48.5776 110.981 47.6825 85.0994 62.6798 67.5972C69.7756 59.3164 79.4224 54.0017 90.4782 52.2822C93.4114 51.826 101.838 51.9444 104.757 52.483ZM92.0774 54.1115C89.1154 54.5567 86.8077 55.0314 84.9291 55.5821C67.6612 60.6438 55.4406 75.6868 54.1628 93.4531C52.6951 113.862 66.0716 132.334 86.1397 137.611C88.8611 138.327 92.4062 138.864 94.4191 138.865L95.9613 138.867V135.179V131.492L89.5488 126.462L83.1363 121.433H74.9729C66.3674 121.433 66.2612 121.421 66.2612 120.398C66.2612 119.972 70.0662 113.086 70.6248 112.502C71.053 112.054 70.7647 111.713 68.4316 109.908L66.0328 108.052V96.5332V85.0143L70.3052 81.6585C79.3427 74.5606 81.7221 72.6943 88.7277 67.209L95.9567 61.5488L95.959 57.7565L95.9613 53.9642L94.3049 53.9949C93.3938 54.0119 92.3915 54.0645 92.0774 54.1115ZM98.0179 57.7218L98.0183 61.5488L107.899 69.2903C113.333 73.5481 120.067 78.8277 122.863 81.0229L127.946 85.0143V96.5332V108.052L125.547 109.908C124.228 110.929 123.148 111.843 123.148 111.94C123.148 112.037 124.128 113.779 125.325 115.813C126.523 117.846 127.566 119.754 127.643 120.053C127.973 121.323 128.05 121.31 119.009 121.433L110.692 121.547L105.669 125.49C102.905 127.659 100.054 129.892 99.3311 130.451L98.0174 131.468V135.167V138.867L99.5595 138.865C101.448 138.864 104.903 138.363 107.424 137.725C119.832 134.585 130.012 126.368 135.601 114.981C140.073 105.869 141.119 95.6948 138.595 85.857C135.759 74.8036 128.31 65.1828 118.065 59.3422C112.936 56.4182 106.217 54.395 100.473 54.0448L98.0174 53.8949L98.0179 57.7218ZM95.5043 64.4774C94.8132 65.0282 90.8551 68.1411 86.7085 71.3945C68.0295 86.051 68.7254 85.4841 69.0446 85.7856C69.21 85.9419 71.899 88.0737 75.0202 90.5228C79.9214 94.3685 80.7311 94.9261 80.9602 94.6135C81.106 94.4142 82.331 92.344 83.6821 90.0129C95.4086 69.7814 96.2843 68.3433 96.9206 68.2706C97.6797 68.1836 96.8667 66.8997 105.783 82.265C109.721 89.0516 113.016 94.6884 113.105 94.7914C113.238 94.9438 125.204 85.8049 125.204 85.5515C125.204 85.4748 124.304 84.7625 111.73 74.8921C107.774 71.7871 102.891 67.9484 100.878 66.362C98.8648 64.7753 97.115 63.4769 96.9893 63.4764C96.8637 63.476 96.1954 63.9263 95.5043 64.4774ZM96.0179 72.9035C95.5208 73.7562 94.1326 76.135 92.933 78.1897C84.4045 92.7966 82.4829 96.1216 82.49 96.2595C82.4943 96.3453 85.9898 99.1479 90.2577 102.487L98.0174 108.56V113.978V119.396H111.382C121.302 119.396 124.747 119.329 124.747 119.135C124.747 118.903 123.469 116.663 117.659 106.717C116.75 105.16 114.052 100.525 111.662 96.4154C101.352 78.6837 97.2966 71.7577 97.0995 71.5451C97.0017 71.4394 96.5148 72.0507 96.0179 72.9035ZM68.0937 97.4909L68.0985 107.057L71.9204 110.043C74.0225 111.685 80.2145 116.547 85.6805 120.846C91.1464 125.146 95.6956 128.667 95.7899 128.671C95.8843 128.675 95.9613 124.369 95.9613 119.103V109.527L89.8499 104.741C86.4885 102.109 81.1684 97.9349 78.027 95.4659C70.3527 89.4342 68.3916 87.9252 68.2274 87.9252C68.1513 87.9252 68.091 92.2296 68.0937 97.4909ZM120.635 91.7922C117.934 93.9164 115.393 95.9275 114.989 96.2613L114.254 96.8683L117.045 101.626C118.58 104.243 120.326 107.223 120.927 108.249L122.018 110.113L123.951 108.585L125.885 107.057L125.887 97.4909C125.889 92.2296 125.813 87.9263 125.718 87.9277C125.624 87.929 123.337 89.6683 120.635 91.7922ZM70.806 116.152C69.8771 117.738 69.0827 119.117 69.0409 119.216C68.9989 119.315 71.4921 119.396 74.5811 119.396C77.6701 119.396 80.191 119.319 80.1835 119.226C80.1695 119.058 73.0394 113.456 72.6805 113.331C72.5784 113.296 71.7349 114.565 70.806 116.152ZM98.0174 125.075C98.0174 127.36 98.101 128.688 98.242 128.641C98.6226 128.513 107.137 121.784 107.147 121.603C107.152 121.51 105.1 121.433 102.587 121.433H98.0174V125.075Z" fill="white"></path><defs><linearGradient id="alusd_icon_c74fd98d-097f-4e70-8578-e6edbe5944e1" x1="96.5" y1="0" x2="96.5" y2="193" gradientUnits="userSpaceOnUse"><stop stop-color="#F6C29E"></stop><stop offset="1" stop-color="#A57351"></stop></linearGradient></defs></svg>