<svg width="193" height="193" viewBox="0 0 193 193" fill="none" xmlns="http://www.w3.org/2000/svg" data-reactroot=""><path d="M96.5 193C149.795 193 193 149.795 193 96.5C193 43.2045 149.795 0 96.5 0C43.2045 0 0 43.2045 0 96.5C0 149.795 43.2045 193 96.5 193Z" fill="url(#mana_icon_3c6375dc-9ad9-4ac8-ab41-12e80901d441)"></path><path d="M80.3845 72.858L43.876 116.663C41.368 110.25 40 103.296 40 96C40 64.5075 65.5075 39 97 39C128.493 39 154 64.5075 154 96C154 113.414 146.191 129.003 133.879 139.462H60.121C56.9005 136.698 53.965 133.591 51.4 130.2H116.494V105.519L137.043 130.2H142.6L116.465 98.85L109.255 107.514L80.3845 72.858ZM116.465 61.8C108.6 61.8 102.215 68.184 102.215 76.05C102.215 83.916 108.6 90.3 116.465 90.3C124.331 90.3 130.715 83.916 130.715 76.05C130.715 68.184 124.331 61.8 116.465 61.8ZM80.3845 51.483C76.4515 51.483 73.2595 54.675 73.2595 58.608C73.2595 62.541 76.4515 65.733 80.3845 65.733C84.3175 65.733 87.5095 62.541 87.5095 58.608C87.5095 54.675 84.3175 51.483 80.3845 51.483ZM65.8495 143.738H128.151C119.202 149.58 108.486 153 97 153C85.5145 153 74.7985 149.58 65.8495 143.738ZM106.491 110.848L93.922 125.925H48.493C46.6975 122.99 45.13 119.912 43.876 116.663H80.3845V79.527L106.491 110.848Z" fill="white"></path><defs><linearGradient id="mana_icon_3c6375dc-9ad9-4ac8-ab41-12e80901d441" x1="97" y1="193" x2="97" y2="2.21742e-06" gradientUnits="userSpaceOnUse"><stop stop-color="#FF2D55"></stop><stop offset="0.0001" stop-color="#E19A3D"></stop><stop offset="1" stop-color="#FFBC5B"></stop></linearGradient></defs></svg>