<svg width="193" height="193" viewBox="0 0 193 193" fill="none" xmlns="http://www.w3.org/2000/svg" data-reactroot=""><circle cx="96.5" cy="96.5" r="96.5" fill="url(#amp_icon_144b44ad-a075-4995-9738-47ce066daac7)"></circle><path fill-rule="evenodd" clip-rule="evenodd" d="M93.6482 66.6665C93.068 67.1071 92.411 67.9242 91.8869 69.5165C91.3951 71.0105 88.8091 78.621 85.5778 88.1107H107.424C104.193 78.621 101.607 71.0105 101.115 69.5165C100.591 67.9242 99.934 67.1071 99.3537 66.6665C98.7932 66.2408 97.9411 65.8888 96.5009 65.8888C95.0608 65.8888 94.2088 66.2408 93.6482 66.6665ZM61.3889 88.1107H76.2926C79.9728 77.3065 83.0327 68.3063 83.5596 66.7055C84.4984 63.8534 86.0358 61.3371 88.3815 59.5555C90.7469 57.7591 93.5522 57 96.5009 57C99.4497 57 102.255 57.7591 104.62 59.5555C106.966 61.3371 108.504 63.8534 109.442 66.7055C109.969 68.3063 113.029 77.3065 116.709 88.1107H131.611C134.035 88.1107 136 90.1005 136 92.5551C136 95.0097 134.035 96.9995 131.611 96.9995H119.738H110.452H82.5497H73.2638H61.3889C58.9649 96.9995 57 95.0097 57 92.5551C57 90.1005 58.9649 88.1107 61.3889 88.1107ZM61.3889 105.888C58.9649 105.888 57 107.878 57 110.333C57 112.787 58.9649 114.777 61.3889 114.777H67.2015L64.8537 121.659L62.5135 128.516L61.6309 131.102C60.839 133.422 62.054 135.954 64.3449 136.755C66.6358 137.557 69.1351 136.326 69.9271 134.006L70.8098 131.419L73.1501 124.562C74.1225 121.712 75.2611 118.375 76.4882 114.777H116.514C117.741 118.375 118.879 121.712 119.852 124.562L122.192 131.419L123.075 134.006C123.867 136.326 126.366 137.557 128.657 136.755C130.948 135.954 132.164 133.422 131.371 131.102L131.37 131.1L130.489 128.516L128.148 121.659L125.8 114.777H131.611C134.035 114.777 136 112.787 136 110.333C136 107.878 134.035 105.888 131.611 105.888H122.769H113.482H79.5196H70.2333H61.3889ZM127.223 132.555L131.371 131.102C131.371 131.102 131.371 131.102 127.223 132.555ZM127.223 132.555C123.075 134.007 123.075 134.006 123.075 134.006L127.223 132.555ZM65.7787 132.555L69.9271 134.006C69.9269 134.006 69.9269 134.007 65.7787 132.555ZM65.7787 132.555C61.6307 131.102 61.6308 131.102 61.6309 131.102L65.7787 132.555Z" fill="white"></path><defs><linearGradient id="amp_icon_144b44ad-a075-4995-9738-47ce066daac7" x1="96.5" y1="0" x2="96.5" y2="193" gradientUnits="userSpaceOnUse"><stop stop-color="#D9327C"></stop><stop offset="1" stop-color="#74133E"></stop></linearGradient></defs></svg>