<svg width="193" height="193" viewBox="0 0 193 193" fill="none" xmlns="http://www.w3.org/2000/svg" data-reactroot=""><path d="M96.5 193C149.795 193 193 149.795 193 96.5C193 43.2045 149.795 0 96.5 0C43.2045 0 0 43.2045 0 96.5C0 149.795 43.2045 193 96.5 193Z" fill="url(#ampl_icon_2930e8ea-6380-48d0-b088-6c1132059fa6)"></path><path d="M54.0571 136C53.9951 134.805 53.9765 133.61 54.0372 132.416C54.4387 132.299 54.8485 132.213 55.2631 132.157C56.4715 131.949 57.6662 131.67 58.841 131.321C59.1628 131.221 59.484 131.102 59.8058 130.983C61.3539 130.382 62.7183 129.394 63.7657 128.115C64.4853 127.213 65.1179 126.247 65.6551 125.228C66.4127 123.826 67.0905 122.384 67.6852 120.907C68.8913 117.92 70.0973 114.953 71.2817 111.967L83.5835 81.1443C87.4631 71.3661 91.2756 61.5686 95.0209 51.7519L95.2621 51.1549C96.6504 50.7765 97.9954 50.3784 99.4024 50C99.483 50.199 99.563 50.3784 99.6237 50.5578C101.212 54.9397 102.793 59.3269 104.367 63.7195C109.774 78.6736 115.181 93.6075 120.729 108.501C122.257 112.563 123.784 116.645 125.332 120.707C125.937 122.366 126.655 123.983 127.482 125.545C127.844 126.221 128.226 126.859 128.648 127.497C129.934 129.482 131.93 130.912 134.235 131.499C135.478 131.825 136.74 132.071 138.014 132.236L138.919 132.376C138.999 132.755 139.02 133.145 138.981 133.531V134.745C138.994 135.137 138.988 135.529 138.961 135.92C138.841 135.939 138.74 135.959 138.619 135.981H106.82C106.781 135.913 106.754 135.839 106.739 135.762V132.535C106.743 132.487 106.757 132.439 106.779 132.396C107.043 132.322 107.313 132.269 107.586 132.237C108.893 132.063 110.189 131.811 111.465 131.48C111.977 131.337 112.481 131.164 112.972 130.962C113.221 130.859 113.463 130.739 113.696 130.604C114.273 130.312 114.743 129.847 115.039 129.275C115.335 128.703 115.441 128.054 115.344 127.418C115.291 126.785 115.176 126.158 115.002 125.547C114.741 124.591 114.4 123.655 114.078 122.739C107.483 104.519 100.964 86.2723 94.518 67.9986C94.4802 67.7741 94.3752 67.5661 94.2166 67.4015C94.1471 67.4368 94.0799 67.4766 94.0157 67.5207C93.9586 67.6126 93.9179 67.7136 93.8954 67.8192C90.7398 76.7994 87.3846 85.7201 84.0467 94.6205C81.5738 101.214 79.1021 107.825 76.8078 114.475C75.8833 117.143 74.9991 119.831 74.1347 122.522C73.7991 123.549 73.5502 124.601 73.3906 125.668C73.2693 126.385 73.2484 127.116 73.3286 127.839C73.3797 128.305 73.5297 128.755 73.7687 129.16C74.0078 129.565 74.3305 129.915 74.7157 130.188C75.2259 130.549 75.7883 130.831 76.3837 131.024C77.3234 131.358 78.2924 131.605 79.2782 131.761C80.3634 131.96 81.4485 132.12 82.5548 132.279C82.6354 132.299 82.6955 132.299 82.796 132.319L82.858 132.558V135.684C82.8542 135.746 82.8406 135.806 82.8177 135.864C82.7188 135.887 82.6178 135.9 82.5163 135.904H82.094L54.0571 136Z" fill="black"></path><defs><linearGradient id="ampl_icon_2930e8ea-6380-48d0-b088-6c1132059fa6" x1="96.5" y1="0" x2="96.5" y2="193" gradientUnits="userSpaceOnUse"><stop stop-color="white"></stop><stop offset="0.552083" stop-color="white"></stop><stop offset="1" stop-color="#C5C5C5"></stop></linearGradient></defs></svg>