<svg width="192" height="193" viewBox="0 0 192 193" fill="none" xmlns="http://www.w3.org/2000/svg">
    <rect y="0.750488" width="192" height="192" rx="96" fill="url(#paint0_linear_72_1329)"/>
    <path d="M96.3379 114.564L113.258 141.12L128.888 132.062L106.666 97.0361L96.3379 114.564Z" fill="white"/>
    <path d="M143.116 121.411L143.104 114.153L118.823 76.3339L109.815 91.6199L133.255 129.53L141.73 124.619C142.561 123.943 143.064 122.953 143.117 121.884L143.116 121.411Z" fill="white"/>
    <path d="M41.3716 128.252L53.3396 135.149L93.1667 71.2757L86.4074 71.0974C80.6481 71.016 74.4442 72.5133 71.5967 77.1615L48.9803 112.217L41.3716 123.908V128.252Z" fill="white"/>
    <path d="M116.156 71.2817L98.3411 71.3464L58.037 137.858L72.1245 145.969L75.9556 139.471L116.156 71.2817Z" fill="white"/>
    <path d="M150.628 71.19C150.479 67.4643 148.462 64.0536 145.302 62.068L101.014 36.5984C97.8883 35.0246 93.9838 35.0226 90.8526 36.5974C90.4825 36.7841 47.7837 61.5482 47.7837 61.5482C47.1928 61.8317 46.6235 62.1693 46.0882 62.5526C43.2675 64.5741 41.5482 67.7157 41.3716 71.1671V123.914L48.9803 112.223L48.9138 71.5236C48.9227 71.3747 48.9414 71.2282 48.9679 71.0837C49.14 70.1261 49.6746 69.2718 50.4796 68.6945C50.6804 68.5507 94.1086 43.4122 94.2465 43.3432C95.2673 42.8306 96.5646 42.8245 97.5866 43.3273L141.302 68.4729C142.336 69.1316 142.984 70.2484 143.042 71.4692V121.886C142.989 122.955 142.566 123.945 141.735 124.621L133.26 129.532L128.887 132.067L113.257 141.125L97.4057 150.311C96.552 150.619 95.5538 150.602 94.7071 150.258L75.953 139.471L72.122 145.969L88.9756 155.672C89.533 155.99 90.0295 156.271 90.437 156.499C91.0679 156.853 91.4979 157.09 91.6497 157.163C92.8476 157.745 94.5712 158.084 96.1243 158.084C97.5482 158.084 98.9368 157.822 100.251 157.308L146.291 130.644C148.933 128.596 150.488 125.509 150.628 122.164V71.19Z" fill="white"/>
    <defs>
        <linearGradient id="paint0_linear_72_1329" x1="96" y1="0.750488" x2="96" y2="192.75" gradientUnits="userSpaceOnUse">
            <stop stop-color="#509EEA"/>
            <stop offset="1" stop-color="#317FCB"/>
        </linearGradient>
    </defs>
</svg>
