<svg width="193" height="193" viewBox="0 0 193 193" fill="none" xmlns="http://www.w3.org/2000/svg" data-reactroot=""><path d="M96.5 193C43.425 193 0 149.575 0 96.5C0 43.425 43.425 0 96.5 0C149.575 0 193 43.425 193 96.5C193 149.575 149.575 193 96.5 193Z" fill="url(#tusd_icon_4b650ea6-4224-4bc1-9169-dc171da86960)"></path><path d="M138.92 147H54.08C49.636 147 46 143.364 46 138.92V54.08C46 49.636 49.636 46 54.08 46H138.92C143.364 46 147 49.636 147 54.08V138.92C147 143.364 143.364 147 138.92 147Z" fill="white"></path><path d="M65.7085 136.833C65.4426 136.833 65.2271 136.59 65.2271 136.324V122.753C65.2271 122.487 65.0116 122.245 64.7457 122.245H59.9549C59.6856 122.245 59.4465 122.029 59.4465 121.763V119.141C59.4465 118.875 59.6889 118.632 59.9549 118.632H74.7009C74.9669 118.632 75.2093 118.871 75.2093 119.141V121.763C75.2093 122.029 74.9669 122.245 74.7009 122.245H69.9371C69.6711 122.245 69.4287 122.484 69.4287 122.753V136.324C69.4287 136.59 69.2132 136.833 68.9473 136.833H65.7085Z" fill="#002868"></path><path d="M89.9283 119.141C89.9283 118.875 90.1438 118.632 90.4097 118.632H93.6215C93.8875 118.632 94.1299 118.871 94.1299 119.141V128.402C94.1299 133.89 91.0258 137.075 86.1004 137.075C81.2019 137.075 78.1248 133.89 78.1248 128.402V119.141C78.1248 118.875 78.3402 118.632 78.6062 118.632H81.818C82.084 118.632 82.3264 118.871 82.3264 119.141V128.534C82.3264 131.237 83.7168 133.163 86.1273 133.163C88.5379 133.163 89.9283 131.237 89.9283 128.534V119.141Z" fill="#002868"></path><path d="M108.879 124.575C108.452 124.575 108.317 124.413 108.155 124.093C107.593 122.78 106.361 121.952 104.489 121.952C102.802 121.952 101.385 122.541 101.385 123.666C101.385 124.898 102.698 125.406 105.587 125.753C109.977 126.261 112.492 127.601 112.492 131.079C112.492 134.988 109.064 137.048 104.678 137.048C100.877 137.048 97.6109 135.2 97.1026 131.321C97.0487 130.948 97.2372 130.813 97.6109 130.813H100.557C100.93 130.813 101.146 130.975 101.254 131.267C101.654 132.554 103.021 133.543 105.001 133.543C106.741 133.543 108.266 132.9 108.266 131.537C108.266 129.904 106.661 129.611 103.449 129.207C99.7555 128.726 97.1867 127.655 97.1867 124.255C97.1867 120.854 100.106 118.42 104.681 118.42C108.802 118.42 111.667 120.642 112.256 123.962C112.337 124.336 112.229 124.578 111.828 124.578H108.879V124.575Z" fill="#002868"></path><path d="M116.131 136.833C115.865 136.833 115.649 136.59 115.649 136.324V119.141C115.649 118.875 115.865 118.632 116.131 118.632H123.41C128.816 118.632 133.018 122.352 133.018 127.786C133.018 133.139 128.87 136.833 123.41 136.833H116.131ZM123.41 133.217C126.328 133.217 128.601 130.914 128.601 127.729C128.601 124.544 126.325 122.241 123.383 122.241H120.359C120.093 122.241 119.878 122.48 119.878 122.75V132.732C119.878 132.998 120.093 133.213 120.359 133.213H123.41V133.217Z" fill="#002868"></path><path d="M144.644 109H48.3562C47.6103 109 47 108.387 47 107.637V53.8132C47 50.0659 50.0514 47 53.7808 47H139.219C142.949 47 146 50.0659 146 53.8132V107.637C146 108.387 145.39 109 144.644 109Z" fill="#002868"></path><path d="M101.062 98H92.9375C92.4219 98 92 97.5461 92 96.9914V60.0086C92 59.4539 92.4219 59 92.9375 59H101.062C101.578 59 102 59.4539 102 60.0086V96.9914C102 97.5461 101.578 98 101.062 98Z" fill="white"></path><path d="M116.008 69H76.9919C76.4464 69 76 68.5781 76 68.0625V59.9375C76 59.4219 76.4464 59 76.9919 59H116.008C116.554 59 117 59.4219 117 59.9375V68.0625C117 68.5781 116.554 69 116.008 69Z" fill="white"></path><defs><linearGradient id="tusd_icon_4b650ea6-4224-4bc1-9169-dc171da86960" x1="96.5" y1="0" x2="96.5" y2="193" gradientUnits="userSpaceOnUse"><stop stop-color="#002868"></stop><stop offset="1" stop-color="#001454"></stop></linearGradient></defs></svg>