<svg width="193" height="193" viewBox="0 0 193 193" fill="none" xmlns="http://www.w3.org/2000/svg" data-reactroot=""><circle cx="96.5" cy="96.5" r="96.5" fill="url(#audio_icon_188be735-aa13-4dc7-ad0c-d9642346e930)"></circle><path fill-rule="evenodd" clip-rule="evenodd" d="M97.3598 52.485C97.7978 52.7509 98.4316 53.4926 98.7684 54.133C99.1049 54.7734 99.7356 55.8908 100.169 56.6164C100.603 57.342 101.076 58.1731 101.22 58.4633C101.365 58.7536 101.842 59.5847 102.282 60.3103C102.722 61.0359 103.197 61.867 103.339 62.1573C103.48 62.4475 103.712 62.8631 103.854 63.0808C104.487 64.0499 106.251 67.0597 106.251 67.1705C106.251 67.238 106.729 68.0692 107.313 69.0175C107.897 69.9658 108.374 70.8014 108.374 70.8742C108.374 70.9473 108.654 71.4497 108.996 71.9911C109.338 72.5323 110.015 73.6877 110.5 74.5584C110.985 75.4291 111.599 76.4977 111.865 76.9331C112.131 77.3684 112.467 77.9621 112.61 78.2523C112.754 78.5426 113.232 79.3737 113.672 80.0993C114.112 80.8249 114.555 81.5967 114.657 81.8143C114.759 82.032 115.298 82.9542 115.855 83.8639C116.412 84.7734 116.868 85.5727 116.868 85.6402C116.868 85.7078 117.345 86.5389 117.929 87.4872C118.513 88.4355 118.991 89.2666 118.991 89.3341C118.991 89.4017 119.469 90.2328 120.053 91.1811C120.637 92.1294 121.114 92.9605 121.114 93.0281C121.114 93.0956 121.565 93.8948 122.115 94.8043C122.665 95.7141 123.352 96.9331 123.641 97.5136C123.93 98.0941 124.235 98.6284 124.319 98.7009C124.403 98.7735 124.88 99.6023 125.381 100.543C125.881 101.483 126.439 102.412 126.622 102.606C126.804 102.801 126.953 103.12 126.953 103.315C126.953 103.51 127.043 103.71 127.152 103.758C127.262 103.806 127.543 104.202 127.778 104.638C128.892 106.705 129.219 107.286 129.342 107.408C129.415 107.481 129.695 107.956 129.964 108.464C130.788 110.018 131.326 110.964 131.465 111.102C131.538 111.175 131.819 111.65 132.09 112.158C132.833 113.552 134.147 115.885 134.691 116.775C134.957 117.21 135.292 117.804 135.436 118.094C135.58 118.384 136.057 119.215 136.497 119.941C136.937 120.667 137.381 121.438 137.483 121.656C137.585 121.874 138.124 122.796 138.681 123.706C139.237 124.615 139.693 125.414 139.693 125.482C139.693 125.55 140.157 126.358 140.723 127.278C142.42 130.033 142.425 131.691 140.741 132.54C139.886 132.971 137.844 133.001 109.436 133C89.4251 132.999 78.7106 132.906 78.063 132.727C76.9523 132.421 75.9941 131.38 75.9941 130.481C75.9941 129.864 76.7649 128.19 77.1221 128.033C77.2315 127.984 77.3212 127.785 77.3212 127.59C77.3212 127.394 77.4706 127.073 77.653 126.874C77.98 126.519 78.6061 125.451 79.3973 123.899C79.6194 123.464 79.8702 123.048 79.9546 122.975C80.1176 122.834 81.2159 120.869 81.6856 119.877C81.8398 119.552 82.0556 119.285 82.165 119.284C82.2743 119.283 82.3651 119.133 82.3667 118.952C82.368 118.77 82.8458 117.875 83.4283 116.962C84.0107 116.049 84.4873 115.217 84.4873 115.113C84.4873 114.965 85.1535 114.162 85.8914 113.421C85.9222 113.39 90.8689 113.301 96.8842 113.223C107.423 113.086 107.836 113.062 108.222 112.553C108.443 112.263 108.627 111.761 108.631 111.438C108.639 110.93 107.399 108.318 106.781 107.54C106.666 107.395 106.261 106.712 105.881 106.023C105.501 105.333 104.906 104.265 104.56 103.648C104.214 103.032 103.706 102.117 103.432 101.615C103.158 101.114 102.784 100.542 102.602 100.343C102.419 100.145 102.27 99.8693 102.27 99.731C102.27 99.5928 101.792 98.7276 101.208 97.8083C100.624 96.8893 100.147 96.0632 100.147 95.9727C100.147 95.8819 99.6689 95.0318 99.085 94.0835C98.5011 93.1352 98.0234 92.2859 98.0234 92.1962C98.0234 91.798 96.6109 90.7853 96.0553 90.7853C95.2838 90.7853 94.1916 91.8547 93.5987 93.1904C93.3487 93.7542 93.0474 94.2154 92.9296 94.2154C92.8115 94.2154 92.7151 94.3405 92.7151 94.4933C92.7151 94.646 92.0582 95.9022 91.2554 97.2846C90.4525 98.6672 89.7956 99.836 89.7956 99.8822C89.7956 99.9284 89.3178 100.748 88.7339 101.704C88.15 102.659 87.6723 103.504 87.6723 103.58C87.6723 103.657 87.0751 104.667 86.3452 105.825C85.6153 106.983 85.0182 108.05 85.0182 108.196C85.0182 108.343 84.55 108.942 83.978 109.528L82.9379 110.594L73.6036 110.518L64.2695 110.442L63.6002 109.669C62.6237 108.54 62.8329 107.003 64.2709 104.74C64.8795 103.781 65.3776 102.862 65.3776 102.696C65.3776 102.53 65.4971 102.395 65.643 102.395C65.789 102.395 65.9085 102.225 65.9085 102.018C65.9085 101.811 66.0576 101.479 66.2402 101.28C66.5672 100.925 67.1933 99.8569 67.9845 98.3051C68.2067 97.8698 68.4575 97.454 68.5419 97.3809C68.7048 97.24 69.8031 95.2748 70.2729 94.2835C70.4271 93.9582 70.6429 93.6909 70.7522 93.6898C70.8616 93.6888 70.9513 93.5181 70.9513 93.3107C70.9513 93.1035 71.1007 92.7751 71.2831 92.5811C71.4657 92.3872 71.8513 91.7553 72.1403 91.1772C72.4294 90.5988 73.116 89.3816 73.6665 88.4719C74.2167 87.5624 74.6671 86.7632 74.6671 86.6956C74.6671 86.6281 75.1448 85.7969 75.7287 84.8486C76.3126 83.9004 76.7904 83.0642 76.7904 82.9906C76.7904 82.917 77.2681 82.1048 77.852 81.1856C78.4359 80.2666 78.9137 79.389 78.9137 79.2352C78.9137 79.0816 79.0034 78.9164 79.1127 78.8679C79.3009 78.7848 80.2752 77.1098 80.8894 75.8138C81.0436 75.4885 81.2594 75.2212 81.3687 75.2201C81.4781 75.2191 81.5678 75.0484 81.5678 74.841C81.5678 74.6338 81.7172 74.3072 81.8996 74.1154C82.0822 73.9238 82.5044 73.2325 82.8386 72.5795C83.4889 71.308 84.0072 70.418 84.2222 70.2048C84.2952 70.1322 84.6304 69.5386 84.9672 68.8855C85.3037 68.2325 85.9341 67.1045 86.3678 66.3789C86.8015 65.6533 87.2747 64.8222 87.4188 64.532C87.5632 64.2417 88.0409 63.4106 88.4805 62.685C88.9203 61.9594 89.3956 61.1283 89.5371 60.838C89.6785 60.5478 89.9105 60.1322 90.0528 59.9145C90.6253 59.038 92.3597 56.0251 92.8531 55.0504C93.5737 53.6267 95.2352 51.9987 95.9664 52C96.295 52.0005 96.9219 52.2187 97.3598 52.485Z" fill="white"></path><defs><linearGradient id="audio_icon_188be735-aa13-4dc7-ad0c-d9642346e930" x1="96.5" y1="0" x2="96.5" y2="193" gradientUnits="userSpaceOnUse"><stop stop-color="#6A25A9"></stop><stop offset="1" stop-color="#3A056C"></stop></linearGradient></defs></svg>