<svg width="193" height="193" viewBox="0 0 193 193" fill="none" xmlns="http://www.w3.org/2000/svg" data-reactroot=""><path d="M96.5 193C149.795 193 193 149.795 193 96.5C193 43.2045 149.795 0 96.5 0C43.2045 0 0 43.2045 0 96.5C0 149.795 43.2045 193 96.5 193Z" fill="url(#uni_icon_3bfc0ef2-a5e1-42ef-9cf0-10b38a9ea1c2)"></path><g><path d="M79.9651 55.0815C78.6985 54.8862 78.6451 54.8633 79.2411 54.7723C80.3833 54.5977 83.0804 54.8356 84.939 55.2748C89.278 56.2999 93.2262 58.9259 97.4407 63.5897L98.5603 64.8287L100.162 64.5728C106.91 63.495 113.774 64.3516 119.516 66.9878C121.095 67.713 123.586 69.1567 123.897 69.5277C123.996 69.6459 124.178 70.407 124.301 71.2191C124.728 74.0288 124.514 76.1824 123.65 77.791C123.179 78.6663 123.153 78.9437 123.469 79.6928C123.722 80.2906 124.426 80.7331 125.123 80.7321C126.549 80.7302 128.085 78.4378 128.797 75.2481L129.08 73.9811L129.64 74.6114C132.711 78.07 135.123 82.7866 135.538 86.1439L135.645 87.0193L135.129 86.2235C134.241 84.8542 133.348 83.922 132.205 83.1702C130.144 81.815 127.965 81.3538 122.195 81.0515C116.983 80.7786 114.034 80.3362 111.109 79.3883C106.133 77.7757 103.624 75.6281 97.7132 67.9201C95.0877 64.4964 93.4649 62.6022 91.8507 61.0768C88.1828 57.6105 84.5786 55.7927 79.9651 55.0815Z" fill="white"></path></g><g><path d="M125.074 62.7255C125.205 60.4314 125.518 58.9182 126.147 57.5362C126.396 56.9893 126.629 56.5416 126.666 56.5416C126.702 56.5416 126.593 56.9453 126.425 57.4387C125.967 58.7798 125.892 60.6142 126.207 62.7485C126.607 65.4564 126.835 65.8471 129.715 68.7723C131.065 70.1444 132.637 71.8748 133.206 72.6178L134.242 73.9687L133.206 73.0032C131.94 71.8226 129.027 69.5202 128.384 69.191C127.952 68.9703 127.888 68.9742 127.622 69.2374C127.377 69.4799 127.325 69.8444 127.292 71.5674C127.238 74.2528 126.87 75.9764 125.982 77.6998C125.501 78.6319 125.425 78.433 125.86 77.3809C126.184 76.5953 126.217 76.25 126.215 73.6504C126.21 68.4271 125.586 67.1714 121.928 65.0203C121.001 64.4754 119.473 63.6895 118.534 63.2738C117.594 62.8581 116.848 62.496 116.875 62.469C116.978 62.3665 120.546 63.4016 121.983 63.9507C124.119 64.7674 124.472 64.8733 124.731 64.7748C124.905 64.7087 124.989 64.2053 125.074 62.7255Z" fill="white"></path></g><g><path d="M82.4254 71.6614C79.8542 68.1431 78.2633 62.7486 78.6077 58.716L78.7142 57.4681L79.2995 57.5743C80.3986 57.7735 82.2937 58.4746 83.1811 59.0103C85.6162 60.4802 86.6705 62.4155 87.743 67.385C88.0572 68.8406 88.4694 70.4879 88.6591 71.0455C88.9644 71.9431 90.1182 74.0398 91.0563 75.4015C91.732 76.3822 91.2831 76.8469 89.7895 76.7129C87.5085 76.5083 84.4187 74.3888 82.4254 71.6614Z" fill="white"></path></g><g><path d="M121.954 97.8468C109.938 93.0382 105.706 88.8642 105.706 81.8216C105.706 80.7852 105.742 79.9373 105.785 79.9373C105.829 79.9373 106.294 80.2793 106.819 80.6974C109.255 82.6398 111.984 83.4695 119.537 84.5648C123.983 85.2093 126.484 85.7299 128.792 86.4905C136.125 88.908 140.663 93.814 141.745 100.496C142.06 102.438 141.875 106.079 141.365 107.998C140.963 109.514 139.735 112.246 139.409 112.351C139.319 112.38 139.23 112.036 139.207 111.568C139.084 109.059 137.808 106.616 135.665 104.786C133.229 102.706 129.957 101.049 121.954 97.8468Z" fill="white"></path></g><g><path d="M113.519 99.8444C113.368 98.9539 113.107 97.8167 112.939 97.3173L112.632 96.4094L113.201 97.0447C113.99 97.9239 114.612 99.0489 115.14 100.547C115.543 101.691 115.588 102.031 115.585 103.889C115.582 105.714 115.532 106.096 115.16 107.126C114.573 108.749 113.845 109.9 112.624 111.136C110.429 113.356 107.607 114.585 103.534 115.095C102.827 115.183 100.763 115.333 98.9495 115.426C94.3784 115.663 91.3698 116.151 88.6664 117.095C88.2778 117.23 87.9307 117.313 87.8955 117.278C87.7861 117.17 89.6267 116.079 91.147 115.351C93.2906 114.325 95.4245 113.765 100.206 112.973C102.567 112.582 105.006 112.108 105.626 111.919C111.475 110.137 114.481 105.538 113.519 99.8444Z" fill="white"></path></g><g><path d="M119.027 109.567C117.431 106.156 117.064 102.862 117.939 99.7909C118.032 99.4627 118.183 99.1941 118.273 99.1941C118.364 99.1941 118.741 99.3965 119.11 99.6438C119.846 100.136 121.322 100.965 125.253 103.095C130.158 105.754 132.955 107.812 134.857 110.163C136.523 112.223 137.553 114.569 138.05 117.429C138.33 119.049 138.165 122.947 137.747 124.578C136.428 129.723 133.363 133.763 128.991 136.121C128.351 136.467 127.776 136.75 127.714 136.752C127.651 136.753 127.885 136.163 128.232 135.441C129.703 132.385 129.87 129.413 128.758 126.105C128.077 124.079 126.689 121.607 123.887 117.429C120.628 112.572 119.829 111.28 119.027 109.567Z" fill="white"></path></g><g><path d="M73.8933 127.972C78.3524 124.23 83.9006 121.572 88.9545 120.755C91.1326 120.404 94.761 120.543 96.778 121.056C100.011 121.879 102.903 123.721 104.407 125.915C105.877 128.06 106.508 129.929 107.164 134.087C107.423 135.728 107.705 137.374 107.79 137.748C108.283 139.903 109.243 141.625 110.432 142.49C112.32 143.864 115.572 143.949 118.771 142.709C119.314 142.499 119.785 142.353 119.818 142.386C119.935 142.501 118.324 143.572 117.187 144.137C115.658 144.896 114.442 145.189 112.827 145.189C109.897 145.189 107.464 143.708 105.435 140.687C105.035 140.093 104.137 138.313 103.44 136.73C101.296 131.872 100.238 130.393 97.75 128.773C95.5846 127.364 92.7919 127.111 90.6911 128.135C87.9314 129.48 87.1614 132.985 89.1379 135.206C89.9235 136.089 91.3884 136.85 92.5863 136.999C94.8273 137.276 96.7532 135.581 96.7532 133.333C96.7532 131.872 96.1885 131.039 94.767 130.401C92.8255 129.531 90.7387 130.549 90.7487 132.361C90.753 133.135 91.0916 133.62 91.8712 133.97C92.3714 134.195 92.383 134.213 91.9752 134.129C90.1938 133.762 89.7765 131.627 91.2088 130.21C92.9284 128.509 96.4842 129.26 97.7053 131.582C98.2183 132.557 98.2778 134.5 97.8306 135.672C96.8296 138.298 93.911 139.678 90.9503 138.927C88.9345 138.415 88.1137 137.861 85.6833 135.373C81.4602 131.049 79.8207 130.211 73.7323 129.267L72.5657 129.086L73.8933 127.972Z" fill="white"></path></g><path fill-rule="evenodd" clip-rule="evenodd" d="M54.077 50.5862C68.1803 67.5992 77.894 74.6185 78.9735 76.1014C79.8647 77.3259 79.5293 78.4268 78.0025 79.2896C77.1533 79.7693 75.4076 80.2553 74.5336 80.2553C73.5451 80.2553 73.2056 79.8763 73.2056 79.8763C72.6325 79.3359 72.3096 79.4304 69.3661 74.2374C65.2796 67.935 61.8596 62.7068 61.7663 62.6193C61.5506 62.4169 61.5543 62.4237 68.9494 75.5749C70.1443 78.3159 69.1871 79.3221 69.1871 79.7124C69.1871 80.5066 68.9691 80.924 67.9834 82.0168C66.3402 83.8388 65.6057 85.8859 65.0754 90.1227C64.481 94.8721 62.8095 98.227 58.1772 103.969C55.4657 107.33 55.022 107.946 54.3378 109.301C53.476 111.007 53.239 111.962 53.143 114.116C53.0415 116.394 53.2392 117.866 53.9393 120.043C54.5522 121.95 55.192 123.209 56.8277 125.726C58.2392 127.899 59.0519 129.514 59.0519 130.146C59.0519 130.649 59.1485 130.649 61.3358 130.158C66.5702 128.984 70.8205 126.917 73.2109 124.385C74.6903 122.817 75.0377 121.952 75.0489 119.805C75.0563 118.4 75.0066 118.106 74.6245 117.297C74.0026 115.982 72.8703 114.888 70.3748 113.193C67.1051 110.971 65.7085 109.183 65.3227 106.723C65.0062 104.705 65.3734 103.281 67.1823 99.5126C69.0545 95.6123 69.5185 93.9503 69.8324 90.0189C70.0351 87.479 70.3158 86.4774 71.05 85.6733C71.8158 84.8349 72.5052 84.5509 74.4003 84.2936C77.4899 83.8741 79.4573 83.0796 81.0744 81.5986C82.4772 80.3137 83.0642 79.0757 83.1543 77.212L83.2227 75.7994L82.4387 74.891C79.5998 71.6009 52.1758 48 52.0011 48C51.9638 48 52.898 49.1639 54.077 50.5862ZM60.6456 116.694C61.2875 115.564 60.9464 114.112 59.8727 113.402C58.8583 112.731 57.2823 113.047 57.2823 113.921C57.2823 114.188 57.4306 114.382 57.7649 114.553C58.3278 114.84 58.3687 115.164 57.9258 115.826C57.4773 116.496 57.5135 117.085 58.028 117.485C58.8571 118.13 60.0309 117.775 60.6456 116.694Z" fill="white"></path><g><path fill-rule="evenodd" clip-rule="evenodd" d="M85.173 85.0345C83.7226 85.4773 82.3126 87.0052 81.8762 88.6072C81.61 89.5846 81.761 91.2989 82.1598 91.8284C82.8041 92.6836 83.4272 92.9089 85.1143 92.8971C88.4174 92.8742 91.2889 91.4662 91.6227 89.706C91.8964 88.2631 90.6352 86.2635 88.8981 85.3856C88.0017 84.9328 86.0953 84.7532 85.173 85.0345ZM89.0343 88.0355C89.5437 87.3161 89.3208 86.5387 88.4545 86.0129C86.8048 85.0116 84.3099 85.8402 84.3099 87.3892C84.3099 88.1603 85.6109 89.0016 86.8035 89.0016C87.5972 89.0016 88.6835 88.5311 89.0343 88.0355Z" fill="white"></path></g><defs><linearGradient id="uni_icon_3bfc0ef2-a5e1-42ef-9cf0-10b38a9ea1c2" x1="96.5" y1="0" x2="96.5" y2="193" gradientUnits="userSpaceOnUse"><stop stop-color="#FC157B"></stop><stop offset="1" stop-color="#CA0049"></stop></linearGradient></defs></svg>