<svg width="193" height="193" viewBox="0 0 193 193" fill="none" xmlns="http://www.w3.org/2000/svg" data-reactroot=""><circle cx="96.5" cy="96.5" r="96.5" fill="url(#axs_icon_959d76d1-1018-45b6-8988-a891690d782c)"></circle><path d="M73.9214 85.5816V93.5847L80.6719 88.6597L73.9214 85.5816Z" fill="white"></path><path fill-rule="evenodd" clip-rule="evenodd" d="M96.8703 46.0007C89.3234 45.8033 45.4367 86.9109 46.0055 96.8688C46.5742 106.827 88.9203 148.196 97.1325 147.999C105.345 147.802 147.615 108.31 147.997 97.131C148.38 85.9521 104.417 46.1981 96.8703 46.0007ZM94.4796 93.2768C93.8659 95.7392 92.9454 96.0471 91.4111 95.7394C89.877 95.4317 86.5018 92.3534 86.5018 92.3534L77.2966 101.28V109.283C77.2966 113.962 78.7285 112.669 79.4444 111.438L115.651 75.1159C123.506 67.2361 125.061 77.9889 124.857 84.3503V104.974C124.857 118.517 118.311 117.184 115.038 114.824L109.208 109.283C109.208 109.283 101.844 102.511 101.844 101.28C101.844 100.049 103.378 99.433 103.378 99.433C104.912 99.433 106.63 100.541 112.276 106.205C117.922 111.869 118.924 108.565 118.72 106.205V91.7378C118.72 82.6266 115.038 84.2477 113.197 86.1972C102.867 97.894 80.9786 121.288 76.0692 121.288C71.1598 121.288 69.7279 116.978 69.6256 114.824V84.3503C69.6256 78.6866 72.8986 78.9123 74.535 79.7332C74.535 79.7332 95.0932 90.8144 94.4796 93.2768Z" fill="white"></path><defs><linearGradient id="axs_icon_959d76d1-1018-45b6-8988-a891690d782c" x1="96.5" y1="0" x2="96.5" y2="193" gradientUnits="userSpaceOnUse"><stop stop-color="#0089DB"></stop><stop offset="1" stop-color="#005D95"></stop></linearGradient></defs></svg>