<svg width="193" height="193" viewBox="0 0 193 193" fill="none" xmlns="http://www.w3.org/2000/svg" data-reactroot=""><circle cx="96.5" cy="96.5" r="96.5" fill="url(#zrx_icon_4b02688a-e6fe-4064-a39c-d13cd57b3e9c)"></circle><path d="M124.777 114.576C128.508 119.59 132.356 124.72 136.204 129.851C128.508 138.946 118.947 144.776 107.403 147.224C94.5773 149.906 82.4507 147.924 70.6739 141.394C81.1681 133.582 91.429 125.886 101.807 118.19C104.139 120.406 106.354 122.621 108.57 124.72C111.018 127.052 110.085 127.169 113.234 125.42C117.548 122.971 121.162 119.59 123.961 115.509C124.078 115.275 124.311 115.042 124.427 114.809C124.311 114.809 124.427 114.809 124.777 114.576ZM78.9526 124.837C76.0376 127.052 73.3558 129.034 70.6739 131.133C68.6917 132.649 66.7095 134.048 64.7272 135.564C63.911 136.264 63.328 136.264 62.3952 135.448C53.5335 127.519 47.9366 117.724 45.8377 106.064C43.7389 94.2871 45.6045 83.0933 51.2014 72.4826C51.318 72.2494 51.5512 71.8996 51.6678 71.6664C51.6678 71.5498 51.7844 71.5498 52.0176 71.4332C59.7133 81.5775 67.5257 91.7219 75.2214 101.866C74.9882 102.216 74.8716 102.449 74.6384 102.682C72.3063 105.131 69.9743 107.58 67.5257 109.912C66.8261 110.611 66.7095 111.194 67.1759 112.011C69.6245 116.675 73.006 120.523 77.2036 123.671C77.7866 124.021 78.253 124.37 78.9526 124.837ZM122.445 52.4271C118.714 55.1089 114.983 57.7907 111.251 60.356C104.838 64.9035 98.4251 69.5675 92.1286 74.115C91.3124 74.698 90.7294 74.8146 90.0298 73.9984C87.931 71.783 85.7156 69.8007 83.6167 67.5853C83.0337 67.0023 82.4507 66.8857 81.6345 67.2355C76.6206 69.8007 72.6562 73.4154 69.3913 77.9629C69.1581 78.1961 68.9249 78.5459 68.6917 78.8957C66.8261 76.447 65.077 74.2316 63.328 71.8996C61.4624 69.4509 59.7134 67.0023 57.9643 64.6702C57.3813 63.854 57.2647 63.271 58.0809 62.4548C67.0593 52.5437 78.1364 46.7136 91.429 45.3143C101.923 44.1483 111.951 46.2472 121.279 51.261C121.629 51.4942 121.979 51.6108 122.329 51.844C122.329 52.1939 122.329 52.3105 122.445 52.4271ZM141.451 122.388C139.003 119.24 136.787 116.325 134.572 113.41C129.441 106.647 124.311 99.7674 119.064 93.0045C118.364 92.0717 118.364 91.4887 119.18 90.6725C121.396 88.457 123.495 86.2416 125.71 84.0261C126.293 83.4431 126.526 82.8601 126.06 82.0439C123.495 77.1466 119.996 73.0656 115.449 69.8007C115.099 69.5675 114.749 69.2177 114.283 68.9845C114.633 68.6347 114.983 68.4015 115.216 68.1683C119.647 64.7868 124.078 61.522 128.508 58.1405C129.208 57.5575 129.791 57.3243 130.607 58.1405C141.684 68.1683 147.631 80.6447 148.214 95.6863C148.447 104.431 146.465 112.71 142.501 120.523C142.151 120.989 141.801 121.572 141.451 122.388Z" fill="white"></path><defs><linearGradient id="zrx_icon_4b02688a-e6fe-4064-a39c-d13cd57b3e9c" x1="193" y1="2.46321" x2="193" y2="193" gradientUnits="userSpaceOnUse"><stop stop-color="#00AE99"></stop><stop offset="1" stop-color="#00907B"></stop></linearGradient></defs></svg>
