<svg width="193" height="193" viewBox="0 0 193 193" fill="none" xmlns="http://www.w3.org/2000/svg" data-reactroot=""><circle cx="96.5" cy="96.5" r="96.5" fill="url(#bed_icon_dca403f2-3e25-4ce6-85ed-3e9589edab9c)"></circle><path fill-rule="evenodd" clip-rule="evenodd" d="M104.544 45.4927C107.326 45.9605 107.431 45.9839 110.365 46.7836C122.141 49.9925 132.895 57.9155 139.749 68.4305C144.896 76.3276 147.7 85.4296 147.978 95.1426C148.214 103.367 146.529 111.29 142.968 118.701C140.359 124.131 137.152 128.65 132.904 132.883C127.852 137.918 123.033 141.138 115.845 144.286C113.626 145.258 109.086 146.57 105.654 147.231C103.4 147.666 99.2285 148.008 96.2698 148C90.3855 147.985 85.6096 147.226 80.2532 145.455C66.9352 141.053 56.0622 131.536 49.8959 118.883C49.3607 117.785 48.7999 116.559 48.6497 116.16C47.6837 113.589 46.9406 111.387 46.5671 109.987C46.1667 108.487 45.9945 107.677 45.2799 103.935C44.9169 102.033 44.9029 90.7339 45.2618 89.0069C45.4 88.3412 45.6537 87.0703 45.8256 86.1827C47.0643 79.7883 49.6533 73.581 53.4734 67.8458C61.353 56.0162 73.7691 47.9393 87.5997 45.6467C91.8357 44.9444 91.5053 44.966 97.077 45.0286C100.997 45.0727 102.662 45.1762 104.544 45.4927ZM91.4264 48.8987C85.16 49.6909 79.2081 51.5301 74.1624 54.2335C68.1588 57.4501 63.8155 61.0104 59.1801 66.5144C57.982 67.937 55.1381 72.2817 54.0966 74.2806C51.4147 79.4274 49.7859 84.6151 48.9516 90.667C48.6483 92.868 48.6425 100.064 48.9421 102.22C49.4015 105.525 50.1231 108.778 50.9556 111.298C55.5788 125.292 66.2158 136.307 80.068 141.447C89.1986 144.835 99.8319 145.238 109.387 142.558C114.387 141.156 118.477 139.284 122.808 136.415C129.83 131.763 135.592 125.294 139.193 118.019C140.741 114.892 140.945 114.406 141.846 111.702C143.857 105.661 144.665 99.351 144.205 93.2697C143.078 78.3576 135.592 65.3559 123.312 56.9839C117.093 52.7443 110.63 50.2824 102.526 49.0668C100.666 48.7878 93.1983 48.6748 91.4264 48.8987ZM71.1853 81.2908L71.2455 82.5516H72.4563H73.6672L73.7273 81.2908L73.7873 80.0299H75.695H77.6025V81.3166C77.6025 82.1112 77.6989 82.6748 77.8547 82.7908C77.9936 82.8939 78.6275 83.1362 79.2638 83.3288C81.5945 84.0351 83.2531 86.0171 83.2531 88.0957C83.2531 89.8986 81.9724 91.6778 80.1168 92.4527C79.4583 92.7278 79.3201 93.1398 79.8847 93.1444C80.3957 93.1487 82.1743 94.1327 82.8027 94.7589C83.1653 95.1204 83.6154 95.7393 83.8026 96.134C84.223 97.0192 84.2559 99.2359 83.8632 100.212C83.1042 102.1 81.056 103.506 78.1671 104.124C77.6537 104.234 77.6182 104.314 77.5617 105.5L77.5016 106.759H75.6853H73.869L73.7681 105.65L73.6672 104.54L72.4162 104.48L71.1654 104.421L71.1044 105.59L71.0437 106.759H69.2274H67.4111L67.3102 105.65L67.2093 104.54L65.7966 104.439L64.384 104.338L64.3317 93.4954L64.2796 82.6524H65.6723C67.2581 82.6524 67.3102 82.6006 67.3102 81.022V80.0299H69.2177H71.1254L71.1853 81.2908ZM103.333 84.2663V86.3844L95.3112 86.4371L87.2893 86.4899V84.2663V82.0426L95.3112 82.0955L103.333 82.1481V84.2663ZM120.891 82.4592C123.296 83.064 124.873 83.8828 126.336 85.287C127.756 86.6501 128.866 88.6303 129.247 90.4794C129.534 91.8695 129.529 95.0516 129.239 96.4106C128.348 100.587 125.361 103.465 120.723 104.615C119.279 104.973 108.075 104.963 107.843 104.603C107.656 104.313 107.621 83.1927 107.806 82.4846C107.92 82.0489 107.942 82.0472 113.599 82.0503C118.611 82.0531 119.465 82.1009 120.891 82.4592ZM70.4326 87.1337C70.3716 87.292 70.348 88.3231 70.3801 89.4247L70.4382 91.4277H72.759C75.5505 91.4277 76.3119 91.118 76.775 89.7943C77.1341 88.7685 76.8194 88.008 75.7862 87.4042C74.8665 86.8668 70.6172 86.6521 70.4326 87.1337ZM113.928 93.4212V100.001H116.212C121.52 100.001 123.211 98.4007 123.211 93.3786C123.211 90.9157 122.78 89.5566 121.649 88.4526C120.526 87.357 119.484 87.0503 116.501 86.938L113.928 86.8412V93.4212ZM101.621 91.4321C101.747 91.5836 101.812 92.3897 101.778 93.375L101.719 95.0588L95.2103 95.1121L88.702 95.1653V93.2582V91.3512L89.4588 91.2677C89.8751 91.2217 92.7335 91.1816 95.8109 91.1786C100.126 91.1743 101.456 91.2324 101.621 91.4321ZM70.5827 95.1137C70.3912 95.246 70.3386 95.895 70.3809 97.5966L70.4382 99.9004L73.1627 99.8929C76.0865 99.885 76.8299 99.6881 77.4893 98.7471C78.2154 97.7108 77.5645 95.9842 76.2358 95.4226C75.3812 95.0613 71.0043 94.822 70.5827 95.1137ZM104.073 101.56C104.11 102.307 104.109 103.351 104.07 103.88L104.001 104.843H95.2412H86.4821V102.523V100.203H95.2436H104.005L104.073 101.56ZM129.625 114.778L129.682 117.148H96.579H63.4758V114.843C63.4758 112.605 63.4894 112.535 63.9299 112.472C64.1797 112.437 79.0504 112.408 96.9761 112.408H129.568L129.625 114.778Z" fill="white"></path><defs><linearGradient id="bed_icon_dca403f2-3e25-4ce6-85ed-3e9589edab9c" x1="96.5" y1="0" x2="96.5" y2="193" gradientUnits="userSpaceOnUse"><stop stop-color="#303030"></stop><stop offset="1" stop-color="#101010"></stop></linearGradient></defs></svg>