<svg width="192" height="192" viewBox="0 0 192 192" fill="none" xmlns="http://www.w3.org/2000/svg">
    <path d="M192 96C192 149.019 149.019 192 96 192C42.9807 192 0 149.019 0 96C0 42.9807 42.9807 0 96 0C149.019 0 192 42.9807 192 96Z" fill="url(#paint0_linear_0_1)"/>
    <path fill-rule="evenodd" clip-rule="evenodd" d="M149.852 105.312L153.63 105.103C149.794 137.801 125.587 163 96.296 163C68.9131 163 45.9723 140.976 39.9662 111.391L41.3844 111.313C46.8646 139.868 68.8651 161.22 95.1715 161.22C123.29 161.22 146.49 136.825 149.852 105.312ZM149.134 84.4465L153.227 83.954C150.89 69.0476 144.293 55.8597 134.95 46.1417L134.95 46.1416C134.591 45.7684 134.229 45.4004 133.862 45.0376C133.256 44.4382 132.639 43.853 132.012 43.2826C131.879 43.161 131.744 43.0402 131.61 42.92C130.668 42.0786 129.703 41.2701 128.717 40.496C127.668 39.6735 126.596 38.8898 125.5 38.1467C122.573 36.1614 119.482 34.4655 116.255 33.0927C116.255 33.0925 116.255 33.0923 116.254 33.0921C115.852 32.9209 115.447 32.7547 115.041 32.5936C114.954 32.5591 114.867 32.5249 114.779 32.4909C114.764 32.4848 114.748 32.4787 114.733 32.4727C109.991 30.6283 104.974 29.4759 99.7731 29.119C98.6228 29.04 97.4634 29 96.296 29H96.296C94.1642 29 92.0594 29.1335 89.9874 29.3936C86.2354 29.8647 82.591 30.751 79.0892 32.0122C76.0917 33.0917 73.1987 34.4458 70.4321 36.0492C66.3791 38.398 62.5975 41.2817 59.1562 44.6203C58.871 44.8969 58.5881 45.1767 58.3079 45.4595C46.1293 57.7426 38.4321 75.8305 38.4321 96.0001C38.4321 96.5903 38.4387 97.1786 38.4518 97.7651L40.0723 97.5701L40.0722 97.4057C40.0722 78.0915 47.4809 60.7814 59.1864 49.0794L76.8813 59.8352L92.1935 68.5421L96.8211 71.6364L130.915 48.8396C140.056 57.8717 146.615 70.3042 149.134 84.4465ZM102.387 44.2274C102.387 47.5913 99.6599 50.3183 96.296 50.3183C92.9321 50.3183 90.2053 47.5913 90.2053 44.2274C90.2053 40.8635 92.9321 38.1365 96.296 38.1365C99.6599 38.1365 102.387 40.8635 102.387 44.2274ZM116.255 56.81L132.569 45.9019C127.746 41.1798 122.239 37.3884 116.255 34.752V56.81Z" fill="white"/>
    <path d="M34.6755 115.124L40.4997 114.791L40.3967 112.989C42.0404 114.534 44.0974 115.216 46.6119 115.072C52.0172 114.764 55.723 109.718 55.3781 103.683C55.0309 97.6072 50.7753 93.0158 45.3694 93.3248C42.8555 93.4682 40.8896 94.3795 39.4326 96.1017L38.8247 85.4585L33 85.7915L34.6755 115.124ZM44.987 109.448C42.1378 109.611 40.0882 107.583 39.9158 104.566C39.7433 101.55 41.5464 99.2606 44.3962 99.0978C47.2454 98.935 49.3393 101.002 49.5118 104.018C49.6842 107.035 47.8367 109.285 44.987 109.448Z" fill="white"/>
    <path d="M60.5306 113.647L81.4824 112.45L81.162 106.835L66.0765 107.697L64.7219 83.9792L58.8556 84.3145L60.5306 113.647Z" fill="white"/>
    <path d="M83.2901 100.534C83.7061 107.825 88.9845 112.652 96.5275 112.221C103.986 111.796 108.681 106.398 108.264 99.1073L107.22 81.5522L101.353 81.8869L102.393 99.3583C102.642 103.716 100.397 106.367 96.2065 106.607C92.0164 106.846 89.3983 104.431 89.1513 100.115L88.1956 82.6388L82.3288 82.9734L83.2901 100.534Z" fill="white"/>
    <path d="M112.562 101.216C114.218 107.385 119.046 110.935 125.708 110.555C132.706 110.155 137.046 105.913 136.716 100.131C136.4 94.5996 132.338 91.9308 124.624 91.5723C120.747 91.4157 119.393 90.5262 119.288 88.6821C119.195 87.048 121.058 85.8067 123.907 85.6439C126.547 85.4931 128.75 87.2592 129.716 90.1886L135.115 87.5682C134.346 85.1317 132.932 83.1943 130.836 81.8425C128.781 80.447 126.35 79.8289 123.584 79.9871C117.424 80.3388 113.134 83.9888 113.414 88.8915C113.723 94.2974 117.334 97.1597 124.286 97.4352C128.712 97.6452 130.751 98.7476 130.859 100.633C130.995 103.022 128.949 104.736 125.387 104.939C121.7 105.15 119.014 103.033 117.895 98.8933L112.562 101.216Z" fill="white"/>
    <path d="M141.602 109.016L152.916 108.37C161.013 108.075 166.706 101.024 166.118 92.9439C165.78 84.8078 159.321 78.4503 151.241 79.0377L139.927 79.6842L141.602 109.016ZM147.131 102.773L146.131 85.2574L151.494 84.9512C156.146 84.6854 159.753 88.221 160.043 93.2911C160.332 98.3611 157.146 102.201 152.495 102.466L147.131 102.773Z" fill="white"/>
    <defs>
        <linearGradient id="paint0_linear_0_1" x1="96" y1="0" x2="96" y2="192" gradientUnits="userSpaceOnUse">
            <stop stop-color="#3C5EBA"/>
            <stop offset="1" stop-color="#2A4A9F"/>
        </linearGradient>
    </defs>
</svg>
