<svg width="192" height="192" viewBox="0 0 192 192" fill="none" xmlns="http://www.w3.org/2000/svg">
<path d="M192 96C192 149.019 149.019 192 96 192C42.9807 192 0 149.019 0 96C0 42.9807 42.9807 0 96 0C149.019 0 192 42.9807 192 96Z" fill="url(#paint0_linear_37_358)"/>
<path fill-rule="evenodd" clip-rule="evenodd" d="M31.9759 86.1398L33.7622 117.415L41.8157 116.956L41.783 116.384C43.2347 117.108 44.8815 117.403 46.7032 117.299C52.8428 116.948 56.8139 111.251 56.4474 104.833C56.0785 98.3775 51.4873 93.165 45.3448 93.5158C43.5232 93.6198 41.9208 94.1 40.5607 94.985L40.0294 85.6799L31.9759 86.1398ZM41.7055 115.023C41.2804 114.759 40.8784 114.449 40.4983 114.092L40.6001 115.871L34.8462 116.2L33.1915 87.2244L38.9449 86.8955L39.5459 97.4093C39.8821 97.0113 40.2465 96.6576 40.6383 96.3467C41.923 95.3285 43.508 94.7747 45.4106 94.6656C50.7502 94.3609 54.9546 98.8965 55.2976 104.899C55.6377 110.859 51.9776 115.845 46.6374 116.149C44.7348 116.258 43.0976 115.888 41.7055 115.023ZM44.967 109.443C43.8628 109.506 42.9727 109.149 42.3385 108.533C41.6959 107.91 41.2444 106.951 41.173 105.705C41.1016 104.459 41.4412 103.442 42.0119 102.738C42.5747 102.042 43.4169 101.581 44.5144 101.519C45.6136 101.456 46.516 101.818 47.1659 102.448C47.8226 103.085 48.282 104.056 48.3528 105.295C48.4231 106.534 48.0779 107.538 47.501 108.233C46.9292 108.922 46.0735 109.38 44.967 109.443ZM57.5173 84.6814L59.3035 115.956L82.3002 114.643L81.8521 106.796L66.95 107.648L65.6118 84.2187L57.5173 84.6814ZM81.0847 113.559L80.7675 108.012L65.866 108.863L64.5278 85.4342L58.7329 85.7654L58.7329 85.7655L64.5278 85.4343L65.8659 108.863L80.7675 108.012L81.0846 113.559L81.0847 113.559ZM81.72 101.85V101.853C81.9409 105.723 83.4612 109.014 86.002 111.28C88.5433 113.547 92.0202 114.711 96.0121 114.483C99.9663 114.257 103.267 112.704 105.522 110.163C107.776 107.624 108.912 104.182 108.691 100.313V100.31L107.59 81.8213L99.4952 82.2834L100.591 100.692V100.693C100.702 102.642 100.249 104.05 99.453 104.985C98.6636 105.912 97.4014 106.532 95.564 106.636C93.7311 106.741 92.3795 106.263 91.4641 105.42C90.5443 104.573 89.9202 103.225 89.8106 101.311C89.81 101.31 89.81 101.309 89.81 101.308L88.8031 82.894L80.7079 83.3567L81.72 101.85ZM95.6298 107.786C91.4906 108.023 88.9037 105.637 88.6603 101.374L87.7157 84.1101L81.9207 84.4407L81.9207 84.441L87.7157 84.1104L88.6602 101.374C88.9037 105.637 91.49 108.023 95.6297 107.786C98.3376 107.632 100.223 106.458 101.134 104.459C100.223 106.458 98.3376 107.632 95.6298 107.786ZM100.713 83.3676L106.508 83.037L107.541 100.379C107.541 100.379 107.541 100.379 107.541 100.379L106.509 83.0368L100.714 83.3674L100.713 83.3676ZM117.392 98.7643L110.417 101.802L110.675 102.76C111.552 106.03 113.291 108.67 115.754 110.436C118.217 112.202 121.324 113.037 124.838 112.837C128.507 112.627 131.587 111.403 133.72 109.365C135.867 107.313 136.978 104.505 136.796 101.324C136.623 98.2808 135.391 95.9121 133.071 94.3002C132.003 93.5574 130.729 92.9941 129.269 92.5876L135.463 89.5813L135.164 88.6322C134.33 85.9948 132.781 83.8549 130.475 82.3633C128.211 80.83 125.555 80.1722 122.608 80.3403C116.182 80.7075 111.151 84.6167 111.478 90.3527C111.646 93.287 112.73 95.6625 114.825 97.3121C115.572 97.9013 116.431 98.3831 117.392 98.7643ZM123.059 88.2285C125.018 88.1167 126.803 89.3963 127.638 91.9286L127.738 92.2306C126.515 91.9961 125.184 91.851 123.755 91.7847H123.748C121.868 91.7082 120.81 91.4547 120.236 91.1297C119.974 90.9818 119.836 90.8323 119.753 90.6906C119.667 90.5427 119.599 90.3347 119.58 90.0142C119.564 89.7308 119.691 89.3688 120.256 88.9954C120.837 88.612 121.785 88.3011 123.059 88.2285ZM129.066 82.8461C129.329 82.9934 129.587 83.1526 129.839 83.3236C131.908 84.6589 133.305 86.5727 134.066 88.9797L134.065 88.9798C133.305 86.5729 131.908 84.659 129.839 83.3237C129.587 83.1527 129.329 82.9934 129.066 82.8461ZM129.137 104.216C128.269 105.306 126.655 106.014 124.456 106.14C121.156 106.328 118.669 104.63 117.408 101.27C117.277 100.92 117.159 100.552 117.054 100.167L117.054 100.167C118.16 104.257 120.813 106.348 124.456 106.14C126.655 106.014 128.269 105.306 129.137 104.216ZM131.337 109.761C134.252 107.935 135.85 104.96 135.647 101.389C135.334 95.9256 131.322 93.2893 123.702 92.935C120.111 92.7901 118.711 92.0086 118.464 90.4105C118.711 92.0087 120.111 92.7902 123.701 92.9352C131.321 93.2894 135.334 95.9257 135.647 101.39C135.85 104.96 134.252 107.935 131.337 109.761ZM118.433 90.1225C118.432 90.1084 118.431 90.0942 118.43 90.08C118.43 90.08 118.43 90.0801 118.43 90.0801C118.431 90.0943 118.432 90.1084 118.433 90.1225ZM120.525 103.867C119.504 103.048 118.673 101.74 118.167 99.8663L117.921 98.9606C119.482 99.4997 121.29 99.7966 123.317 99.8776C125.446 99.9788 126.851 100.292 127.699 100.716C128.485 101.108 128.687 101.525 128.711 101.952C128.756 102.743 128.458 103.403 127.808 103.923C127.124 104.472 125.995 104.898 124.39 104.99C122.817 105.08 121.533 104.675 120.525 103.867ZM149.921 79.4036L137.603 80.107L139.389 111.383L151.703 110.679C160.411 110.356 166.454 102.774 165.842 94.2243C165.474 85.6186 158.608 78.7769 149.921 79.4036ZM138.819 81.1912L149.995 80.5531C156.979 80.0454 162.737 84.7901 164.292 91.3684C162.737 84.79 156.979 80.0452 149.995 80.5529L138.819 81.191L138.819 81.1912ZM164.729 95.7734C164.74 95.2838 164.728 94.7889 164.692 94.29C164.692 94.2901 164.692 94.2902 164.692 94.2903C164.728 94.7891 164.74 95.2839 164.729 95.7734ZM147.019 102.784L146.163 87.781L150.311 87.5437C154.175 87.3233 157.284 90.2245 157.54 94.6988C157.794 99.1579 155.045 102.326 151.168 102.547L147.019 102.784ZM151.233 103.697L145.935 103.999L144.947 86.6972L144.947 86.6972L145.935 104L151.233 103.697C154.138 103.531 156.464 101.955 157.71 99.5524C156.464 101.955 154.138 103.531 151.233 103.697ZM45.0328 110.593C42.2182 110.754 40.1936 108.751 40.0232 105.771C39.8529 102.791 41.6341 100.53 44.4492 100.369C47.2638 100.208 49.3322 102.249 49.5026 105.23C49.6724 108.21 47.8479 110.432 45.0328 110.593Z" fill="white"/>
<path fill-rule="evenodd" clip-rule="evenodd" d="M153.368 84.8865C151.163 69.5978 144.488 56.0618 134.95 46.1417L134.95 46.1416C134.591 45.7684 134.229 45.4004 133.862 45.0376C133.56 44.7393 133.256 44.4444 132.949 44.1532C132.533 43.7578 132.111 43.3691 131.685 42.987C130.782 42.1775 129.857 41.3982 128.913 40.6505C127.802 39.7716 126.664 38.9362 125.5 38.1467C122.815 36.3259 119.993 34.7486 117.055 33.4407C116.789 33.3225 116.523 33.2065 116.255 33.0927C115.917 32.9487 115.577 32.8081 115.235 32.6712C115.171 32.6452 115.106 32.6193 115.041 32.5935C114.953 32.5586 114.864 32.524 114.776 32.4896C110.021 30.6354 104.99 29.477 99.773 29.119C99.1979 29.0795 98.6205 29.0498 98.0409 29.0299C97.4614 29.01 96.8797 29 96.296 29C95.0992 29 93.9109 29.0421 92.7321 29.125C92.6033 29.1341 92.4746 29.1436 92.346 29.1537C91.9839 29.1819 91.6226 29.2141 91.2623 29.25C87.0601 29.6693 82.9863 30.6086 79.0892 32.0122C76.1448 33.0726 73.3013 34.3979 70.5795 35.9641C66.4707 38.3283 62.6391 41.2413 59.1562 44.6203C58.871 44.8969 58.5881 45.1767 58.3078 45.4595C48.3464 55.5064 41.3832 69.4369 39.178 85.2136L40.0721 95.7188L40.0907 95.7327C40.5049 77.0935 47.8198 60.4425 59.1864 49.0794L76.8813 59.8352L92.1934 68.5421L96.8211 71.6364L130.915 48.8396C140.201 58.0152 146.823 70.6999 149.251 85.1217L153.368 84.8865ZM42.499 116.194L41.0197 115.872C48.332 143.173 70.3144 163 96.296 163C125.248 163 149.235 138.379 153.489 106.233L149.722 106.448C145.93 137.409 122.952 161.22 95.1715 161.22C70.3869 161.22 49.4245 142.267 42.499 116.194ZM96.296 50.3183C99.6598 50.3183 102.387 47.5913 102.387 44.2274C102.387 40.8635 99.6598 38.1365 96.296 38.1365C92.9321 38.1365 90.2052 40.8635 90.2052 44.2274C90.2052 47.5913 92.9321 50.3183 96.296 50.3183ZM132.569 45.9019L116.255 56.81V34.752C122.239 37.3884 127.746 41.1798 132.569 45.9019Z" fill="white"/>
<defs>
<linearGradient id="paint0_linear_37_358" x1="96" y1="0" x2="96" y2="192" gradientUnits="userSpaceOnUse">
<stop stop-color="#3C5EBA"/>
<stop offset="1" stop-color="#2A4A9F"/>
</linearGradient>
</defs>
</svg>
