<svg width="193" height="193" viewBox="0 0 193 193" fill="none" xmlns="http://www.w3.org/2000/svg">
    <circle cx="96.5" cy="96.5" r="96.5" fill="url(#paint0_linear_1_3)"/>
    <mask id="path-2-inside-1_1_3" fill="white">
        <path d="M153 55C166.293 71.3017 173 92.2975 173 116.5C170.241 92.5 161 69.0002 149 56.5L153 55Z"/>
    </mask>
    <path d="M173 116.5H177L169.026 116.957L173 116.5ZM153 55L151.596 51.2547L154.285 50.2462L156.1 52.4722L153 55ZM149 56.5L146.114 59.2701L141.907 54.8877L147.596 52.7547L149 56.5ZM169 116.5C169 93.0481 162.511 72.9938 149.9 57.5278L156.1 52.4722C170.074 69.6095 177 91.5469 177 116.5H169ZM169.026 116.957C166.325 93.4555 157.293 70.9144 146.114 59.2701L151.886 53.7299C164.707 67.0861 174.158 91.5446 176.974 116.043L169.026 116.957ZM147.596 52.7547L151.596 51.2547L154.404 58.7453L150.404 60.2453L147.596 52.7547Z" fill="white" mask="url(#path-2-inside-1_1_3)"/>
    <path fill-rule="evenodd" clip-rule="evenodd" d="M97.3193 90L40 55.0127C56.2728 36.3169 75.6243 27 97.3193 27C104.52 27 111.495 28.0131 117.99 29.7813V77.5775H118.002L97.3193 90ZM96.8793 67.0423C102.223 67.0423 107.555 61.6723 107.555 56.2817C107.555 50.8911 102.223 45.5211 96.8793 45.5211C91.5356 45.5211 86.2036 50.8911 86.2036 56.2817C86.2036 61.6723 91.5356 67.0423 96.8793 67.0423Z" fill="white"/>
    <path d="M153 55L121.268 74.415V31.4179C136.218 36.6342 146 45.5 153 55Z" fill="white"/>
    <mask id="path-5-inside-2_1_3" fill="white">
        <path d="M40 55C26.7073 71.3017 20 92.2975 20 116.5C22.7589 92.5 32 69.0002 44 56.5L40 55Z"/>
    </mask>
    <path d="M20 116.5H16L23.9738 116.957L20 116.5ZM40 55L41.4045 51.2547L38.7151 50.2462L36.9 52.4722L40 55ZM44 56.5L46.8856 59.2701L51.0926 54.8877L45.4045 52.7547L44 56.5ZM24 116.5C24 93.0481 30.4887 72.9938 43.1 57.5278L36.9 52.4722C22.9258 69.6095 16 91.5469 16 116.5H24ZM23.9738 116.957C26.6754 93.4555 35.7073 70.9144 46.8856 59.2701L41.1144 53.7299C28.2927 67.0861 18.8424 91.5446 16.0262 116.043L23.9738 116.957ZM45.4045 52.7547L41.4045 51.2547L38.5955 58.7453L42.5955 60.2453L45.4045 52.7547Z" fill="white" mask="url(#path-5-inside-2_1_3)"/>
    <defs>
        <linearGradient id="paint0_linear_1_3" x1="96.5" y1="0" x2="96.5" y2="193" gradientUnits="userSpaceOnUse">
            <stop stop-color="#3C5EBA"/>
            <stop offset="1" stop-color="#2E4A95"/>
        </linearGradient>
    </defs>
</svg>
