<svg width="193" height="193" viewBox="0 0 193 193" fill="none" xmlns="http://www.w3.org/2000/svg">
    <circle cx="96.5" cy="96.5" r="96.5" fill="url(#paint0_linear_22023_59568)"/>
    <path fill-rule="evenodd" clip-rule="evenodd" d="M97.3193 90L43.4288 57.1056C43.3077 57.2361 43.187 57.3678 43.0666 57.5005C42.4261 58.2066 41.7939 58.944 41.1707 59.711C30.5608 72.7691 22.5378 94.4229 20 116.5C20 92.2975 26.7073 71.3017 40 55L40.0083 55.0031C56.2794 36.3137 75.628 27 97.3193 27C104.52 27 111.495 28.0131 117.99 29.7813V77.5775H118.002L97.3193 90ZM96.8793 67.0423C102.223 67.0423 107.555 61.6723 107.555 56.2817C107.555 50.8911 102.223 45.5211 96.8793 45.5211C91.5356 45.5211 86.2036 50.8911 86.2036 56.2817C86.2036 61.6723 91.5356 67.0423 96.8793 67.0423ZM149.499 57.1418L121.268 74.415V31.4179C136.218 36.6342 146 45.5 153 55C153.322 55.469 153.64 55.9397 153.956 56.412C165.423 73.5643 173 92.9461 173 116.5C170.451 94.328 161.517 73.8629 151.497 59.8355C151.226 59.4553 150.953 59.0799 150.68 58.7093C150.288 58.1767 149.894 57.6541 149.499 57.1418Z" fill="white"/>
    <defs>
        <linearGradient id="paint0_linear_22023_59568" x1="96.5" y1="0" x2="96.5" y2="193" gradientUnits="userSpaceOnUse">
            <stop stop-color="#3C5EBA"/>
            <stop offset="1" stop-color="#2E4A95"/>
        </linearGradient>
    </defs>
</svg>