<svg width="192" height="192" viewBox="0 0 192 192" fill="none" xmlns="http://www.w3.org/2000/svg">
    <path
        d="M0 96C0 42.9807 42.9807 0 96 0C149.019 0 192 42.9807 192 96C192 149.019 149.019 192 96 192C42.9807 192 0 149.019 0 96Z"
        fill="url(#paint0_linear_2842_14009)" />
    <path fill-rule="evenodd" clip-rule="evenodd"
        d="M65.9989 36H46V155.993H85.9978V151.193C92.0024 154.266 98.8059 156 106.014 156C130.314 156 150.012 136.302 150.012 112.003C150.012 87.7033 130.314 68.0052 106.014 68.0052C98.8059 68.0052 92.0024 69.7387 85.9978 72.8117V41.2114V36H65.9989ZM85.9978 72.8117C71.7615 80.0972 62.0171 94.9119 62.0171 112.003C62.0171 129.093 71.7615 143.908 85.9978 151.193V72.8117Z"
        fill="#121B44" />
    <defs>
        <linearGradient id="paint0_linear_2842_14009" x1="96" y1="0" x2="96" y2="192"
            gradientUnits="userSpaceOnUse">
            <stop stop-color="#63D77D" />
            <stop offset="1" stop-color="#3CCD5D" />
        </linearGradient>
    </defs>
</svg>
