<svg width="192" height="193" viewBox="0 0 192 193" fill="none" xmlns="http://www.w3.org/2000/svg">
    <rect x="4" y="4.47754" width="184" height="184" rx="92" fill="white"/>
    <path d="M95.9861 36.4775L95.1816 39.2119V118.557L95.9861 119.36L132.817 97.5892L95.9861 36.4775Z" fill="#6697FF"/>
    <path d="M95.9907 36.4775L59.1597 97.5892L95.9907 119.36V80.8485V36.4775Z" fill="#0052FF"/>
    <path d="M95.9885 126.333L95.5352 126.886V155.15L95.9885 156.474L132.842 104.573L95.9885 126.333Z" fill="#6697FF"/>
    <path d="M95.9902 156.474V126.333L59.1592 104.573L95.9902 156.474Z" fill="#0052FF"/>
    <path d="M95.9941 119.359L132.825 97.5883L95.9941 80.8477V119.359Z" fill="#CCDCFF"/>
    <path d="M59.1592 97.5883L95.9896 119.359V80.8477L59.1592 97.5883Z" fill="#6697FF"/>
    <rect x="4" y="4.47754" width="184" height="184" rx="92" stroke="#0052FF" stroke-width="8"/>
    <path d="M148 88.4775C172.301 88.4775 192 68.7781 192 44.4775C192 20.177 172.301 0.477539 148 0.477539C123.699 0.477539 104 20.177 104 44.4775C104 68.7781 123.699 88.4775 148 88.4775Z" fill="url(#paint0_linear_671_24657)"/>
    <path fill-rule="evenodd" clip-rule="evenodd" d="M138.752 67.9628C130.481 67.9628 126.829 54.7626 126.829 42.7196C126.614 36.74 128.891 24.5015 139.719 23.3843C153.254 21.9879 167.339 34.341 170.226 40.2489C173.113 46.1569 172.911 51.0982 164.855 53.7836C158.41 55.932 149.958 57.9729 146.538 58.7248C145.774 64.3134 143.809 67.9628 138.752 67.9628ZM147.023 46.157L146.97 46.0624C146.845 46.1295 146.888 46.157 147.023 46.157ZM146.97 46.0624C143.951 40.6379 144.571 37.1321 150.125 37.1321C155.71 37.1321 170.118 40.5712 157.657 43.3641C149.899 45.103 147.407 45.8269 146.97 46.0624ZM139.308 64.9796C142.917 64.2685 144.968 59.2566 143.89 53.7852C142.812 48.3139 139.013 44.4549 135.404 45.1661C131.795 45.8772 129.744 50.8891 130.822 56.3604C131.9 61.8318 135.699 65.6907 139.308 64.9796Z" fill="white"/>
    <defs>
        <linearGradient id="paint0_linear_671_24657" x1="148" y1="0.477539" x2="148" y2="88.4775" gradientUnits="userSpaceOnUse">
            <stop stop-color="#3465A4"/>
            <stop offset="1" stop-color="#164786"/>
        </linearGradient>
    </defs>
</svg>
