<svg width="192" height="192" viewBox="0 0 192 192" fill="none" xmlns="http://www.w3.org/2000/svg">
    <rect x="4" y="4" width="184" height="184" rx="92" fill="white"/>
        <path d="M95.9851 32.0195L95.127 34.9362V119.571L95.9851 120.427L135.271 97.2053L95.9851 32.0195Z" fill="#6697FF"/>
        <path d="M95.9902 32.0195L56.7038 97.2053L95.9902 120.428V79.3486V32.0195Z" fill="#0052FF"/>
        <path d="M95.9875 127.865L95.5039 128.455V158.604L95.9875 160.016L135.297 104.655L95.9875 127.865Z" fill="#6697FF"/>
        <path d="M95.9895 160.016V127.865L56.7031 104.655L95.9895 160.016Z" fill="#0052FF"/>
        <path d="M95.9935 120.426L135.279 97.2044L95.9935 79.3477V120.426Z" fill="#CCDCFF"/>
        <path d="M56.7031 97.2044L95.9889 120.426V79.3477L56.7031 97.2044Z" fill="#6697FF"/>
    <rect x="4" y="4" width="184" height="184" rx="92" stroke="#0052FF" stroke-width="8"/>
</svg>
