<svg width="194" height="193" viewBox="0 0 194 193" fill="none" xmlns="http://www.w3.org/2000/svg" data-reactroot=""><circle cx="96.6162" cy="96.5" r="96.5" fill="url(#comp_icon_564c25bb-6967-4e18-a1e3-d9fe9d89a7ef)" fill-opacity="0.9"></circle><path fill-rule="evenodd" clip-rule="evenodd" d="M53.3139 129.449C50.2439 127.653 48.3662 124.454 48.3662 121.018V101.835C48.3662 101.101 48.5718 100.393 48.9555 99.7636C50.1479 97.7966 52.7931 97.1282 54.8489 98.2819L100.104 123.522C102.749 125.004 104.38 127.706 104.38 130.642V150.52C104.38 151.425 104.12 152.33 103.627 153.103C102.133 155.437 98.9529 156.172 96.5132 154.742L53.3139 129.449ZM120.772 93.0238C123.417 94.5055 125.048 97.2069 125.048 100.144V140.476C125.048 141.67 124.376 142.771 123.294 143.348L113.385 148.685C113.261 148.75 113.124 148.803 112.987 148.842V126.447C112.987 123.549 111.397 120.861 108.793 119.366L69.0477 96.6167V71.3366C69.0477 70.6023 69.2533 69.8943 69.637 69.2649C70.8294 67.2981 73.4746 66.6294 75.5304 67.7832L120.772 93.0238ZM140.576 63.2333C143.235 64.7019 144.866 67.4292 144.866 70.3663V129.279C144.866 130.485 144.167 131.599 143.057 132.177L133.669 137.028V96.0134C133.669 93.1159 132.079 90.4408 129.489 88.9459L88.8658 65.6329V41.6509C88.8658 40.9166 89.0713 40.2086 89.4414 39.5792C90.6338 37.6124 93.2789 36.9437 95.3348 38.0844L140.576 63.2333Z" fill="white"></path><defs><linearGradient id="comp_icon_564c25bb-6967-4e18-a1e3-d9fe9d89a7ef" x1="193.116" y1="2.46321" x2="193.116" y2="193" gradientUnits="userSpaceOnUse"><stop stop-color="#01D395"></stop><stop offset="1" stop-color="#01D395"></stop></linearGradient></defs></svg>