<svg width="193" height="193" viewBox="0 0 193 193" fill="none" xmlns="http://www.w3.org/2000/svg" data-reactroot=""><circle cx="96.5" cy="96.5" r="96.5" fill="url(#cream_icon_13bb4167-16fd-48e4-830c-e41d0e07147c)"></circle><path d="M107.865 100.437L133.543 125.896C134.034 126.386 134.414 126.973 134.658 127.62C134.902 128.266 135.004 128.957 134.958 129.645C134.912 130.334 134.718 131.005 134.39 131.614C134.062 132.223 133.607 132.755 133.055 133.176C126.202 138.512 117.972 141.827 109.307 142.742C100.642 143.656 91.8929 142.133 84.0608 138.346C76.2286 134.559 69.6303 128.663 65.0213 121.331C60.4124 113.999 57.9791 105.528 58.0001 96.889C58.0212 88.2497 60.4956 79.7909 65.1402 72.4812C69.7848 65.1714 76.4117 59.3062 84.2622 55.5571C92.1127 51.808 100.869 50.3266 109.53 51.2824C118.19 52.2383 126.404 55.5928 133.23 60.9619C133.756 61.39 134.185 61.9232 134.489 62.5268C134.794 63.1303 134.966 63.7906 134.995 64.4647C135.025 65.1387 134.911 65.8114 134.66 66.4387C134.41 67.0661 134.029 67.6342 133.543 68.1058L107.845 93.5839C107.393 94.0331 107.035 94.5659 106.791 95.1521C106.542 95.7676 106.416 96.4251 106.42 97.0881C106.412 97.7534 106.545 98.4129 106.81 99.0242C107.05 99.6128 107.409 100.147 107.865 100.592V100.437Z" fill="white"></path><defs><linearGradient id="cream_icon_13bb4167-16fd-48e4-830c-e41d0e07147c" x1="96.5" y1="0" x2="96.5" y2="193" gradientUnits="userSpaceOnUse"><stop stop-color="#69E2DC"></stop><stop offset="1" stop-color="#2DA6A0"></stop></linearGradient></defs></svg>