<svg width="193" height="193" viewBox="0 0 193 193" fill="none" xmlns="http://www.w3.org/2000/svg" data-reactroot=""><circle cx="96.5" cy="96.5" r="96.5" fill="url(#1_crv_alusd_icon_dad885bf-cbd4-49b7-b97b-f5e568ea7141)"></circle><path fill-rule="evenodd" clip-rule="evenodd" d="M150 63.9282L96.0536 33.8563L42.1074 63.9282V124.072L96.0536 154.144L150 124.072V63.9282ZM77.438 81.2684C77.438 72.9829 82.8441 65.9533 90.326 63.5345V58.9162H101.782V63.5345C109.264 65.9533 114.67 72.9829 114.67 81.2684H103.214C103.214 77.2981 100.001 74.092 96.0539 74.092C92.1065 74.092 88.894 77.2981 88.894 81.2684C88.894 82.6814 89.378 83.6018 90.73 84.6628C92.3859 85.9625 94.8154 87.0204 98.1632 88.3464C98.4056 88.4424 98.6549 88.5405 98.9099 88.6409C101.766 89.7648 105.346 91.174 108.183 93.1459C111.572 95.5014 114.67 99.1912 114.67 104.773C114.67 113.058 109.264 120.088 101.782 122.507V129.084H90.326V122.507C82.8441 120.088 77.438 113.058 77.438 104.773H88.894C88.894 108.743 92.1065 111.949 96.0539 111.949C100.001 111.949 103.214 108.743 103.214 104.773C103.214 104.141 103.089 103.557 101.645 102.553C99.9518 101.376 97.5698 100.433 94.2358 99.1126L93.9446 98.9973C90.8485 97.7711 86.834 96.1681 83.657 93.6746C80.1759 90.9425 77.438 86.9372 77.438 81.2684Z" fill="white"></path><path d="M191.5 44.5C191.5 68.2482 172.248 87.5 148.5 87.5C124.752 87.5 105.5 68.2482 105.5 44.5C105.5 20.7518 124.752 1.5 148.5 1.5C172.248 1.5 191.5 20.7518 191.5 44.5Z" fill="url(#2_crv_alusd_icon_dad885bf-cbd4-49b7-b97b-f5e568ea7141)" stroke="white" stroke-width="3"></path><path fill-rule="evenodd" clip-rule="evenodd" d="M139.147 68.2523C130.782 68.2523 127.088 54.9021 127.088 42.7223C126.871 36.6747 129.174 24.2971 140.125 23.1673C153.813 21.755 168.059 34.2484 170.978 40.2236C173.898 46.1987 173.694 51.1961 165.546 53.912C159.028 56.0848 150.48 58.1489 147.021 58.9094C146.249 64.5615 144.262 68.2523 139.147 68.2523ZM147.512 46.1987L147.458 46.1031C147.332 46.171 147.375 46.1987 147.512 46.1987ZM147.458 46.1031C144.405 40.6169 145.032 37.0713 150.649 37.0713C156.298 37.0713 170.869 40.5495 158.267 43.3741C150.421 45.1328 147.9 45.8649 147.458 46.1031ZM139.709 65.2353C143.359 64.5161 145.434 59.4472 144.344 53.9137C143.253 48.3801 139.411 44.4774 135.761 45.1966C132.111 45.9158 130.036 50.9846 131.127 56.5181C132.217 62.0517 136.06 65.9545 139.709 65.2353Z" fill="white"></path><defs><linearGradient id="1_crv_alusd_icon_dad885bf-cbd4-49b7-b97b-f5e568ea7141" x1="96.5" y1="0" x2="96.5" y2="193" gradientUnits="userSpaceOnUse"><stop stop-color="#414141"></stop><stop offset="1" stop-color="#1E1E1E"></stop></linearGradient><linearGradient id="2_crv_alusd_icon_dad885bf-cbd4-49b7-b97b-f5e568ea7141" x1="148.5" y1="0" x2="148.5" y2="89" gradientUnits="userSpaceOnUse"><stop stop-color="#3465A4"></stop><stop offset="1" stop-color="#164786"></stop></linearGradient></defs></svg>