<svg width="194" height="193" viewBox="0 0 194 193" fill="none" xmlns="http://www.w3.org/2000/svg" data-reactroot=""><circle cx="96.5" cy="96.5" r="96.5" fill="url(#1_crv_comp_icon_5bb51f59-3b62-4f7d-89ca-e2f52314b969)"></circle><path fill-rule="evenodd" clip-rule="evenodd" d="M52.1977 129.449C49.1276 127.653 47.25 124.454 47.25 121.018V101.835C47.25 101.101 47.4556 100.393 47.8393 99.7636C49.0317 97.7966 51.6769 97.1282 53.7327 98.2819L98.9882 123.522C101.633 125.004 103.264 127.706 103.264 130.642V150.52C103.264 151.425 103.004 152.33 102.51 153.103C101.016 155.437 97.8366 156.172 95.397 154.742L52.1977 129.449ZM119.656 93.0238C122.301 94.5055 123.932 97.2069 123.932 100.144V140.476C123.932 141.67 123.26 142.771 122.178 143.348L112.268 148.685C112.145 148.75 112.008 148.803 111.871 148.842V126.447C111.871 123.549 110.281 120.861 107.677 119.366L67.9315 96.6167V71.3366C67.9315 70.6023 68.1371 69.8943 68.5208 69.2649C69.7132 67.2981 72.3584 66.6294 74.4141 67.7832L119.656 93.0238ZM139.46 63.2333C142.119 64.7019 143.75 67.4292 143.75 70.3663V129.279C143.75 130.485 143.051 131.599 141.941 132.177L132.552 137.028V96.0134C132.552 93.1159 130.963 90.4408 128.373 88.9459L87.7495 65.6329V41.6509C87.7495 40.9166 87.9551 40.2086 88.3252 39.5792C89.5175 37.6124 92.1627 36.9437 94.2186 38.0844L139.46 63.2333Z" fill="white"></path><path d="M192.5 44.5C192.5 68.2482 173.248 87.5 149.5 87.5C125.752 87.5 106.5 68.2482 106.5 44.5C106.5 20.7518 125.752 1.5 149.5 1.5C173.248 1.5 192.5 20.7518 192.5 44.5Z" fill="url(#2_crv_comp_icon_5bb51f59-3b62-4f7d-89ca-e2f52314b969)" stroke="white" stroke-width="3"></path><path fill-rule="evenodd" clip-rule="evenodd" d="M140.147 68.2523C131.782 68.2523 128.088 54.9021 128.088 42.7223C127.871 36.6747 130.174 24.2971 141.125 23.1673C154.813 21.755 169.059 34.2484 171.978 40.2236C174.898 46.1987 174.694 51.1961 166.546 53.912C160.028 56.0848 151.48 58.1489 148.021 58.9094C147.249 64.5615 145.262 68.2523 140.147 68.2523ZM148.512 46.1987L148.458 46.1031C148.332 46.171 148.375 46.1987 148.512 46.1987ZM148.458 46.1031C145.405 40.6169 146.032 37.0713 151.649 37.0713C157.298 37.0713 171.869 40.5495 159.267 43.3741C151.421 45.1328 148.9 45.8649 148.458 46.1031ZM140.709 65.2353C144.359 64.5161 146.434 59.4472 145.344 53.9137C144.253 48.3801 140.411 44.4774 136.761 45.1966C133.111 45.9158 131.036 50.9846 132.127 56.5181C133.217 62.0517 137.06 65.9545 140.709 65.2353Z" fill="white"></path><defs><linearGradient id="1_crv_comp_icon_5bb51f59-3b62-4f7d-89ca-e2f52314b969" x1="193" y1="2.46321" x2="193" y2="193" gradientUnits="userSpaceOnUse"><stop stop-color="#01D395"></stop><stop offset="1" stop-color="#00A776"></stop></linearGradient><linearGradient id="2_crv_comp_icon_5bb51f59-3b62-4f7d-89ca-e2f52314b969" x1="149.5" y1="0" x2="149.5" y2="89" gradientUnits="userSpaceOnUse"><stop stop-color="#3465A4"></stop><stop offset="1" stop-color="#164786"></stop></linearGradient></defs></svg>
