<svg width="193" height="193" viewBox="0 0 193 193" fill="none" xmlns="http://www.w3.org/2000/svg" data-reactroot=""><circle opacity="0.9" cx="96.5" cy="96.5" r="96.5" fill="url(#1_crv_eurt_icon_34901333-1fe7-4686-be82-5dbcf9404e2a)"></circle><path d="M130.699 44.5988H61.7665L43.3845 92.4034L96.6922 149.401L150 92.4034L130.699 44.5988Z" fill="white"></path><path d="M90.9053 83.351V76.258H74.9499V65.4505H118.397V76.258H102.44V83.3453C115.408 83.9509 125.159 86.5619 125.159 89.6898C125.159 92.8177 115.403 95.4287 102.44 96.0381V118.758H90.9015V96.0362C77.9564 95.4287 68.225 92.8196 68.225 89.6946C68.225 86.5695 77.9564 83.9604 90.9015 83.3529L90.9053 83.351ZM90.9015 94.1118V94.106C91.227 94.127 92.8996 94.2291 96.6236 94.2291C99.601 94.2291 101.696 94.1432 102.434 94.1041V94.1137C113.891 93.5978 122.444 91.5694 122.444 89.1424C122.444 86.7154 113.89 84.6899 102.434 84.1731V92.0929C101.683 92.1454 99.5372 92.2741 96.5749 92.2741C93.0168 92.2741 91.228 92.1235 90.8996 92.0929V84.1731C79.4648 84.6909 70.9323 86.7212 70.9323 89.1396C70.9323 91.558 79.4685 93.5892 90.8996 94.107" fill="#636B82"></path><path d="M148.5 89C173.077 89 193 69.0767 193 44.5C193 19.9233 173.077 0 148.5 0C123.923 0 104 19.9233 104 44.5C104 69.0767 123.923 89 148.5 89Z" fill="url(#2_crv_eurt_icon_34901333-1fe7-4686-be82-5dbcf9404e2a)"></path><path fill-rule="evenodd" clip-rule="evenodd" d="M139.147 68.2523C130.782 68.2523 127.088 54.9021 127.088 42.7223C126.871 36.6747 129.174 24.2971 140.125 23.1673C153.813 21.755 168.059 34.2484 170.978 40.2236C173.898 46.1987 173.694 51.1961 165.546 53.912C159.028 56.0848 150.48 58.1489 147.021 58.9094C146.249 64.5615 144.262 68.2523 139.147 68.2523ZM147.512 46.1987L147.458 46.1031C147.332 46.171 147.375 46.1987 147.512 46.1987ZM147.458 46.1031C144.405 40.6169 145.032 37.0713 150.649 37.0713C156.298 37.0713 170.869 40.5495 158.267 43.3741C150.421 45.1328 147.9 45.8649 147.458 46.1031ZM139.709 65.2353C143.359 64.5161 145.434 59.4472 144.344 53.9137C143.253 48.3801 139.411 44.4774 135.761 45.1966C132.111 45.9158 130.036 50.9846 131.127 56.5181C132.217 62.0517 136.06 65.9545 139.709 65.2353Z" fill="white"></path><defs><linearGradient id="1_crv_eurt_icon_34901333-1fe7-4686-be82-5dbcf9404e2a" x1="96.5" y1="0" x2="96.5" y2="193" gradientUnits="userSpaceOnUse"><stop stop-color="#8891B1"></stop><stop offset="1" stop-color="#555A6F"></stop></linearGradient><linearGradient id="2_crv_eurt_icon_34901333-1fe7-4686-be82-5dbcf9404e2a" x1="148.5" y1="0" x2="148.5" y2="89" gradientUnits="userSpaceOnUse"><stop stop-color="#3465A4"></stop><stop offset="1" stop-color="#164786"></stop></linearGradient></defs></svg>