<svg width="193" height="193" viewBox="0 0 193 193" fill="none" xmlns="http://www.w3.org/2000/svg" data-reactroot=""><circle cx="96.5" cy="96.5" r="96.5" fill="url(#1_crv_eurs_icon_35336a8b-8ed2-44ff-b26a-d0ba99bfd891)"></circle><path d="M127 51.1385L124.44 62.6689C119.361 58.4912 113.616 56.4024 107.205 56.4024C98.5043 56.4024 91.6665 58.909 86.6917 63.9222C81.717 68.9354 78.73 74.5543 77.7309 80.779H120.318L118.695 89.2388H76.7318L76.6068 91.6828L76.7318 97.4479H116.884L115.26 105.908H78.0431C79.625 114.388 83.0491 120.623 88.3153 124.613C93.5815 128.603 99.5242 130.598 106.143 130.598C113.97 130.598 120.069 128.53 124.44 124.394V137.365C119.278 139.788 113.533 141 107.205 141C84.2252 141 70.3624 129.303 65.6165 105.908H56L57.8109 97.4479H64.3052C64.2219 96.4452 64.1803 94.5653 64.1803 91.8081V89.2388H56L57.8109 80.779H65.117C67.2817 69.2487 72.2981 60.5696 80.1662 54.7418C88.0343 48.9139 97.1305 46 107.455 46C115.198 46 121.713 47.7128 127 51.1385Z" fill="white"></path><path d="M191.5 44.5C191.5 68.2482 172.248 87.5 148.5 87.5C124.752 87.5 105.5 68.2482 105.5 44.5C105.5 20.7518 124.752 1.5 148.5 1.5C172.248 1.5 191.5 20.7518 191.5 44.5Z" fill="url(#2_crv_eurs_icon_35336a8b-8ed2-44ff-b26a-d0ba99bfd891)" stroke="white" stroke-width="3"></path><path fill-rule="evenodd" clip-rule="evenodd" d="M139.147 68.2523C130.782 68.2523 127.088 54.9021 127.088 42.7223C126.871 36.6747 129.174 24.2971 140.125 23.1673C153.813 21.755 168.059 34.2484 170.978 40.2236C173.898 46.1987 173.694 51.1961 165.546 53.912C159.028 56.0848 150.48 58.1489 147.021 58.9094C146.249 64.5615 144.262 68.2523 139.147 68.2523ZM147.512 46.1987L147.458 46.1031C147.332 46.171 147.375 46.1987 147.512 46.1987ZM147.458 46.1031C144.405 40.6169 145.032 37.0713 150.649 37.0713C156.298 37.0713 170.869 40.5495 158.267 43.3741C150.421 45.1328 147.9 45.8649 147.458 46.1031ZM139.709 65.2353C143.359 64.5161 145.434 59.4472 144.344 53.9137C143.253 48.3801 139.411 44.4774 135.761 45.1966C132.111 45.9158 130.036 50.9846 131.127 56.5181C132.217 62.0517 136.06 65.9545 139.709 65.2353Z" fill="white"></path><defs><linearGradient id="1_crv_eurs_icon_35336a8b-8ed2-44ff-b26a-d0ba99bfd891" x1="96.5" y1="0" x2="96.5" y2="193" gradientUnits="userSpaceOnUse"><stop stop-color="#414141"></stop><stop offset="1" stop-color="#1E1E1E"></stop></linearGradient><linearGradient id="2_crv_eurs_icon_35336a8b-8ed2-44ff-b26a-d0ba99bfd891" x1="148.5" y1="0" x2="148.5" y2="89" gradientUnits="userSpaceOnUse"><stop stop-color="#3465A4"></stop><stop offset="1" stop-color="#164786"></stop></linearGradient></defs></svg>