<svg width="193" height="193" viewBox="0 0 193 193" fill="none" xmlns="http://www.w3.org/2000/svg" data-reactroot=""><circle cx="96.5" cy="96.5" r="96.5" fill="url(#1_crv_frax_icon_513e858c-54a0-40af-b3fd-9a3c7ecd46c0)"></circle><path d="M51.6293 50.6505C48.1614 54.2624 45.3005 57.301 45.2716 57.3583C45.2427 57.4443 48.3637 60.4829 52.2072 64.0948C56.0507 67.7354 59.403 70.9173 59.6342 71.118L60.0676 71.5193L59.2874 72.8093C52.4384 84.0463 51.0224 97.5766 55.3283 110.018C56.1374 112.368 57.5246 115.378 58.7094 117.356C59.2874 118.331 59.5475 118.961 59.4897 119.076C59.4319 119.191 55.9352 122.86 51.716 127.246C47.4968 131.603 44.0579 135.244 44.0001 135.301C43.9712 135.387 55.7907 146.71 56.9177 147.627L57.3512 148L64.0268 141.091C67.6969 137.279 71.1358 133.696 71.656 133.151L72.6385 132.176L73.5633 132.75C78.2737 135.731 83.7934 137.795 89.891 138.884C92.9542 139.429 98.7917 139.572 102.057 139.171C108.357 138.454 114.599 136.362 119.714 133.294L121.044 132.492L122.46 133.868C125.552 136.849 137.111 147.742 137.227 147.799C137.342 147.857 150.029 134.699 150 134.527C149.971 134.441 141.273 126.157 135.955 121.197L134.192 119.535L135.002 118.216C141.793 107.008 143.209 93.4201 138.816 80.8931C138.18 79.0584 136.244 74.9305 135.117 73.0386L134.568 72.0926L141.995 64.3815C146.07 60.1676 149.393 56.6417 149.364 56.5557C149.249 56.269 136.244 44.086 136.071 44.086C135.955 44.086 132.69 47.3826 128.788 51.4531C124.887 55.495 121.65 58.8203 121.564 58.849C121.506 58.8776 121.13 58.7056 120.784 58.4476C119.801 57.7883 117.316 56.441 115.929 55.8104C111.709 53.8897 107.779 52.7144 103.213 52.0551C100.844 51.7111 93.7345 51.6538 91.5382 51.9691C86.2786 52.7144 81.9728 54.0044 77.5802 56.183C76.3086 56.785 74.8348 57.5877 74.2568 57.9316L73.2165 58.5623L72.0316 57.4157C71.3959 56.785 68.506 54.0904 65.6451 51.3671C62.7841 48.6726 59.8654 45.9206 59.1718 45.2326L57.9003 44L51.6293 50.6505ZM100.15 69.3407C104.745 69.8853 108.848 71.4333 112.634 74.0706C114.57 75.4179 117.46 78.2845 118.818 80.2051C126.534 91.0408 125.061 105.775 115.351 114.805C107.057 122.487 95.0638 124.207 84.9782 119.105C77.6958 115.407 72.5518 108.642 70.9046 100.529C70.3844 97.9493 70.3844 93.1334 70.9046 90.5821C71.3959 88.0595 72.0605 86.2536 73.3032 83.731C78.2737 73.8126 89.0529 68.022 100.15 69.3407Z" fill="#383838"></path><path d="M191.5 44.5C191.5 68.2482 172.248 87.5 148.5 87.5C124.752 87.5 105.5 68.2482 105.5 44.5C105.5 20.7518 124.752 1.5 148.5 1.5C172.248 1.5 191.5 20.7518 191.5 44.5Z" fill="url(#2_crv_frax_icon_513e858c-54a0-40af-b3fd-9a3c7ecd46c0)" stroke="white" stroke-width="3"></path><path fill-rule="evenodd" clip-rule="evenodd" d="M139.147 68.2523C130.782 68.2523 127.088 54.9021 127.088 42.7223C126.871 36.6747 129.174 24.2971 140.125 23.1673C153.813 21.755 168.059 34.2484 170.978 40.2236C173.898 46.1987 173.694 51.1961 165.546 53.912C159.028 56.0848 150.48 58.1489 147.021 58.9094C146.249 64.5615 144.262 68.2523 139.147 68.2523ZM147.512 46.1987L147.458 46.1031C147.332 46.171 147.375 46.1987 147.512 46.1987ZM147.458 46.1031C144.405 40.6169 145.032 37.0713 150.649 37.0713C156.298 37.0713 170.869 40.5495 158.267 43.3741C150.421 45.1328 147.9 45.8649 147.458 46.1031ZM139.709 65.2353C143.359 64.5161 145.434 59.4472 144.344 53.9137C143.253 48.3801 139.411 44.4774 135.761 45.1966C132.111 45.9158 130.036 50.9846 131.127 56.5181C132.217 62.0517 136.06 65.9545 139.709 65.2353Z" fill="white"></path><defs><linearGradient id="1_crv_frax_icon_513e858c-54a0-40af-b3fd-9a3c7ecd46c0" x1="96.5" y1="0" x2="96.5" y2="193" gradientUnits="userSpaceOnUse"><stop stop-color="white"></stop><stop offset="0.552083" stop-color="white"></stop><stop offset="1" stop-color="#C5C5C5"></stop></linearGradient><linearGradient id="2_crv_frax_icon_513e858c-54a0-40af-b3fd-9a3c7ecd46c0" x1="148.5" y1="0" x2="148.5" y2="89" gradientUnits="userSpaceOnUse"><stop stop-color="#3465A4"></stop><stop offset="1" stop-color="#164786"></stop></linearGradient></defs></svg>