<svg width="193" height="193" viewBox="0 0 193 193" fill="none" xmlns="http://www.w3.org/2000/svg" data-reactroot=""><circle cx="96.5" cy="96.5" r="96.5" fill="url(#1_crv_seth_icon_f17609eb-aa6f-467e-922c-f0bfd4709991)"></circle><path d="M109.819 51C93.9873 51 80.5405 63.1745 78.8509 78.8468C63.1705 80.5405 51 93.9873 51 109.815C51.0043 118.084 54.2907 126.013 60.1372 131.86C65.9837 137.707 73.9122 140.995 82.1809 141C98.0127 141 111.513 128.825 113.149 113.153C128.825 111.46 141 98.0127 141 82.185C140.996 73.9163 137.709 65.9874 131.863 60.1401C126.016 54.2928 118.088 51.0054 109.819 51ZM133.694 85.6745C132.915 90.7884 130.522 95.5196 126.865 99.1773C123.207 102.835 118.476 105.228 113.362 106.006V85.6745H133.694ZM58.3064 106.325C59.0744 101.202 61.4626 96.4588 65.1212 92.7906C68.7798 89.1225 73.5166 86.7219 78.6382 85.9405V106.272H58.3064V106.325ZM106.06 113.362C105.215 119.09 102.338 124.323 97.9534 128.104C93.5693 131.886 87.9708 133.965 82.1809 133.96C76.3921 133.965 70.7947 131.887 66.4112 128.106C62.0278 124.325 59.151 119.093 58.3064 113.366H106.06V113.362ZM106.325 85.6745V106.272H85.6745V85.6745H106.325ZM133.694 78.6382H85.9405C86.7851 72.9102 89.6624 67.6773 94.0466 63.8955C98.4307 60.1137 104.029 58.0355 109.819 58.0405C115.608 58.0355 121.205 60.1133 125.589 63.8943C129.972 67.6754 132.849 72.9072 133.694 78.6341V78.6382Z" fill="white"></path><path d="M148.5 89C173.077 89 193 69.0767 193 44.5C193 19.9233 173.077 0 148.5 0C123.923 0 104 19.9233 104 44.5C104 69.0767 123.923 89 148.5 89Z" fill="url(#2_crv_seth_icon_f17609eb-aa6f-467e-922c-f0bfd4709991)"></path><path fill-rule="evenodd" clip-rule="evenodd" d="M139.147 68.2523C130.782 68.2523 127.088 54.9021 127.088 42.7223C126.871 36.6747 129.174 24.2971 140.125 23.1673C153.813 21.755 168.059 34.2484 170.978 40.2236C173.898 46.1987 173.694 51.1961 165.546 53.912C159.028 56.0848 150.48 58.1489 147.021 58.9094C146.249 64.5615 144.262 68.2523 139.147 68.2523ZM147.512 46.1987L147.458 46.1031C147.332 46.171 147.375 46.1987 147.512 46.1987ZM147.458 46.1031C144.405 40.6169 145.032 37.0713 150.649 37.0713C156.298 37.0713 170.869 40.5495 158.267 43.3741C150.421 45.1328 147.9 45.8649 147.458 46.1031ZM139.709 65.2353C143.359 64.5161 145.434 59.4472 144.344 53.9137C143.253 48.3801 139.411 44.4774 135.761 45.1966C132.111 45.9158 130.036 50.9846 131.127 56.5181C132.217 62.0517 136.06 65.9545 139.709 65.2353Z" fill="white"></path><defs><linearGradient id="1_crv_seth_icon_f17609eb-aa6f-467e-922c-f0bfd4709991" x1="96.5" y1="0" x2="96.5" y2="193" gradientUnits="userSpaceOnUse"><stop stop-color="#00DCFA"></stop><stop offset="1" stop-color="#0096B4"></stop></linearGradient><linearGradient id="2_crv_seth_icon_f17609eb-aa6f-467e-922c-f0bfd4709991" x1="148.5" y1="0" x2="148.5" y2="89" gradientUnits="userSpaceOnUse"><stop stop-color="#3465A4"></stop><stop offset="1" stop-color="#164786"></stop></linearGradient></defs></svg>