<svg width="193" height="193" viewBox="0 0 193 193" fill="none" xmlns="http://www.w3.org/2000/svg" data-reactroot=""><circle cx="96.5" cy="96.5" r="96.5" fill="url(#1_crv_hbtc_icon_6e036a6d-7f09-4397-baad-2851e6b5dfab)"></circle><path d="M109.375 72.2673C109.375 56.3024 101.679 42.548 95.7843 38.0451C95.7843 38.0451 95.375 37.7995 95.375 38.4545C94.8838 69.3199 79.2464 77.7527 70.568 88.969C50.6733 115.004 69.1762 143.495 88.0066 148.735C98.568 151.682 85.5504 143.495 83.913 126.302C81.9481 105.425 109.375 89.5421 109.375 72.2673Z" fill="white"></path><path d="M119.691 82.8286C119.609 82.7467 119.445 82.7467 119.282 82.8286C119.282 82.8286 119.282 82.8286 119.2 82.9105C118.872 86.7584 114.615 95.1093 109.293 102.723C91.1999 128.595 101.516 141.039 107.329 147.753C110.685 151.682 107.329 147.753 115.761 143.741C116.416 143.413 132.136 135.062 133.855 116.15C135.574 97.7292 123.867 86.1853 119.691 82.8286Z" fill="white"></path><circle cx="44.5" cy="44.5" r="43" fill="url(#2_crv_hbtc_icon_6e036a6d-7f09-4397-baad-2851e6b5dfab)" stroke="white" stroke-width="3"></circle><path fill-rule="evenodd" clip-rule="evenodd" d="M50.7334 37.7203C50.7334 42.3959 43.4407 41.827 41.1238 41.827V33.5901C43.4407 33.5901 50.7334 32.8576 50.7334 37.7203ZM52.6383 50.5082C52.6383 55.6202 43.8994 55.0358 41.116 55.0358V45.965C43.8994 45.9728 52.6383 45.1701 52.6383 50.5082ZM58.3916 35.8734C57.9251 30.9951 53.7267 29.3586 48.4166 28.8599V22.1348H44.3115V28.7274C43.2308 28.7274 42.1267 28.7274 41.0305 28.7664V22.1348H36.9487V28.8989H34.3364H28.6297V33.3018C28.6297 33.3018 31.6619 33.2472 31.6152 33.3018C32.7519 33.1763 33.7828 33.9758 33.9477 35.1097V53.6331C33.8979 54.4365 33.2083 55.0467 32.4067 54.9976C32.402 54.9976 32.3974 54.9976 32.3927 54.9968C32.4471 55.0435 29.4072 54.9968 29.4072 54.9968L28.5908 59.914H33.9399H36.8788V66.7872H40.9838V60.0153H44.2648V66.756H48.3777V59.9608C55.3128 59.54 60.1487 57.8256 60.7552 51.3186C61.245 46.0819 58.7881 43.7441 54.8619 42.8011C57.2487 41.5855 58.7493 39.4425 58.3916 35.8734Z" fill="white"></path><path d="M191.5 44.5C191.5 68.2482 172.248 87.5 148.5 87.5C124.752 87.5 105.5 68.2482 105.5 44.5C105.5 20.7518 124.752 1.5 148.5 1.5C172.248 1.5 191.5 20.7518 191.5 44.5Z" fill="url(#3_crv_hbtc_icon_6e036a6d-7f09-4397-baad-2851e6b5dfab)" stroke="white" stroke-width="3"></path><path fill-rule="evenodd" clip-rule="evenodd" d="M139.147 68.2523C130.782 68.2523 127.088 54.9021 127.088 42.7223C126.871 36.6747 129.174 24.2971 140.125 23.1673C153.813 21.755 168.059 34.2484 170.978 40.2236C173.898 46.1987 173.694 51.1961 165.546 53.912C159.028 56.0848 150.48 58.1489 147.021 58.9094C146.249 64.5615 144.262 68.2523 139.147 68.2523ZM147.512 46.1987L147.458 46.1031C147.332 46.171 147.375 46.1987 147.512 46.1987ZM147.458 46.1031C144.405 40.6169 145.032 37.0713 150.649 37.0713C156.298 37.0713 170.869 40.5495 158.267 43.3741C150.421 45.1328 147.9 45.8649 147.458 46.1031ZM139.709 65.2353C143.359 64.5161 145.434 59.4472 144.344 53.9137C143.253 48.3801 139.411 44.4774 135.761 45.1966C132.111 45.9158 130.036 50.9846 131.127 56.5181C132.217 62.0517 136.06 65.9545 139.709 65.2353Z" fill="white"></path><defs><linearGradient id="1_crv_hbtc_icon_6e036a6d-7f09-4397-baad-2851e6b5dfab" x1="96.5" y1="0" x2="96.5" y2="193" gradientUnits="userSpaceOnUse"><stop stop-color="#3EC3EC"></stop><stop offset="1" stop-color="#0F6C88"></stop></linearGradient><linearGradient id="2_crv_hbtc_icon_6e036a6d-7f09-4397-baad-2851e6b5dfab" x1="89" y1="1.13589" x2="89" y2="89" gradientUnits="userSpaceOnUse"><stop stop-color="#FB9D3E"></stop><stop offset="1" stop-color="#E7892A"></stop></linearGradient><linearGradient id="3_crv_hbtc_icon_6e036a6d-7f09-4397-baad-2851e6b5dfab" x1="148.5" y1="0" x2="148.5" y2="89" gradientUnits="userSpaceOnUse"><stop stop-color="#3465A4"></stop><stop offset="1" stop-color="#164786"></stop></linearGradient></defs></svg>