<svg width="193" height="194" viewBox="0 0 193 194" fill="none" xmlns="http://www.w3.org/2000/svg" data-reactroot=""><circle cx="96.5" cy="97.5" r="96.5" fill="url(#1_crv_husd_icon_102c9f82-7bf8-40a7-bc3e-440ae9a17404)"></circle><path fill-rule="evenodd" clip-rule="evenodd" d="M132 145H114.216V114.638C114.216 109.775 110.248 105.823 105.345 105.823H105.337H79.7757C69.9606 105.823 62 97.9279 62 88.1936V49.0083H79.7757V79.379C79.7757 84.242 83.7518 88.1936 88.6551 88.1936H114.216C124.031 88.2019 131.983 96.0887 131.992 105.823L132 145ZM80.3938 145H62.6098V115.391C72.4248 115.391 80.3854 123.278 80.3854 133.021L80.3938 145ZM113.606 49H131.382V78.6251C121.558 78.6251 113.606 70.7301 113.606 60.9959V49Z" fill="white"></path><path d="M191.5 44.5C191.5 68.2482 172.248 87.5 148.5 87.5C124.752 87.5 105.5 68.2482 105.5 44.5C105.5 20.7518 124.752 1.5 148.5 1.5C172.248 1.5 191.5 20.7518 191.5 44.5Z" fill="url(#2_crv_husd_icon_102c9f82-7bf8-40a7-bc3e-440ae9a17404)" stroke="white" stroke-width="3"></path><path fill-rule="evenodd" clip-rule="evenodd" d="M139.147 68.2523C130.782 68.2523 127.088 54.9021 127.088 42.7223C126.871 36.6747 129.174 24.2971 140.125 23.1673C153.813 21.755 168.059 34.2484 170.978 40.2236C173.898 46.1987 173.694 51.1961 165.546 53.912C159.028 56.0848 150.48 58.1489 147.021 58.9094C146.249 64.5615 144.262 68.2523 139.147 68.2523ZM147.512 46.1987L147.458 46.1031C147.332 46.171 147.375 46.1987 147.512 46.1987ZM147.458 46.1031C144.405 40.6169 145.032 37.0713 150.649 37.0713C156.298 37.0713 170.869 40.5495 158.267 43.3741C150.421 45.1328 147.9 45.8649 147.458 46.1031ZM139.709 65.2353C143.359 64.5161 145.434 59.4472 144.344 53.9137C143.253 48.3801 139.411 44.4774 135.761 45.1966C132.111 45.9158 130.036 50.9846 131.127 56.5181C132.217 62.0517 136.06 65.9545 139.709 65.2353Z" fill="white"></path><defs><linearGradient id="1_crv_husd_icon_102c9f82-7bf8-40a7-bc3e-440ae9a17404" x1="96.5" y1="193.988" x2="96.5" y2="0.988186" gradientUnits="userSpaceOnUse"><stop stop-color="#0042E1"></stop><stop offset="1" stop-color="#1C60FF"></stop></linearGradient><linearGradient id="2_crv_husd_icon_102c9f82-7bf8-40a7-bc3e-440ae9a17404" x1="148.5" y1="0" x2="148.5" y2="89" gradientUnits="userSpaceOnUse"><stop stop-color="#3465A4"></stop><stop offset="1" stop-color="#164786"></stop></linearGradient></defs></svg>