<svg width="193" height="193" viewBox="0 0 193 193" fill="none" xmlns="http://www.w3.org/2000/svg" data-reactroot=""><circle cx="96.5" cy="96.5" r="96.5" fill="url(#1_crv_ib_icon_ce59a927-47fb-4172-9583-35c1c16731c8)"></circle><path d="M109.735 100.93C121.112 89.0368 144.275 109.444 147.877 112.758C147.95 112.698 147.928 112.713 148 112.653C136.827 95.4452 116.565 91.2785 109.01 95.8533C101.376 100.475 113.63 111.253 113.63 111.253C95.4028 104.705 91.721 113.75 91.721 113.75C74.1266 111.025 73.4968 120.083 73.4968 120.083C58.5508 119.457 56.5731 106.447 56.5731 106.447C75.8304 108.088 80.2109 86.5676 80.2109 86.5676C80.2109 86.5676 84.6986 82.3598 99.3958 76.2707C114.093 70.1816 123.352 55.8284 123.352 55.8284C124.595 66.8241 110.534 82.287 110.534 82.287C119.884 81.073 140.726 70.58 140.726 70.58L131.341 83.7538C134.629 82.4893 139.356 82.0341 143.856 81.9456C146.353 81.895 148.048 79.3816 147.172 77.0326C139.52 56.5618 119.847 41.9968 96.7852 42C67.1292 42.0031 42.9403 66.3436 43.0001 96.1092C43.0599 125.881 67.1197 150 96.7911 150C113.416 150 128.28 142.425 138.146 130.528C140.703 127.446 140.971 123.029 138.767 119.681C129.152 105.075 109.735 100.93 109.735 100.93Z" fill="white"></path><path d="M90.2708 85C90.2708 85 86.7342 91.1646 83.799 90.9917L81 95.9984C82.6675 96.0502 83.8084 94.7953 84.28 94.1555L84.5238 93.7926L89.3702 91.9532C89.3702 91.9497 92.3314 87.1611 90.2708 85Z" fill="white"></path><path d="M149.92 86L145 88.5702C145 88.5702 149.059 89.395 151 91C150.545 87.9333 149.978 86.1469 149.92 86Z" fill="white"></path><path d="M190.5 44.5C190.5 68.2482 171.248 87.5 147.5 87.5C123.752 87.5 104.5 68.2482 104.5 44.5C104.5 20.7518 123.752 1.5 147.5 1.5C171.248 1.5 190.5 20.7518 190.5 44.5Z" fill="url(#2_crv_ib_icon_ce59a927-47fb-4172-9583-35c1c16731c8)" stroke="white" stroke-width="3"></path><path fill-rule="evenodd" clip-rule="evenodd" d="M138.147 68.2523C129.782 68.2523 126.088 54.9021 126.088 42.7223C125.871 36.6747 128.174 24.2971 139.125 23.1673C152.813 21.755 167.059 34.2484 169.978 40.2236C172.898 46.1987 172.694 51.1961 164.546 53.912C158.028 56.0848 149.48 58.1489 146.021 58.9094C145.249 64.5615 143.262 68.2523 138.147 68.2523ZM146.512 46.1987L146.458 46.1031C146.332 46.171 146.375 46.1987 146.512 46.1987ZM146.458 46.1031C143.405 40.6169 144.032 37.0713 149.649 37.0713C155.298 37.0713 169.869 40.5495 157.267 43.3741C149.421 45.1328 146.9 45.8649 146.458 46.1031ZM138.709 65.2353C142.359 64.5161 144.434 59.4472 143.344 53.9137C142.253 48.3801 138.411 44.4774 134.761 45.1966C131.111 45.9158 129.036 50.9846 130.127 56.5181C131.217 62.0517 135.06 65.9545 138.709 65.2353Z" fill="white"></path><defs><linearGradient id="1_crv_ib_icon_ce59a927-47fb-4172-9583-35c1c16731c8" x1="96.5" y1="0" x2="96.5" y2="193" gradientUnits="userSpaceOnUse"><stop stop-color="#414141"></stop><stop offset="1" stop-color="#1E1E1E"></stop></linearGradient><linearGradient id="2_crv_ib_icon_ce59a927-47fb-4172-9583-35c1c16731c8" x1="147.5" y1="0" x2="147.5" y2="89" gradientUnits="userSpaceOnUse"><stop stop-color="#3465A4"></stop><stop offset="1" stop-color="#164786"></stop></linearGradient></defs></svg>