<svg width="193" height="193" viewBox="0 0 193 193" fill="none" xmlns="http://www.w3.org/2000/svg" data-reactroot=""><circle cx="96.5" cy="96.5" r="96.5" fill="url(#1_crv_lusd_icon_aa781a9c-90d1-497f-af5d-852ba1941c75)"></circle><path fill-rule="evenodd" clip-rule="evenodd" d="M71.2899 77.3179C71.2899 66.4284 78.3951 57.1895 88.2283 54.0105V48.0509H51V101.051C51 121.996 67.5115 139.085 88.2283 140.011V131.517C78.3951 128.338 71.2899 119.099 71.2899 108.209H86.3463C86.3463 113.428 90.5685 117.641 95.7565 117.641C100.945 117.641 105.167 113.428 105.167 108.209C105.167 107.379 105.003 106.611 103.105 105.292C100.879 103.745 97.7488 102.505 93.367 100.77L92.9843 100.619C88.9152 99.0071 83.639 96.9004 79.4634 93.6232C74.8883 90.0324 71.2899 84.7683 71.2899 77.3179ZM103.285 140.051H104C125.539 140.051 143 122.59 143 101.051V87.0509C143 65.5118 125.539 48.0509 104 48.0509H103.285V54.0105C113.118 57.1895 120.223 66.4284 120.223 77.3179H105.167C105.167 72.0998 100.945 67.8861 95.7565 67.8861C90.5685 67.8861 86.3463 72.0998 86.3463 77.3179C86.3463 79.175 86.9825 80.3846 88.7593 81.7791C90.9357 83.4873 94.1287 84.8777 98.5287 86.6204C98.8473 86.7466 99.1749 86.8755 99.51 87.0074L99.5101 87.0075C103.263 88.4846 107.969 90.3367 111.698 92.9284C116.152 96.024 120.223 100.874 120.223 108.209C120.223 119.099 113.118 128.338 103.285 131.517V140.051Z" fill="white"></path><path d="M191.5 44.5C191.5 68.2482 172.248 87.5 148.5 87.5C124.752 87.5 105.5 68.2482 105.5 44.5C105.5 20.7518 124.752 1.5 148.5 1.5C172.248 1.5 191.5 20.7518 191.5 44.5Z" fill="url(#2_crv_lusd_icon_aa781a9c-90d1-497f-af5d-852ba1941c75)" stroke="white" stroke-width="3"></path><path fill-rule="evenodd" clip-rule="evenodd" d="M139.147 68.2523C130.782 68.2523 127.088 54.9021 127.088 42.7223C126.871 36.6747 129.174 24.2971 140.125 23.1673C153.813 21.755 168.059 34.2484 170.978 40.2236C173.898 46.1987 173.694 51.1961 165.546 53.912C159.028 56.0848 150.48 58.1489 147.021 58.9094C146.249 64.5615 144.262 68.2523 139.147 68.2523ZM147.512 46.1987L147.458 46.1031C147.332 46.171 147.375 46.1987 147.512 46.1987ZM147.458 46.1031C144.405 40.6169 145.032 37.0713 150.649 37.0713C156.298 37.0713 170.869 40.5495 158.267 43.3741C150.421 45.1328 147.9 45.8649 147.458 46.1031ZM139.709 65.2353C143.359 64.5161 145.434 59.4472 144.344 53.9137C143.253 48.3801 139.411 44.4774 135.761 45.1966C132.111 45.9158 130.036 50.9846 131.127 56.5181C132.217 62.0517 136.06 65.9545 139.709 65.2353Z" fill="white"></path><defs><linearGradient id="1_crv_lusd_icon_aa781a9c-90d1-497f-af5d-852ba1941c75" x1="96.5" y1="0" x2="96.5" y2="193" gradientUnits="userSpaceOnUse"><stop stop-color="#38B7E8"></stop><stop offset="1" stop-color="#0B6C92"></stop></linearGradient><linearGradient id="2_crv_lusd_icon_aa781a9c-90d1-497f-af5d-852ba1941c75" x1="148.5" y1="0" x2="148.5" y2="89" gradientUnits="userSpaceOnUse"><stop stop-color="#3465A4"></stop><stop offset="1" stop-color="#164786"></stop></linearGradient></defs></svg>