<svg width="193" height="194" viewBox="0 0 193 194" fill="none" xmlns="http://www.w3.org/2000/svg" data-reactroot=""><path d="M96.5 194C149.795 194 193 150.795 193 97.5C193 44.2045 149.795 1 96.5 1C43.2045 1 0 44.2045 0 97.5C0 150.795 43.2045 194 96.5 194Z" fill="url(#1_crv_link_icon_baab5f02-d59f-43e6-b09b-04738a54f18d)"></path><path d="M97 43L87.2645 48.6972L60.7354 64.3027L51 70V124L60.7354 129.697L87.5079 145.303L97.2434 151L106.979 145.303L133.265 129.697L143 124V70L133.265 64.3027L106.735 48.6972L97 43ZM70.4709 112.605V81.3945L97 65.789L123.529 81.3945V112.605L97 128.211L70.4709 112.605Z" fill="white"></path><path d="M191.5 44.5C191.5 68.2482 172.248 87.5 148.5 87.5C124.752 87.5 105.5 68.2482 105.5 44.5C105.5 20.7518 124.752 1.5 148.5 1.5C172.248 1.5 191.5 20.7518 191.5 44.5Z" fill="url(#2_crv_link_icon_baab5f02-d59f-43e6-b09b-04738a54f18d)" stroke="white" stroke-width="3"></path><path fill-rule="evenodd" clip-rule="evenodd" d="M139.147 68.2523C130.782 68.2523 127.088 54.9021 127.088 42.7223C126.871 36.6747 129.174 24.2971 140.125 23.1673C153.813 21.755 168.059 34.2484 170.978 40.2236C173.898 46.1987 173.694 51.1961 165.546 53.912C159.028 56.0848 150.48 58.1489 147.021 58.9094C146.249 64.5615 144.262 68.2523 139.147 68.2523ZM147.512 46.1987L147.458 46.1031C147.332 46.171 147.375 46.1987 147.512 46.1987ZM147.458 46.1031C144.405 40.6169 145.032 37.0713 150.649 37.0713C156.298 37.0713 170.869 40.5495 158.267 43.3741C150.421 45.1328 147.9 45.8649 147.458 46.1031ZM139.709 65.2353C143.359 64.5161 145.434 59.4472 144.344 53.9137C143.253 48.3801 139.411 44.4774 135.761 45.1966C132.111 45.9158 130.036 50.9846 131.127 56.5181C132.217 62.0517 136.06 65.9545 139.709 65.2353Z" fill="white"></path><defs><linearGradient id="1_crv_link_icon_baab5f02-d59f-43e6-b09b-04738a54f18d" x1="96.5" y1="1" x2="96.5" y2="194" gradientUnits="userSpaceOnUse"><stop stop-color="#2A5ADA"></stop><stop offset="1" stop-color="#0232B2"></stop></linearGradient><linearGradient id="2_crv_link_icon_baab5f02-d59f-43e6-b09b-04738a54f18d" x1="148.5" y1="0" x2="148.5" y2="89" gradientUnits="userSpaceOnUse"><stop stop-color="#3465A4"></stop><stop offset="1" stop-color="#164786"></stop></linearGradient></defs></svg>