<svg width="193" height="193" viewBox="0 0 193 193" fill="none" xmlns="http://www.w3.org/2000/svg" data-reactroot=""><circle opacity="0.9" cx="96.5" cy="96.5" r="96.5" fill="url(#1_crv_mim_icon_d6546d92-006d-478c-9f21-0f7b6f9683f2)"></circle><path d="M61.6667 88.1664H70.5V79.3331H61.6667V88.1664Z" fill="#7470A8"></path><path d="M61.6667 105.833H70.5V96.9999H61.6667V105.833Z" fill="#7470A8"></path><path d="M61.6667 96.9999H70.5V88.1666H61.6667V96.9999Z" fill="#7470A8"></path><path d="M61.6667 114.666H70.5V105.833H61.6667V114.666Z" fill="#7470A8"></path><path d="M96.9992 70.4999H105.833V61.6666H96.9992V70.4999Z" fill="#7470A8"></path><path d="M96.9992 123.5L105.833 123.5L105.833 132.333L96.9992 132.333L96.9992 123.5Z" fill="#7470A8"></path><path d="M105.833 70.4999H114.667V61.6666H105.833V70.4999Z" fill="#7470A8"></path><path d="M114.667 70.4999H123.5V61.6666H114.667V70.4999Z" fill="white"></path><path d="M79.3333 70.4999L70.5 70.4999L70.5 61.6666L79.3333 61.6666L79.3333 70.4999Z" fill="white"></path><path d="M132.333 123.5L123.5 123.5L123.5 114.666L132.333 114.666L132.333 123.5Z" fill="white"></path><path d="M61.6667 123.5H70.5V114.666H61.6667V123.5Z" fill="white"></path><path d="M105.833 61.6665H114.667V52.8332H105.833V61.6665Z" fill="white"></path><path d="M105.833 52.8332H114.667V43.9999H105.833V52.8332Z" fill="white"></path><path d="M105.833 150H114.667V141.167H105.833V150Z" fill="white"></path><path d="M105.833 141.167H114.667V132.333H105.833V141.167Z" fill="white"></path><path d="M88.1667 61.6665H97V52.8332H88.1667V61.6665Z" fill="white"></path><path d="M88.1667 52.8332H97V43.9999H88.1667V52.8332Z" fill="white"></path><path d="M88.1667 150H97V141.167H88.1667V150Z" fill="white"></path><path d="M88.1667 141.167H97V132.333H88.1667V141.167Z" fill="white"></path><path d="M96.9992 61.6665H105.833V52.8332H96.9992V61.6665Z" fill="white"></path><path d="M96.9992 52.8332H105.833V43.9999H96.9992V52.8332Z" fill="white"></path><path d="M96.9992 150H105.833V141.167H96.9992V150Z" fill="white"></path><path d="M96.9992 141.167H105.833V132.333H96.9992V141.167Z" fill="white"></path><path d="M79.3332 61.6665H88.1665V52.8332H79.3332V61.6665Z" fill="white"></path><path d="M79.3332 52.8332H88.1665V43.9999H79.3332V52.8332Z" fill="white"></path><path d="M79.3332 150H88.1665V141.167H79.3332V150Z" fill="white"></path><path d="M79.3332 141.167H88.1665V132.333H79.3332V141.167Z" fill="white"></path><path d="M123.5 79.3331H132.333V70.4998H123.5V79.3331Z" fill="white"></path><path d="M70.4998 79.3331L61.6665 79.3331L61.6665 70.4998L70.4998 70.4998L70.4998 79.3331Z" fill="white"></path><path d="M123.5 132.333L114.667 132.333L114.667 123.5L123.5 123.5L123.5 132.333Z" fill="white"></path><path d="M70.4997 132.333H79.333V123.5H70.4997V132.333Z" fill="white"></path><path d="M132.333 88.1664H141.166V79.3331H132.333V88.1664Z" fill="white"></path><path d="M52.8332 88.1664H61.6665V79.3331H52.8332V88.1664Z" fill="white"></path><path d="M43.9997 88.1664H52.833V79.3331H43.9997V88.1664Z" fill="white"></path><path d="M52.8332 79.3331H61.6665V70.4998H52.8332V79.3331Z" fill="white"></path><path d="M141.166 79.3331L132.333 79.3331L132.333 70.4998L141.166 70.4998L141.166 79.3331Z" fill="white"></path><path d="M114.667 141.167H123.5V132.333H114.667V141.167Z" fill="white"></path><path d="M52.833 114.666V123.5H61.6663V114.666H52.833Z" fill="white"></path><path d="M61.6667 70.4999H70.5V61.6666H61.6667V70.4999Z" fill="white"></path><path d="M132.333 70.4999L123.5 70.4999L123.5 61.6666L132.333 61.6666L132.333 70.4999Z" fill="white"></path><path d="M123.5 132.333H132.333V123.5H123.5V132.333Z" fill="white"></path><path d="M61.6665 123.5V132.333H70.4998V123.5H61.6665Z" fill="white"></path><path d="M70.4997 61.6665H79.333V52.8332H70.4997V61.6665Z" fill="white"></path><path d="M123.5 61.6665L114.667 61.6665L114.667 52.8332L123.5 52.8332L123.5 61.6665Z" fill="white"></path><path d="M132.333 123.5H141.166V114.666H132.333V123.5Z" fill="white"></path><path d="M70.5 132.333V141.167H79.3333V132.333H70.5Z" fill="white"></path><path d="M141.167 88.1664H150V79.3331H141.167V88.1664Z" fill="white"></path><path d="M132.333 96.9999H141.166V88.1666H132.333V96.9999Z" fill="white"></path><path d="M52.8332 96.9999H61.6665V88.1666H52.8332V96.9999Z" fill="white"></path><path d="M43.9997 96.9999H52.833V88.1666H43.9997V96.9999Z" fill="white"></path><path d="M141.167 96.9999H150V88.1666H141.167V96.9999Z" fill="white"></path><path d="M132.333 105.833H141.166V96.9999H132.333V105.833Z" fill="white"></path><path d="M52.8332 105.833H61.6665V96.9999H52.8332V105.833Z" fill="white"></path><path d="M43.9997 105.833H52.833V96.9999H43.9997V105.833Z" fill="white"></path><path d="M141.167 105.833H150V96.9999H141.167V105.833Z" fill="white"></path><path d="M132.333 114.666H141.166V105.833H132.333V114.666Z" fill="white"></path><path d="M52.8332 114.666H61.6665V105.833H52.8332V114.666Z" fill="white"></path><path d="M43.9997 114.666H52.833V105.833H43.9997V114.666Z" fill="white"></path><path d="M141.167 114.666H150V105.833H141.167V114.666Z" fill="white"></path><path d="M105.833 123.5L114.667 123.5L114.667 132.333L105.833 132.333L105.833 123.5Z" fill="#7470A8"></path><path d="M96.9992 88.1664H105.833V79.3331H96.9992V88.1664Z" fill="#7470A8"></path><path d="M96.9992 105.833H105.833V96.9999H96.9992V105.833Z" fill="#7470A8"></path><path d="M96.9992 114.666H105.833V105.833H96.9992V114.666Z" fill="#7470A8"></path><path d="M96.9992 79.3331H105.833V70.4998H96.9992V79.3331Z" fill="#7470A8"></path><path d="M96.9992 114.666L105.833 114.666L105.833 123.5L96.9992 123.5L96.9992 114.666Z" fill="#7470A8"></path><path d="M79.3332 105.833H88.1665V96.9999H79.3332V105.833Z" fill="#7470A8"></path><path d="M79.3332 96.9999H88.1665V88.1666H79.3332V96.9999Z" fill="#7470A8"></path><path d="M79.3332 114.666H88.1665V105.833H79.3332V114.666Z" fill="#7470A8"></path><path d="M79.3332 79.3331H88.1665V70.4998H79.3332V79.3331Z" fill="#7470A8"></path><path d="M79.3332 114.666L88.1665 114.666L88.1665 123.5L79.3332 123.5L79.3332 114.666Z" fill="#7470A8"></path><path d="M105.833 105.833H114.667V96.9999H105.833V105.833Z" fill="#7470A8"></path><path d="M105.833 96.9999H114.667V88.1666H105.833V96.9999Z" fill="#7470A8"></path><path d="M105.833 114.666H114.667V105.833H105.833V114.666Z" fill="#7470A8"></path><path d="M105.833 79.3331H114.667V70.4998H105.833V79.3331Z" fill="#7470A8"></path><path d="M105.833 114.666L114.667 114.666L114.667 123.5L105.833 123.5L105.833 114.666Z" fill="#7470A8"></path><path d="M88.1667 70.4999H97V61.6666H88.1667V70.4999Z" fill="#7470A8"></path><path d="M88.1667 123.5L97 123.5L97 132.333L88.1667 132.333L88.1667 123.5Z" fill="#7470A8"></path><path d="M79.3332 70.4999H88.1665V61.6666H79.3332V70.4999Z" fill="#7470A8"></path><path d="M79.3332 123.5L88.1665 123.5L88.1665 132.333L79.3332 132.333L79.3332 123.5Z" fill="#7470A8"></path><path d="M88.1667 88.1664H97V79.3331H88.1667V88.1664Z" fill="#7470A8"></path><path d="M88.1667 105.833H97V96.9999H88.1667V105.833Z" fill="#7470A8"></path><path d="M79.3332 88.1664H88.1665V79.3331H79.3332V88.1664Z" fill="white"></path><path d="M96.9992 96.9999H105.833V88.1666H96.9992V96.9999Z" fill="white"></path><path d="M114.667 88.1664H123.5V79.3331H114.667V88.1664Z" fill="white"></path><path d="M114.667 105.833H123.5V96.9999H114.667V105.833Z" fill="white"></path><path d="M114.667 96.9999H123.5V88.1666H114.667V96.9999Z" fill="white"></path><path d="M114.667 114.666H123.5V105.833H114.667V114.666Z" fill="white"></path><path d="M114.667 79.3331H123.5V70.4998H114.667V79.3331Z" fill="white"></path><path d="M114.667 114.666L123.5 114.666L123.5 123.5L114.667 123.5L114.667 114.666Z" fill="white"></path><path d="M70.4997 88.1664H79.333V79.3331H70.4997V88.1664Z" fill="white"></path><path d="M70.4997 105.833H79.333V96.9999H70.4997V105.833Z" fill="white"></path><path d="M70.4997 96.9999H79.333V88.1666H70.4997V96.9999Z" fill="white"></path><path d="M70.4997 114.666H79.333V105.833H70.4997V114.666Z" fill="white"></path><path d="M70.4997 79.3331H79.333V70.4998H70.4997V79.3331Z" fill="white"></path><path d="M70.4997 114.666L79.333 114.666L79.333 123.5L70.4997 123.5L70.4997 114.666Z" fill="white"></path><path d="M105.833 88.1664H114.667V79.3331H105.833V88.1664Z" fill="white"></path><path d="M88.1667 96.9999H97V88.1666H88.1667V96.9999Z" fill="white"></path><path d="M88.1667 114.666H97V105.833H88.1667V114.666Z" fill="#7470A8"></path><path d="M88.1667 79.3331H97V70.4998H88.1667V79.3331Z" fill="#7470A8"></path><path d="M88.1667 114.666L97 114.666L97 123.5L88.1667 123.5L88.1667 114.666Z" fill="#7470A8"></path><path d="M123.5 88.1664H132.333V79.3331H123.5V88.1664Z" fill="#7470A8"></path><path d="M123.5 105.833H132.333V96.9999H123.5V105.833Z" fill="#7470A8"></path><path d="M123.5 96.9999H132.333V88.1666H123.5V96.9999Z" fill="#7470A8"></path><path d="M123.5 114.666H132.333V105.833H123.5V114.666Z" fill="#7470A8"></path><path d="M148.5 89C173.077 89 193 69.0767 193 44.5C193 19.9233 173.077 0 148.5 0C123.923 0 104 19.9233 104 44.5C104 69.0767 123.923 89 148.5 89Z" fill="url(#2_crv_mim_icon_d6546d92-006d-478c-9f21-0f7b6f9683f2)"></path><path fill-rule="evenodd" clip-rule="evenodd" d="M139.147 68.2523C130.782 68.2523 127.088 54.9021 127.088 42.7223C126.871 36.6747 129.174 24.2971 140.125 23.1673C153.813 21.755 168.059 34.2484 170.978 40.2236C173.898 46.1987 173.694 51.1961 165.546 53.912C159.028 56.0848 150.48 58.1489 147.021 58.9094C146.249 64.5615 144.262 68.2523 139.147 68.2523ZM147.512 46.1987L147.458 46.1031C147.332 46.171 147.375 46.1987 147.512 46.1987ZM147.458 46.1031C144.405 40.6169 145.032 37.0713 150.649 37.0713C156.298 37.0713 170.869 40.5495 158.267 43.3741C150.421 45.1328 147.9 45.8649 147.458 46.1031ZM139.709 65.2353C143.359 64.5161 145.434 59.4472 144.344 53.9137C143.253 48.3801 139.411 44.4774 135.761 45.1966C132.111 45.9158 130.036 50.9846 131.127 56.5181C132.217 62.0517 136.06 65.9545 139.709 65.2353Z" fill="white"></path><defs><linearGradient id="1_crv_mim_icon_d6546d92-006d-478c-9f21-0f7b6f9683f2" x1="96.5" y1="0" x2="96.5" y2="193" gradientUnits="userSpaceOnUse"><stop stop-color="#A39DE4"></stop><stop offset="1" stop-color="#605B92"></stop></linearGradient><linearGradient id="2_crv_mim_icon_d6546d92-006d-478c-9f21-0f7b6f9683f2" x1="148.5" y1="0" x2="148.5" y2="89" gradientUnits="userSpaceOnUse"><stop stop-color="#3465A4"></stop><stop offset="1" stop-color="#164786"></stop></linearGradient></defs></svg>