<svg width="193" height="193" viewBox="0 0 193 193" fill="none" xmlns="http://www.w3.org/2000/svg" data-reactroot=""><circle cx="96.5" cy="96.5" r="96.5" fill="url(#1_crv_musd_icon_2468dab3-7429-47b1-83ea-4f8c53ddc091)"></circle><path d="M124 90.3032C124 95.1301 122.213 99.2801 118.639 102.753C115.065 106.167 109.913 108.287 103.182 109.111V119H94.2474V109.376C89.8396 109.14 85.6403 108.375 81.6495 107.08C77.6586 105.785 74.4422 104.195 72 102.312L76.9141 91.5394C79.1775 93.1876 81.8282 94.5709 84.866 95.6894C87.9038 96.8078 91.0309 97.5142 94.2474 97.8085V83.0628C90.0183 82.0621 86.4444 80.9436 83.5258 79.7075C80.6071 78.4713 78.1649 76.6759 76.1993 74.3213C74.2337 71.9078 73.2509 68.7291 73.2509 64.7851C73.2509 59.8993 75.0378 55.7199 78.6117 52.2468C82.2451 48.7149 87.457 46.5663 94.2474 45.8011V36H103.182V45.6245C110.509 46.2131 116.554 48.0085 121.32 51.0106L116.852 61.8713C112.385 59.3401 107.828 57.8096 103.182 57.2798V72.2904C107.352 73.2323 110.866 74.3213 113.725 75.5574C116.644 76.7348 119.086 78.5301 121.052 80.9436C123.017 83.2982 124 86.4181 124 90.3032ZM87.6357 64.0787C87.6357 65.5504 88.2016 66.7571 89.3333 67.6989C90.4651 68.6408 92.1031 69.4355 94.2474 70.083V57.5447C91.984 58.0745 90.3162 58.928 89.244 60.1053C88.1718 61.2238 87.6357 62.5482 87.6357 64.0787ZM103.182 97.4553C105.326 96.9844 106.935 96.2192 108.007 95.1596C109.079 94.1 109.615 92.8344 109.615 91.3628C109.615 89.8911 109.049 88.6844 107.918 87.7426C106.845 86.8007 105.267 85.9766 103.182 85.2702V97.4553Z" fill="white"></path><path d="M191.5 44.5C191.5 68.2482 172.248 87.5 148.5 87.5C124.752 87.5 105.5 68.2482 105.5 44.5C105.5 20.7518 124.752 1.5 148.5 1.5C172.248 1.5 191.5 20.7518 191.5 44.5Z" fill="url(#2_crv_musd_icon_2468dab3-7429-47b1-83ea-4f8c53ddc091)" stroke="white" stroke-width="3"></path><path fill-rule="evenodd" clip-rule="evenodd" d="M139.147 68.2523C130.782 68.2523 127.088 54.9021 127.088 42.7223C126.871 36.6747 129.174 24.2971 140.125 23.1673C153.813 21.755 168.059 34.2484 170.978 40.2236C173.898 46.1987 173.694 51.1961 165.546 53.912C159.028 56.0848 150.48 58.1489 147.021 58.9094C146.249 64.5615 144.262 68.2523 139.147 68.2523ZM147.512 46.1987L147.458 46.1031C147.332 46.171 147.375 46.1987 147.512 46.1987ZM147.458 46.1031C144.405 40.6169 145.032 37.0713 150.649 37.0713C156.298 37.0713 170.869 40.5495 158.267 43.3741C150.421 45.1328 147.9 45.8649 147.458 46.1031ZM139.709 65.2353C143.359 64.5161 145.434 59.4472 144.344 53.9137C143.253 48.3801 139.411 44.4774 135.761 45.1966C132.111 45.9158 130.036 50.9846 131.127 56.5181C132.217 62.0517 136.06 65.9545 139.709 65.2353Z" fill="white"></path><rect x="62" y="138" width="72" height="12" fill="white"></rect><defs><linearGradient id="1_crv_musd_icon_2468dab3-7429-47b1-83ea-4f8c53ddc091" x1="96.5" y1="0" x2="96.5" y2="193" gradientUnits="userSpaceOnUse"><stop stop-color="#414141"></stop><stop offset="1" stop-color="#1E1E1E"></stop></linearGradient><linearGradient id="2_crv_musd_icon_2468dab3-7429-47b1-83ea-4f8c53ddc091" x1="148.5" y1="0" x2="148.5" y2="89" gradientUnits="userSpaceOnUse"><stop stop-color="#3465A4"></stop><stop offset="1" stop-color="#164786"></stop></linearGradient></defs></svg>