<svg width="194" height="193" viewBox="0 0 194 193" fill="none" xmlns="http://www.w3.org/2000/svg" data-reactroot=""><path d="M96.5 193C149.795 193 193 149.795 193 96.5C193 43.2045 149.795 0 96.5 0C43.2045 0 0 43.2045 0 96.5C0 149.795 43.2045 193 96.5 193Z" fill="url(#1_crv_pax_icon_557342d8-d7fd-4d06-8f4c-d6ef90f572e7)"></path><path fill-rule="evenodd" clip-rule="evenodd" d="M74.2171 59.9576C76.1713 57.7306 77.9523 55.8299 79.6537 54.2383C50.8972 53.3051 59.2679 74.253 49.8973 95.5415C39.1065 120.059 51.167 129.402 69.1384 132.313C66.6473 129.351 64.6136 125.961 63.0656 122.303C51.4141 107.521 56.1037 80.5906 74.2171 59.9576Z" fill="white"></path><path fill-rule="evenodd" clip-rule="evenodd" d="M143.413 86.074C140.737 93.6682 135.826 102.19 128.884 110.577C123.473 117.112 117.457 122.259 111.248 125.986C104.07 130.672 95.165 133.437 85.2093 133.437C79.6364 133.437 74.1572 133.125 69.1382 132.312C72.1036 135.836 75.7081 138.761 79.9006 140.802C105.899 153.472 107.541 129.936 135.048 117.994C150.494 111.287 150.551 98.1767 143.413 86.074Z" fill="white"></path><path fill-rule="evenodd" clip-rule="evenodd" d="M111.238 61.5816C115.073 62.2858 118.711 63.5568 121.969 65.4117C130.701 70.3896 138.654 78.0067 143.411 86.0732C148.095 72.7798 145.914 62.3287 135.666 60.4366C124.403 58.3613 115.598 57.6943 107.136 51.7403C96.7148 44.4066 87.58 46.8254 79.6523 54.2393C80.2119 54.2565 80.7828 54.2822 81.3708 54.3166C92.3689 54.9692 102.864 57.1276 111.238 61.5816Z" fill="white"></path><path d="M62.6728 122.613L63.526 122.108C58.3507 109.868 58.7147 94.6023 65.9998 82.4274L65.9998 82.4273C75.6996 66.2146 95.1729 59.1353 111.149 62.0752L111.474 61.1421C103.013 56.6385 92.4379 54.4742 81.4047 53.8165L81.4039 53.8164C80.8076 53.7817 80.2323 53.7587 79.6715 53.7386L79.4638 53.7312L79.312 53.8731C77.5938 55.4804 75.8008 57.3946 73.8413 59.6277C64.73 70.0063 58.9847 81.9794 56.9871 93.237C54.9906 104.489 56.7327 115.076 62.6728 122.613Z" fill="white" stroke="#40A240"></path><path d="M111.503 126.415C117.764 122.657 123.825 117.472 129.267 110.896C136.242 102.473 141.184 93.9006 143.882 86.2405L143.96 86.0209L143.842 85.8204C139.035 77.6719 131.016 69.9924 122.216 64.9784C118.904 63.0899 115.211 61.8042 111.328 61.091L111.002 62.0242C116.453 64.9235 120.972 68.7978 124.119 73.8686C127.265 78.9379 129.059 85.2314 129.018 92.9989C128.945 106.442 122.057 118.326 110.972 125.568L111.503 126.415Z" fill="white" stroke="#40A240"></path><path d="M116.968 81.4999L116.968 81.5C123.052 94.8962 121.32 110.224 109.152 118.103C96.9358 126.013 80.6465 122.486 72.7659 110.221C64.8955 97.9711 68.7697 82.1687 80.6351 73.6675C93.9033 64.1636 110.815 67.9507 116.968 81.4999ZM111.474 61.1406L111.406 61.1042L111.33 61.0902C94.9814 58.0847 75.075 65.3093 65.1417 81.9124C57.6793 94.3836 57.3133 109.99 62.605 122.496L63.0655 122.302L62.605 122.496C64.1709 126.197 66.2271 129.632 68.7558 132.637L68.8753 132.778L69.0584 132.808C74.1123 133.627 79.62 133.937 85.2067 133.937C95.2589 133.937 104.259 131.145 111.518 126.404C122.871 118.992 129.945 106.801 130.017 93.0035C130.06 85.0731 128.227 78.5898 124.969 73.3405C121.712 68.0927 117.048 64.1065 111.474 61.1406Z" fill="white" stroke="#40A240"></path><path d="M192.5 44.5C192.5 68.2482 173.248 87.5 149.5 87.5C125.752 87.5 106.5 68.2482 106.5 44.5C106.5 20.7518 125.752 1.5 149.5 1.5C173.248 1.5 192.5 20.7518 192.5 44.5Z" fill="url(#2_crv_pax_icon_557342d8-d7fd-4d06-8f4c-d6ef90f572e7)" stroke="white" stroke-width="3"></path><path fill-rule="evenodd" clip-rule="evenodd" d="M140.147 68.2523C131.782 68.2523 128.088 54.9021 128.088 42.7223C127.871 36.6747 130.174 24.2971 141.125 23.1673C154.813 21.755 169.059 34.2484 171.978 40.2236C174.898 46.1987 174.694 51.1961 166.546 53.912C160.028 56.0848 151.48 58.1489 148.021 58.9094C147.249 64.5615 145.262 68.2523 140.147 68.2523ZM148.512 46.1987L148.458 46.1031C148.332 46.171 148.375 46.1987 148.512 46.1987ZM148.458 46.1031C145.405 40.6169 146.032 37.0713 151.649 37.0713C157.298 37.0713 171.869 40.5495 159.267 43.3741C151.421 45.1328 148.9 45.8649 148.458 46.1031ZM140.709 65.2353C144.359 64.5161 146.434 59.4472 145.344 53.9137C144.253 48.3801 140.411 44.4774 136.761 45.1966C133.111 45.9158 131.036 50.9846 132.127 56.5181C133.217 62.0517 137.06 65.9545 140.709 65.2353Z" fill="white"></path><defs><linearGradient id="1_crv_pax_icon_557342d8-d7fd-4d06-8f4c-d6ef90f572e7" x1="96.5" y1="0" x2="96.5" y2="193" gradientUnits="userSpaceOnUse"><stop stop-color="#51B849"></stop><stop offset="1" stop-color="#005121"></stop></linearGradient><linearGradient id="2_crv_pax_icon_557342d8-d7fd-4d06-8f4c-d6ef90f572e7" x1="149.5" y1="0" x2="149.5" y2="89" gradientUnits="userSpaceOnUse"><stop stop-color="#3465A4"></stop><stop offset="1" stop-color="#164786"></stop></linearGradient></defs></svg>