<svg width="193" height="193" viewBox="0 0 193 193" fill="none" xmlns="http://www.w3.org/2000/svg" data-reactroot=""><path d="M96.5 193C149.795 193 193 149.795 193 96.5C193 43.2045 149.795 0 96.5 0C43.2045 0 0 43.2045 0 96.5C0 149.795 43.2045 193 96.5 193Z" fill="url(#1_crv_renbtc_icon_d3e94e56-fa72-46c6-8354-439fbe060b57)"></path><path d="M63.0147 64.5922L71.0939 59.9493L72.1777 61.8246L101.949 44.6444L99.7734 43.3932L97.5884 42.1245L96.5046 41.4991L48.0015 69.5171V70.7684L61.9309 62.7157L63.0147 64.5922Z" fill="white"></path><path d="M63.0147 82.2312L86.3477 68.7505L87.4405 70.6446L117.212 53.4638L115.036 52.1951L112.851 50.9438L111.758 50.3185L48.0015 87.1296V88.3808L61.9309 80.3275L63.0147 82.2312Z" fill="white"></path><path d="M63.0147 91.0501L93.9781 73.1645L95.071 75.0398L124.843 57.8389L122.658 56.6142L120.482 55.3364L119.386 54.715L48.0015 95.9317V97.2094L61.9309 89.1561L63.0147 91.0501Z" fill="white"></path><path d="M63.0147 99.8521L101.826 77.4464L102.919 79.3217L132.471 62.2644L130.285 60.9956L128.109 59.7444L127.016 59.1204L48.0015 104.751V106.002L61.9309 97.949L63.0147 99.8521Z" fill="white"></path><path d="M63.0147 108.646L109.456 81.8441L110.549 83.7472L140.101 66.6718L137.916 65.4121L135.74 64.1434L134.647 63.5181L48.0015 113.554V114.804L61.9309 106.77L63.0147 108.646Z" fill="white"></path><path d="M143.368 68.5655L142.276 67.9221L48.0015 122.372V123.624L61.9309 115.587L63.0147 117.462L109.456 90.6628L110.549 92.5381L144.999 72.662V69.5168L143.368 68.5655Z" fill="white"></path><path d="M53.975 128.972L61.7872 124.47L62.871 126.346L109.236 99.5872L110.328 101.481L144.998 81.4636V75.1653L52.9087 128.347L53.975 128.972Z" fill="white"></path><path d="M109.237 108.408L110.33 110.302L145 90.2843V83.9846L60.5396 132.743L61.6233 133.378L69.5532 128.796L70.646 130.69" fill="white"></path><path d="M69.2529 137.793L77.1821 133.197L78.2749 135.091L109.236 117.211L110.329 119.105L144.999 99.0874V92.7877L68.1426 137.15L69.2529 137.793Z" fill="white"></path><path d="M76.8834 142.197L84.8132 137.616L85.906 139.491L109.237 126.028L110.33 127.904L145 107.877V101.604L75.7905 141.572L76.8834 142.197Z" fill="white"></path><path d="M83.4204 145.968L84.5132 146.593L92.467 142.012L93.5333 143.906L109.234 134.822L110.327 136.725L144.997 116.698V110.409L83.4204 145.968Z" fill="white"></path><path d="M92.1436 151.016L100.073 146.408L101.164 148.313L109.235 143.626L110.328 145.529L144.998 125.519V119.227L91.0508 150.39L92.1436 151.016Z" fill="white"></path><path d="M109.58 49.0512L107.403 47.7999L105.218 46.55L104.134 45.8969L48.0015 78.3114V79.5626L61.9309 71.5358L63.0147 73.4111L78.7244 64.3451L79.8347 66.2482L109.58 49.0512Z" fill="white"></path><path d="M191.5 44.5C191.5 68.2482 172.248 87.5 148.5 87.5C124.752 87.5 105.5 68.2482 105.5 44.5C105.5 20.7518 124.752 1.5 148.5 1.5C172.248 1.5 191.5 20.7518 191.5 44.5Z" fill="url(#2_crv_renbtc_icon_d3e94e56-fa72-46c6-8354-439fbe060b57)" stroke="white" stroke-width="3"></path><path fill-rule="evenodd" clip-rule="evenodd" d="M139.147 68.2523C130.782 68.2523 127.088 54.9021 127.088 42.7223C126.871 36.6747 129.174 24.2971 140.125 23.1673C153.813 21.755 168.059 34.2484 170.978 40.2236C173.898 46.1987 173.694 51.1961 165.546 53.912C159.028 56.0848 150.48 58.1489 147.021 58.9094C146.249 64.5615 144.262 68.2523 139.147 68.2523ZM147.512 46.1987L147.458 46.1031C147.332 46.171 147.375 46.1987 147.512 46.1987ZM147.458 46.1031C144.405 40.6169 145.032 37.0713 150.649 37.0713C156.298 37.0713 170.869 40.5495 158.267 43.3741C150.421 45.1328 147.9 45.8649 147.458 46.1031ZM139.709 65.2353C143.359 64.5161 145.434 59.4472 144.344 53.9137C143.253 48.3801 139.411 44.4774 135.761 45.1966C132.111 45.9158 130.036 50.9846 131.127 56.5181C132.217 62.0517 136.06 65.9545 139.709 65.2353Z" fill="white"></path><defs><linearGradient id="1_crv_renbtc_icon_d3e94e56-fa72-46c6-8354-439fbe060b57" x1="96.5" y1="0" x2="96.5" y2="193" gradientUnits="userSpaceOnUse"><stop stop-color="#0E3158"></stop><stop offset="1" stop-color="#001D44"></stop></linearGradient><linearGradient id="2_crv_renbtc_icon_d3e94e56-fa72-46c6-8354-439fbe060b57" x1="148.5" y1="0" x2="148.5" y2="89" gradientUnits="userSpaceOnUse"><stop stop-color="#3465A4"></stop><stop offset="1" stop-color="#164786"></stop></linearGradient></defs></svg>