<svg width="193" height="194" viewBox="0 0 193 194" fill="none" xmlns="http://www.w3.org/2000/svg" data-reactroot=""><path d="M96.5 194C149.795 194 193 150.795 193 97.5C193 44.2045 149.795 1 96.5 1C43.2045 1 0 44.2045 0 97.5C0 150.795 43.2045 194 96.5 194Z" fill="url(#1_crv_rsv_icon_086579e0-1d06-4ef8-9d49-4d48c7692982)"></path><path fill-rule="evenodd" clip-rule="evenodd" d="M54.8766 83.1186C54.1895 83.1186 53.5024 82.4315 53.5024 81.7445V67.7463C53.5024 67.0593 54.1895 66.3722 54.8766 66.3722H71.5704V52.1486C71.5704 51.4615 72.0267 51 72.7138 51H117.089C127.615 51 136.306 59.7167 136.306 70.2691V90.9175C136.306 99.1779 131.958 105.372 125.098 107.895C124.411 108.125 124.18 108.812 124.411 109.499L138.592 141.618C138.823 142.305 138.362 143.223 137.449 143.223H120.294C119.837 143.223 119.381 142.992 119.15 142.536L104.969 109.73C104.738 109.274 104.282 109.043 103.825 109.043H91.0126C90.3255 109.043 89.8692 109.505 89.8692 110.192V141.838C89.8692 142.531 89.4129 142.987 88.7259 142.987H72.7138C72.0267 142.987 71.5704 142.525 71.5704 141.838V108.346H54.8766C54.1895 108.346 53.5024 107.659 53.5024 106.972V92.9786C53.5024 92.2916 54.1895 91.6045 54.8766 91.6045H71.5704V83.1186H54.8766ZM91.0125 68.4333C90.3254 68.4333 89.8691 68.8949 89.8691 69.5819V90.6866C89.8691 91.3737 90.3254 91.8352 91.0125 91.8352H112.516C115.49 91.8352 118.007 89.3125 118.007 86.3283V73.9403C118.007 70.9561 115.49 68.4333 112.516 68.4333H91.0125Z" fill="white"></path><path d="M148.5 89C173.077 89 193 69.0767 193 44.5C193 19.9233 173.077 0 148.5 0C123.923 0 104 19.9233 104 44.5C104 69.0767 123.923 89 148.5 89Z" fill="url(#2_crv_rsv_icon_086579e0-1d06-4ef8-9d49-4d48c7692982)"></path><path fill-rule="evenodd" clip-rule="evenodd" d="M139.147 68.2523C130.782 68.2523 127.088 54.9021 127.088 42.7223C126.871 36.6747 129.174 24.2971 140.125 23.1673C153.813 21.755 168.059 34.2484 170.978 40.2236C173.898 46.1987 173.694 51.1961 165.546 53.912C159.028 56.0848 150.48 58.1489 147.021 58.9094C146.249 64.5615 144.262 68.2523 139.147 68.2523ZM147.512 46.1987L147.458 46.1031C147.332 46.171 147.375 46.1987 147.512 46.1987ZM147.458 46.1031C144.405 40.6169 145.032 37.0713 150.649 37.0713C156.298 37.0713 170.869 40.5495 158.267 43.3741C150.421 45.1328 147.9 45.8649 147.458 46.1031ZM139.709 65.2353C143.359 64.5161 145.434 59.4472 144.344 53.9137C143.253 48.3801 139.411 44.4774 135.761 45.1966C132.111 45.9158 130.036 50.9846 131.127 56.5181C132.217 62.0517 136.06 65.9545 139.709 65.2353Z" fill="white"></path><defs><linearGradient id="1_crv_rsv_icon_086579e0-1d06-4ef8-9d49-4d48c7692982" x1="96.5" y1="1" x2="96.5" y2="194" gradientUnits="userSpaceOnUse"><stop stop-color="#414141"></stop><stop offset="1" stop-color="#1E1E1E"></stop></linearGradient><linearGradient id="2_crv_rsv_icon_086579e0-1d06-4ef8-9d49-4d48c7692982" x1="148.5" y1="0" x2="148.5" y2="89" gradientUnits="userSpaceOnUse"><stop stop-color="#3465A4"></stop><stop offset="1" stop-color="#164786"></stop></linearGradient></defs></svg>