<svg width="193" height="193" viewBox="0 0 193 193" fill="none" xmlns="http://www.w3.org/2000/svg" data-reactroot=""><circle cx="96.5" cy="96.5" r="96.5" fill="url(#1_crv_susd_icon_6ff78038-e53e-410a-a0b1-3b80c93926b7)"></circle><path d="M132 113.931C132 120.502 129.595 126.152 124.784 130.881C119.973 135.529 113.037 138.414 103.976 139.536V153H91.9485V139.897C86.0149 139.576 80.362 138.534 74.9897 136.771C69.6174 135.008 65.2875 132.844 62 130.28L68.6151 115.614C71.6621 117.858 75.2302 119.741 79.3196 121.264C83.4089 122.787 87.6186 123.748 91.9485 124.149V104.073C86.2554 102.711 81.4444 101.188 77.5155 99.5053C73.5865 97.8223 70.299 95.378 67.6529 92.1723C65.0069 88.8865 63.6838 84.5589 63.6838 79.1894C63.6838 72.5376 66.0893 66.8475 70.9003 62.1191C75.7915 57.3106 82.8076 54.3855 91.9485 53.3436V40H103.976V53.1032C113.838 53.9046 121.977 56.3489 128.392 60.4362L122.378 75.2223C116.364 71.7762 110.23 69.6926 103.976 68.9713V89.4075C109.589 90.6897 114.32 92.1723 118.168 93.8553C122.097 95.4582 125.385 97.9025 128.031 101.188C130.677 104.394 132 108.641 132 113.931ZM83.0481 78.2277C83.0481 80.2312 83.8099 81.8741 85.3333 83.1564C86.8568 84.4387 89.0619 85.5206 91.9485 86.4021V69.3319C88.9015 70.0532 86.6564 71.2153 85.2131 72.8181C83.7698 74.3408 83.0481 76.144 83.0481 78.2277ZM103.976 123.668C106.863 123.027 109.027 121.985 110.471 120.543C111.914 119.1 112.636 117.377 112.636 115.373C112.636 113.37 111.874 111.727 110.351 110.445C108.907 109.162 106.782 108.04 103.976 107.079V123.668Z" fill="white"></path><path d="M191.5 47.5C191.5 71.2482 172.248 90.5 148.5 90.5C124.752 90.5 105.5 71.2482 105.5 47.5C105.5 23.7518 124.752 4.5 148.5 4.5C172.248 4.5 191.5 23.7518 191.5 47.5Z" fill="url(#2_crv_susd_icon_6ff78038-e53e-410a-a0b1-3b80c93926b7)" stroke="white" stroke-width="3"></path><path fill-rule="evenodd" clip-rule="evenodd" d="M139.147 71.2523C130.782 71.2523 127.088 57.9021 127.088 45.7223C126.871 39.6747 129.174 27.2971 140.125 26.1673C153.813 24.755 168.059 37.2484 170.978 43.2236C173.898 49.1987 173.694 54.1961 165.546 56.912C159.028 59.0848 150.48 61.1489 147.021 61.9094C146.249 67.5615 144.262 71.2523 139.147 71.2523ZM147.512 49.1987L147.458 49.1031C147.332 49.171 147.375 49.1987 147.512 49.1987ZM147.458 49.1031C144.405 43.6169 145.032 40.0713 150.649 40.0713C156.298 40.0713 170.869 43.5495 158.267 46.3741C150.421 48.1328 147.9 48.8649 147.458 49.1031ZM139.709 68.2353C143.359 67.5161 145.434 62.4472 144.344 56.9137C143.253 51.3801 139.411 47.4774 135.761 48.1966C132.111 48.9158 130.036 53.9846 131.127 59.5181C132.217 65.0517 136.06 68.9545 139.709 68.2353Z" fill="white"></path><defs><linearGradient id="1_crv_susd_icon_6ff78038-e53e-410a-a0b1-3b80c93926b7" x1="96.5" y1="0" x2="96.5" y2="193" gradientUnits="userSpaceOnUse"><stop stop-color="#414141"></stop><stop offset="1" stop-color="#1E1E1E"></stop></linearGradient><linearGradient id="2_crv_susd_icon_6ff78038-e53e-410a-a0b1-3b80c93926b7" x1="148.5" y1="3" x2="148.5" y2="92" gradientUnits="userSpaceOnUse"><stop stop-color="#3465A4"></stop><stop offset="1" stop-color="#164786"></stop></linearGradient></defs></svg>