<svg width="193" height="193" viewBox="0 0 193 193" fill="none" xmlns="http://www.w3.org/2000/svg" data-reactroot=""><circle cx="96.5" cy="96.5" r="96.5" fill="url(#1_crv_bbtc_icon_f5a95716-6c4e-494a-accb-3683649ec494)" fill-opacity="0.9"></circle><path fill-rule="evenodd" clip-rule="evenodd" d="M110.017 81.7978C110.017 91.9371 94.2025 90.7035 89.1782 90.7035V72.8414C94.2025 72.8414 110.017 71.2529 110.017 81.7978ZM114.148 109.529C114.148 120.614 95.1972 119.347 89.1614 119.347V99.6768C95.1972 99.6937 114.148 97.9531 114.148 109.529ZM126.624 77.7927C125.613 67.214 116.508 63.6653 104.993 62.5837V48H96.0908V62.2965C93.7473 62.2965 91.3532 62.2965 88.9759 62.381V48H80.1244V62.6682H74.4595H62.0843V72.2161C62.0843 72.2161 68.6597 72.0978 68.5585 72.2161C71.0234 71.944 73.2591 73.6779 73.6165 76.1366V116.305C73.5086 118.048 72.0131 119.371 70.2749 119.264C70.2648 119.264 70.2546 119.264 70.2445 119.263C70.3625 119.364 63.7703 119.263 63.7703 119.263L62 129.926H73.5996H79.9727V144.831H88.8748V130.145H95.9897V144.763H104.909V130.027C119.948 129.115 130.435 125.397 131.75 111.286C132.812 99.9303 127.484 94.8606 118.97 92.8158C124.146 90.1796 127.4 85.5324 126.624 77.7927Z" fill="white"></path><path d="M191.5 44.5C191.5 68.2482 172.248 87.5 148.5 87.5C124.752 87.5 105.5 68.2482 105.5 44.5C105.5 20.7518 124.752 1.5 148.5 1.5C172.248 1.5 191.5 20.7518 191.5 44.5Z" fill="url(#2_crv_bbtc_icon_f5a95716-6c4e-494a-accb-3683649ec494)" stroke="white" stroke-width="3"></path><path fill-rule="evenodd" clip-rule="evenodd" d="M139.147 68.2523C130.782 68.2523 127.088 54.9021 127.088 42.7223C126.871 36.6747 129.174 24.2971 140.125 23.1673C153.813 21.755 168.059 34.2484 170.978 40.2236C173.898 46.1987 173.694 51.1961 165.546 53.912C159.028 56.0848 150.48 58.1489 147.021 58.9094C146.249 64.5615 144.262 68.2523 139.147 68.2523ZM147.512 46.1987L147.458 46.1031C147.332 46.171 147.375 46.1987 147.512 46.1987ZM147.458 46.1031C144.405 40.6169 145.032 37.0713 150.649 37.0713C156.298 37.0713 170.869 40.5495 158.267 43.3741C150.421 45.1328 147.9 45.8649 147.458 46.1031ZM139.709 65.2353C143.359 64.5161 145.434 59.4472 144.344 53.9137C143.253 48.3801 139.411 44.4774 135.761 45.1966C132.111 45.9158 130.036 50.9846 131.127 56.5181C132.217 62.0517 136.06 65.9545 139.709 65.2353Z" fill="white"></path><defs><linearGradient id="1_crv_bbtc_icon_f5a95716-6c4e-494a-accb-3683649ec494" x1="193" y1="2.46321" x2="193" y2="193" gradientUnits="userSpaceOnUse"><stop stop-color="#FB9D3E"></stop><stop offset="1" stop-color="#E7892A"></stop></linearGradient><linearGradient id="2_crv_bbtc_icon_f5a95716-6c4e-494a-accb-3683649ec494" x1="148.5" y1="0" x2="148.5" y2="89" gradientUnits="userSpaceOnUse"><stop stop-color="#3465A4"></stop><stop offset="1" stop-color="#164786"></stop></linearGradient></defs></svg>