<svg width="193" height="193" viewBox="0 0 193 193" fill="none" xmlns="http://www.w3.org/2000/svg" data-reactroot=""><circle cx="96.5" cy="96.5" r="96.5" fill="url(#1_crv_tusd_icon_bbb0a077-8ced-4813-bc4b-f053b177d9cd)"></circle><path d="M65.9209 51H126.588V67H65.9209V51Z" fill="white"></path><path d="M104.588 67L104.588 107.667H88.5876V67L104.588 67Z" fill="white"></path><path d="M62.2998 123.624H55.7906V119.788H73.5166V123.624H67.0074V140.129H62.2998V123.624ZM86.1992 140.478C83.2933 140.478 81.0267 139.674 79.3994 138.066C77.7915 136.458 76.9875 134.162 76.9875 131.179V119.788H81.6951V131.005C81.6951 134.647 83.2062 136.468 86.2283 136.468C87.7006 136.468 88.8242 136.032 89.5991 135.16C90.374 134.269 90.7615 132.884 90.7615 131.005V119.788H95.4109V131.179C95.4109 134.162 94.5973 136.458 92.97 138.066C91.3621 139.674 89.1051 140.478 86.1992 140.478ZM108.199 140.478C106.591 140.478 105.032 140.265 103.521 139.839C102.029 139.393 100.828 138.822 99.9176 138.124L101.516 134.579C102.388 135.218 103.424 135.732 104.625 136.119C105.826 136.507 107.027 136.7 108.228 136.7C109.565 136.7 110.553 136.507 111.192 136.119C111.832 135.712 112.151 135.18 112.151 134.521C112.151 134.037 111.958 133.639 111.57 133.329C111.202 133 110.718 132.739 110.117 132.545C109.536 132.351 108.742 132.138 107.734 131.906C106.185 131.538 104.916 131.169 103.928 130.801C102.94 130.433 102.087 129.842 101.371 129.029C100.673 128.215 100.324 127.13 100.324 125.774C100.324 124.592 100.644 123.527 101.283 122.578C101.923 121.609 102.882 120.844 104.16 120.282C105.458 119.72 107.037 119.439 108.897 119.439C110.195 119.439 111.464 119.594 112.704 119.904C113.943 120.214 115.028 120.66 115.958 121.241L114.505 124.815C112.626 123.75 110.747 123.217 108.868 123.217C107.55 123.217 106.572 123.43 105.933 123.856C105.313 124.282 105.003 124.844 105.003 125.542C105.003 126.239 105.361 126.762 106.078 127.111C106.814 127.44 107.928 127.77 109.42 128.099C110.97 128.467 112.239 128.835 113.227 129.203C114.215 129.571 115.057 130.152 115.755 130.947C116.471 131.741 116.83 132.816 116.83 134.172C116.83 135.335 116.501 136.4 115.842 137.369C115.203 138.318 114.234 139.073 112.936 139.635C111.638 140.197 110.059 140.478 108.199 140.478ZM121.5 119.788H130.74C132.949 119.788 134.896 120.214 136.581 121.067C138.286 121.9 139.603 123.081 140.533 124.612C141.482 126.142 141.957 127.925 141.957 129.959C141.957 131.993 141.482 133.775 140.533 135.305C139.603 136.836 138.286 138.027 136.581 138.88C134.896 139.713 132.949 140.129 130.74 140.129H121.5V119.788ZM130.508 136.264C132.542 136.264 134.16 135.703 135.361 134.579C136.581 133.436 137.191 131.896 137.191 129.959C137.191 128.021 136.581 126.491 135.361 125.367C134.16 124.224 132.542 123.653 130.508 123.653H126.207V136.264H130.508Z" fill="white"></path><path d="M191.5 44.5C191.5 68.2482 172.248 87.5 148.5 87.5C124.752 87.5 105.5 68.2482 105.5 44.5C105.5 20.7518 124.752 1.5 148.5 1.5C172.248 1.5 191.5 20.7518 191.5 44.5Z" fill="url(#2_crv_tusd_icon_bbb0a077-8ced-4813-bc4b-f053b177d9cd)" stroke="white" stroke-width="3"></path><path fill-rule="evenodd" clip-rule="evenodd" d="M139.147 68.2523C130.782 68.2523 127.088 54.9021 127.088 42.7223C126.871 36.6747 129.174 24.2971 140.125 23.1673C153.813 21.755 168.059 34.2484 170.978 40.2236C173.898 46.1987 173.694 51.1961 165.546 53.912C159.028 56.0848 150.48 58.1489 147.021 58.9094C146.249 64.5615 144.262 68.2523 139.147 68.2523ZM147.512 46.1987L147.458 46.1031C147.332 46.171 147.375 46.1987 147.512 46.1987ZM147.458 46.1031C144.405 40.6169 145.032 37.0713 150.649 37.0713C156.298 37.0713 170.869 40.5495 158.267 43.3741C150.421 45.1328 147.9 45.8649 147.458 46.1031ZM139.709 65.2353C143.359 64.5161 145.434 59.4472 144.344 53.9137C143.253 48.3801 139.411 44.4774 135.761 45.1966C132.111 45.9158 130.036 50.9846 131.127 56.5181C132.217 62.0517 136.06 65.9545 139.709 65.2353Z" fill="white"></path><defs><linearGradient id="1_crv_tusd_icon_bbb0a077-8ced-4813-bc4b-f053b177d9cd" x1="96.5" y1="0" x2="96.5" y2="193" gradientUnits="userSpaceOnUse"><stop stop-color="#002868"></stop><stop offset="1" stop-color="#011B46"></stop></linearGradient><linearGradient id="2_crv_tusd_icon_bbb0a077-8ced-4813-bc4b-f053b177d9cd" x1="148.5" y1="0" x2="148.5" y2="89" gradientUnits="userSpaceOnUse"><stop stop-color="#3465A4"></stop><stop offset="1" stop-color="#164786"></stop></linearGradient></defs></svg>