<svg width="192" height="192" viewBox="0 0 192 192" fill="none" xmlns="http://www.w3.org/2000/svg">
    <rect width="192" height="192" rx="96" fill="url(#paint0_linear_2137_33576)"/>
    <path fill-rule="evenodd" clip-rule="evenodd" d="M73.4897 153.5C53.1298 153.5 44.1398 121.007 44.1398 91.363C43.6109 76.644 49.2165 46.5186 75.8694 43.7687C109.186 40.3314 143.857 70.7388 150.963 85.2815C158.069 99.8242 157.573 111.987 137.742 118.598C121.877 123.886 101.074 128.91 92.6547 130.761C90.7749 144.517 85.9375 153.5 73.4897 153.5ZM93.848 99.8263C93.8043 99.7486 93.7609 99.671 93.7178 99.5936C93.4115 99.7587 93.5158 99.8263 93.848 99.8263ZM93.7178 99.5936C86.2854 86.2409 87.8128 77.6113 101.483 77.6113C115.233 77.6113 150.697 86.0769 120.025 92.9516C100.928 97.2319 94.793 99.0138 93.7178 99.5936ZM74.8583 146.158C83.7415 144.408 88.7912 132.071 86.1373 118.603C83.4834 105.135 74.1308 95.6361 65.2477 97.3865C56.3645 99.1369 51.3147 111.474 53.9686 124.942C56.6225 138.41 65.9752 147.909 74.8583 146.158Z" fill="white"/>
    <defs>
        <linearGradient id="paint0_linear_2137_33576" x1="96" y1="192" x2="95.9998" y2="3.88065e-06" gradientUnits="userSpaceOnUse">
            <stop stop-color="#317049"/>
            <stop offset="1" stop-color="#43854A"/>
        </linearGradient>
    </defs>
</svg>
