<svg width="193" height="194" viewBox="0 0 193 194" fill="none" xmlns="http://www.w3.org/2000/svg" data-reactroot=""><path d="M96.5 194C149.795 194 193 150.795 193 97.5C193 44.2045 149.795 1 96.5 1C43.2045 1 0 44.2045 0 97.5C0 150.795 43.2045 194 96.5 194Z" fill="url(#1_crv_usdn_icon_acd20385-c42c-437c-a35b-62c414c14879)"></path><path fill-rule="evenodd" clip-rule="evenodd" d="M158 97L97 36L36 97L97 158L158 97ZM80.6856 84.3875C80.6856 76.591 86.1459 70.0654 93.4531 68.4441V62.2442H100.546V68.4441C107.853 70.0654 113.314 76.591 113.314 84.3875H106.221C106.221 79.2817 102.088 75.1503 96.9996 75.1503C91.9113 75.1503 87.7787 79.2817 87.7787 84.3875C87.7787 86.5778 88.6769 88.0625 90.4116 89.4241C92.3346 90.9334 95.0358 92.0826 98.3056 93.3777C98.5392 93.4702 98.7765 93.5638 99.0169 93.6585L99.017 93.6585C101.893 94.7919 105.207 96.0981 107.801 97.9013C110.797 99.9836 113.314 103.062 113.314 107.672C113.314 115.469 107.853 121.994 100.546 123.616V131.756H93.4531V123.616C86.1459 121.994 80.6856 115.469 80.6856 107.672H87.7787C87.7787 112.778 91.9113 116.909 96.9996 116.909C102.088 116.909 106.221 112.778 106.221 107.672C106.221 106.127 105.545 104.971 103.753 103.726C101.868 102.415 99.2991 101.399 96.1531 100.154L96.153 100.154L95.6936 99.9723C92.5797 98.739 88.8972 97.2523 86.0323 95.0038C82.9793 92.6076 80.6856 89.2128 80.6856 84.3875Z" fill="white"></path><path d="M148.5 89C173.077 89 193 69.0767 193 44.5C193 19.9233 173.077 0 148.5 0C123.923 0 104 19.9233 104 44.5C104 69.0767 123.923 89 148.5 89Z" fill="url(#2_crv_usdn_icon_acd20385-c42c-437c-a35b-62c414c14879)"></path><path fill-rule="evenodd" clip-rule="evenodd" d="M139.147 68.2523C130.782 68.2523 127.088 54.9021 127.088 42.7223C126.871 36.6747 129.174 24.2971 140.125 23.1673C153.813 21.755 168.059 34.2484 170.978 40.2236C173.898 46.1987 173.694 51.1961 165.546 53.912C159.028 56.0848 150.48 58.1489 147.021 58.9094C146.249 64.5615 144.262 68.2523 139.147 68.2523ZM147.512 46.1987L147.458 46.1031C147.332 46.171 147.375 46.1987 147.512 46.1987ZM147.458 46.1031C144.405 40.6169 145.032 37.0713 150.649 37.0713C156.298 37.0713 170.869 40.5495 158.267 43.3741C150.421 45.1328 147.9 45.8649 147.458 46.1031ZM139.709 65.2353C143.359 64.5161 145.434 59.4472 144.344 53.9137C143.253 48.3801 139.411 44.4774 135.761 45.1966C132.111 45.9158 130.036 50.9846 131.127 56.5181C132.217 62.0517 136.06 65.9545 139.709 65.2353Z" fill="white"></path><defs><linearGradient id="1_crv_usdn_icon_acd20385-c42c-437c-a35b-62c414c14879" x1="96.5" y1="1" x2="96.5" y2="194" gradientUnits="userSpaceOnUse"><stop stop-color="#28EEBD"></stop><stop offset="1" stop-color="#0F9C79"></stop></linearGradient><linearGradient id="2_crv_usdn_icon_acd20385-c42c-437c-a35b-62c414c14879" x1="148.5" y1="0" x2="148.5" y2="89" gradientUnits="userSpaceOnUse"><stop stop-color="#3465A4"></stop><stop offset="1" stop-color="#164786"></stop></linearGradient></defs></svg>