<svg width="193" height="194" viewBox="0 0 193 194" fill="none" xmlns="http://www.w3.org/2000/svg" data-reactroot=""><path d="M96.4995 194C149.795 194 193 150.795 193 97.4999C193 44.2044 149.795 0.999878 96.4995 0.999878C43.204 0.999878 -0.000488281 44.2044 -0.000488281 97.4999C-0.000488281 150.795 43.204 194 96.4995 194Z" fill="url(#1_crv_ust_icon_936de0af-55d7-44f0-8462-10f96d0a2b1f)"></path><path fill-rule="evenodd" clip-rule="evenodd" d="M138.052 115.407C140.86 109.621 142.434 103.125 142.434 96.2613C142.434 82.3333 135.951 69.9194 125.838 61.8728C114.172 61.5767 97.6269 65.1514 83.4828 79.9335C67.9774 96.1384 105.055 108.622 138.052 115.407Z" fill="white"></path><path fill-rule="evenodd" clip-rule="evenodd" d="M54.5918 77.1383C57.5447 69.6982 62.4719 63.2564 68.7269 58.4595C76.6668 55.6835 86.4363 53.9401 86.2036 60.6886C85.8677 70.43 66.4181 77.7052 54.5918 77.1383Z" fill="white"></path><path fill-rule="evenodd" clip-rule="evenodd" d="M77.8642 139.134C61.8486 132.58 50.5654 116.841 50.5654 98.4668C50.5654 94.0071 51.2301 89.7026 52.4658 85.647C60.1322 92.0079 75.5257 108.039 79.1167 124.271C80.6036 130.992 79.7648 135.786 77.8642 139.134Z" fill="white"></path><path d="M83.8726 101.385V122.33H138.408V118.141H113.238V113.952H138.408V109.763H113.238V105.574H138.408V101.385H83.8726ZM88.0676 103.48C88.6239 103.48 89.1574 103.701 89.5508 104.093C89.9442 104.486 90.1652 105.019 90.1652 105.574C90.1652 106.13 89.9442 106.662 89.5508 107.055C89.1574 107.448 88.6239 107.669 88.0676 107.669C87.5113 107.669 86.9778 107.448 86.5844 107.055C86.1911 106.662 85.9701 106.13 85.9701 105.574C85.9701 105.019 86.1911 104.486 86.5844 104.093C86.9778 103.701 87.5113 103.48 88.0676 103.48ZM96.4578 103.48C97.0141 103.48 97.5476 103.701 97.9409 104.093C98.3343 104.486 98.5553 105.019 98.5553 105.574C98.5553 106.13 98.3343 106.662 97.9409 107.055C97.5476 107.448 97.0141 107.669 96.4578 107.669C95.9015 107.669 95.3679 107.448 94.9746 107.055C94.5812 106.662 94.3602 106.13 94.3602 105.574C94.3602 105.019 94.5812 104.486 94.9746 104.093C95.3679 103.701 95.9015 103.48 96.4578 103.48ZM104.848 103.48C105.404 103.48 105.938 103.701 106.331 104.093C106.724 104.486 106.945 105.019 106.945 105.574C106.945 106.13 106.724 106.662 106.331 107.055C105.938 107.448 105.404 107.669 104.848 107.669C104.292 107.669 103.758 107.448 103.365 107.055C102.971 106.662 102.75 106.13 102.75 105.574C102.75 105.019 102.971 104.486 103.365 104.093C103.758 103.701 104.292 103.48 104.848 103.48ZM92.2627 109.763C92.819 109.763 93.3525 109.984 93.7459 110.377C94.1392 110.769 94.3602 111.302 94.3602 111.858C94.3602 112.413 94.1392 112.946 93.7459 113.338C93.3525 113.731 92.819 113.952 92.2627 113.952C91.7064 113.952 91.1729 113.731 90.7795 113.338C90.3861 112.946 90.1652 112.413 90.1652 111.858C90.1652 111.302 90.3861 110.769 90.7795 110.377C91.1729 109.984 91.7064 109.763 92.2627 109.763ZM100.653 109.763C101.209 109.763 101.743 109.984 102.136 110.377C102.529 110.769 102.75 111.302 102.75 111.858C102.75 112.413 102.529 112.946 102.136 113.338C101.743 113.731 101.209 113.952 100.653 113.952C100.097 113.952 99.563 113.731 99.1696 113.338C98.7763 112.946 98.5553 112.413 98.5553 111.858C98.5553 111.302 98.7763 110.769 99.1696 110.377C99.563 109.984 100.097 109.763 100.653 109.763ZM109.043 109.763C109.599 109.763 110.133 109.984 110.526 110.377C110.919 110.769 111.14 111.302 111.14 111.858C111.14 112.413 110.919 112.946 110.526 113.338C110.133 113.731 109.599 113.952 109.043 113.952C108.487 113.952 107.953 113.731 107.56 113.338C107.166 112.946 106.945 112.413 106.945 111.858C106.945 111.302 107.166 110.769 107.56 110.377C107.953 109.984 108.487 109.763 109.043 109.763ZM88.0676 116.046C88.6239 116.046 89.1574 116.267 89.5508 116.66C89.9442 117.053 90.1652 117.585 90.1652 118.141C90.1652 118.696 89.9442 119.229 89.5508 119.622C89.1574 120.014 88.6239 120.235 88.0676 120.235C87.5113 120.235 86.9778 120.014 86.5844 119.622C86.1911 119.229 85.9701 118.696 85.9701 118.141C85.9701 117.585 86.1911 117.053 86.5844 116.66C86.9778 116.267 87.5113 116.046 88.0676 116.046ZM96.4578 116.046C97.0141 116.046 97.5476 116.267 97.9409 116.66C98.3343 117.053 98.5553 117.585 98.5553 118.141C98.5553 118.696 98.3343 119.229 97.9409 119.622C97.5476 120.014 97.0141 120.235 96.4578 120.235C95.9015 120.235 95.3679 120.014 94.9746 119.622C94.5812 119.229 94.3602 118.696 94.3602 118.141C94.3602 117.585 94.5812 117.053 94.9746 116.66C95.3679 116.267 95.9015 116.046 96.4578 116.046ZM104.848 116.046C105.404 116.046 105.938 116.267 106.331 116.66C106.724 117.053 106.945 117.585 106.945 118.141C106.945 118.696 106.724 119.229 106.331 119.622C105.938 120.014 105.404 120.235 104.848 120.235C104.292 120.235 103.758 120.014 103.365 119.622C102.971 119.229 102.75 118.696 102.75 118.141C102.75 117.585 102.971 117.053 103.365 116.66C103.758 116.267 104.292 116.046 104.848 116.046ZM83.8726 126.518V130.707H138.408V126.518H83.8726ZM83.8726 134.896V139.085H138.408V134.896H83.8726Z" fill="white"></path><path d="M148.5 89C173.077 89 193 69.0767 193 44.5C193 19.9233 173.077 0 148.5 0C123.923 0 104 19.9233 104 44.5C104 69.0767 123.923 89 148.5 89Z" fill="url(#2_crv_ust_icon_936de0af-55d7-44f0-8462-10f96d0a2b1f)"></path><path fill-rule="evenodd" clip-rule="evenodd" d="M139.147 68.2523C130.782 68.2523 127.088 54.9021 127.088 42.7223C126.871 36.6747 129.174 24.2971 140.125 23.1673C153.813 21.755 168.059 34.2484 170.978 40.2236C173.898 46.1987 173.694 51.1961 165.546 53.912C159.028 56.0848 150.48 58.1489 147.021 58.9094C146.249 64.5615 144.262 68.2523 139.147 68.2523ZM147.512 46.1987L147.458 46.1031C147.332 46.171 147.375 46.1987 147.512 46.1987ZM147.458 46.1031C144.405 40.6169 145.032 37.0713 150.649 37.0713C156.298 37.0713 170.869 40.5495 158.267 43.3741C150.421 45.1328 147.9 45.8649 147.458 46.1031ZM139.709 65.2353C143.359 64.5161 145.434 59.4472 144.344 53.9137C143.253 48.3801 139.411 44.4774 135.761 45.1966C132.111 45.9158 130.036 50.9846 131.127 56.5181C132.217 62.0517 136.06 65.9545 139.709 65.2353Z" fill="white"></path><defs><linearGradient id="1_crv_ust_icon_936de0af-55d7-44f0-8462-10f96d0a2b1f" x1="96.4995" y1="0.999878" x2="96.4995" y2="194" gradientUnits="userSpaceOnUse"><stop stop-color="#2A5ADA"></stop><stop offset="1" stop-color="#0232B2"></stop></linearGradient><linearGradient id="2_crv_ust_icon_936de0af-55d7-44f0-8462-10f96d0a2b1f" x1="148.5" y1="0" x2="148.5" y2="89" gradientUnits="userSpaceOnUse"><stop stop-color="#3465A4"></stop><stop offset="1" stop-color="#164786"></stop></linearGradient></defs></svg>