<svg width="193" height="193" viewBox="0 0 193 193" fill="none" xmlns="http://www.w3.org/2000/svg" data-reactroot=""><circle cx="96.5" cy="96.5" r="96.5" fill="url(#1_crv_usdp_icon_92e3a8b3-53fc-4895-a0b0-c09c66afa4fa)"></circle><path fill-rule="evenodd" clip-rule="evenodd" d="M97.1879 111.668C115.879 111.567 131 96.3835 131 77.6686C131 58.891 115.778 43.6687 97 43.6687C78.2851 43.6687 63.1012 58.7895 63.0002 77.4807C62.9999 77.5224 63 77.5641 63.0001 77.6059L63.0001 77.6059L63.0002 77.6686V148.486H80.094C89.5347 148.486 97.1879 140.833 97.1879 131.392V111.668ZM101.321 74.0997C101.321 79.7018 99.3863 84.2433 97.0002 84.2433C94.6141 84.2433 92.6798 79.7018 92.6798 74.0997C92.6798 68.4975 94.6141 63.9561 97.0002 63.9561C99.3863 63.9561 101.321 68.4975 101.321 74.0997ZM121.795 84.2433C124.181 84.2433 126.115 79.7018 126.115 74.0996C126.115 68.4975 124.181 63.956 121.795 63.956C119.409 63.956 117.475 68.4975 117.475 74.0996C117.475 79.7018 119.409 84.2433 121.795 84.2433Z" fill="white"></path><path d="M191.5 44.5C191.5 68.2482 172.248 87.5 148.5 87.5C124.752 87.5 105.5 68.2482 105.5 44.5C105.5 20.7518 124.752 1.5 148.5 1.5C172.248 1.5 191.5 20.7518 191.5 44.5Z" fill="url(#2_crv_usdp_icon_92e3a8b3-53fc-4895-a0b0-c09c66afa4fa)" stroke="white" stroke-width="3"></path><path fill-rule="evenodd" clip-rule="evenodd" d="M139.147 68.2523C130.782 68.2523 127.088 54.9021 127.088 42.7223C126.871 36.6747 129.174 24.2971 140.125 23.1673C153.813 21.755 168.059 34.2484 170.978 40.2236C173.898 46.1987 173.694 51.1961 165.546 53.912C159.028 56.0848 150.48 58.1489 147.021 58.9094C146.249 64.5615 144.262 68.2523 139.147 68.2523ZM147.512 46.1987L147.458 46.1031C147.332 46.171 147.375 46.1987 147.512 46.1987ZM147.458 46.1031C144.405 40.6169 145.032 37.0713 150.649 37.0713C156.298 37.0713 170.869 40.5495 158.267 43.3741C150.421 45.1328 147.9 45.8649 147.458 46.1031ZM139.709 65.2353C143.359 64.5161 145.434 59.4472 144.344 53.9137C143.253 48.3801 139.411 44.4774 135.761 45.1966C132.111 45.9158 130.036 50.9846 131.127 56.5181C132.217 62.0517 136.06 65.9545 139.709 65.2353Z" fill="white"></path><defs><linearGradient id="1_crv_usdp_icon_92e3a8b3-53fc-4895-a0b0-c09c66afa4fa" x1="96.5" y1="0" x2="96.5" y2="193" gradientUnits="userSpaceOnUse"><stop stop-color="#4460EF"></stop><stop offset="1" stop-color="#283885"></stop></linearGradient><linearGradient id="2_crv_usdp_icon_92e3a8b3-53fc-4895-a0b0-c09c66afa4fa" x1="148.5" y1="0" x2="148.5" y2="89" gradientUnits="userSpaceOnUse"><stop stop-color="#3465A4"></stop><stop offset="1" stop-color="#164786"></stop></linearGradient></defs></svg>