<svg width="193" height="193" viewBox="0 0 193 193" fill="none" xmlns="http://www.w3.org/2000/svg" data-reactroot=""><circle cx="96.5" cy="96.5" r="96.5" fill="url(#usdp_icon_a491f159-596c-49e0-af79-297627c464ba)"></circle><path fill-rule="evenodd" clip-rule="evenodd" d="M103.417 45.3059C103.683 45.5742 103.721 46.5947 103.721 53.5671C103.721 60.5396 103.758 61.56 104.024 61.8283C104.294 62.1001 105.724 62.1342 116.855 62.1342C127.986 62.1342 129.416 62.1683 129.686 62.4401C130.141 62.8992 130.141 72.4675 129.686 72.9266C129.416 73.1984 127.986 73.2325 116.855 73.2325C105.724 73.2325 104.294 73.2666 104.024 73.5384C103.757 73.8075 103.721 74.8904 103.721 82.4949V91.1456L108.211 91.1491C111.658 91.1518 113.219 91.2371 114.925 91.5159C122.529 92.7589 128.209 96.8904 130.655 102.959C131.744 105.66 131.978 106.976 131.998 110.519C132.019 114.032 131.888 114.979 130.993 117.817C129.552 122.383 125.657 126.546 120.966 128.532C117.245 130.108 113.92 130.671 108.336 130.671C104.95 130.671 104.281 130.719 104.024 130.977C103.758 131.245 103.721 132.275 103.721 139.336C103.721 146.396 103.683 147.426 103.417 147.694C103.154 147.959 102.297 148 96.9604 148C91.624 148 90.7668 147.959 90.5035 147.694C90.2376 147.426 90.2001 146.396 90.2001 139.336C90.2001 132.275 90.1626 131.245 89.8967 130.977C89.6268 130.705 88.1967 130.671 77.0658 130.671C65.9349 130.671 64.5048 130.637 64.235 130.365C63.7803 129.907 63.7803 120.727 64.235 120.268C64.5048 119.996 65.9349 119.962 77.0658 119.962C88.1967 119.962 89.6268 119.928 89.8967 119.656C90.1632 119.387 90.2001 118.325 90.2001 110.933C90.2001 104.647 90.2588 102.457 90.4319 102.283C90.7637 101.948 103.157 101.948 103.489 102.283C103.662 102.457 103.721 104.647 103.721 110.933C103.721 118.325 103.758 119.387 104.024 119.656C104.267 119.901 104.799 119.962 106.68 119.962C112.402 119.961 115.895 118.487 117.468 115.41C118.149 114.078 118.396 112.906 118.396 111.006C118.396 108.244 117.63 106.168 116.05 104.654C114.091 102.775 111.922 102.098 107.294 101.92C105.594 101.855 104.095 101.715 103.962 101.609C103.78 101.464 103.721 100.159 103.721 96.2841V91.1506L97.0087 91.0994L90.2967 91.0482L90.2001 82.2305C90.1174 74.6769 90.062 73.3863 89.8138 73.2282C89.2299 72.8565 84.2219 73.0958 81.8324 73.6099C80.4983 73.8967 78.3445 75.0961 77.5288 76.0063C75.2689 78.5278 74.7594 83.0884 76.3705 86.3743C77.1605 87.9855 78.0953 88.9195 79.7854 89.7863C81.6458 90.7402 83.04 91.0106 86.7234 91.1317L90.1035 91.2429L90.1551 96.2813C90.1916 99.8353 90.142 101.398 89.9867 101.587C89.8113 101.8 88.8956 101.851 85.4926 101.838C81.3731 101.822 80.4516 101.756 77.935 101.293C74.7532 100.708 71.0621 99.038 68.582 97.0609C65.632 94.7095 63.4828 91.3023 62.4854 87.3949C62.0622 85.7378 62 85.0799 62 82.2619C62 79.4538 62.0653 78.7575 62.4978 76.9584C63.9655 70.8516 67.8492 66.5081 73.9754 64.1218C77.2539 62.8447 80.79 62.3293 86.2751 62.3291C89.0337 62.3289 89.6442 62.2773 89.8967 62.023C90.1626 61.7547 90.2001 60.7253 90.2001 53.6645C90.2001 46.6036 90.2376 45.5742 90.5035 45.3059C90.7668 45.0407 91.624 45 96.9604 45C102.297 45 103.154 45.0407 103.417 45.3059Z" fill="white"></path><defs><linearGradient id="usdp_icon_a491f159-596c-49e0-af79-297627c464ba" x1="96.5" y1="0" x2="96.5" y2="193" gradientUnits="userSpaceOnUse"><stop stop-color="#27BB49"></stop><stop offset="1" stop-color="#117127"></stop></linearGradient></defs></svg>