<svg width="193" height="193" viewBox="0 0 193 193" fill="none" xmlns="http://www.w3.org/2000/svg" data-reactroot=""><path d="M96.5 193C149.795 193 193 149.795 193 96.5C193 43.2045 149.795 0 96.5 0C43.2045 0 0 43.2045 0 96.5C0 149.795 43.2045 193 96.5 193Z" fill="url(#dpi_icon_a56d9ee4-d48b-4ad1-ab33-b9a679edf8f8)"></path><path fill-rule="evenodd" clip-rule="evenodd" d="M85.7577 119.631C90.1489 119.631 94.2992 119.081 98.2066 117.982C102.115 116.882 105.52 115.172 108.423 112.852C111.326 110.531 113.615 107.519 115.29 103.812C116.964 100.108 117.802 95.6092 117.802 90.3146C117.802 85.1045 117.057 81.0513 115.569 77.3045C114.079 73.5596 112.013 70.5253 109.372 68.2043C106.729 65.8834 103.603 64.1731 99.9931 63.0742C96.3821 61.9747 92.4182 61.4252 88.1021 61.4252H75.2625V119.631H85.7577ZM61.1941 47.5H92.3449C97.5543 47.5 102.579 48.3758 107.418 50.126C112.256 51.8782 116.535 54.5442 120.258 58.1272C123.98 61.7116 126.958 66.2097 129.19 71.6242C131.424 77.0407 132.54 82.986 132.54 90.3146C132.54 97.7257 131.256 104.139 128.688 109.553C126.12 114.97 122.807 119.447 118.751 122.99C114.693 126.533 110.19 129.179 105.241 130.929C100.289 132.682 95.4329 133.556 90.6701 133.556H61.1941V47.5Z" fill="white"></path><path d="M123.768 81.7726L123.768 81.7725C121.067 79.4013 117.877 77.6578 114.204 76.5397C110.54 75.4239 106.526 74.8691 102.168 74.8691H89.3281H88.8281V75.3691V124.736H89.8281V75.8691H102.168C106.441 75.8691 110.355 76.4131 113.913 77.4964L113.913 77.4964C117.46 78.5761 120.522 80.2531 123.108 82.5238C125.681 84.7855 127.705 87.7507 129.17 91.4331L130.099 91.0635C128.584 87.2561 126.476 84.1529 123.768 81.7726ZM142.302 123.283L142.302 123.283C139.76 128.645 136.486 133.064 132.488 136.557C128.476 140.059 124.028 142.673 119.14 144.402L119.14 144.402C114.236 146.137 109.436 147 104.736 147H75.4681L61.9431 133.364L70.1937 56.19C71.5731 56.1728 74.2088 56.0883 77.5544 55.981C82.005 55.8382 87.7118 55.6551 93.3875 55.5368C98.6311 55.4274 103.857 55.3729 108.072 55.4548C110.18 55.4957 112.029 55.5706 113.498 55.6891C114.905 55.8026 115.915 55.953 116.472 56.1323L116.551 56.2052L116.997 56.6174C117.384 56.9742 117.94 57.4879 118.619 58.1156C119.977 59.371 121.826 61.0821 123.792 62.9051C127.726 66.5529 132.119 70.6436 133.977 72.4312C137.642 75.9617 140.584 80.3996 142.794 85.7587C144.998 91.1049 146.105 96.9838 146.105 104.258C146.105 111.613 144.831 117.949 142.302 123.283Z" stroke="white"></path><defs><linearGradient id="dpi_icon_a56d9ee4-d48b-4ad1-ab33-b9a679edf8f8" x1="96.5" y1="0" x2="96.5" y2="193" gradientUnits="userSpaceOnUse"><stop stop-color="#8150E6"></stop><stop offset="1" stop-color="#4F24A8"></stop></linearGradient></defs></svg>