<svg width="192" height="192" viewBox="0 0 192 192" fill="none" xmlns="http://www.w3.org/2000/svg">
    <path d="M0 96C0 42.9807 42.9807 0 96 0C149.019 0 192 42.9807 192 96C192 149.019 149.019 192 96 192C42.9807 192 0 149.019 0 96Z" fill="url(#paint0_linear_3847_5469)"/>
    <path d="M142.309 84.7162C144.216 71.9842 134.516 65.1387 121.262 60.5707L125.562 43.3195L115.066 40.7076L110.875 57.5032C108.117 56.8107 105.286 56.1667 102.462 55.5227L106.683 38.6181L96.1865 36L91.886 53.2452C89.602 52.7227 87.3545 52.2122 85.18 51.6657L85.192 51.6112L70.711 47.9967L67.917 59.2102C67.917 59.2102 75.71 60.9957 75.546 61.1052C79.798 62.1682 80.5635 64.9807 80.436 67.2157L75.54 86.8662C75.8315 86.9392 76.208 87.0487 76.6335 87.2127L75.522 86.9392L68.658 114.468C68.1355 115.756 66.8175 117.693 63.841 116.958C63.9505 117.11 56.2115 115.057 56.2115 115.057L51 127.072L64.667 130.48C67.206 131.118 69.6965 131.786 72.1445 132.412L67.8015 149.857L78.2915 152.469L82.5925 135.218C85.4595 135.989 88.2415 136.706 90.9625 137.386L86.6745 154.565L97.1705 157.176L101.514 139.767C119.421 143.157 132.881 141.79 138.549 125.596C143.117 112.561 138.324 105.035 128.903 100.133C135.767 98.5532 140.93 94.0402 142.309 84.7162ZM118.315 118.356C115.077 131.397 93.119 124.345 86 122.577L91.7705 99.4642C98.8895 101.244 121.711 104.761 118.315 118.356ZM121.565 84.5277C118.607 96.3907 100.336 90.3592 94.413 88.8832L99.637 67.9267C105.56 69.4027 124.651 72.1542 121.565 84.5277Z" fill="white"/>
    <defs>
        <linearGradient id="paint0_linear_3847_5469" x1="96" y1="0" x2="96" y2="192" gradientUnits="userSpaceOnUse">
            <stop stop-color="#C145F8"/>
            <stop offset="1" stop-color="#B013F6"/>
        </linearGradient>
    </defs>
</svg>
