<svg width="193" height="193" viewBox="0 0 193 193" fill="none" xmlns="http://www.w3.org/2000/svg" data-reactroot=""><circle cx="96.5" cy="96.5" r="96.5" fill="url(#enj_icon_b83adaf3-cab9-44bb-bc12-64fba2a34de1)"></circle><path fill-rule="evenodd" clip-rule="evenodd" d="M133.848 58.3439C138.699 58.8717 141.073 59.6102 142.532 61.0449C143.842 62.3318 144.054 62.9646 144.051 65.58C144.049 67.4588 143.971 67.9762 143.55 68.8974C143.117 69.845 141.969 71.143 141.539 71.1713C141.46 71.1765 140.965 71.2921 140.439 71.4285C139.759 71.605 131.275 71.7202 111.099 71.8271C83.9095 71.9715 81.4503 72.0324 77.7187 72.6544C72.624 73.5037 69.3557 75.5375 67.6325 78.9307C66.7631 80.6426 66.1918 83.7017 66.2775 86.1861C66.3407 88.0118 66.3753 88.1357 66.9443 88.5676L67.5445 89.0231L104.257 89.1314L140.97 89.2396L141.821 89.7058C144.229 91.0251 145.017 93.7645 144.172 97.8765C143.681 100.265 142.663 101.129 139.563 101.788C138.187 102.08 133.628 102.121 102.482 102.121C71.3562 102.121 66.9143 102.161 66.5176 102.444C66.0932 102.747 66.0715 102.905 66.1687 104.988C66.5227 112.578 68.7589 116.401 73.7993 118.033C75.9838 118.74 78.2277 119.231 80.4827 119.496C81.5155 119.617 94.6334 119.767 111.099 119.846C143.618 120.001 141.378 119.874 142.869 121.648C144.508 123.597 144.825 125.798 143.844 128.401C142.836 131.074 141.248 132.146 136.714 133.217C134.198 133.81 126.268 134.005 104.827 134C81.7337 133.994 76.32 133.815 70.9684 132.88C70.2376 132.753 69.0895 132.556 68.417 132.444C65.7486 131.999 61.8627 130.673 59.3732 129.358C57.2658 128.245 54.3652 125.518 52.8295 123.206C51.2021 120.756 49.6724 116.299 49.1966 112.622C49.0886 111.788 48.8881 110.278 48.751 109.266C48.4159 106.794 48.4165 85.9101 48.7518 83.0693C49.4785 76.9101 50.0134 74.7012 51.5768 71.4015C53.6372 67.0535 55.9357 64.7231 60.4258 62.4301C64.9445 60.1224 70.2716 58.897 77.874 58.4168C79.3042 58.3263 80.5414 58.1841 80.6236 58.1005C80.8588 57.8611 131.541 58.0927 133.848 58.3439Z" fill="white"></path><defs><linearGradient id="enj_icon_b83adaf3-cab9-44bb-bc12-64fba2a34de1" x1="96.5" y1="0" x2="96.5" y2="193" gradientUnits="userSpaceOnUse"><stop stop-color="#7669C8"></stop><stop offset="1" stop-color="#4E41A0"></stop></linearGradient></defs></svg>