<svg width="193" height="193" viewBox="0 0 193 193" fill="none" xmlns="http://www.w3.org/2000/svg" data-reactroot=""><circle cx="96.5" cy="96.5" r="96.5" fill="url(#ens_icon_8cc5b1dc-6f5f-4d48-8e37-452d3bfc5354)"></circle><path d="M69.3251 88.75C70.1251 90.46 72.1051 93.84 72.1051 93.84L94.9951 56L72.6551 71.6C71.3239 72.488 70.2318 73.6901 69.4751 75.1C68.4576 77.2271 67.917 79.5507 67.8911 81.9084C67.8652 84.2662 68.3546 86.6011 69.3251 88.75V88.75Z" fill="white"></path><path d="M60.2549 101.21C60.5072 104.83 61.5298 108.354 63.2545 111.546C64.9791 114.738 67.3658 117.525 70.2549 119.72L94.9649 136.95C94.9649 136.95 79.5049 114.67 66.4649 92.5001C65.1448 90.1578 64.2573 87.5969 63.8449 84.9401C63.6624 83.7369 63.6624 82.5132 63.8449 81.3101C63.5049 81.9401 62.8449 83.2301 62.8449 83.2301C61.5227 85.9267 60.6222 88.8102 60.1749 91.7801C59.9175 94.9194 59.9442 98.0756 60.2549 101.21V101.21Z" fill="white"></path><path d="M123.295 104.2C122.495 102.49 120.515 99.1101 120.515 99.1101L97.625 136.95L119.965 121.36C121.296 120.472 122.388 119.27 123.145 117.86C124.164 115.732 124.705 113.406 124.731 111.047C124.757 108.687 124.267 106.35 123.295 104.2V104.2Z" fill="white"></path><path d="M132.365 91.74C132.113 88.1204 131.09 84.5965 129.365 81.4042C127.641 78.212 125.254 75.425 122.365 73.23L97.6548 56C97.6548 56 113.105 78.28 126.155 100.45C127.471 102.793 128.356 105.354 128.765 108.01C128.947 109.213 128.947 110.437 128.765 111.64C129.105 111.01 129.765 109.72 129.765 109.72C131.087 107.023 131.987 104.14 132.435 101.17C132.696 98.031 132.672 94.8748 132.365 91.74Z" fill="white"></path><path d="M69.4749 75.1C70.2317 73.6901 71.3238 72.488 72.6549 71.6L94.9949 56L72.1049 93.85C72.1049 93.85 70.1049 90.47 69.3249 88.76C68.3529 86.6097 67.8627 84.273 67.8886 81.9134C67.9146 79.5538 68.456 77.2284 69.4749 75.1V75.1ZM60.2549 101.21C60.5072 104.83 61.5298 108.353 63.2545 111.546C64.9791 114.738 67.3658 117.525 70.2549 119.72L94.9649 136.95C94.9649 136.95 79.5049 114.67 66.4649 92.5C65.1448 90.1578 64.2573 87.5969 63.8449 84.94C63.6624 83.7369 63.6624 82.5131 63.8449 81.31C63.5049 81.94 62.8449 83.23 62.8449 83.23C61.5227 85.9266 60.6222 88.8102 60.1749 91.78C59.9175 94.9193 59.9442 98.0755 60.2549 101.21V101.21ZM123.255 104.21C122.455 102.5 120.475 99.12 120.475 99.12L97.6249 136.95L119.965 121.36C121.296 120.472 122.388 119.27 123.145 117.86C124.164 115.732 124.705 113.406 124.731 111.047C124.757 108.687 124.267 106.35 123.295 104.2L123.255 104.21ZM132.325 91.75C132.073 88.1304 131.05 84.6065 129.325 81.4142C127.601 78.222 125.214 75.435 122.325 73.24L97.6549 56C97.6549 56 113.105 78.28 126.155 100.45C127.472 102.793 128.356 105.354 128.765 108.01C128.947 109.213 128.947 110.437 128.765 111.64C129.105 111.01 129.765 109.72 129.765 109.72C131.087 107.023 131.988 104.14 132.435 101.17C132.696 98.031 132.672 94.8748 132.365 91.74L132.325 91.75Z" fill="white"></path><defs><linearGradient id="ens_icon_8cc5b1dc-6f5f-4d48-8e37-452d3bfc5354" x1="96.5" y1="0" x2="96.5" y2="193" gradientUnits="userSpaceOnUse"><stop stop-color="#7E9AF7"></stop><stop offset="1" stop-color="#677CC2"></stop></linearGradient></defs></svg>