<!--ETH2x-FLI-->
<svg width="193" height="193" viewBox="0 0 193 193" fill="none" xmlns="http://www.w3.org/2000/svg" data-reactroot=""><circle cx="96.5" cy="96.5" r="96.5" fill="url(#ethfli_icon_ca41b6cd-aec3-4f9a-be37-d17382dad113)"></circle><path d="M161.378 124.861L32 73.8233" stroke="white" stroke-width="2.61818"></path><path d="M57.8064 120.122C56.6574 119.633 55.724 118.233 55.7216 116.995L55.7085 110.272L76.5135 119.136L76.5657 144.353C76.5657 150.193 76.5657 150.48 80.7354 152.281L93.2184 157.6L93.2358 166.563L72.4308 157.699C70.1327 156.72 68.2659 153.92 68.2611 151.445L68.2437 142.481L64.0827 140.709C61.7847 139.73 59.9178 136.929 59.913 134.454L59.9043 129.972L68.2263 133.518L68.2089 124.554L57.8064 120.122Z" fill="white"></path><path d="M93.2014 148.636L89.0435 146.865C84.8738 144.832 84.8738 145.215 84.8738 140.607L84.8359 110.312L88.9938 112.083C91.2931 113.063 93.1604 115.865 93.1635 118.341L93.2014 148.636Z" fill="white"></path><path d="M81.6909 56.1007L96.4128 64.7639L111.136 56.1007L96.4132 31.7815L96.4127 31.7832L81.6909 56.1007Z" fill="white"></path><path d="M81.6909 60.8732L96.4136 81.5269L111.145 60.8732L96.4136 69.5325L81.6909 60.8732Z" fill="white"></path><path d="M117.249 81.7997V77.8633L125.419 69.7591C126.389 68.8108 127.106 67.9508 127.569 67.1789C128.054 66.385 128.297 65.525 128.297 64.5988C128.297 63.7167 128.032 63.022 127.503 62.5148C126.974 62.0076 126.036 61.754 124.691 61.754H117.811V57.9169C118.869 57.7184 120.038 57.542 121.317 57.3876C122.618 57.2112 124.063 57.123 125.651 57.123C127.569 57.123 129.069 57.3876 130.149 57.9169C131.252 58.4462 132.035 59.207 132.498 60.1993C132.961 61.1917 133.192 62.3935 133.192 63.8049C133.192 65.4588 132.862 66.9033 132.2 68.1382C131.539 69.3731 130.557 70.6301 129.256 71.9092L123.765 77.3671H133.953V81.7997H117.249ZM136.399 81.7997L142.419 72.67L136.399 64.0365H141.328L145.264 69.6598L148.77 64.0365H153.732L147.712 73.1992L153.732 81.7997H148.77L144.867 76.2094L141.361 81.7997H136.399Z" fill="white"></path><defs><linearGradient id="ethfli_icon_ca41b6cd-aec3-4f9a-be37-d17382dad113" x1="96.5" y1="0" x2="96.5" y2="193" gradientUnits="userSpaceOnUse"><stop stop-color="#6A25A9"></stop><stop offset="1" stop-color="#3A056C"></stop></linearGradient></defs></svg>