<svg width="192" height="192" viewBox="0 0 192 192" fill="none" xmlns="http://www.w3.org/2000/svg">
<path d="M0 96C0 42.9807 42.9807 0 96 0V0C149.019 0 192 42.9807 192 96V96C192 149.019 149.019 192 96 192V192C42.9807 192 0 149.019 0 96V96Z" fill="white"/>
<path fill-rule="evenodd" clip-rule="evenodd" d="M96 192C149.019 192 192 149.019 192 96C192 42.9807 149.019 0 96 0C42.9807 0 0 42.9807 0 96C0 149.019 42.9807 192 96 192ZM68.7607 34.8151L55.6954 21.7499L21.7543 55.691L34.8195 68.7563C37.9453 61.3976 42.508 54.5043 48.5084 48.5039C54.5087 42.5035 61.402 37.9408 68.7607 34.8151ZM139.211 48.5039C134.282 43.5749 128.75 39.6161 122.854 36.6271L136.304 23.1765L170.245 57.1177L154.485 72.8784C151.411 63.9747 146.32 55.6123 139.211 48.5039ZM139.211 139.207C145.212 133.207 149.774 126.313 152.9 118.955L168.819 134.873L134.878 168.814L118.959 152.896C126.318 149.77 133.211 145.207 139.211 139.207ZM72.8828 154.48C63.9791 151.407 55.6167 146.315 48.5084 139.207C43.5793 134.278 39.6205 128.746 36.6315 122.849L23.1809 136.3L57.1221 170.241L72.8828 154.48Z" fill="#142528"/>
<path d="M95.9908 46L95.374 48.0964V108.929L95.9908 109.545L124.229 92.8535L95.9908 46Z" fill="#DEDEDE"/>
<path d="M95.9937 46L67.7559 92.8535L95.9937 109.545V80.0187V46Z" fill="white"/>
<path d="M95.9906 114.89L95.6431 115.314V136.984L95.9906 137.999L124.245 98.2072L95.9906 114.89Z" fill="#DEDEDE"/>
<path d="M95.9937 137.999V114.89L67.7559 98.2072L95.9937 137.999Z" fill="white"/>
<path d="M95.9956 109.546L124.233 92.8546L95.9956 80.0197V109.546Z" fill="#BDBDBD"/>
<path d="M67.7559 92.8546L95.9933 109.546V80.0197L67.7559 92.8546Z" fill="#DEDEDE"/>
</svg>
