<svg width="193" height="193" viewBox="0 0 193 193" fill="none" xmlns="http://www.w3.org/2000/svg">
<circle cx="96.5" cy="96.5" r="96.5" fill="url(#paint0_linear_3018_15968)" fill-opacity="0.9"/>
<path fill-rule="evenodd" clip-rule="evenodd" d="M111.842 48.1333C110.278 47.6407 109 48.556 109 50.175V54.1568C109 55.2424 109.83 56.4779 110.863 56.8515C127.458 62.8468 139.333 78.5801 139.333 97.0001C139.333 115.42 127.458 131.153 110.863 137.149C109.729 137.558 109 138.653 109 139.844V143.825C109 145.444 110.278 146.359 111.842 145.867C132.814 139.258 148 119.878 148 97.0001C148 74.1221 132.814 54.7425 111.842 48.1333Z" fill="white"/>
<path fill-rule="evenodd" clip-rule="evenodd" d="M83 50.175C83 48.556 81.7543 47.6407 80.231 48.1333C59.7967 54.7425 45 74.1218 45 97.0001C45 119.878 59.7967 139.258 80.231 145.867C81.7543 146.359 83 145.444 83 143.825V139.844C83 138.758 82.1917 137.522 81.1847 137.149C65.0154 131.153 53.4444 115.42 53.4444 97.0001C53.4444 78.5804 65.0154 62.8468 81.1847 56.8515C82.1917 56.4779 83 55.2424 83 54.1568V50.175Z" fill="white"/>
<path d="M113.956 110.042L110.067 108.297C109.21 107.912 108.2 108.272 107.786 109.117C105.95 112.86 102.898 115.246 98.8677 115.246C95.2184 115.246 92.2914 113.451 90.0486 109.823C89.1715 108.419 88.4748 106.852 87.9442 105.136H98.3894C99.0515 105.136 99.6572 104.761 99.9557 104.168L102.448 100.788C103.038 99.6159 102.189 98.2309 100.882 98.2309H86.7689C86.7279 97.504 86.7033 96.7625 86.7033 95.9988C86.6955 95.2414 86.7167 94.4998 86.756 93.7691H98.3895C99.0515 93.7691 99.6572 93.3948 99.9557 92.8011L102.448 89.4218C103.038 88.2494 102.189 86.8645 100.882 86.8645H87.9315C89.8258 80.6605 93.7801 76.5959 98.8677 76.6758C102.744 76.6758 105.754 78.808 107.685 82.3002C108.118 83.0829 109.091 83.3829 109.907 83.0213L113.816 81.2874C114.752 80.8725 115.15 79.7361 114.654 78.8372C111.045 72.2891 105.783 69 98.8677 69C92.5573 69 87.5015 71.5204 83.6621 76.5231C81.4181 79.4695 79.856 82.9265 78.929 86.8645H73.2494C72.5873 86.8645 71.9816 87.2388 71.6832 87.8325L69.1907 91.2117C68.6013 92.3842 69.4495 93.7691 70.757 93.7691H77.9905C77.9556 94.5031 77.9223 95.2382 77.9223 95.9988C77.913 96.753 77.9307 97.4954 77.9625 98.2309H73.2494C72.5873 98.2309 71.9816 98.6053 71.6832 99.199L69.1907 102.578C68.6013 103.751 69.4495 105.136 70.757 105.136H78.9125C81.4917 115.845 88.9173 123.149 98.8677 122.998C105.932 122.998 111.257 119.47 114.812 112.444C115.265 111.549 114.868 110.452 113.956 110.042Z" fill="white"/>
<defs>
<linearGradient id="paint0_linear_3018_15968" x1="193" y1="2.46321" x2="193" y2="193" gradientUnits="userSpaceOnUse">
<stop stop-color="#368CD1"/>
<stop offset="1" stop-color="#294C73"/>
</linearGradient>
</defs>
</svg>
