<svg width="193" height="193" viewBox="0 0 193 193" fill="none" xmlns="http://www.w3.org/2000/svg" data-reactroot=""><circle cx="96.5" cy="96.5" r="96.5" fill="url(#eurs_icon_2b780935-2ddf-48f5-bc52-fc2958051291)"></circle><path fill-rule="evenodd" clip-rule="evenodd" d="M107.979 47.7466C110.191 48.3766 109.805 48.6726 104.618 50.3186C92.7617 54.0826 81.9857 63.2096 77.2907 73.4656L74.8317 78.8356H69.5288H64.2247L62.1018 83.7706C60.9338 86.4856 59.9787 88.9606 59.9787 89.2706C59.9787 89.5816 62.9038 89.8356 66.4788 89.8356H72.9788V96.8356V103.836H68.5878C63.8648 103.836 64.3887 103.223 60.2787 113.542C59.9337 114.408 61.9948 114.832 67.5718 115.042L75.3457 115.336L78.2477 120.336C82.2847 127.294 88.2858 133.192 94.8787 136.681C101.339 140.101 109.998 142.836 114.361 142.836C118.725 142.836 116.462 144.623 109.878 146.375C98.6948 149.352 84.6187 147.728 73.7177 142.204C67.2587 138.931 56.3667 128.052 52.7487 121.261C45.0837 106.875 45.0837 87.7966 52.7487 73.4106C54.2357 70.6196 58.3857 65.3616 61.9717 61.7256C72.2057 51.3506 82.8438 46.9396 97.4787 47.0006C101.879 47.0196 106.604 47.3556 107.979 47.7466ZM137.598 67.1106C151.069 85.3886 150.791 110.158 136.91 128.544C133.33 133.286 132.523 133.836 129.157 133.836C119.958 133.836 104.098 127.648 97.1057 121.331C90.3747 115.25 90.9957 114.836 106.843 114.836H120.707L122.593 110.091C123.63 107.481 124.626 105.016 124.805 104.613C124.984 104.21 116.659 103.758 106.305 103.608L87.4787 103.336L87.1828 96.5856L86.8877 89.8356H109.325H131.762L133.48 85.5856C134.425 83.2486 135.422 80.7736 135.696 80.0856C136.085 79.1076 131.27 78.8356 113.586 78.8356C95.9968 78.8356 90.9787 78.5546 90.9787 77.5676C90.9787 75.1296 96.0297 68.8966 100.496 65.8236C106.327 61.8116 110.862 59.8996 119.479 57.8196L126.479 56.1286L129.91 58.7326C131.797 60.1646 135.257 63.9346 137.598 67.1106Z" fill="white"></path><defs><linearGradient id="eurs_icon_2b780935-2ddf-48f5-bc52-fc2958051291" x1="96.5" y1="0" x2="96.5" y2="193" gradientUnits="userSpaceOnUse"><stop stop-color="#2568E4"></stop><stop offset="1" stop-color="#0E3275"></stop></linearGradient></defs></svg>