<svg width="193" height="193" viewBox="0 0 193 193" fill="none" xmlns="http://www.w3.org/2000/svg" data-reactroot=""><circle cx="96.5" cy="96.5" r="96.5" fill="url(#farm_icon_5b824878-2758-47c8-b910-4235d7f2e039)"></circle><path fill-rule="evenodd" clip-rule="evenodd" d="M61.9428 53.3625C61.5848 53.5545 61.1301 54.0209 60.9326 54.399C60.134 55.9253 60.7218 57.4352 62.4248 58.232C63.373 58.676 63.5553 58.8703 63.6175 59.5041C63.7109 60.4565 60.8587 85.3711 60.5792 86.043C60.4387 86.3809 59.8029 86.7548 58.6297 87.1893C56.1337 88.1137 52.1534 90.1866 50.3356 91.5087C47.8989 93.281 47.3617 95.0926 48.8399 96.5543C50.063 97.7636 51.6208 97.5911 53.6718 96.0192C57.2114 93.3069 61.9395 91.5567 67.1196 91.0413C76.5748 90.1004 86.5652 94.7425 91.9464 102.577C93.4386 104.749 95.163 108.491 95.9003 111.156C96.5062 113.345 96.5518 113.836 96.5709 118.34C96.5934 123.766 96.698 124.161 98.2853 124.817C99.9244 125.494 101.478 124.46 102.052 122.309C102.234 121.626 102.522 120.98 102.692 120.874C102.861 120.767 104.088 120.679 105.417 120.677C106.746 120.675 108.015 120.605 108.236 120.521C108.456 120.437 108.939 119.703 109.308 118.889C111.73 113.554 116.321 109.636 121.862 108.178C124.385 107.514 128.66 107.52 131.231 108.19C135.48 109.298 139.782 112.35 142.232 115.993C143.367 117.681 143.614 117.872 143.857 117.247C143.936 117.042 144 111.2 144 104.263C143.999 92.169 143.98 91.6206 143.535 90.8991C142.708 89.5578 142.13 89.4189 137.374 89.4189C133.807 89.4189 133.04 89.358 132.728 89.0497C132.413 88.7381 132.354 87.9307 132.354 83.8798C132.354 78.146 132.357 78.1392 134.743 78.1392C136.447 78.1392 137.424 77.7042 138.068 76.6589C138.656 75.7063 138.656 74.9322 138.068 73.9795C137.3 72.7331 136.396 72.4229 133.91 72.5515C131.375 72.6826 130.003 73.1946 128.678 74.5045C126.929 76.2341 126.791 76.8307 126.653 83.2595C126.552 87.9852 126.47 89.0053 126.174 89.1893C125.973 89.3153 122.922 89.4133 119.14 89.4154C113.078 89.4187 112.428 89.3811 112.09 89.0077C111.776 88.6603 104.754 61.9687 104.384 59.7163C104.229 58.7711 104.56 58.4971 106.049 58.3397C108.172 58.115 109.311 56.3147 108.457 54.5346C107.674 52.9038 109.073 52.9938 84.6506 53.0041C65.6041 53.0123 62.5045 53.0612 61.9428 53.3625ZM87.7712 58.7688C88.1028 59.0968 88.1446 60.7942 88.1446 73.9093C88.1446 90.3579 88.2433 89.4189 86.5165 89.4189C86.0017 89.4189 84.9266 89.0829 83.9295 88.6105C79.6657 86.5903 75.7638 85.6663 70.6062 85.4552C66.5354 85.2886 66.4339 85.2428 66.6366 83.6615C66.7029 83.1445 67.0205 80.448 67.3426 77.6692C67.6644 74.8904 68.2517 69.8232 68.6475 66.4085C69.0434 62.994 69.3674 60.0065 69.3674 59.7699C69.3674 59.5332 69.5813 59.1281 69.8428 58.8696C70.3006 58.417 70.635 58.3996 78.858 58.3996C86.3045 58.3996 87.4454 58.4468 87.7712 58.7688ZM97.8154 58.5843C97.9708 58.6818 98.2078 59.0479 98.3423 59.3979C98.7925 60.5681 105.733 87.9337 105.733 88.5379C105.733 88.8655 105.564 89.1978 105.357 89.2763C105.151 89.3548 102.645 89.4189 99.7889 89.4189C95.385 89.4189 94.5394 89.3627 94.2225 89.0497C93.8909 88.7217 93.8491 87.0243 93.8491 73.9093C93.8491 60.7942 93.8909 59.0968 94.2225 58.7688C94.619 58.377 97.2692 58.2407 97.8154 58.5843ZM66.634 96.6224C61.6764 97.4071 57.3336 99.6431 53.9715 103.142C44.0146 113.506 46.888 130.134 59.7725 136.713C63.3302 138.53 64.9769 138.887 69.7239 138.874C73.4887 138.864 73.9027 138.818 75.7849 138.207C82.8019 135.93 87.9512 130.833 90.1757 123.963C91.0494 121.265 91.2712 116.281 90.6425 113.471C88.8415 105.421 82.8457 99.1832 74.953 97.1491C73.0822 96.6668 68.276 96.3628 66.634 96.6224ZM73.0765 108.25C75.8135 109.257 78.1466 111.506 79.1385 114.093C79.8461 115.94 79.9901 118.583 79.4779 120.325C78.8951 122.308 78.2742 123.404 76.9496 124.788C73.8877 127.989 69.2469 128.835 65.1908 126.93C62.1503 125.503 60.1792 123.013 59.4856 119.725C57.8765 112.094 65.6609 105.522 73.0765 108.25ZM67.5144 113.653C65.7151 114.534 64.5835 116.721 64.9441 118.62C65.1513 119.713 66.3811 121.311 67.4659 121.897C68.6786 122.552 70.8898 122.394 72.1631 121.561C74.234 120.206 74.7819 116.969 73.2557 115.105C71.7495 113.265 69.4803 112.691 67.5144 113.653ZM123.476 113.526C121.362 114.032 118.874 115.434 117.261 117.03C112.164 122.073 112.205 130.216 117.353 135.246C120.002 137.836 122.896 139.005 126.64 139C130.42 138.995 133.02 137.921 135.687 135.262C137.749 133.206 138.593 131.779 139.252 129.231C140.411 124.751 139.168 120.351 135.804 117.03C132.467 113.736 127.956 112.453 123.476 113.526ZM128.325 124.139C129.235 124.943 129.501 126.353 128.944 127.418C128.467 128.332 127.099 128.99 126.074 128.8C125.173 128.632 124.137 127.639 123.908 126.724C123.293 124.266 126.406 122.444 128.325 124.139Z" fill="white"></path><defs><linearGradient id="farm_icon_5b824878-2758-47c8-b910-4235d7f2e039" x1="96.5" y1="0" x2="96.5" y2="193" gradientUnits="userSpaceOnUse"><stop stop-color="#1A8BC4"></stop><stop offset="1" stop-color="#0F6692"></stop></linearGradient></defs></svg>