<svg width="192" height="192" viewBox="0 0 192 192" fill="none" xmlns="http://www.w3.org/2000/svg">
<path d="M0 96C0 42.9807 42.9807 0 96 0C149.019 0 192 42.9807 192 96C192 149.019 149.019 192 96 192C42.9807 192 0 149.019 0 96Z" fill="url(#paint0_linear_3522_54841)"/>
<g clip-path="url(#clip0_3522_54841)">
<path d="M61.6338 56C59.9902 58.0861 58.4626 60.6362 57.0508 63.6494C55.639 66.6416 54.4061 69.9286 53.3525 73.5107C52.299 77.0929 51.4777 80.8017 50.8877 84.6367C50.2977 88.4508 50.002 92.2336 50.002 95.9844C50.002 100.978 50.5081 106.025 51.5195 111.124C52.5521 116.202 53.9424 120.923 55.6914 125.285C57.4614 129.647 59.4424 133.219 61.6338 136H48.7695C44.4498 130.374 41.2361 124.263 39.1289 117.667C37.0429 111.072 36 103.844 36 95.9844C36 88.1457 37.0429 80.9284 39.1289 74.333C41.2361 67.7375 44.4498 61.6262 48.7695 56H61.6338ZM92.1416 67.8809C94.1055 67.8111 96.0834 67.8115 98.0195 67.8115V56H105.374V68.0488C114.888 68.9424 122.41 71.8743 123.246 80.6143C123.887 87.0087 121.198 90.8484 116.922 93.0264C123.956 94.7157 128.358 98.904 127.48 108.286C126.394 119.944 117.73 123.016 105.305 123.77V135.944H97.9365V123.867H92.0576V136H84.7031V123.686H69.8545L71.3174 114.876C71.3725 114.877 76.7615 114.959 76.666 114.876C76.6743 114.877 76.6831 114.878 76.6914 114.878C78.1273 114.966 79.363 113.872 79.4521 112.433V79.2461C79.1568 77.2147 77.3089 75.7821 75.2725 76.0068C75.356 75.9091 69.9238 76.0068 69.9238 76.0068V68.1191H84.8281V56H92.1416V67.8809ZM143.23 56C147.55 61.6262 150.753 67.7375 152.839 74.333C154.946 80.9285 156 88.1457 156 95.9844C156 103.844 154.946 111.072 152.839 117.667C150.753 124.263 147.55 130.374 143.23 136H130.366C132.01 133.914 133.537 131.364 134.949 128.351C136.361 125.337 137.594 122.05 138.647 118.489C139.701 114.907 140.522 111.198 141.112 107.363C141.702 103.528 141.998 99.7351 141.998 95.9844C141.998 90.9905 141.482 85.9542 140.449 80.876C139.438 75.7765 138.046 71.0557 136.276 66.7148C134.527 62.3532 132.558 58.7814 130.366 56H143.23ZM112.938 106.834C112.938 97.2707 97.2819 98.7083 92.2949 98.6943V114.946C97.2819 114.946 112.938 115.993 112.938 106.834ZM109.525 83.9229C109.525 75.2112 96.4595 76.5234 92.3086 76.5234V91.2812C96.4596 91.2812 109.525 92.2998 109.525 83.9229Z" fill="white"/>
</g>
<defs>
<linearGradient id="paint0_linear_3522_54841" x1="96" y1="0" x2="96" y2="192" gradientUnits="userSpaceOnUse">
<stop stop-color="#0166FF"/>
<stop offset="1" stop-color="#0051CC"/>
</linearGradient>
<clipPath id="clip0_3522_54841">
<rect width="120" height="120" fill="white" transform="translate(36 36)"/>
</clipPath>
</defs>
</svg>
