<svg width="193" height="193" viewBox="0 0 193 193" fill="none" xmlns="http://www.w3.org/2000/svg" data-reactroot=""><circle cx="96.5" cy="96.5" r="96.5" fill="url(#fei_icon_243ce60a-0c3a-4158-89c7-b11da80a9513)"></circle><path d="M55.47 128H136.76C138.301 128 139.263 126.331 138.491 124.997L115.86 85.9327C115.503 85.3153 114.843 84.9352 114.13 84.9352H78.1006C77.3871 84.9352 76.7277 85.3153 76.37 85.9327L53.7394 124.997C52.967 126.331 53.9291 128 55.47 128Z" fill="white"></path><path d="M93.7611 56.0605C94.5277 54.7112 96.4723 54.7112 97.2389 56.0605L106.302 72.012C107.06 73.3453 106.097 75 104.563 75H86.4367C84.9032 75 83.9402 73.3453 84.6977 72.012L93.7611 56.0605Z" fill="white"></path><defs><linearGradient id="fei_icon_243ce60a-0c3a-4158-89c7-b11da80a9513" x1="96.5" y1="0" x2="96.5" y2="193" gradientUnits="userSpaceOnUse"><stop stop-color="#2DA682"></stop><stop offset="1" stop-color="#1B624D"></stop></linearGradient></defs></svg>