<svg width="192" height="192" viewBox="0 0 192 192" fill="none" xmlns="http://www.w3.org/2000/svg">
    <path d="M0 96C0 42.9807 42.9807 0 96 0C149.019 0 192 42.9807 192 96C192 149.019 149.019 192 96 192C42.9807 192 0 149.019 0 96Z" fill="url(#paint0_linear_3094_48756)"/>
    <path d="M151.001 93.6189C149.84 66.1091 128.654 43.8043 101.709 41.0274C98.5826 40.7035 96.0269 43.2951 96.0269 46.4528V61.698C96.0269 64.8557 98.5997 67.356 101.682 67.9792C112.262 70.1226 120.717 78.1577 123.506 88.5301C124.634 88.1425 125.918 87.9064 127.403 87.9005C132.524 87.9248 135.287 90.767 137.44 93.0653C139.454 95.1859 141.06 96.8512 144.428 96.9008C147.565 96.9055 149.17 95.4837 151.001 93.6189Z" fill="#4E80EE"/>
    <path d="M71.69 46.4204C75.161 44.6996 78.9497 47.44 78.9497 51.3275V88.0514C73.8245 88.0872 71.0907 90.8742 68.9302 93.1404L68.885 93.1868C66.8677 95.2595 65.2654 96.9059 61.8906 96.9008C58.5226 96.8512 56.9161 95.1859 54.9026 93.0653C52.7498 90.767 49.9867 87.9248 44.8653 87.9005C43.6189 87.9055 42.5135 88.0728 41.5231 88.3558C44.0648 69.9045 55.6758 54.3642 71.69 46.4204Z" fill="#4E80EE"/>
    <path d="M101.709 150.975C98.5827 151.297 96.027 148.707 96.027 145.55V130.304C96.027 127.149 98.5998 124.646 101.683 124.023C114.691 121.388 124.488 109.845 124.488 96.0025C124.488 95.8767 124.487 95.7511 124.485 95.6256C125.312 95.2908 126.257 95.0999 127.41 95.1016C130.778 95.1512 132.385 96.8166 134.398 98.9372C136.551 101.235 139.314 104.078 144.435 104.102C147.07 104.091 149.074 103.356 150.694 102.335C147.778 128.004 127.352 148.332 101.709 150.975Z" fill="#1F4E9F"/>
    <path d="M41.0012 96.0974C41.0375 117.804 53.5338 136.576 71.6901 145.582C75.1611 147.303 78.9499 144.562 78.9499 140.675V95.2522C75.6099 95.2638 74.0135 96.904 72.0064 98.9662L71.9612 99.0126C69.7946 101.285 67.0514 104.082 61.898 104.102C56.7767 104.078 54.0136 101.235 51.8608 98.9372C49.8472 96.8166 48.2407 95.1512 44.8728 95.1016C43.2554 95.0992 42.0452 95.476 41.0012 96.0974Z" fill="#1F4E9F"/>
    <defs>
        <linearGradient id="paint0_linear_3094_48756" x1="96" y1="0" x2="96" y2="192" gradientUnits="userSpaceOnUse">
            <stop stop-color="white"/>
            <stop offset="1" stop-color="#E0E8EF"/>
        </linearGradient>
    </defs>
</svg>
