<svg width="193" height="193" viewBox="0 0 193 193" fill="none" xmlns="http://www.w3.org/2000/svg" data-reactroot=""><circle cx="96.5" cy="96.5" r="96.5" fill="url(#ftm_icon_60cdfa6e-4bb5-4d6e-9084-d12ee71d757c)"></circle><path d="M92.9318 56.7855C94.9339 55.7382 97.9803 55.7382 99.9825 56.7855L120.412 67.4725C121.618 68.1032 122.28 69.0432 122.399 70.0135H122.419V123.732C122.392 124.79 121.724 125.841 120.412 126.528L99.9825 137.214C97.9803 138.262 94.9339 138.262 92.9318 137.214L72.5019 126.528C71.1962 125.845 70.5696 124.786 70.5386 123.732C70.5355 123.628 70.5351 123.542 70.5381 123.47L70.538 70.3585C70.5359 70.3003 70.5357 70.2422 70.5374 70.1844L70.5386 70.0135L70.5478 70.0134C70.6385 69.0325 71.2707 68.1166 72.5019 67.4725L92.9318 56.7855ZM119.202 99.9827L99.9825 110.037C97.9803 111.084 94.9339 111.084 92.9318 110.037L73.7539 100.005V123.626L92.9318 133.605C94.0147 134.178 95.1387 134.736 96.2377 134.808L96.4571 134.815C97.6024 134.818 98.7142 134.243 99.8416 133.697L119.202 123.54V99.9827ZM67.2157 122.564C67.2157 124.622 67.4572 125.975 67.9368 126.928C68.3342 127.718 68.9306 128.321 70.0195 129.056L70.0817 129.098C70.3207 129.257 70.5839 129.424 70.9044 129.62L71.2823 129.85L72.4427 130.544L70.7783 133.269L69.4795 132.492L69.2612 132.359C68.8857 132.129 68.5744 131.932 68.2841 131.738C65.1806 129.666 64.0232 127.407 64.0003 122.707L64 122.564H67.2157ZM94.8488 85.5845C94.7001 85.6351 94.5607 85.6936 94.4336 85.7601L74.0037 96.4471C73.9823 96.4583 73.9618 96.4694 73.9424 96.4804L73.925 96.4904L73.9571 96.5085L74.0037 96.5335L94.4336 107.221C94.5607 107.287 94.7001 107.346 94.8488 107.396V85.5845ZM98.0655 85.5845V107.396C98.2142 107.346 98.3536 107.287 98.4806 107.221L118.911 96.5335C118.932 96.5223 118.952 96.5112 118.972 96.5003L118.989 96.4904L118.957 96.4722L118.911 96.4471L98.4806 85.7601C98.3536 85.6936 98.2142 85.6351 98.0655 85.5845ZM119.202 73.8241L100.876 83.411L119.202 92.9979V73.8241ZM73.7539 73.8465V92.9755L92.0382 83.411L73.7539 73.8465ZM98.4806 59.6017C97.4182 59.0459 95.496 59.0459 94.4336 59.6017L74.0037 70.2887C73.9823 70.2999 73.9618 70.311 73.9424 70.322L73.925 70.3319L73.9571 70.3501L74.0037 70.3751L94.4336 81.0622C95.496 81.6179 97.4182 81.6179 98.4806 81.0622L118.911 70.3751C118.932 70.3639 118.952 70.3529 118.972 70.3418L118.989 70.3319L118.957 70.3137L118.911 70.2887L98.4806 59.6017ZM122.222 60.7736L123.521 61.5505L123.739 61.6833C124.114 61.9128 124.426 62.1101 124.716 62.3039C127.819 64.3762 128.977 66.6354 128.999 71.3353L129 71.4785H125.784C125.784 69.4203 125.543 68.0676 125.063 67.1145C124.666 66.3246 124.069 65.721 122.98 64.9864L122.918 64.9447C122.679 64.7851 122.416 64.618 122.096 64.4215L121.718 64.1923L120.557 63.4988L122.222 60.7736Z" fill="white"></path><defs><linearGradient id="ftm_icon_60cdfa6e-4bb5-4d6e-9084-d12ee71d757c" x1="96.5" y1="0" x2="96.5" y2="193" gradientUnits="userSpaceOnUse"><stop stop-color="#00A3FF"></stop><stop offset="1" stop-color="#005E93"></stop></linearGradient></defs></svg>