<svg width="192" height="192" viewBox="0 0 192 192" fill="none" xmlns="http://www.w3.org/2000/svg">
<rect width="192" height="192" rx="96" fill="url(#paint0_linear_3555_28281)"/>
<path d="M51.84 19.5127C35.0711 29.1942 21.9485 44.1182 14.4918 61.9879C7.03502 79.8576 5.65741 99.6826 10.5709 118.412C15.4845 137.141 26.4168 153.737 41.6856 165.645C56.9543 177.552 75.7131 184.112 95.0752 184.315C114.437 184.518 133.329 178.352 148.844 166.767C164.359 155.181 175.636 138.818 180.941 120.196C186.246 101.574 185.284 81.7243 178.203 63.7024C171.122 45.6804 158.315 30.4849 141.752 20.4543" stroke="#3B82F6" stroke-width="15.36" stroke-linecap="round" stroke-linejoin="round"/>
<circle cx="96" cy="11.52" r="11.52" fill="#3B82F6"/>
<path d="M115.745 106.641C115.745 96.1699 109.462 92.5796 96.8961 91.0839C87.9203 89.8869 86.1251 87.4936 86.1251 83.3044C86.1251 79.1153 89.1173 76.4233 95.1009 76.4233C100.486 76.4233 103.479 78.2184 104.974 82.7063C105.274 83.6039 106.171 84.202 107.069 84.202H111.855C113.052 84.202 113.95 83.3044 113.95 82.1081V81.8087C112.753 75.2263 107.368 70.1402 100.486 69.5421V62.3615C100.486 61.1645 99.5888 60.2669 98.0931 59.9675H93.6052C92.4082 59.9675 91.5106 60.865 91.2112 62.3615V69.2427C82.2354 70.4397 76.5512 76.4233 76.5512 83.9033C76.5512 93.7766 82.5348 97.6656 95.1009 99.1621C103.479 100.658 106.171 102.453 106.171 107.24C106.171 112.028 101.982 115.318 96.2979 115.318C88.5184 115.318 85.8257 112.027 84.9281 107.539C84.6294 106.343 83.7319 105.744 82.8343 105.744H77.7475C76.5512 105.744 75.6537 106.641 75.6537 107.838V108.138C76.85 115.617 81.6373 121.003 91.5106 122.499V129.68C91.5106 130.876 92.4082 131.774 93.9039 132.073H98.3918C99.5888 132.073 100.486 131.175 100.786 129.68V122.499C109.762 121.003 115.745 114.72 115.745 106.641Z" fill="#3B82F6"/>
<path fill-rule="evenodd" clip-rule="evenodd" d="M54.1147 80.6094C45.4377 103.648 57.4056 129.677 80.7425 138.054C81.6401 138.653 82.5377 139.849 82.5377 140.747V144.936C82.5377 145.534 82.5377 145.834 82.2383 146.132C81.9396 147.329 80.7425 147.928 79.5455 147.329C62.791 141.944 49.9255 129.079 44.5401 112.324C35.5643 83.901 51.1226 53.6822 79.5455 44.7064C79.845 44.4077 80.4431 44.4077 80.7425 44.4077C81.9396 44.7064 82.5377 45.604 82.5377 46.801V50.9895C82.5377 52.4859 81.9396 53.3835 80.7425 53.9816C68.4759 58.4695 58.6026 68.0434 54.1147 80.6094ZM109.763 45.9051C110.062 44.7081 111.259 44.11 112.456 44.7081C128.911 50.0936 142.076 62.959 147.461 80.013C156.437 108.436 140.879 138.655 112.456 147.631C112.157 147.929 111.558 147.929 111.259 147.929C110.062 147.631 109.464 146.733 109.464 145.536V141.348C109.464 139.851 110.062 138.954 111.259 138.355C123.526 133.868 133.399 124.294 137.887 111.728C146.564 88.6893 134.596 62.6596 111.259 54.2827C110.361 53.6839 109.464 52.4876 109.464 51.2906V47.1021C109.464 46.5033 109.464 46.2045 109.763 45.9051Z" fill="#3B82F6"/>
<defs>
<linearGradient id="paint0_linear_3555_28281" x1="96" y1="-17" x2="96" y2="192" gradientUnits="userSpaceOnUse">
<stop stop-color="white"/>
<stop offset="1" stop-color="#F0F0F0"/>
</linearGradient>
</defs>
</svg>
