<svg width="192" height="192" viewBox="0 0 192 192" fill="none" xmlns="http://www.w3.org/2000/svg">
    <rect width="192" height="192" rx="96" fill="url(#paint0_linear_2128_33603)"/>
    <g clip-path="url(#clip0_2128_33603)">
        <path d="M156 96C156 129.137 129.137 156 96 156C62.8629 156 36 129.137 36 96C36 62.8629 62.8629 36 96 36C129.137 36 156 62.8629 156 96Z" fill="white"/>
        <path d="M137.591 64.7727C127.445 51.5727 114.218 43.7727 93.5182 43.7727C68.9728 43.7727 46.6091 66.3545 46.6091 90.4636C46.6091 107.236 56.1273 115.282 66.6273 115.282C74.9682 115.545 82.6829 110.875 86.3182 103.364C86.4509 103.112 86.4436 102.81 86.299 102.565C86.1545 102.321 85.8933 102.169 85.6091 102.164H71.4546C70.8929 102.149 70.4453 101.689 70.4455 101.127V90.8727C70.4453 90.3108 70.8929 89.8511 71.4546 89.8363H90.5455C91.3173 89.8337 92.0138 89.3729 92.3182 88.6636C100.664 69.5727 115.445 65.4273 123.927 64.7454C128.282 64.3955 132.665 64.7454 136.909 65.7818C137.18 65.8812 137.483 65.7831 137.645 65.5441C137.806 65.3051 137.784 64.9868 137.591 64.7727Z" fill="url(#paint1_linear_2128_33603)"/>
        <path d="M54.5225 127.705C64.8199 140.958 78.1903 148.527 98.8008 148.476C123.31 148.268 145.648 125.539 145.507 101.386C145.39 84.5877 135.867 76.5294 125.271 76.6455C116.922 76.4524 109.238 81.1811 105.648 88.7215C105.521 88.9785 105.539 89.2835 105.697 89.5232C105.854 89.7628 106.126 89.9013 106.413 89.8872L120.504 89.812C121.071 89.8093 121.534 90.2653 121.54 90.8327L121.62 101.119C121.623 101.393 121.514 101.655 121.318 101.847C121.123 102.038 120.858 102.141 120.584 102.132L101.527 102.264C100.76 102.269 100.066 102.724 99.7557 103.427C91.5265 122.6 76.7321 126.839 68.2349 127.612C63.8817 127.981 59.4975 127.649 55.2496 126.628C54.9605 126.521 54.636 126.626 54.4636 126.882C54.2913 127.137 54.3156 127.477 54.5225 127.705Z" fill="url(#paint2_linear_2128_33603)"/>
    </g>
    <defs>
        <linearGradient id="paint0_linear_2128_33603" x1="96" y1="0" x2="96" y2="192" gradientUnits="userSpaceOnUse">
            <stop stop-color="#011B34"/>
            <stop offset="1" stop-color="#03101D"/>
        </linearGradient>
        <linearGradient id="paint1_linear_2128_33603" x1="46.6091" y1="79.5272" x2="137.727" y2="79.5272" gradientUnits="userSpaceOnUse">
            <stop offset="1e-05" stop-color="#1B75BA"/>
            <stop offset="0.17" stop-color="#2967B2"/>
            <stop offset="0.72" stop-color="#543D99"/>
            <stop offset="1" stop-color="#652D8F"/>
        </linearGradient>
        <linearGradient id="paint2_linear_2128_33603" x1="65.7731" y1="144.802" x2="145.875" y2="92.2404" gradientUnits="userSpaceOnUse">
            <stop offset="1e-05" stop-color="#D81C5C"/>
            <stop offset="1" stop-color="#ED4036"/>
        </linearGradient>
        <clipPath id="clip0_2128_33603">
            <rect width="120" height="120" fill="white" transform="translate(36 36)"/>
        </clipPath>
    </defs>
</svg>
