<svg width="193" height="193" viewBox="0 0 193 193" fill="none" xmlns="http://www.w3.org/2000/svg" data-reactroot=""><circle opacity="0.9" cx="96.5" cy="96.5" r="96.5" fill="url(#gel_icon_b3b696c1-eb60-4c6b-a361-1f028fde8fee)"></circle><path d="M120.848 83.7419C120.842 84.8752 119.799 85.6768 118.672 85.5582C115.878 85.2644 113.318 85.2887 110.924 85.538C105.715 86.0803 101.386 87.6859 97.3944 89.1662L97.3857 89.1695C97.1441 89.259 96.9038 89.3481 96.6647 89.4366C92.4267 91.0027 88.5215 92.3502 83.8882 92.4571C82.04 92.4997 80.0488 92.3445 77.8561 91.9037C75.9756 91.5257 74.4731 90.091 74.1005 88.2095C73.8052 86.7184 73.6504 85.1769 73.6504 83.5992C73.6504 70.5657 84.2161 60 97.2496 60C110.283 60 120.849 70.5657 120.849 83.5992C120.849 83.6468 120.849 83.6943 120.848 83.7419Z" fill="white"></path><path d="M75.7497 95.4678C73.9776 95.0421 72.3604 96.9463 73.2331 98.5464L96.3976 141.014C96.7702 141.698 97.7513 141.698 98.124 141.014L123.691 94.1409C124.598 92.4784 123.726 90.3959 121.869 90.0248C117.829 89.2177 114.386 89.131 111.323 89.4499C106.622 89.9393 102.718 91.3856 98.6647 92.8868C98.4499 92.9664 98.2348 93.046 98.0191 93.1258C93.7762 94.6938 89.3233 96.2656 83.9699 96.3891C81.4255 96.4479 78.7153 96.1802 75.7497 95.4678Z" fill="white"></path><path d="M97.2495 94.2291C97.2495 93.7366 97.5572 93.2965 98.0192 93.1258C98.2349 93.046 98.45 92.9664 98.6648 92.8868C102.718 91.3856 106.622 89.9393 111.323 89.4499C114.386 89.131 117.829 89.2177 121.869 90.0248C123.726 90.3959 124.598 92.4784 123.691 94.1409L98.124 141.014C97.9357 141.36 97.5917 141.531 97.2495 141.527V94.2291Z" fill="white"></path><defs><linearGradient id="gel_icon_b3b696c1-eb60-4c6b-a361-1f028fde8fee" x1="96.5" y1="0" x2="96.5" y2="193" gradientUnits="userSpaceOnUse"><stop stop-color="#FDC2A5"></stop><stop offset="1" stop-color="#D3703F"></stop></linearGradient></defs></svg>