<svg width="193" height="193" viewBox="0 0 193 193" fill="none" xmlns="http://www.w3.org/2000/svg">
    <rect width="193" height="193" rx="96" fill="url(#paint0_linear_1475_44099)"/>
    <path d="M89.717 47.0922C62.7513 47.0922 39.8739 69.0856 39.8739 96.0187C39.8739 122.952 62.7513 144.948 89.717 144.948H152.127V127.732L139.198 97.9354H121.719L134.584 128.467H89.717C81.1083 128.467 72.9823 125.073 66.8504 118.929C60.7192 112.782 57.3291 104.641 57.3291 96.0187C57.3291 87.3961 60.7192 79.2554 66.8504 73.1118C72.9817 66.9681 81.1068 63.5741 89.7146 63.5735" fill="white"/>
    <path d="M89.717 47.0922L89.7146 63.5735L119.931 47.0498" fill="white"/>
    <path d="M119.931 47.0498L126.786 63.5326L89.7146 63.5735" fill="white"/>
    <path d="M86.3152 91.348C90.8511 91.348 94.5349 87.6618 94.5349 83.1073C94.5349 78.5527 90.8511 74.8666 86.3152 74.8666C81.7792 74.8666 78.0954 78.5527 78.0954 83.1073C78.0954 87.6618 81.7792 91.348 86.3152 91.348Z" fill="white"/>
    <path d="M86.3152 117.47C90.8511 117.47 94.5349 113.784 94.5349 109.229C94.5349 104.674 90.8511 100.989 86.3152 100.989C81.7792 100.989 78.0954 104.674 78.0954 109.229C78.0954 113.784 81.7792 117.47 86.3152 117.47Z" fill="white"/>
    <defs>
        <linearGradient id="paint0_linear_1475_44099" x1="96" y1="0" x2="96" y2="192" gradientUnits="userSpaceOnUse">
            <stop stop-color="#B3B2D3"/>
            <stop offset="0.526" stop-color="#8C8ADA"/>
            <stop offset="1" stop-color="#6D69DE"/>
        </linearGradient>
    </defs>
</svg>
