<svg width="193" height="193" viewBox="0 0 193 193" fill="none" xmlns="http://www.w3.org/2000/svg" data-reactroot=""><circle cx="96.5" cy="96.5" r="96.5" fill="url(#gno_icon_a9cd74c4-bfd6-4868-af76-e8333dff03ee)"></circle><path fill-rule="evenodd" clip-rule="evenodd" d="M94.4284 56.0802C83.3813 56.7695 72.8433 62.0739 65.7512 70.5154C65.1446 71.2372 64.6484 71.8941 64.6484 71.9753C64.6484 72.1804 96.7962 104.305 97.0015 104.305C97.093 104.305 104.444 97.0314 113.336 88.1413L129.505 71.9772L128.243 70.5043C119.733 60.5644 107.333 55.2751 94.4284 56.0802ZM100.657 61.3984C106.823 62.0548 111.986 63.9167 117.085 67.3229C119.09 68.6618 122.32 71.3885 122.32 71.741C122.32 71.9899 97.2487 97.096 97.0003 97.096C96.907 97.096 91.1617 91.4265 84.2332 84.4972C75.5524 75.8153 71.6665 71.8179 71.7349 71.6399C71.8823 71.2554 74.5242 68.9936 76.2983 67.733C83.1723 62.8483 92.2063 60.4991 100.657 61.3984ZM61.1644 77.0558C58.9131 81.1112 57.2791 85.7623 56.5057 90.3158C55.5628 95.8658 55.9556 102.625 57.5408 108.135C61.2888 121.162 70.9369 131.344 83.7732 135.819C87.3248 137.057 90.4807 137.678 94.4617 137.922C111.11 138.942 126.548 129.901 133.838 114.862C135.298 111.851 136.13 109.605 136.802 106.866C138.87 98.4328 138.254 89.7813 135.008 81.6452C134.14 79.4713 132.448 76.1262 132.168 76.033C132.084 76.005 130.599 77.4005 128.867 79.134L125.719 82.2858L126.318 83.1252C127.221 84.3896 128.08 86.189 128.604 87.9127C129.026 89.3017 129.074 89.7174 129.074 92.0323C129.074 94.3446 129.026 94.7645 128.605 96.1519C127.189 100.821 123.933 104.425 119.541 106.183C117.405 107.038 115.886 107.28 113.311 107.172C112.053 107.119 110.628 106.954 110.048 106.793C108.695 106.419 106.359 105.32 105.308 104.565C104.846 104.233 104.41 103.962 104.338 103.962C104.267 103.962 102.625 105.545 100.691 107.48C98.7573 109.415 97.0968 110.999 97.0015 110.999C96.9063 110.999 95.2463 109.416 93.3128 107.481C91.3792 105.545 89.7388 103.962 89.6672 103.962C89.5958 103.962 89.16 104.233 88.6987 104.565C87.6446 105.322 85.3075 106.42 83.9582 106.792C82.5324 107.185 79.0007 107.327 77.4588 107.054C69.4132 105.629 63.8055 97.9293 64.9771 89.916C65.3303 87.5002 66.148 85.4054 67.5203 83.4009L68.285 82.2838L65.1383 79.1335C63.4074 77.4007 61.9394 75.983 61.8757 75.983C61.812 75.983 61.4921 76.4659 61.1644 77.0558ZM71.0546 86.4966C70.7994 86.8977 70.3578 87.8827 70.073 88.6851C69.6161 89.9728 69.5557 90.3657 69.5576 92.0323C69.5595 93.6347 69.6298 94.1225 70.0224 95.2555C71.1914 98.6292 73.6303 100.988 77.1783 102.176C78.5796 102.645 81.5036 102.617 83.1 102.119C84.3116 101.74 86.1795 100.732 86.1427 100.477C86.1168 100.297 71.7846 85.7671 71.6334 85.7671C71.5702 85.7671 71.3097 86.0954 71.0546 86.4966ZM115.026 93.0921C111.061 97.1131 107.823 100.451 107.83 100.509C107.862 100.759 109.802 101.774 110.906 102.118C112.745 102.69 115.431 102.651 117.219 102.025C119.997 101.053 122.113 99.2086 123.366 96.6669C124.661 94.041 124.851 91.4401 123.945 88.7323C123.527 87.4837 122.595 85.7583 122.345 85.7741C122.285 85.7779 118.991 89.071 115.026 93.0921Z" fill="white"></path><defs><linearGradient id="gno_icon_a9cd74c4-bfd6-4868-af76-e8333dff03ee" x1="96.5" y1="0" x2="96.5" y2="193" gradientUnits="userSpaceOnUse"><stop stop-color="#011B34"></stop><stop offset="1" stop-color="#03101D"></stop></linearGradient></defs></svg>