<svg width="193" height="193" viewBox="0 0 193 193" fill="none" xmlns="http://www.w3.org/2000/svg" data-reactroot=""><circle cx="96.5" cy="96.5" r="96.5" fill="url(#gtc_icon_f43483fc-2e98-48b3-b3b9-0737e109a475)"></circle><path d="M97.7815 78.3227C96.3593 78.3227 95.2136 77.1771 95.2136 75.7549V55.5678C95.2136 54.1456 96.3593 53 97.7815 53C99.2036 53 100.349 54.1456 100.349 55.5678V75.7549C100.31 77.1771 99.1641 78.3227 97.7815 78.3227Z" fill="white"></path><path d="M101.89 78.3227H93.9495C92.5273 78.2832 91.4211 77.1375 91.4211 75.7154C91.4606 74.3327 92.5668 73.2265 93.9495 73.187H101.89C103.312 73.2265 104.418 74.3722 104.418 75.7944C104.379 77.2166 103.233 78.3227 101.89 78.3227Z" fill="white"></path><path d="M99.1639 139.2C77.5942 139.2 60.054 121.66 60.054 100.09C60.054 78.5202 77.5942 60.98 99.1639 60.98C109.593 60.98 119.43 65.049 126.817 72.4365L129.346 74.9648L118.284 85.3546L113.504 80.2585L119.153 74.9253C113.504 70.3822 106.512 67.9329 99.1244 67.9329C81.4262 67.9329 67.0068 82.3522 67.0068 100.05C67.0068 117.749 81.4262 132.168 99.1244 132.168" fill="white"></path><path d="M99.1641 95.5469C96.6753 95.5469 94.6211 97.6012 94.6211 100.09C94.6211 102.579 96.6753 104.633 99.1641 104.633C101.653 104.633 103.707 102.579 103.707 100.09C103.707 97.5617 101.692 95.5469 99.1641 95.5469ZM99.1641 111.625C92.8038 111.625 87.6287 106.45 87.6287 100.09C87.6287 93.7297 92.8038 88.5545 99.1641 88.5545C105.524 88.5545 110.7 93.7297 110.7 100.09C110.7 106.45 105.524 111.625 99.1641 111.625ZM124.368 74.8858L104.023 93.6902L124.368 74.8858Z" fill="white"></path><path d="M121.998 72.318L126.739 77.4536L106.393 96.258L101.653 91.1224L121.998 72.318Z" fill="white"></path><path d="M128.951 139.2H98.5317V132.208H121.958V125.847L100.863 109.966L105.05 104.396L128.951 122.371V139.2Z" fill="white"></path><path d="M85.6137 85.3941C84.1915 85.3941 83.0459 84.2485 83.0459 82.8263V55.5678C83.0854 54.1456 84.2311 53.0395 85.6532 53.0395C87.0359 53.079 88.142 54.1851 88.1816 55.5678V82.8263C88.1816 84.2485 87.0359 85.3941 85.6137 85.3941Z" fill="white"></path><defs><linearGradient id="gtc_icon_f43483fc-2e98-48b3-b3b9-0737e109a475" x1="96.5" y1="0" x2="96.5" y2="193" gradientUnits="userSpaceOnUse"><stop stop-color="#26E1AD"></stop><stop offset="1" stop-color="#178264"></stop></linearGradient></defs></svg>