<svg width="193" height="193" viewBox="0 0 193 193" fill="none" xmlns="http://www.w3.org/2000/svg" data-reactroot=""><circle cx="96.5" cy="96.5" r="96.5" fill="url(#hegic_icon_3ce06c19-0b8c-4e35-b352-03f02e22f243)"></circle><path fill-rule="evenodd" clip-rule="evenodd" d="M103.97 65.2682C108.11 71.1358 112.112 76.8089 116.991 80.1763C117.233 80.3435 117.476 80.511 117.72 80.6788C130.926 89.7881 145.843 100.076 146.768 116.361C147.71 132.945 132.633 146.137 104.176 147.08C75.7184 148.022 51.5955 128.987 51.0302 107.315C50.4686 85.7876 57.7161 48.6424 75.3583 44.0803C75.5962 44.0188 75.846 43.9934 76.0916 44.0014C89.2709 44.4328 96.8249 55.1404 103.97 65.2682ZM82.1261 82.611C82.1261 80.9541 80.7829 79.611 79.1261 79.611H71.9339C70.277 79.611 68.9339 80.9541 68.9339 82.611V128.626C68.9339 130.283 70.277 131.626 71.9339 131.626H79.1261C80.7829 131.626 82.1261 130.283 82.1261 128.626V113.518C82.1261 111.862 83.4692 110.518 85.1261 110.518H93.6375C95.2943 110.518 96.6375 111.862 96.6375 113.518V128.626C96.6375 130.283 97.9806 131.626 99.6375 131.626H107.018C108.675 131.626 110.018 130.283 110.018 128.626V82.611C110.018 80.9541 108.675 79.611 107.018 79.611H99.6375C97.9806 79.611 96.6375 80.9541 96.6375 82.611V99.4146C96.6375 101.071 95.2943 102.415 93.6375 102.415H85.1261C83.4692 102.415 82.1261 101.071 82.1261 99.4146V82.611Z" fill="white"></path><defs><linearGradient id="hegic_icon_3ce06c19-0b8c-4e35-b352-03f02e22f243" x1="96.5" y1="0" x2="96.5" y2="193" gradientUnits="userSpaceOnUse"><stop stop-color="#1D2948"></stop><stop offset="1" stop-color="#191E2B"></stop></linearGradient></defs></svg>