<svg width="193" height="193" viewBox="0 0 193 193" fill="none" xmlns="http://www.w3.org/2000/svg" data-reactroot=""><path d="M96.5 193C149.795 193 193 149.796 193 96.5C193 43.2046 149.795 2.61911e-05 96.5 1.68726e-05C43.2045 7.55412e-06 -7.55412e-06 43.2045 -1.68726e-05 96.5C-2.61911e-05 149.795 43.2045 193 96.5 193Z" fill="url(#idle_icon_74b706ca-a51b-4098-9c18-9eb634e4d3f5)"></path><path fill-rule="evenodd" clip-rule="evenodd" d="M90.9714 50.2174V123.839H59.3376L59.1377 123.727V68.5937L60.3514 67.8917L90.9714 50.2174Z" fill="white"></path><path fill-rule="evenodd" clip-rule="evenodd" d="M101.166 142.123V68.4984H132.8L133 68.6126V123.744L131.786 124.446L101.166 142.123Z" fill="white"></path><defs><linearGradient id="idle_icon_74b706ca-a51b-4098-9c18-9eb634e4d3f5" x1="96.5" y1="1.68726e-05" x2="96.5" y2="193" gradientUnits="userSpaceOnUse"><stop stop-color="#226FDB"></stop><stop offset="1" stop-color="#18488B"></stop></linearGradient></defs></svg>