<svg width="193" height="193" viewBox="0 0 193 193" fill="none" xmlns="http://www.w3.org/2000/svg" data-reactroot=""><circle cx="96.5" cy="96.5" r="96.5" fill="url(#paint0_linear_17997_56747)"></circle><path d="M113 93.4043C113 95.427 112.428 97.2899 111.284 98.9932C110.176 100.661 108.534 102.009 106.356 103.039C104.216 104.068 101.632 104.635 98.6055 104.742V109H95.1176V104.635C91.0577 104.28 87.7359 103.092 85.1522 101.069C82.6055 99.0464 81.2584 96.2963 81.1107 92.8188H92.6817C92.8293 94.6285 93.6413 95.8173 95.1176 96.3851V89.5719C92.0173 88.7558 89.5813 88.0106 87.8097 87.3364C86.0381 86.6267 84.451 85.4911 83.0484 83.9298C81.6828 82.3684 81 80.2393 81 77.5425C81 75.3069 81.609 73.373 82.827 71.7407C84.0819 70.0729 85.7797 68.7954 87.9204 67.9083C90.0611 66.9857 92.4602 66.4534 95.1176 66.3114V62H98.6055V66.3114C102.702 66.5953 105.95 67.7308 108.349 69.718C110.785 71.7052 112.133 74.4375 112.391 77.9151H100.709C100.562 76.2827 99.8604 75.2005 98.6055 74.6682V81.4281L99.9896 81.8539C102.647 82.5636 104.843 83.3088 106.578 84.0895C108.349 84.8347 109.863 85.9702 111.118 87.496C112.373 88.9864 113 90.9558 113 93.4043ZM92.5709 77.0634C92.5709 78.3409 93.4198 79.3877 95.1176 80.2039V74.3488C93.4198 74.6327 92.5709 75.5376 92.5709 77.0634ZM98.6055 96.6512C99.4914 96.4738 100.193 96.1367 100.709 95.6399C101.226 95.1076 101.484 94.4511 101.484 93.6704C101.484 92.4285 100.525 91.4171 98.6055 90.6365V96.6512Z" fill="white"></path><circle cx="97" cy="97" r="51" stroke="white" stroke-width="8"></circle><rect x="70" y="119" width="53" height="9" fill="white"></rect><defs><linearGradient id="paint0_linear_17997_56747" x1="96.5" y1="0" x2="96.5" y2="193" gradientUnits="userSpaceOnUse"><stop stop-color="#303030"></stop><stop offset="1" stop-color="#101010"></stop></linearGradient></defs></svg>