<svg width="193" height="193" viewBox="0 0 193 193" fill="none" xmlns="http://www.w3.org/2000/svg" data-reactroot=""><circle cx="96.5" cy="96.5" r="96.5" fill="url(#kncl_icon_001911cd-e7f4-4132-ad60-16e05c55e7fa)" fill-opacity="0.9"></circle><path d="M91.0186 96.5027L130.175 118.931C130.49 119.121 130.849 119.223 131.216 119.227C131.583 119.231 131.945 119.137 132.264 118.956C132.583 118.774 132.848 118.51 133.031 118.192C133.214 117.874 133.31 117.513 133.307 117.146V75.8281C133.312 75.4604 133.218 75.0981 133.034 74.7793C132.851 74.4605 132.585 74.1968 132.265 74.0159C131.945 73.835 131.582 73.7435 131.214 73.7509C130.847 73.7584 130.488 73.8645 130.175 74.0583L91.0186 96.5027Z" fill="white"></path><path d="M129.345 64.1283L102.578 44.4405C102.3 44.2277 101.975 44.0864 101.631 44.029C101.286 43.9715 100.932 43.9998 100.601 44.1112C100.27 44.2226 99.9714 44.4138 99.7315 44.6679C99.4917 44.922 99.318 45.2312 99.2258 45.5682L89.4524 89.4233L129.11 67.4958C129.412 67.3405 129.668 67.1101 129.855 66.8268C130.042 66.5434 130.152 66.2167 130.176 65.8782C130.2 65.5397 130.135 65.2008 129.99 64.8943C129.844 64.5878 129.622 64.3239 129.345 64.1283" fill="white"></path><path d="M102.546 148.55L129.345 128.862C129.626 128.665 129.851 128.398 130 128.088C130.148 127.779 130.215 127.436 130.193 127.093C130.171 126.751 130.061 126.419 129.874 126.131C129.687 125.843 129.43 125.608 129.126 125.448L89.4524 103.52L99.2258 147.375C99.3069 147.716 99.4713 148.031 99.7044 148.293C99.9374 148.554 100.232 148.754 100.561 148.873C100.89 148.993 101.244 149.029 101.59 148.978C101.937 148.927 102.265 148.79 102.546 148.581" fill="white"></path><path d="M80.8377 95.6884L91.0184 48.0742C91.0961 47.6796 91.0543 47.2708 90.8984 46.9001C90.7425 46.5295 90.4795 46.2137 90.1431 45.9934C89.8067 45.773 89.4121 45.6581 89.01 45.6633C88.6079 45.6684 88.2165 45.7935 87.8858 46.0224L61.8077 66.0235C61.1473 66.5301 60.6129 67.1824 60.2462 67.9295C59.8794 68.6766 59.6902 69.4984 59.6933 70.3307V121.077C59.6804 121.92 59.865 122.754 60.2321 123.513C60.5993 124.272 61.1388 124.934 61.8077 125.447L87.7605 145.386C88.0912 145.615 88.4826 145.74 88.8847 145.745C89.2868 145.75 89.6814 145.635 90.0178 145.415C90.3542 145.194 90.6172 144.879 90.7731 144.508C90.929 144.137 90.9708 143.728 90.8931 143.334L80.8377 95.6884Z" fill="white"></path><defs><linearGradient id="kncl_icon_001911cd-e7f4-4132-ad60-16e05c55e7fa" x1="193" y1="2.46321" x2="193" y2="193" gradientUnits="userSpaceOnUse"><stop stop-color="#779081"></stop><stop offset="1" stop-color="#6C8275"></stop></linearGradient></defs></svg>