<svg width="192" height="192" viewBox="0 0 192 192" fill="none" xmlns="http://www.w3.org/2000/svg">
<path d="M0 96C0 42.9807 42.9807 0 96 0C149.019 0 192 42.9807 192 96C192 149.019 149.019 192 96 192C42.9807 192 0 149.019 0 96Z" fill="url(#paint0_linear_2827_49630)"/>
<path fill-rule="evenodd" clip-rule="evenodd" d="M112.204 77.8848C112.204 90.4503 92.6051 88.9215 86.3786 88.9215V66.7853C92.6051 66.7853 112.204 64.8167 112.204 77.8848ZM117.323 112.251C117.323 125.99 93.8378 124.419 86.3577 124.419V100.042C93.8378 100.063 117.323 97.9058 117.323 112.251ZM132.785 72.9215C131.531 59.8115 120.248 55.4136 105.977 54.0733V36H94.9452V53.7173C92.041 53.7173 89.074 53.7173 86.1279 53.822V36H75.1585V54.178H68.138H52.8017V66.0105C52.8017 66.0105 60.9505 65.8639 60.8251 66.0105C63.8798 65.6733 66.6504 67.822 67.0933 70.8691V120.649C66.9596 122.808 65.1063 124.448 62.9521 124.316C62.9396 124.316 62.927 124.316 62.9145 124.314C63.0608 124.44 54.8911 124.314 54.8911 124.314L52.6973 137.529H67.0724H74.9704V156H86.0025V137.801H94.8199V155.916H105.873V137.654C124.51 136.524 137.507 131.916 139.136 114.429C140.453 100.356 133.85 94.0733 123.299 91.5393C129.713 88.2722 133.746 82.5131 132.785 72.9215Z" fill="white"/>
<defs>
<linearGradient id="paint0_linear_2827_49630" x1="96" y1="0" x2="96" y2="192" gradientUnits="userSpaceOnUse">
<stop stop-color="#356963"/>
<stop offset="1" stop-color="#162E2F"/>
</linearGradient>
</defs>
</svg>
