<svg width="193" height="193" viewBox="0 0 193 193" fill="none" xmlns="http://www.w3.org/2000/svg" data-reactroot=""><path d="M96.5 193C149.795 193 193 149.795 193 96.5C193 43.2045 149.795 0 96.5 0C43.2045 0 0 43.2045 0 96.5C0 149.795 43.2045 193 96.5 193Z" fill="url(#lend_icon_4c523673-b981-4b35-ae74-42a26ccb6422)"></path><path d="M131.95 47.8504L122.083 38L89.1445 70.9358L122.08 103.891L131.947 94.0243L108.862 70.939L131.95 47.8504Z" fill="white"></path><path d="M103.856 122.067L70.9166 89.1118L61.05 98.9784L84.1354 122.064L61.05 145.149L70.9166 154.999L103.856 122.067Z" fill="white"></path><path d="M84.9385 75.1071L117.882 108.051L108.061 117.872L75.1173 84.9282L84.9385 75.1071Z" fill="white"></path><defs><linearGradient id="lend_icon_4c523673-b981-4b35-ae74-42a26ccb6422" x1="97" y1="0" x2="97" y2="193" gradientUnits="userSpaceOnUse"><stop stop-color="#01AEC9"></stop><stop offset="1" stop-color="#009AB5"></stop></linearGradient></defs></svg>