<svg width="193" height="193" viewBox="0 0 193 193" fill="none" xmlns="http://www.w3.org/2000/svg">
    <rect width="193" height="193" rx="96" fill="#DB3737"/>
    <path fill-rule="evenodd" clip-rule="evenodd" d="M49.8459 48.5269H56.4393H61.714H68.3074L79.5168 80.177H113.142L124.351 48.5269H130.285H136.219H142.154V80.177H156V86.7704H142.154V105.89H156V112.483H142.154V143.472H130.285V112.483H113.568L102.593 143.472H101.934H90.725H90.0656L79.0905 112.483H61.714V143.472H49.8459V112.483H36V105.89H49.8459V86.7704H36V80.177H49.8459V48.5269ZM61.714 86.7704V105.89H76.7554L69.9839 86.7704H61.714ZM67.6487 80.177H61.714V63.4202L67.6487 80.177ZM81.852 86.7704L88.6235 105.89H104.035L110.807 86.7704H81.852ZM122.675 86.7704L115.903 105.89H130.285V86.7704H122.675ZM130.285 80.177V65.2819L125.01 80.177H130.285ZM101.7 112.483H90.9587L96.3294 127.648L101.7 112.483Z" fill="white"/>
</svg>
