<svg width="193" height="193" viewBox="0 0 193 193" fill="none" xmlns="http://www.w3.org/2000/svg" data-reactroot=""><circle cx="96.5" cy="96.5" r="96.5" fill="url(#matic_icon_e20cb653-6b89-454a-9f51-353fbfa2ca14)"></circle><path fill-rule="evenodd" clip-rule="evenodd" d="M74.715 57.1158C74.532 57.1794 74.2408 57.2988 74.0679 57.3811C73.8011 57.508 55.2002 68.527 54.2981 69.0925C53.6691 69.4868 52.9246 70.3318 52.5678 71.0564C52.3743 71.4495 52.1812 72.0659 52.0891 72.5851C52.0016 73.0779 52 73.2931 52 84.5929C52 95.8667 52.0018 96.109 52.0884 96.5973C52.3094 97.8421 52.8562 98.8938 53.7423 99.7785C54.147 100.183 54.6102 100.516 55.4583 101.014C55.7773 101.201 59.9925 103.682 64.8253 106.527C69.6582 109.372 73.7947 111.789 74.0176 111.897C74.8394 112.297 75.8888 112.475 76.8437 112.377C77.4947 112.311 78.1318 112.155 78.6844 111.928C78.9699 111.811 81.3514 110.43 85.9802 107.698C89.7597 105.466 94.6894 102.561 96.9351 101.242C99.1807 99.9234 103.839 97.1787 107.288 95.1429C110.736 93.1072 113.708 91.3648 113.892 91.271C114.671 90.8734 115.49 90.7072 116.502 90.7408C117.226 90.7649 117.605 90.8318 118.265 91.0516C118.869 91.2532 119.071 91.3629 121.924 93.0463C123.335 93.879 125.554 95.1879 126.855 95.955C128.155 96.722 129.352 97.439 129.514 97.5483C130.642 98.3107 131.491 99.6119 131.843 101.117C131.937 101.521 131.938 101.579 131.953 107.863C131.97 114.573 131.966 114.718 131.761 115.517C131.448 116.74 130.642 117.934 129.599 118.717C129.229 118.996 119.657 124.789 119.088 125.079C117.983 125.643 116.58 125.776 115.23 125.445C114.499 125.265 114.001 125.028 112.482 124.132C105.901 120.256 103.826 119.027 103.517 118.826C103.075 118.537 102.343 117.802 102.045 117.348C101.62 116.701 101.329 116.021 101.143 115.242C101.076 114.961 101.065 114.464 101.043 110.806L101.018 106.686L100.921 106.672C100.858 106.663 99.3625 107.516 96.6009 109.139C94.2782 110.503 92.3381 111.657 92.2895 111.703C92.2025 111.785 92.2014 111.848 92.2176 116.004C92.2355 120.606 92.225 120.41 92.5001 121.263C92.6539 121.739 93.0411 122.497 93.3319 122.891C93.6415 123.311 94.1156 123.792 94.5254 124.102C94.7095 124.242 95.4123 124.681 96.0872 125.079C108.291 132.267 113.796 135.503 114.065 135.643C114.753 136.002 114.739 136 116.559 136C118.181 136 118.182 136 118.522 135.884C118.708 135.821 119.003 135.702 119.177 135.619C119.429 135.5 127.519 130.752 136.984 125.168C138.714 124.147 138.808 124.082 139.33 123.553C140.155 122.716 140.677 121.711 140.919 120.494C140.996 120.107 141 119.505 141 108.271V96.4544L140.898 95.988C140.584 94.549 139.827 93.3402 138.702 92.4834C138.518 92.3432 137.685 91.8264 136.85 91.3349C136.016 90.8435 131.718 88.3127 127.301 85.7109C122.883 83.109 119.148 80.9245 119.001 80.8563C117.49 80.1571 115.513 80.2155 113.959 81.0053C113.811 81.0801 110.769 82.8877 107.198 85.0221C102.74 87.6871 99.8249 89.3964 97.8945 90.4778C96.3483 91.344 94.3503 92.465 93.4545 92.969C92.5587 93.4729 88.9744 95.6216 85.4893 97.7439C82.0043 99.8661 79.0357 101.663 78.8925 101.736C77.5741 102.412 75.7075 102.446 74.1733 101.822C73.7188 101.637 73.5365 101.529 69.8268 99.2533C68.7714 98.6059 66.8839 97.4482 65.6322 96.6807C64.3806 95.9132 63.2123 95.1757 63.0361 95.042C62.4219 94.5756 61.7852 93.7895 61.4179 93.044C61.2104 92.623 60.9827 91.8968 60.9044 91.4065C60.8029 90.7712 60.8008 78.4277 60.9021 77.7943C61.0696 76.7459 61.4949 75.8217 62.2013 74.9705C62.8275 74.216 62.9948 74.1038 67.1048 71.6794C69.0436 70.5357 71.3328 69.185 72.1918 68.678C74.1955 67.4951 74.6047 67.3153 75.5985 67.1809C76.08 67.1157 77.0237 67.151 77.5019 67.2521C77.9683 67.3507 78.6963 67.5975 79.0395 67.7732C79.4051 67.9605 89.2925 74.0232 89.6616 74.2864C90.7255 75.0453 91.5205 76.3067 91.8773 77.802C91.9449 78.0854 91.9547 78.5622 91.9694 82.3045C91.9806 85.1504 92.001 86.5083 92.033 86.5475C92.071 86.5939 92.1071 86.5933 92.2206 86.5439C92.4903 86.4266 100.706 81.5788 100.761 81.5043C100.83 81.4114 100.841 73.8982 100.773 73.0697C100.698 72.1454 100.41 71.2655 99.9181 70.4577C99.6243 69.9749 98.7593 69.0713 98.2738 68.74C97.5625 68.2547 79.195 57.3431 78.8245 57.1857L78.439 57.0219L76.7433 57.011L75.0476 57L74.715 57.1158Z" fill="white"></path><defs><linearGradient id="matic_icon_e20cb653-6b89-454a-9f51-353fbfa2ca14" x1="96.5" y1="0" x2="96.5" y2="193" gradientUnits="userSpaceOnUse"><stop stop-color="#9569E7"></stop><stop offset="1" stop-color="#6038A9"></stop></linearGradient></defs></svg>