<svg width="192" height="192" viewBox="0 0 192 192" fill="none" xmlns="http://www.w3.org/2000/svg">
<path d="M192 96C192 42.9807 149.019 0 96 0C42.9807 0 0 42.9807 0 96C0 149.019 42.9807 192 96 192C149.019 192 192 149.019 192 96Z" fill="url(#paint0_linear_3018_16013)"/>
<path d="M70.328 84.2994L96.004 71.7191V37.333L70.328 84.2994Z" fill="#FF596E"/>
<path d="M96 71.7197V99.1181L121.676 84.3L96 71.7197Z" fill="#FF596E"/>
<path d="M96.004 71.7197V99.1181L70.328 84.3L96.004 71.7197Z" fill="#800010"/>
<path d="M121.676 84.2994L96 71.7191V37.333L121.676 84.2994Z" fill="#800010"/>
<path d="M95.9976 109.695V138.897L69.828 94.5898L95.9976 109.695Z" fill="#FF596E"/>
<path d="M96 109.695V138.897L122.17 94.5898L96 109.695Z" fill="#800010"/>
<path d="M126.495 101.282L132.423 118.855L145.407 95.9453L126.495 101.282Z" fill="#800010"/>
<path d="M132.422 118.855L145.406 114.792V95.9453L132.422 118.855Z" fill="#FF596E"/>
<path d="M145.399 114.792L126.486 148.17L112.12 154.666L132.414 118.855L145.399 114.792Z" fill="#800010"/>
<path d="M46.5989 114.792L65.5114 148.17L79.8775 154.666L59.5829 118.855L46.5989 114.792Z" fill="#FF596E"/>
<path d="M96.0011 154.667L65.5118 101.282L59.5835 118.856L79.8782 154.667H96.0011Z" fill="#800010"/>
<path d="M65.5114 101.282L59.5829 118.855L46.5989 95.9453L65.5114 101.282Z" fill="#FF596E"/>
<path d="M59.5829 118.855L46.5989 114.792V95.9453L59.5829 118.855Z" fill="#800010"/>
<path d="M96 154.667L126.489 101.282L132.418 118.856L112.123 154.667H96Z" fill="#FF596E"/>
<defs>
<linearGradient id="paint0_linear_3018_16013" x1="96" y1="0" x2="96" y2="192" gradientUnits="userSpaceOnUse">
<stop stop-color="white"/>
<stop offset="0.552083" stop-color="white"/>
<stop offset="1" stop-color="#C5C5C5"/>
</linearGradient>
</defs>
</svg>
