<svg width="193" height="193" viewBox="0 0 193 193" fill="none" xmlns="http://www.w3.org/2000/svg" data-reactroot=""><circle cx="96.5" cy="96.5" r="96.5" fill="url(#mim_icon_c589f898-8a1b-4b06-97f8-8fbdf50582a8)"></circle><path d="M61.6667 88.1665H70.5V79.3332H61.6667V88.1665Z" fill="#7470A8"></path><path d="M61.6667 105.833H70.5V96.9998H61.6667V105.833Z" fill="#7470A8"></path><path d="M61.6667 96.9999H70.5V88.1666H61.6667V96.9999Z" fill="#7470A8"></path><path d="M61.6667 114.666H70.5V105.833H61.6667V114.666Z" fill="#7470A8"></path><path d="M96.9994 70.4999H105.833V61.6666H96.9994V70.4999Z" fill="#7470A8"></path><path d="M96.9994 123.5L105.833 123.5L105.833 132.333L96.9994 132.333L96.9994 123.5Z" fill="#7470A8"></path><path d="M105.833 70.4999H114.667V61.6666H105.833V70.4999Z" fill="#7470A8"></path><path d="M114.667 70.4999H123.5V61.6666H114.667V70.4999Z" fill="white"></path><path d="M79.3333 70.4999L70.5 70.4999L70.5 61.6666L79.3333 61.6666L79.3333 70.4999Z" fill="white"></path><path d="M132.333 123.5L123.5 123.5L123.5 114.666L132.333 114.666L132.333 123.5Z" fill="white"></path><path d="M61.6667 123.5H70.5V114.666H61.6667V123.5Z" fill="white"></path><path d="M105.833 61.6665H114.667V52.8332H105.833V61.6665Z" fill="white"></path><path d="M105.833 52.8333H114.667V43.9999H105.833V52.8333Z" fill="white"></path><path d="M105.833 150H114.667V141.166H105.833V150Z" fill="white"></path><path d="M105.833 141.167H114.667V132.333H105.833V141.167Z" fill="white"></path><path d="M88.1667 61.6665H97V52.8332H88.1667V61.6665Z" fill="white"></path><path d="M88.1667 52.8333H97V43.9999H88.1667V52.8333Z" fill="white"></path><path d="M88.1667 150H97V141.166H88.1667V150Z" fill="white"></path><path d="M88.1667 141.167H97V132.333H88.1667V141.167Z" fill="white"></path><path d="M96.9994 61.6665H105.833V52.8332H96.9994V61.6665Z" fill="white"></path><path d="M96.9994 52.8333H105.833V43.9999H96.9994V52.8333Z" fill="white"></path><path d="M96.9994 150H105.833V141.166H96.9994V150Z" fill="white"></path><path d="M96.9994 141.167H105.833V132.333H96.9994V141.167Z" fill="white"></path><path d="M79.3334 61.6665H88.1667V52.8332H79.3334V61.6665Z" fill="white"></path><path d="M79.3334 52.8333H88.1667V43.9999H79.3334V52.8333Z" fill="white"></path><path d="M79.3334 150H88.1667V141.166H79.3334V150Z" fill="white"></path><path d="M79.3334 141.167H88.1667V132.333H79.3334V141.167Z" fill="white"></path><path d="M123.5 79.3331H132.333V70.4998H123.5V79.3331Z" fill="white"></path><path d="M70.5001 79.3331L61.6667 79.3331L61.6667 70.4998L70.5001 70.4998L70.5001 79.3331Z" fill="white"></path><path d="M123.5 132.333L114.667 132.333L114.667 123.5L123.5 123.5L123.5 132.333Z" fill="white"></path><path d="M70.4994 132.333H79.3328V123.5H70.4994V132.333Z" fill="white"></path><path d="M132.333 88.1665H141.166V79.3332H132.333V88.1665Z" fill="white"></path><path d="M52.8334 88.1665H61.6667V79.3332H52.8334V88.1665Z" fill="white"></path><path d="M43.9994 88.1665H52.8328V79.3332H43.9994V88.1665Z" fill="white"></path><path d="M52.8334 79.3331H61.6667V70.4998H52.8334V79.3331Z" fill="white"></path><path d="M141.167 79.3331L132.333 79.3331L132.333 70.4998L141.167 70.4998L141.167 79.3331Z" fill="white"></path><path d="M114.667 141.167H123.5V132.333H114.667V141.167Z" fill="white"></path><path d="M52.8328 114.666V123.5H61.6661V114.666H52.8328Z" fill="white"></path><path d="M61.6667 70.4999H70.5V61.6666H61.6667V70.4999Z" fill="white"></path><path d="M132.333 70.4999L123.5 70.4999L123.5 61.6666L132.333 61.6666L132.333 70.4999Z" fill="white"></path><path d="M123.5 132.333H132.333V123.5H123.5V132.333Z" fill="white"></path><path d="M61.6667 123.5V132.333H70.5001V123.5H61.6667Z" fill="white"></path><path d="M70.4994 61.6665H79.3328V52.8332H70.4994V61.6665Z" fill="white"></path><path d="M123.5 61.6665L114.667 61.6665L114.667 52.8332L123.5 52.8332L123.5 61.6665Z" fill="white"></path><path d="M132.333 123.5H141.166V114.666H132.333V123.5Z" fill="white"></path><path d="M70.5 132.333V141.167H79.3333V132.333H70.5Z" fill="white"></path><path d="M141.167 88.1665H150V79.3332H141.167V88.1665Z" fill="white"></path><path d="M132.333 96.9999H141.166V88.1666H132.333V96.9999Z" fill="white"></path><path d="M52.8334 96.9999H61.6667V88.1666H52.8334V96.9999Z" fill="white"></path><path d="M43.9994 96.9999H52.8328V88.1666H43.9994V96.9999Z" fill="white"></path><path d="M141.167 96.9999H150V88.1666H141.167V96.9999Z" fill="white"></path><path d="M132.333 105.833H141.166V96.9998H132.333V105.833Z" fill="white"></path><path d="M52.8334 105.833H61.6667V96.9998H52.8334V105.833Z" fill="white"></path><path d="M43.9994 105.833H52.8328V96.9998H43.9994V105.833Z" fill="white"></path><path d="M141.167 105.833H150V96.9998H141.167V105.833Z" fill="white"></path><path d="M132.333 114.666H141.166V105.833H132.333V114.666Z" fill="white"></path><path d="M52.8334 114.666H61.6667V105.833H52.8334V114.666Z" fill="white"></path><path d="M43.9994 114.666H52.8328V105.833H43.9994V114.666Z" fill="white"></path><path d="M141.167 114.666H150V105.833H141.167V114.666Z" fill="white"></path><path d="M105.833 123.5L114.667 123.5L114.667 132.333L105.833 132.333L105.833 123.5Z" fill="#7470A8"></path><path d="M96.9994 88.1665H105.833V79.3332H96.9994V88.1665Z" fill="#7470A8"></path><path d="M96.9994 105.833H105.833V96.9998H96.9994V105.833Z" fill="#7470A8"></path><path d="M96.9994 114.666H105.833V105.833H96.9994V114.666Z" fill="#7470A8"></path><path d="M96.9994 79.3331H105.833V70.4998H96.9994V79.3331Z" fill="#7470A8"></path><path d="M96.9994 114.666L105.833 114.666L105.833 123.5L96.9994 123.5L96.9994 114.666Z" fill="#7470A8"></path><path d="M79.3334 105.833H88.1667V96.9998H79.3334V105.833Z" fill="#7470A8"></path><path d="M79.3334 96.9999H88.1667V88.1666H79.3334V96.9999Z" fill="#7470A8"></path><path d="M79.3334 114.666H88.1667V105.833H79.3334V114.666Z" fill="#7470A8"></path><path d="M79.3334 79.3331H88.1667V70.4998H79.3334V79.3331Z" fill="#7470A8"></path><path d="M79.3334 114.666L88.1667 114.666L88.1667 123.5L79.3334 123.5L79.3334 114.666Z" fill="#7470A8"></path><path d="M105.833 105.833H114.667V96.9998H105.833V105.833Z" fill="#7470A8"></path><path d="M105.833 96.9999H114.667V88.1666H105.833V96.9999Z" fill="#7470A8"></path><path d="M105.833 114.666H114.667V105.833H105.833V114.666Z" fill="#7470A8"></path><path d="M105.833 79.3331H114.667V70.4998H105.833V79.3331Z" fill="#7470A8"></path><path d="M105.833 114.666L114.667 114.666L114.667 123.5L105.833 123.5L105.833 114.666Z" fill="#7470A8"></path><path d="M88.1667 70.4999H97V61.6666H88.1667V70.4999Z" fill="#7470A8"></path><path d="M88.1667 123.5L97 123.5L97 132.333L88.1667 132.333L88.1667 123.5Z" fill="#7470A8"></path><path d="M79.3334 70.4999H88.1667V61.6666H79.3334V70.4999Z" fill="#7470A8"></path><path d="M79.3334 123.5L88.1667 123.5L88.1667 132.333L79.3334 132.333L79.3334 123.5Z" fill="#7470A8"></path><path d="M88.1667 88.1665H97V79.3332H88.1667V88.1665Z" fill="#7470A8"></path><path d="M88.1667 105.833H97V96.9998H88.1667V105.833Z" fill="#7470A8"></path><path d="M79.3334 88.1665H88.1667V79.3332H79.3334V88.1665Z" fill="white"></path><path d="M96.9994 96.9999H105.833V88.1666H96.9994V96.9999Z" fill="white"></path><path d="M114.667 88.1665H123.5V79.3332H114.667V88.1665Z" fill="white"></path><path d="M114.667 105.833H123.5V96.9998H114.667V105.833Z" fill="white"></path><path d="M114.667 96.9999H123.5V88.1666H114.667V96.9999Z" fill="white"></path><path d="M114.667 114.666H123.5V105.833H114.667V114.666Z" fill="white"></path><path d="M114.667 79.3331H123.5V70.4998H114.667V79.3331Z" fill="white"></path><path d="M114.667 114.666L123.5 114.666L123.5 123.5L114.667 123.5L114.667 114.666Z" fill="white"></path><path d="M70.4994 88.1665H79.3328V79.3332H70.4994V88.1665Z" fill="white"></path><path d="M70.4994 105.833H79.3328V96.9998H70.4994V105.833Z" fill="white"></path><path d="M70.4994 96.9999H79.3328V88.1666H70.4994V96.9999Z" fill="white"></path><path d="M70.4994 114.666H79.3328V105.833H70.4994V114.666Z" fill="white"></path><path d="M70.4994 79.3331H79.3328V70.4998H70.4994V79.3331Z" fill="white"></path><path d="M70.4994 114.666L79.3328 114.666L79.3328 123.5L70.4994 123.5L70.4994 114.666Z" fill="white"></path><path d="M105.833 88.1665H114.667V79.3332H105.833V88.1665Z" fill="white"></path><path d="M88.1667 96.9999H97V88.1666H88.1667V96.9999Z" fill="white"></path><path d="M88.1667 114.666H97V105.833H88.1667V114.666Z" fill="#7470A8"></path><path d="M88.1667 79.3331H97V70.4998H88.1667V79.3331Z" fill="#7470A8"></path><path d="M88.1667 114.666L97 114.666L97 123.5L88.1667 123.5L88.1667 114.666Z" fill="#7470A8"></path><path d="M123.5 88.1665H132.333V79.3332H123.5V88.1665Z" fill="#7470A8"></path><path d="M123.5 105.833H132.333V96.9998H123.5V105.833Z" fill="#7470A8"></path><path d="M123.5 96.9999H132.333V88.1666H123.5V96.9999Z" fill="#7470A8"></path><path d="M123.5 114.666H132.333V105.833H123.5V114.666Z" fill="#7470A8"></path><defs><linearGradient id="mim_icon_c589f898-8a1b-4b06-97f8-8fbdf50582a8" x1="96.5" y1="0" x2="96.5" y2="193" gradientUnits="userSpaceOnUse"><stop stop-color="#A39DE4"></stop><stop offset="1" stop-color="#605B92"></stop></linearGradient></defs></svg>
