<svg width="193" height="193" viewBox="0 0 193 193" fill="none" xmlns="http://www.w3.org/2000/svg" data-reactroot=""><circle cx="96.5" cy="96.5" r="96.5" fill="url(#paint0_linear_17997_56712)"></circle><path d="M118 90.0951C118 92.8063 117.249 95.3035 115.747 97.5866C114.294 99.8222 112.138 101.63 109.28 103.009C106.471 104.388 103.08 105.149 99.1073 105.292V111H94.5294V105.149C89.2007 104.674 84.8408 103.08 81.4498 100.369C78.1073 97.658 76.3391 93.9717 76.1453 89.3103H91.3322C91.526 91.7361 92.5917 93.3296 94.5294 94.0906V84.9581C90.4602 83.8641 87.263 82.8652 84.9377 81.9615C82.6125 81.0102 80.5294 79.4881 78.6886 77.3952C76.8962 75.3024 76 72.4485 76 68.8335C76 65.8369 76.7993 63.2446 78.3979 61.0566C80.045 58.8211 82.2734 57.1087 85.083 55.9196C87.8927 54.6829 91.0415 53.9694 94.5294 53.7792V48H99.1073V53.7792C104.484 54.1597 108.747 55.6818 111.896 58.3454C115.093 61.0091 116.862 64.6716 117.201 69.333H101.869C101.675 67.145 100.754 65.6942 99.1073 64.9807V74.0419L100.924 74.6127C104.412 75.564 107.294 76.5629 109.571 77.6093C111.896 78.6082 113.882 80.1302 115.529 82.1755C117.176 84.1733 118 86.8131 118 90.0951ZM91.1869 68.1914C91.1869 69.9037 92.301 71.3069 94.5294 72.4009V64.5527C92.301 64.9332 91.1869 66.1461 91.1869 68.1914ZM99.1073 94.4473C100.27 94.2095 101.19 93.7576 101.869 93.0917C102.547 92.3783 102.886 91.4983 102.886 90.4519C102.886 88.7871 101.626 87.4315 99.1073 86.3851V94.4473Z" fill="white"></path><rect x="52" y="126" width="89" height="13" fill="white"></rect><defs><linearGradient id="paint0_linear_17997_56712" x1="96.5" y1="0" x2="96.5" y2="193" gradientUnits="userSpaceOnUse"><stop stop-color="#303030"></stop><stop offset="1" stop-color="#101010"></stop></linearGradient></defs></svg>