<svg width="192" height="192" viewBox="0 0 192 192" fill="none" xmlns="http://www.w3.org/2000/svg">
<g clip-path="url(#clip0_4045_2751)">
<mask id="mask0_4045_2751" style="mask-type:luminance" maskUnits="userSpaceOnUse" x="0" y="0" width="192" height="192">
<path d="M192 96C192 42.9807 149.019 0 96 0C42.9807 0 0 42.9807 0 96C0 149.019 42.9807 192 96 192C149.019 192 192 149.019 192 96Z" fill="white"/>
</mask>
<g mask="url(#mask0_4045_2751)">
<path d="M192 96C192 42.9807 149.019 0 96 0C42.9807 0 0 42.9807 0 96C0 149.019 42.9807 192 96 192C149.019 192 192 149.019 192 96Z" fill="#E5FFC3"/>
<path d="M95.859 191.718C148.8 191.718 191.718 148.8 191.718 95.859C191.718 42.9175 148.8 0 95.859 0C42.9175 0 0 42.9175 0 95.859C0 148.8 42.9175 191.718 95.859 191.718Z" fill="#CCE7FF"/>
<mask id="mask1_4045_2751" style="mask-type:luminance" maskUnits="userSpaceOnUse" x="17" y="122" width="158" height="157">
<path d="M174.296 122.008H17.4272V278.877H174.296V122.008Z" fill="white"/>
</mask>
<g mask="url(#mask1_4045_2751)">
<path d="M164.022 267.156L130.233 257.156L104.751 272.295L86.9725 272.287L61.4757 257.156L27.701 267.156L17.4272 232.688L27.701 194.434L17.4272 162.092L27.701 122.008L80.4768 153.343H111.247L164.022 122.008L174.296 162.092L164.022 194.434L174.296 232.688L164.022 267.156Z" fill="#FF5C16"/>
<path d="M27.7095 122.008L80.4817 153.363L78.3828 174.881L27.7095 122.008Z" fill="#FF5C16"/>
<path d="M82.8531 203.636L78.3904 174.899L49.8244 194.439L49.8096 194.432V194.447L49.8981 214.562L61.482 203.636H61.4893H82.8531Z" fill="#FF5C16"/>
<path d="M164.023 122.008L111.251 153.363L113.343 174.881L164.023 122.008Z" fill="#FF5C16"/>
<path d="M141.915 194.447V194.432L141.908 194.439L113.342 174.899L108.879 203.636H130.243L141.834 214.562L141.915 194.447Z" fill="#FF5C16"/>
<path d="M111.255 153.345H95.8696H80.4846L78.3931 174.865L89.3003 245.153H102.439L113.354 174.865L111.255 153.345Z" fill="#FF8D5D"/>
<path d="M27.7011 122.008L17.4272 162.092L27.7011 194.434H49.7953L78.3778 174.885L27.7011 122.008Z" fill="#661800"/>
<path d="M164.025 122.008L174.299 162.092L164.025 194.434H141.931L113.349 174.885L164.025 122.008Z" fill="#661800"/>
</g>
<path d="M57.0493 121.342V101.267H108.197V91.2409H70.6551L57.0493 79.4642V55.4031L70.6551 41.7013H83.3522V28.5248H108.197V41.7013H134.5V61.7757H83.3522V71.802H121.086L134.692 84.7367V107.64L121.086 121.342H108.197V134.518L83.3522 134.689V121.342H57.0493Z" fill="#190066"/>
</g>
</g>
<defs>
<clipPath id="clip0_4045_2751">
<rect width="192" height="192" fill="white"/>
</clipPath>
</defs>
</svg>
