<svg width="192" height="192" viewBox="0 0 192 192" fill="none" xmlns="http://www.w3.org/2000/svg">
<rect width="192" height="192" rx="96" fill="#0074F0"/>
<path d="M91.6387 53.8285C93.0722 53.682 94.5272 53.6069 95.9994 53.6069C119.406 53.6069 138.38 72.5837 138.38 95.9932C138.38 114.248 126.842 129.807 110.661 135.775L96.2815 156C129.288 155.848 155.999 129.04 155.999 95.9932C155.999 64.9613 132.447 39.4314 102.246 36.3069L91.6387 53.8285Z" fill="white"/>
<path d="M94.6382 36C62.1298 36.7239 36 63.3061 36 95.9925C36 126.572 58.8702 151.809 88.4368 155.528L100.822 138.107C99.2396 138.286 97.6303 138.379 95.9996 138.379C72.5933 138.379 53.619 119.402 53.619 95.9925C53.619 77.2336 65.8034 61.3209 82.689 55.7389L94.6382 36Z" fill="white"/>
<path d="M110.662 135.774C126.843 129.807 138.382 114.247 138.382 95.9929H156C156 129.04 129.29 155.848 96.2825 156L110.662 135.774Z" fill="url(#paint0_linear_873_23648)"/>
<path d="M94.6382 36C62.1298 36.7239 36 63.3061 36 95.9925C36 95.9925 53.619 96.2461 53.619 95.9925C53.619 77.2336 65.8034 61.3209 82.689 55.7389L94.6382 36Z" fill="url(#paint1_linear_873_23648)"/>
<path d="M95.8913 145.049L126.018 102.618L95.8913 120.4L65.7815 102.618L95.8913 145.049Z" fill="white"/>
<path opacity="0.1" d="M95.8922 145.049L126.018 102.618L95.8922 120.4V145.049Z" fill="#0074F0"/>
<path d="M95.8003 114.766L126.076 96.9524L95.8003 46.939L65.524 96.9524L95.8003 114.766Z" fill="url(#paint2_linear_873_23648)"/>
<path d="M95.8003 114.766L126.076 96.9524L95.8003 46.939L65.524 96.9524L95.8003 114.766Z" fill="white"/>
<path opacity="0.1" d="M95.8003 114.765L65.524 96.9524L95.8003 46.939V114.765Z" fill="#0074F0"/>
<path opacity="0.1" d="M95.8003 114.768V82.7576L65.524 96.9537L95.8003 114.768Z" fill="#0074F0"/>
<path opacity="0.1" d="M95.8005 114.768V82.7576L126.076 96.9537L95.8005 114.768Z" fill="#0074F0"/>
<defs>
<linearGradient id="paint0_linear_873_23648" x1="56.4971" y1="171.18" x2="122.581" y2="127.898" gradientUnits="userSpaceOnUse">
<stop stop-color="#1A82FF" stop-opacity="0.5"/>
<stop offset="1" stop-color="white"/>
</linearGradient>
<linearGradient id="paint1_linear_873_23648" x1="128.38" y1="8.37839" x2="65.1504" y2="54.058" gradientUnits="userSpaceOnUse">
<stop stop-color="#1A82FF" stop-opacity="0.5"/>
<stop offset="1" stop-color="white"/>
</linearGradient>
<linearGradient id="paint2_linear_873_23648" x1="31.3885" y1="65.0498" x2="84.4335" y2="97.4169" gradientUnits="userSpaceOnUse">
<stop stop-color="#1C313F"/>
<stop offset="1" stop-color="white"/>
</linearGradient>
</defs>
</svg>
