<svg width="192" height="192" viewBox="0 0 192 192" fill="none" xmlns="http://www.w3.org/2000/svg">
<rect width="192" height="192" rx="96" fill="#030C17"/>
<path fill-rule="evenodd" clip-rule="evenodd" d="M156 61.883L142.958 48.7263L135.859 55.9385C135.831 55.9104 135.803 55.8822 135.775 55.854L130 61.6857L94.479 97.6903L71.9999 74.8992C67.352 79.7442 64.2818 86.1119 63.6058 93.155L94.479 124.455L129.409 89.0419C129.859 91.2958 130.085 93.6338 130.085 96.0284C130.085 115.919 113.887 132.118 94.0003 132.118C74.1128 132.118 57.9156 115.919 57.9156 96.0284C57.9156 76.1382 74.1128 59.9389 94.0003 59.9389C102.169 59.9389 109.719 62.6715 115.774 67.2642L131.24 51.5717C121.155 43.1199 108.169 37.9924 94.0003 37.9924C62.0282 37.9924 36 64.0245 36 96.0001C36 128.005 62.0282 154.008 94.0003 154.008C125.972 154.008 152.001 127.976 152.001 96.0001C152.001 87.2102 150.028 78.8991 146.535 71.4339L156 61.883Z" fill="white"/>
<mask id="mask0_878_4054" style="mask-type:alpha" maskUnits="userSpaceOnUse" x="63" y="74" width="32" height="51">
<path fill-rule="evenodd" clip-rule="evenodd" d="M63.6339 93.1594L94.4789 124.459H94.5072V97.6955L72.028 74.9028C67.3802 79.7486 64.3099 86.0873 63.6339 93.1594Z" fill="white"/>
</mask>
<g mask="url(#mask0_878_4054)">
<path fill-rule="evenodd" clip-rule="evenodd" d="M63.6339 93.1594L94.4789 124.459H94.5072V97.6955L72.028 74.9028C67.3802 79.7486 64.3099 86.0873 63.6339 93.1594Z" fill="url(#paint0_linear_878_4054)"/>
</g>
<defs>
<linearGradient id="paint0_linear_878_4054" x1="48.1779" y1="97.3138" x2="80.5125" y2="108.572" gradientUnits="userSpaceOnUse">
<stop stop-color="#1C313F"/>
<stop offset="1" stop-color="white"/>
</linearGradient>
</defs>
</svg>
