<svg width="193" height="193" viewBox="0 0 193 193" fill="none" xmlns="http://www.w3.org/2000/svg" data-reactroot=""><circle cx="96.5" cy="96.5" r="96.5" fill="url(#ohm_icon_134573ef-1cfd-4344-96d5-52e3919b61e8)"></circle><path fill-rule="evenodd" clip-rule="evenodd" d="M87.2879 55.8179C76.0636 58.6815 65.2465 67.5567 60.0402 78.1749C57.0642 84.245 55.9929 84.6507 56 95.4901C56.0072 105.561 57.221 107.043 59.3096 111.488C60.5757 114.182 63.4796 118.673 65.7624 121.465C68.0452 124.258 69.9128 126.949 69.9128 127.444C69.9128 127.972 67.1533 128.345 63.2301 128.345H56.5474V133.672V139H71.6949H86.8424V131.095V123.191L84.1622 122.259C80.2728 120.909 72.1573 112.899 69.7925 108.078C66.8183 102.015 66.8468 88.9085 69.8478 82.7843C75.602 71.0428 90.3432 63.4525 102.099 66.1794C112.406 68.5689 119.766 74.4739 124.113 83.84C127.396 90.9109 127.383 100.096 124.082 107.208C121.387 113.017 115.392 119.392 110.094 122.085L106.445 123.941V131.47V139H121.576H136.706L137.235 136.903C137.525 135.749 137.633 133.452 137.474 131.797L137.186 128.788L130.28 128.529C126.482 128.386 123.375 127.887 123.375 127.419C123.375 126.951 124.218 125.728 125.249 124.7C128.848 121.114 133.991 113.045 135.291 108.945C142.28 86.9079 131.08 64.2588 109.549 56.887C103.748 54.9006 92.9219 54.3803 87.2879 55.8179Z" fill="white"></path><defs><linearGradient id="ohm_icon_134573ef-1cfd-4344-96d5-52e3919b61e8" x1="96.5" y1="0" x2="96.5" y2="193" gradientUnits="userSpaceOnUse"><stop stop-color="#86ACB2"></stop><stop offset="1" stop-color="#546C70"></stop></linearGradient></defs></svg>