<svg width="193" height="193" viewBox="0 0 193 193" fill="none" xmlns="http://www.w3.org/2000/svg">
    <path d="M96.5 193C149.795 193 193 149.795 193 96.5C193 43.2045 149.795 0 96.5 0C43.2045 0 0 43.2045 0 96.5C0 149.795 43.2045 193 96.5 193Z" fill="url(#paint0_linear_1_2457)"/>
    <path d="M67.9288 123.641C62.1466 123.641 57.4093 122.233 53.7164 119.419C50.0721 116.554 48.25 112.483 48.25 107.205C48.25 106.1 48.3716 104.742 48.6143 103.134C49.2463 99.5156 50.1452 95.1679 51.3112 90.0917C54.6153 76.2701 63.1429 69.3594 76.8938 69.3594C80.6352 69.3594 83.9878 70.0127 86.9519 71.3193C89.9161 72.5757 92.2482 74.4858 93.9488 77.0492C95.6493 79.562 96.5 82.5778 96.5 86.0959C96.5 87.1514 96.3784 88.4833 96.1353 90.0917C95.4066 94.5648 94.5318 98.9125 93.5114 103.134C91.8108 110.02 88.8712 115.172 84.6924 118.589C80.5136 121.957 74.926 123.641 67.9288 123.641ZM68.9492 112.784C71.6706 112.784 73.9783 111.955 75.8734 110.296C77.8171 108.638 79.2019 106.1 80.0277 102.682C81.1452 97.9575 81.9959 93.8359 82.5789 90.3179C82.7732 89.2624 82.8703 88.182 82.8703 87.0758C82.8703 82.5023 80.5622 80.2153 75.9464 80.2153C73.2251 80.2153 70.8929 81.0446 68.9492 82.7032C67.0544 84.3622 65.6938 86.9003 64.8679 90.3179C63.9932 93.6853 63.1184 97.8068 62.2441 102.682C62.0495 103.687 61.9524 104.742 61.9524 105.848C61.9524 110.472 64.2849 112.784 68.9492 112.784Z" fill="white"/>
    <path d="M100.974 120.625C100.454 120.625 100.052 120.454 99.7689 120.112C99.5323 119.721 99.4617 119.282 99.5561 118.794L109.34 71.1903C109.434 70.6532 109.694 70.2138 110.12 69.8718C110.545 69.5303 110.994 69.3594 111.467 69.3594H130.325C135.571 69.3594 139.778 70.4823 142.944 72.7281C146.159 74.9743 147.766 78.2209 147.766 82.4686C147.766 83.6891 147.624 84.9588 147.34 86.2768C146.159 91.8918 143.772 96.0419 140.18 98.7272C136.635 101.413 131.767 102.755 125.575 102.755H116.004L112.743 118.794C112.648 119.331 112.388 119.77 111.963 120.112C111.538 120.454 111.088 120.625 110.616 120.625H100.974ZM126.071 92.6486C128.056 92.6486 129.781 92.0869 131.247 90.964C132.759 89.8411 133.752 88.2299 134.224 86.1305C134.366 85.3003 134.437 84.5681 134.437 83.9334C134.437 82.5174 134.035 81.4433 133.232 80.7111C132.428 79.9297 131.058 79.5394 129.12 79.5394H120.612L117.918 92.6486H126.071Z" fill="white"/>
    <defs>
        <linearGradient id="paint0_linear_1_2457" x1="96.5" y1="0" x2="96.5" y2="193" gradientUnits="userSpaceOnUse">
            <stop stop-color="#F74C5F"/>
            <stop offset="1" stop-color="#BF081C"/>
        </linearGradient>
    </defs>
</svg>
