<svg width="192" height="192" viewBox="0 0 192 192" fill="none" xmlns="http://www.w3.org/2000/svg">
<rect width="192" height="192" rx="96" fill="url(#paint0_linear_2171_34942)"/>
<g clip-path="url(#clip0_2171_34942)">
<path d="M96.0264 155.998L46.3765 130.648L96.0264 106.298V155.998Z" fill="url(#paint1_linear_2171_34942)"/>
<path d="M96.0264 155.998L46.3765 130.698L96.0764 106.298V155.998H96.0264Z" stroke="#726691" stroke-width="0.025" stroke-miterlimit="10"/>
<path d="M96.0254 106.298L145.675 130.798L96.0254 155.998V106.298Z" fill="url(#paint2_linear_2171_34942)"/>
<path d="M96.0254 106.298L145.675 130.798L96.0754 155.998V106.298H96.0254Z" stroke="url(#paint3_linear_2171_34942)" stroke-width="0.025" stroke-miterlimit="10"/>
<path d="M125.375 92.001L145.675 130.751L96.0254 106.251L125.375 92.001Z" fill="url(#paint4_linear_2171_34942)"/>
<path d="M125.425 92.0021L145.675 130.752L96.0254 106.302L125.375 91.9521L125.425 92.0021Z" stroke="#B5A7DB" stroke-width="0.025" stroke-miterlimit="10"/>
<path d="M66.7264 91.8984L96.0264 106.298L46.3264 130.598L66.7264 91.8984Z" fill="url(#paint5_linear_2171_34942)"/>
<path d="M66.7265 91.8984L96.0764 106.248L46.3765 130.648L66.7265 91.8984Z" stroke="#8073A3" stroke-width="0.025" stroke-miterlimit="10"/>
<path d="M96.0262 106.299V36.0488L66.7764 91.9488L96.1262 106.299H96.0262Z" fill="url(#paint6_linear_2171_34942)"/>
<path d="M96.0262 106.3V36L66.8262 91.9L96.1262 106.3H96.0262Z" stroke="#9688BD" stroke-width="0.025" stroke-miterlimit="10"/>
<path d="M96.0254 106.299V36.0488L125.375 91.9988L96.0254 106.299Z" fill="url(#paint7_linear_2171_34942)"/>
<path d="M96.0254 106.3V36L125.425 92L96.0254 106.25V106.3Z" stroke="#AFA0D8" stroke-width="0.025" stroke-miterlimit="10"/>
<path d="M96.0264 155.998L46.3765 130.648L96.0264 106.298V155.998Z" fill="url(#paint8_linear_2171_34942)"/>
<path d="M96.0264 155.998L46.3765 130.698L96.0764 106.298V155.998H96.0264Z" stroke="#726691" stroke-width="0.025" stroke-miterlimit="10"/>
<path d="M96.0254 106.298L145.675 130.798L96.0254 155.998V106.298Z" fill="url(#paint9_linear_2171_34942)"/>
<path d="M96.0254 106.298L145.675 130.798L96.0754 155.998V106.298H96.0254Z" stroke="url(#paint10_linear_2171_34942)" stroke-width="0.025" stroke-miterlimit="10"/>
<path d="M125.375 92.001L145.675 130.751L96.0254 106.251L125.375 92.001Z" fill="url(#paint11_linear_2171_34942)"/>
<path d="M125.425 92.0021L145.675 130.752L96.0254 106.302L125.375 91.9521L125.425 92.0021Z" stroke="#B5A7DB" stroke-width="0.025" stroke-miterlimit="10"/>
<path d="M66.7264 91.8984L96.0264 106.298L46.3264 130.598L66.7264 91.8984Z" fill="url(#paint12_linear_2171_34942)"/>
<path d="M66.7265 91.8984L96.0764 106.248L46.3765 130.648L66.7265 91.8984Z" stroke="#8073A3" stroke-width="0.025" stroke-miterlimit="10"/>
<path d="M96.0262 106.299V36.0488L66.7764 91.9488L96.1262 106.299H96.0262Z" fill="url(#paint13_linear_2171_34942)"/>
<path d="M96.0262 106.3V36L66.8262 91.9L96.1262 106.3H96.0262Z" stroke="#9688BD" stroke-width="0.025" stroke-miterlimit="10"/>
<path d="M96.0254 106.299V36.0488L125.375 91.9988L96.0254 106.299Z" fill="url(#paint14_linear_2171_34942)"/>
<path d="M96.0254 106.3V36L125.425 92L96.0254 106.25V106.3Z" stroke="#AFA0D8" stroke-width="0.025" stroke-miterlimit="10"/>
<path d="M96.0264 155.998L46.3765 130.648L96.0264 106.298V155.998Z" fill="url(#paint15_linear_2171_34942)"/>
<path d="M96.0264 155.998L46.3765 130.698L96.0764 106.298V155.998H96.0264Z" stroke="#726691" stroke-width="0.025" stroke-miterlimit="10"/>
<path d="M96.0254 106.298L145.675 130.798L96.0254 155.998V106.298Z" fill="url(#paint16_linear_2171_34942)"/>
<path d="M96.0254 106.298L145.675 130.798L96.0754 155.998V106.298H96.0254Z" stroke="url(#paint17_linear_2171_34942)" stroke-width="0.025" stroke-miterlimit="10"/>
<path d="M125.375 92.001L145.675 130.751L96.0254 106.251L125.375 92.001Z" fill="url(#paint18_linear_2171_34942)"/>
<path d="M125.425 92.0021L145.675 130.752L96.0254 106.302L125.375 91.9521L125.425 92.0021Z" stroke="#B5A7DB" stroke-width="0.025" stroke-miterlimit="10"/>
<path d="M66.7264 91.8984L96.0264 106.298L46.3264 130.598L66.7264 91.8984Z" fill="url(#paint19_linear_2171_34942)"/>
<path d="M66.7265 91.8984L96.0764 106.248L46.3765 130.648L66.7265 91.8984Z" stroke="#8073A3" stroke-width="0.025" stroke-miterlimit="10"/>
<path d="M96.0262 106.299V36.0488L66.7764 91.9488L96.1262 106.299H96.0262Z" fill="url(#paint20_linear_2171_34942)"/>
<path d="M96.0262 106.3V36L66.8262 91.9L96.1262 106.3H96.0262Z" stroke="#9688BD" stroke-width="0.025" stroke-miterlimit="10"/>
<path d="M96.0254 106.299V36.0488L125.375 91.9988L96.0254 106.299Z" fill="url(#paint21_linear_2171_34942)"/>
<path d="M96.0254 106.3V36L125.425 92L96.0254 106.25V106.3Z" stroke="#AFA0D8" stroke-width="0.025" stroke-miterlimit="10"/>
<path d="M96.0264 155.998L46.3765 130.648L96.0264 106.298V155.998Z" fill="url(#paint22_linear_2171_34942)"/>
<path d="M96.0264 155.998L46.3765 130.698L96.0764 106.298V155.998H96.0264Z" stroke="#726691" stroke-width="0.025" stroke-miterlimit="10"/>
<path d="M96.0254 106.298L145.675 130.798L96.0254 155.998V106.298Z" fill="url(#paint23_linear_2171_34942)"/>
<path d="M96.0254 106.298L145.675 130.798L96.0754 155.998V106.298H96.0254Z" stroke="url(#paint24_linear_2171_34942)" stroke-width="0.025" stroke-miterlimit="10"/>
<path d="M125.375 92.001L145.675 130.751L96.0254 106.251L125.375 92.001Z" fill="url(#paint25_linear_2171_34942)"/>
<path d="M125.425 92.0021L145.675 130.752L96.0254 106.302L125.375 91.9521L125.425 92.0021Z" stroke="#B5A7DB" stroke-width="0.025" stroke-miterlimit="10"/>
<path d="M66.7264 91.8984L96.0264 106.298L46.3264 130.598L66.7264 91.8984Z" fill="url(#paint26_linear_2171_34942)"/>
<path d="M66.7265 91.8984L96.0764 106.248L46.3765 130.648L66.7265 91.8984Z" stroke="#8073A3" stroke-width="0.025" stroke-miterlimit="10"/>
<path d="M96.0262 106.299V36.0488L66.7764 91.9488L96.1262 106.299H96.0262Z" fill="url(#paint27_linear_2171_34942)"/>
<path d="M96.0262 106.3V36L66.8262 91.9L96.1262 106.3H96.0262Z" stroke="#9688BD" stroke-width="0.025" stroke-miterlimit="10"/>
<path d="M96.0254 106.299V36.0488L125.375 91.9988L96.0254 106.299Z" fill="url(#paint28_linear_2171_34942)"/>
<path d="M96.0254 106.3V36L125.425 92L96.0254 106.25V106.3Z" stroke="#AFA0D8" stroke-width="0.025" stroke-miterlimit="10"/>
</g>
<defs>
<linearGradient id="paint0_linear_2171_34942" x1="96" y1="0" x2="96" y2="192.216" gradientUnits="userSpaceOnUse">
<stop offset="0.001" stop-color="#0F0F0F"/>
<stop offset="1"/>
</linearGradient>
<linearGradient id="paint1_linear_2171_34942" x1="57.1265" y1="113.948" x2="107.876" y2="139.498" gradientUnits="userSpaceOnUse">
<stop stop-color="#8175A5"/>
<stop offset="1" stop-color="#63577F"/>
</linearGradient>
<linearGradient id="paint2_linear_2171_34942" x1="95.6254" y1="160.948" x2="132.525" y2="106.898" gradientUnits="userSpaceOnUse">
<stop stop-color="#655981"/>
<stop offset="0.2" stop-color="#73628C"/>
<stop offset="1" stop-color="#B3A5DA"/>
</linearGradient>
<linearGradient id="paint3_linear_2171_34942" x1="96.0754" y1="-398.402" x2="145.725" y2="-398.402" gradientUnits="userSpaceOnUse">
<stop stop-color="#73628C"/>
<stop offset="0.6" stop-color="#B3A5DA"/>
<stop offset="1" stop-color="#B3A5DA"/>
</linearGradient>
<linearGradient id="paint4_linear_2171_34942" x1="117.525" y1="117.751" x2="156.275" y2="75.001" gradientUnits="userSpaceOnUse">
<stop stop-color="#AFA0D8"/>
<stop offset="1" stop-color="#CEC6E6"/>
</linearGradient>
<linearGradient id="paint5_linear_2171_34942" x1="71.4264" y1="115.798" x2="76.8764" y2="99.3984" gradientUnits="userSpaceOnUse">
<stop stop-color="#887BAE"/>
<stop offset="1" stop-color="#796D9B"/>
</linearGradient>
<linearGradient id="paint6_linear_2171_34942" x1="102.726" y1="71.1488" x2="76.9762" y2="71.1488" gradientUnits="userSpaceOnUse">
<stop stop-color="#AFA0D8"/>
<stop offset="1" stop-color="#887BAE"/>
</linearGradient>
<linearGradient id="paint7_linear_2171_34942" x1="104.375" y1="79.2488" x2="122.575" y2="96.4988" gradientUnits="userSpaceOnUse">
<stop stop-color="#AFA0D8"/>
<stop offset="1" stop-color="#CEC6E6"/>
</linearGradient>
<linearGradient id="paint8_linear_2171_34942" x1="57.1265" y1="113.948" x2="107.876" y2="139.498" gradientUnits="userSpaceOnUse">
<stop stop-color="#8175A5"/>
<stop offset="1" stop-color="#63577F"/>
</linearGradient>
<linearGradient id="paint9_linear_2171_34942" x1="95.6254" y1="160.948" x2="132.525" y2="106.898" gradientUnits="userSpaceOnUse">
<stop stop-color="#655981"/>
<stop offset="0.2" stop-color="#73628C"/>
<stop offset="1" stop-color="#B3A5DA"/>
</linearGradient>
<linearGradient id="paint10_linear_2171_34942" x1="96.0754" y1="-398.402" x2="145.725" y2="-398.402" gradientUnits="userSpaceOnUse">
<stop stop-color="#73628C"/>
<stop offset="0.6" stop-color="#B3A5DA"/>
<stop offset="1" stop-color="#B3A5DA"/>
</linearGradient>
<linearGradient id="paint11_linear_2171_34942" x1="117.525" y1="117.751" x2="156.275" y2="75.001" gradientUnits="userSpaceOnUse">
<stop stop-color="#AFA0D8"/>
<stop offset="1" stop-color="#CEC6E6"/>
</linearGradient>
<linearGradient id="paint12_linear_2171_34942" x1="71.4264" y1="115.798" x2="76.8764" y2="99.3984" gradientUnits="userSpaceOnUse">
<stop stop-color="#887BAE"/>
<stop offset="1" stop-color="#796D9B"/>
</linearGradient>
<linearGradient id="paint13_linear_2171_34942" x1="102.726" y1="71.1488" x2="76.9762" y2="71.1488" gradientUnits="userSpaceOnUse">
<stop stop-color="#AFA0D8"/>
<stop offset="1" stop-color="#887BAE"/>
</linearGradient>
<linearGradient id="paint14_linear_2171_34942" x1="104.375" y1="79.2488" x2="122.575" y2="96.4988" gradientUnits="userSpaceOnUse">
<stop stop-color="#AFA0D8"/>
<stop offset="1" stop-color="#CEC6E6"/>
</linearGradient>
<linearGradient id="paint15_linear_2171_34942" x1="57.1265" y1="113.948" x2="107.876" y2="139.498" gradientUnits="userSpaceOnUse">
<stop stop-color="#8175A5"/>
<stop offset="1" stop-color="#63577F"/>
</linearGradient>
<linearGradient id="paint16_linear_2171_34942" x1="95.6254" y1="160.948" x2="132.525" y2="106.898" gradientUnits="userSpaceOnUse">
<stop stop-color="#655981"/>
<stop offset="0.2" stop-color="#73628C"/>
<stop offset="1" stop-color="#B3A5DA"/>
</linearGradient>
<linearGradient id="paint17_linear_2171_34942" x1="96.0754" y1="-398.402" x2="145.725" y2="-398.402" gradientUnits="userSpaceOnUse">
<stop stop-color="#73628C"/>
<stop offset="0.6" stop-color="#B3A5DA"/>
<stop offset="1" stop-color="#B3A5DA"/>
</linearGradient>
<linearGradient id="paint18_linear_2171_34942" x1="117.525" y1="117.751" x2="156.275" y2="75.001" gradientUnits="userSpaceOnUse">
<stop stop-color="#AFA0D8"/>
<stop offset="1" stop-color="#CEC6E6"/>
</linearGradient>
<linearGradient id="paint19_linear_2171_34942" x1="71.4264" y1="115.798" x2="76.8764" y2="99.3984" gradientUnits="userSpaceOnUse">
<stop stop-color="#887BAE"/>
<stop offset="1" stop-color="#796D9B"/>
</linearGradient>
<linearGradient id="paint20_linear_2171_34942" x1="102.726" y1="71.1488" x2="76.9762" y2="71.1488" gradientUnits="userSpaceOnUse">
<stop stop-color="#AFA0D8"/>
<stop offset="1" stop-color="#887BAE"/>
</linearGradient>
<linearGradient id="paint21_linear_2171_34942" x1="104.375" y1="79.2488" x2="122.575" y2="96.4988" gradientUnits="userSpaceOnUse">
<stop stop-color="#AFA0D8"/>
<stop offset="1" stop-color="#CEC6E6"/>
</linearGradient>
<linearGradient id="paint22_linear_2171_34942" x1="57.1265" y1="113.948" x2="107.876" y2="139.498" gradientUnits="userSpaceOnUse">
<stop stop-color="#8175A5"/>
<stop offset="1" stop-color="#63577F"/>
</linearGradient>
<linearGradient id="paint23_linear_2171_34942" x1="95.6254" y1="160.948" x2="132.525" y2="106.898" gradientUnits="userSpaceOnUse">
<stop stop-color="#655981"/>
<stop offset="0.2" stop-color="#73628C"/>
<stop offset="1" stop-color="#B3A5DA"/>
</linearGradient>
<linearGradient id="paint24_linear_2171_34942" x1="96.0754" y1="-398.402" x2="145.725" y2="-398.402" gradientUnits="userSpaceOnUse">
<stop stop-color="#73628C"/>
<stop offset="0.6" stop-color="#B3A5DA"/>
<stop offset="1" stop-color="#B3A5DA"/>
</linearGradient>
<linearGradient id="paint25_linear_2171_34942" x1="117.525" y1="117.751" x2="156.275" y2="75.001" gradientUnits="userSpaceOnUse">
<stop stop-color="#AFA0D8"/>
<stop offset="1" stop-color="#CEC6E6"/>
</linearGradient>
<linearGradient id="paint26_linear_2171_34942" x1="71.4264" y1="115.798" x2="76.8764" y2="99.3984" gradientUnits="userSpaceOnUse">
<stop stop-color="#887BAE"/>
<stop offset="1" stop-color="#796D9B"/>
</linearGradient>
<linearGradient id="paint27_linear_2171_34942" x1="102.726" y1="71.1488" x2="76.9762" y2="71.1488" gradientUnits="userSpaceOnUse">
<stop stop-color="#AFA0D8"/>
<stop offset="1" stop-color="#887BAE"/>
</linearGradient>
<linearGradient id="paint28_linear_2171_34942" x1="104.375" y1="79.2488" x2="122.575" y2="96.4988" gradientUnits="userSpaceOnUse">
<stop stop-color="#AFA0D8"/>
<stop offset="1" stop-color="#CEC6E6"/>
</linearGradient>
<clipPath id="clip0_2171_34942">
<rect width="120" height="120" fill="white" transform="translate(36 36)"/>
</clipPath>
</defs>
</svg>
