<svg width="192" height="192" viewBox="0 0 192 192" fill="none" xmlns="http://www.w3.org/2000/svg">
<rect width="192" height="192" rx="96" fill="#030C17"/>
<path d="M105.253 87.3372C104.295 87.177 103.417 86.9378 102.538 86.7783C90.7221 84.3828 82.1792 82.7057 82.1792 74.4813C82.1792 69.3707 87.2094 65.298 96.2313 65.298C104.295 65.298 110.682 68.572 114.834 74.7205L115.473 74.88L128.327 61.7049L128.247 61.2258C123.138 55.1571 116.67 50.925 109.245 48.6892C108.207 48.3698 107.249 48.1302 106.211 47.8907H106.132C105.732 47.8108 105.413 47.7309 105.013 47.6511V35.9929H87.4486V47.6511C86.8898 47.7309 86.3311 47.8907 85.7723 47.9706H85.6926C77.3889 49.9668 70.1237 54.2788 64.455 60.9064C62.0597 64.8987 60.8621 69.6903 60.8621 75.1996C60.8621 94.0445 75.0735 100.034 88.9661 103.387C91.5207 104.026 94.0753 104.505 96.5509 104.904C105.253 106.501 112.758 107.859 112.758 115.684C112.758 120.555 107.409 126.624 96.2313 126.624C89.6045 126.624 84.1751 124.388 80.1834 120.315C79.9442 120.076 79.6246 119.836 79.3848 119.597L64.2152 130.137V130.696C66.3711 133.251 68.7663 135.487 71.3209 137.403C72.1993 138.042 73.0776 138.601 73.9559 139.16C73.9559 139.16 73.9559 139.16 74.0357 139.16C74.914 139.719 75.8721 140.198 76.7504 140.677C76.7504 140.677 76.8301 140.677 76.8301 140.758C77.7882 141.237 78.6665 141.635 79.6246 142.035C79.7043 142.035 79.7043 142.035 79.7841 142.114C80.7421 142.514 81.7002 142.833 82.6583 143.153C82.738 143.153 82.8184 143.153 82.8184 143.233C83.2974 143.392 83.696 143.472 84.1751 143.632C84.2555 143.632 84.2555 143.632 84.3352 143.632C84.8142 143.792 85.2933 143.871 85.852 144.031C85.9317 144.031 86.0115 144.031 86.0919 144.111C86.4905 144.191 86.9696 144.271 87.3689 144.35V156.009H104.934V144.35C105.253 144.271 105.573 144.271 105.892 144.191C105.972 144.191 105.972 144.191 106.052 144.191C107.249 143.951 108.447 143.632 109.644 143.233C110.203 143.073 110.842 142.833 111.401 142.674C117.868 140.278 123.537 136.286 128.167 130.856C129.924 128.779 131.441 126.624 132.798 124.228C133.517 121.673 133.836 118.798 133.836 115.764C133.916 95.4818 118.586 89.9719 105.253 87.3372Z" fill="#FAFBFC"/>
<path d="M64.2954 130.616C63.417 129.578 62.6186 128.54 61.9001 127.423C61.5808 126.944 61.2614 126.464 60.942 126.065C60.8622 125.985 60.7824 125.825 60.7025 125.745C60.463 125.346 60.1436 124.867 59.9041 124.388C59.8242 124.228 59.7444 124.068 59.6646 123.909C59.4251 123.509 59.1855 123.03 58.946 122.631C58.8662 122.472 58.7864 122.312 58.7065 122.152C58.467 121.753 58.2275 121.274 58.0678 120.795C57.988 120.635 57.9081 120.396 57.8282 120.236C57.5887 119.756 57.4291 119.357 57.1895 118.878C57.1097 118.719 57.0298 118.559 56.95 118.319C56.7903 117.84 56.5508 117.361 56.3911 116.882C56.3911 116.802 56.3113 116.643 56.3113 116.563C55.9121 115.445 55.5129 114.327 55.1936 113.209C55.1936 113.129 55.1137 113.049 55.1137 112.89C55.0338 112.49 54.8742 112.091 54.7943 111.692C54.7145 111.373 54.6347 111.053 54.5548 110.733C54.4749 110.334 54.3951 110.015 54.3153 109.616C54.2354 109.296 54.1556 108.897 54.0758 108.578C53.9959 108.178 53.9161 107.859 53.8363 107.459C53.7564 107.061 53.6766 106.661 53.5967 106.262C53.5169 105.942 53.5169 105.543 53.4371 105.224C53.3572 104.825 53.2774 104.425 53.2774 103.946C53.1976 103.627 53.1976 103.308 53.1177 102.908C53.0378 102.429 53.0378 102.03 52.958 101.551C52.958 101.231 52.8782 100.912 52.8782 100.593C52.8782 100.034 52.7983 99.5546 52.7983 98.9951C52.7983 98.7559 52.7983 98.516 52.7185 98.197C52.7185 97.3983 52.6387 96.5996 52.6387 95.8015C52.6387 95.0028 52.6387 94.2845 52.7185 93.4858C52.7185 93.2459 52.7185 93.0067 52.7185 92.7668C52.7185 92.208 52.7983 91.7289 52.7983 91.1701C52.7983 90.9302 52.8782 90.6112 52.8782 90.3713C52.958 89.8922 52.958 89.3334 53.0378 88.8543C53.0378 88.6151 53.1177 88.3752 53.1177 88.136C53.1976 87.4968 53.2774 86.9379 53.3572 86.3791C53.3572 86.2189 53.3572 86.0595 53.4371 85.9797C53.5169 85.2607 53.6766 84.5424 53.8363 83.8234C53.9161 83.5842 53.9161 83.3444 53.9959 83.1849C54.0758 82.7058 54.2354 82.2267 54.3153 81.7476C54.3951 81.5083 54.4749 81.1887 54.4749 80.9489C54.5548 80.4698 54.7145 80.0711 54.7943 79.5913C54.8742 79.3521 54.954 79.0325 55.0338 78.7932C55.1936 78.3141 55.3532 77.8351 55.4331 77.356C55.5129 77.1161 55.5927 76.9566 55.6726 76.7167C55.9121 76.0781 56.1516 75.4396 56.3911 74.8003C56.471 74.5611 56.5508 74.4016 56.6307 74.1618C56.7903 73.6827 56.95 73.2833 57.1895 72.8042C57.2694 72.565 57.4291 72.3251 57.5089 72.0055C57.6686 71.6068 57.8282 71.2872 58.0678 70.8878C58.2275 70.6486 58.3073 70.329 58.467 70.0891C58.6266 69.6904 58.8662 69.3708 59.0259 68.9714C59.1855 68.7322 59.2654 68.4923 59.4251 68.2531C59.7444 67.6936 60.0638 67.1348 60.3831 66.5759C59.6646 69.2113 59.3452 72.0859 59.3452 75.1199C59.3452 85.5006 63.7364 93.406 72.439 98.7559C72.918 108.099 75.6328 115.445 80.2636 120.156L64.2954 130.616Z" fill="url(#paint0_linear_873_23621)"/>
<path d="M114.914 74.7208C117.628 78.7935 119.385 83.904 120.024 90.0526C122.259 91.0905 124.175 92.2879 125.932 93.6455C132.399 98.6763 135.673 106.022 135.673 115.365C135.673 116.483 135.592 117.601 135.513 118.719V118.639C135.832 117.92 136.152 117.122 136.391 116.323C136.471 116.084 136.551 115.924 136.631 115.685C136.79 115.126 137.03 114.566 137.19 114.007C137.269 113.768 137.349 113.449 137.429 113.209C137.509 112.89 137.669 112.49 137.748 112.171C137.908 111.692 137.988 111.292 138.148 110.813C138.227 110.494 138.307 110.095 138.387 109.775C138.467 109.376 138.547 108.977 138.627 108.578C138.706 108.338 138.706 108.018 138.786 107.779C138.866 107.22 139.026 106.581 139.106 106.022C139.106 105.783 139.186 105.543 139.186 105.304C139.265 104.665 139.345 104.026 139.425 103.388C139.425 103.227 139.425 103.148 139.505 102.988C139.585 102.35 139.665 101.79 139.665 101.152C139.665 100.992 139.665 100.832 139.744 100.672C139.824 99.9535 139.824 99.2352 139.904 98.5162C139.904 98.3567 139.904 98.1972 139.904 98.0371C139.904 97.3188 139.984 96.5201 139.984 95.8018C139.984 95.003 139.984 94.2043 139.904 93.3259C139.904 93.0866 139.904 92.8468 139.824 92.5278C139.824 91.969 139.744 91.4095 139.744 90.9304C139.744 90.6114 139.665 90.2918 139.665 89.9722C139.585 89.4931 139.585 89.014 139.505 88.5349C139.505 88.2159 139.425 87.8963 139.345 87.497C139.265 87.0179 139.265 86.6185 139.186 86.1394C139.106 85.8204 139.106 85.4211 139.026 85.1015C138.946 84.7021 138.866 84.223 138.786 83.8237C138.706 83.5047 138.627 83.1053 138.547 82.7857C138.467 82.3864 138.387 81.9877 138.307 81.5883C138.227 81.2687 138.148 80.8693 138.068 80.5497C137.988 80.151 137.828 79.7516 137.748 79.3523C137.669 79.0327 137.589 78.6333 137.429 78.3144C137.349 77.915 137.19 77.5954 137.11 77.196C137.03 76.8771 136.87 76.4777 136.79 76.1581C136.631 75.7587 136.551 75.4398 136.391 75.1202C136.232 74.8005 136.152 74.4012 135.992 74.0822C135.832 73.7626 135.753 73.3632 135.592 73.0443C135.433 72.7247 135.274 72.3253 135.194 72.0057C135.034 71.6867 134.874 71.3671 134.715 71.0475C134.555 70.7285 134.395 70.4089 134.236 70.0096C134.076 69.6906 133.916 69.371 133.757 69.0514C133.597 68.7324 133.437 68.4128 133.197 68.0932C133.038 67.7742 132.878 67.4546 132.639 67.2147C132.479 66.8957 132.239 66.5761 132.08 66.2565C131.92 65.9376 131.68 65.6977 131.521 65.3781C130.962 64.5003 130.323 63.6216 129.685 62.7433C129.206 62.1044 128.727 61.5455 128.248 60.9866L114.914 74.7208Z" fill="url(#paint1_linear_873_23621)"/>
<defs>
<linearGradient id="paint0_linear_873_23621" x1="80.4135" y1="100.566" x2="42.9472" y2="72.6753" gradientUnits="userSpaceOnUse">
<stop offset="0.00058093" stop-color="white"/>
<stop offset="1" stop-color="#1E313F"/>
</linearGradient>
<linearGradient id="paint1_linear_873_23621" x1="113.091" y1="86.5227" x2="147.691" y2="113.494" gradientUnits="userSpaceOnUse">
<stop offset="0.00058093" stop-color="white"/>
<stop offset="0.9967" stop-color="#4E5A64"/>
</linearGradient>
</defs>
</svg>
