<svg xmlns="http://www.w3.org/2000/svg" width="192" height="192" viewBox="0 0 192 192" fill="none">
    <path d="M0 96C0 42.9807 42.9807 0 96 0C149.019 0 192 42.9807 192 96C192 149.019 149.019 192 96 192C42.9807 192 0 149.019 0 96Z" fill="url(#paint0_linear_3816_14783)"/>
    <path d="M96.0007 149.999C125.824 149.999 150 125.823 150 95.9995C150 66.1764 125.824 42 96.0007 42C66.1776 42 42.0012 66.1764 42.0012 95.9995C42.0012 125.823 66.1776 149.999 96.0007 149.999Z" fill="white" fill-opacity="0.5"/>
    <path d="M96.0007 149.999C125.824 149.999 150 125.823 150 95.9995C150 66.1764 125.824 42 96.0007 42C66.1776 42 42.0012 66.1764 42.0012 95.9995C42.0012 125.823 66.1776 149.999 96.0007 149.999Z" fill="#E0E0E0"/>
    <mask id="mask0_3816_14783" style="mask-type:alpha" maskUnits="userSpaceOnUse" x="68" y="45" width="8" height="80">
        <path fill-rule="evenodd" clip-rule="evenodd" d="M68.4393 124.677V45.062H75.0617V124.677H68.4393Z" fill="#14294D"/>
    </mask>
    <g mask="url(#mask0_3816_14783)">
        <path d="M150 95.9995C150 125.822 125.823 149.999 96.0001 149.999C66.1772 149.999 42.0007 125.822 42.0007 95.9995C42.0007 66.1762 66.1772 42 96.0001 42C125.823 42 150 66.1762 150 95.9995Z" fill="#14294D"/>
    </g>
    <path d="M71.7073 176.994C88.114 176.994 101.414 163.694 101.414 147.287C101.414 130.88 88.114 117.58 71.7073 117.58C55.3005 117.58 42.0002 130.88 42.0002 147.287C42.0002 163.694 55.3005 176.994 71.7073 176.994Z" fill="#23417D"/>
    <path d="M71.6533 117.58C88.0601 117.58 101.36 130.88 101.36 147.287C101.36 148.113 101.325 148.931 101.259 149.739C99.5113 149.91 97.7396 149.999 95.9473 149.999C77.1982 149.999 60.6814 140.443 51 125.937C56.3458 120.764 63.6273 117.58 71.6533 117.58Z" fill="#14294D"/>
    <defs>
        <linearGradient id="paint0_linear_3816_14783" x1="96" y1="-17" x2="96" y2="192" gradientUnits="userSpaceOnUse">
            <stop stop-color="white"/>
            <stop offset="1" stop-color="#F0F0F0"/>
        </linearGradient>
    </defs>
</svg>