<svg width="193" height="193" viewBox="0 0 193 193" fill="none" xmlns="http://www.w3.org/2000/svg" data-reactroot=""><path d="M96.5 193C149.795 193 193 149.796 193 96.5C193 43.2046 149.795 2.61911e-05 96.5 1.68726e-05C43.2045 7.55412e-06 -7.55412e-06 43.2045 -1.68726e-05 96.5C-2.61911e-05 149.795 43.2045 193 96.5 193Z" fill="url(#pickle_icon_c2d43f12-62f4-4ba7-a5d2-5f57bf365ec3)"></path><path d="M64 64.501C64 57.7316 69.4877 52.2439 76.2571 52.2439H108C120.15 52.2439 130 62.0936 130 74.2439V96.2439C130 108.394 120.15 118.244 108 118.244H97V101.744C97 92.6312 89.6127 85.2439 80.5 85.2439C71.3873 85.2439 64 77.8566 64 68.7439V64.501Z" fill="white"></path><path fill-rule="evenodd" clip-rule="evenodd" d="M64 95.8924C64 120.689 64.435 126.957 66.4525 131.208C72.4255 143.795 92.9005 144.023 99.3385 131.573C101.257 127.862 101.631 123.018 101.239 106.943C100.756 87.1519 100.702 86.8819 96.3625 82.3564C93.7525 79.6354 89.8015 77.4184 86.6125 76.8859C76.7995 75.2479 71.575 73.0624 68.683 69.3859C67.1065 67.3819 65.4085 65.7439 64.909 65.7439C64.4095 65.7439 64 79.3099 64 95.8924ZM70.9105 81.6169C70.4095 82.9219 70 85.0819 70 86.4169C70 88.1809 69.55 88.3939 68.3515 87.1954C66.4615 85.3054 67.9195 79.2439 70.261 79.2439C71.119 79.2439 71.4115 80.3119 70.9105 81.6169ZM78.067 93.1189C78.6205 95.4229 78.427 97.2439 77.629 97.2439C75.7375 97.2439 74.038 91.7044 75.304 89.6569C76.5505 87.6394 76.84 88.0024 78.067 93.1189ZM70.9105 98.1169C70.4095 99.4219 70 101.582 70 102.917C70 104.681 69.55 104.894 68.3515 103.695C66.4615 101.805 67.9195 95.7439 70.261 95.7439C71.119 95.7439 71.4115 96.8119 70.9105 98.1169ZM78.067 109.619C78.6205 111.923 78.427 113.744 77.629 113.744C75.7375 113.744 74.038 108.204 75.304 106.157C76.5505 104.139 76.84 104.502 78.067 109.619ZM69.592 119.369C68.9935 121.869 68.9095 121.869 67.822 119.369C67.1935 117.926 67.1935 115.562 67.822 114.119C68.9095 111.618 68.9935 111.618 69.592 114.119C69.937 115.562 69.937 117.926 69.592 119.369Z" fill="white"></path><defs><linearGradient id="pickle_icon_c2d43f12-62f4-4ba7-a5d2-5f57bf365ec3" x1="96.5" y1="1.68726e-05" x2="96.5" y2="193" gradientUnits="userSpaceOnUse"><stop stop-color="#0F6617"></stop><stop offset="1" stop-color="#0C4011"></stop></linearGradient></defs></svg>