<!--PT eUSDe Aug-->
<!--PT eUSDe May-->
<svg width="192" height="192" viewBox="0 0 192 192" fill="none" xmlns="http://www.w3.org/2000/svg">
<path d="M0 96C0 42.9807 42.9807 0 96 0C149.019 0 192 42.9807 192 96C192 149.019 149.019 192 96 192C42.9807 192 0 149.019 0 96Z" fill="url(#paint0_linear_3399_52661)"/>
<path d="M88.768 42.9128C58.8081 47.5896 38.2363 75.7721 42.9131 105.732C47.59 135.692 75.7725 156.264 105.733 151.587C135.692 146.91 156.264 118.728 151.587 88.7676C146.911 58.8078 118.728 38.236 88.768 42.9128ZM89.8768 50.0157C93.29 49.4829 96.6783 49.3287 99.9931 49.5206C95.6526 54.8767 89.1094 60.3873 79.2612 64.5113C69.946 68.4137 60.3927 72.4225 53.0587 79.0427C59.2293 64.1313 72.7981 52.6817 89.8768 50.0157ZM50.016 104.623C49.6147 102.052 49.43 99.4942 49.4436 96.971C50.3315 94.4785 51.4611 92.2069 52.841 90.1398C59.1227 80.7408 70.2547 76.078 82.039 71.1426C95.4627 65.522 103.429 57.5008 108.082 50.6918C110.566 51.2753 112.99 52.0502 115.326 53.0097C114.692 55.0077 113.67 57.5684 112.023 60.4229C108.487 66.552 101.263 75.323 86.933 82.2893C77.4178 86.9145 65.5802 92.673 58.5878 105.606C56.6486 109.194 55.1317 113.203 54.026 117.68C52.1145 113.638 50.7401 109.262 50.016 104.623ZM59.6746 126.784C62.7844 102.03 76.1533 95.5227 90.081 88.7503C102.795 82.5673 110.678 75.0429 115.569 68.2187C113.507 79.6438 108.213 90.5219 99.7531 100.676C91.0818 111.08 82.4863 123.765 84.5042 138.952C84.7088 140.495 85.0219 142.036 85.4395 143.568C75.2299 140.949 66.1596 135.002 59.6746 126.784ZM105.274 105.278C120.358 87.1782 123.64 69.4689 123.74 57.8009C123.741 57.6916 123.739 57.59 123.74 57.4806C131.788 62.8455 138.2 70.6158 141.821 79.9458C141.357 82.9177 140.435 87.0999 138.587 91.692C133.884 103.377 125.714 112.117 114.291 117.669C106.548 121.435 98.0568 126.071 91.3995 134.183C91.5054 123.394 98.0547 113.939 105.274 105.278ZM104.627 144.483C100.856 145.072 97.1134 145.198 93.4632 144.91C93.3734 144.683 93.2869 144.457 93.2044 144.229C98.5554 134.765 106.792 129.31 117.433 124.138C133.322 116.412 141.176 104.199 145.005 94.9832C146.169 119.052 128.962 140.685 104.627 144.483Z" fill="#F0F0F0"/>
<path d="M0 32C0 14.3269 14.3269 0 32 0C49.6731 0 64 14.3269 64 32C64 49.6731 49.6731 64 32 64C14.3269 64 0 49.6731 0 32Z" fill="url(#paint1_linear_3399_52661)"/>
<mask id="mask0_3399_52661" style="mask-type:alpha" maskUnits="userSpaceOnUse" x="10" y="10" width="44" height="44">
<path d="M32.0004 53.5999C43.9297 53.5999 53.6004 43.9293 53.6004 31.9999C53.6004 20.0706 43.9297 10.3999 32.0004 10.3999C20.071 10.3999 10.4004 20.0706 10.4004 31.9999C10.4004 43.9293 20.071 53.5999 32.0004 53.5999Z" fill="white"/>
</mask>
<g mask="url(#mask0_3399_52661)">
<path d="M22.2829 64.3981C28.8456 64.3981 34.1658 59.078 34.1658 52.5152C34.1658 45.9524 28.8456 40.6323 22.2829 40.6323C15.7201 40.6323 10.3999 45.9524 10.3999 52.5152C10.3999 59.078 15.7201 64.3981 22.2829 64.3981Z" fill="white"/>
<mask id="mask1_3399_52661" style="mask-type:alpha" maskUnits="userSpaceOnUse" x="20" y="11" width="4" height="33">
<path fill-rule="evenodd" clip-rule="evenodd" d="M20.9757 43.4711V11.6247H23.6247V43.4711H20.9757Z" fill="white"/>
</mask>
<g mask="url(#mask1_3399_52661)">
<path d="M53.6001 31.9999C53.6001 43.9293 43.9296 53.5999 32.0001 53.5999C20.0708 53.5999 10.4001 43.9293 10.4001 31.9999C10.4001 20.0706 20.0708 10.3999 32.0001 10.3999C43.9296 10.3999 53.6001 20.0706 53.6001 31.9999Z" fill="white"/>
</g>
</g>
<path d="M32.0004 53.9999C43.9297 53.9999 53.6004 44.3293 53.6004 32.3999C53.6004 20.4706 43.9297 10.7999 32.0004 10.7999C20.071 10.7999 10.4004 20.4706 10.4004 32.3999C10.4004 44.3293 20.071 53.9999 32.0004 53.9999Z" fill="white" fill-opacity="0.5"/>
<defs>
<linearGradient id="paint0_linear_3399_52661" x1="96" y1="0" x2="96.6167" y2="191.998" gradientUnits="userSpaceOnUse">
<stop stop-color="#3B82F6"/>
<stop offset="1" stop-color="#3574DB"/>
</linearGradient>
<linearGradient id="paint1_linear_3399_52661" x1="32" y1="0" x2="32.2056" y2="63.9993" gradientUnits="userSpaceOnUse">
<stop stop-color="#1BE3C2"/>
<stop offset="1" stop-color="#18C9AC"/>
</linearGradient>
</defs>
</svg>
