<svg width="192" height="192" viewBox="0 0 192 192" fill="none" xmlns="http://www.w3.org/2000/svg">
<path d="M0 96C0 42.9807 42.9807 0 96 0C149.019 0 192 42.9807 192 96C192 149.019 149.019 192 96 192C42.9807 192 0 149.019 0 96Z" fill="url(#paint0_linear_3476_192)"/>
<path d="M135.875 118.339C147.334 116.55 158.112 124.418 159.901 135.876C161.69 147.335 153.822 158.114 142.363 159.902C130.905 161.691 120.126 153.824 118.337 142.365C116.548 130.906 124.416 120.128 135.875 118.339ZM157.384 138.254C155.919 141.779 152.915 146.449 146.839 149.404C142.769 151.382 139.618 153.469 137.571 157.089C137.603 157.176 137.637 157.262 137.671 157.349C139.067 157.459 140.498 157.411 141.94 157.186C151.248 155.733 157.829 147.46 157.384 138.254ZM146.125 128.017C144.255 130.627 141.24 133.505 136.377 135.87C131.05 138.46 125.936 140.949 124.747 150.417C127.227 153.56 130.697 155.834 134.602 156.836C134.442 156.25 134.322 155.661 134.244 155.07C133.472 149.262 136.76 144.41 140.076 140.431C143.312 136.547 145.336 132.386 146.125 128.017ZM84.5127 42.6367C59.8991 47.8842 41.4365 69.7518 41.4365 95.9297C41.4372 122.107 59.8996 143.97 84.5127 149.217V154.843C56.836 149.511 35.9294 125.162 35.9287 95.9297C35.9287 66.6967 56.8354 42.346 84.5127 37.0146V42.6367ZM114.584 147.134C115.143 148.91 115.888 150.605 116.797 152.193C113.786 153.31 110.663 154.197 107.446 154.822V149.195C109.891 148.669 112.273 147.976 114.584 147.134ZM149.251 124.032C149.213 128.495 147.957 135.269 142.188 142.191C139.427 145.504 136.922 149.12 136.882 153.246C139.428 150.144 142.675 148.371 145.637 146.931C150.005 144.807 153.131 141.464 154.93 136.995C155.636 135.239 155.989 133.639 156.166 132.502C154.781 128.934 152.329 125.962 149.251 123.91C149.251 123.952 149.251 123.991 149.251 124.032ZM143.262 121.313C141.482 123.918 138.436 126.986 133.302 129.136C128.795 131.023 124.536 132.807 122.134 136.401C121.606 137.192 121.174 138.06 120.834 139.014C120.829 139.979 120.9 140.957 121.054 141.94C121.331 143.714 121.856 145.389 122.587 146.935C123.01 145.222 123.59 143.689 124.332 142.316C127.006 137.37 131.534 135.167 135.173 133.398C140.654 130.734 143.417 127.379 144.77 125.035C145.399 123.943 145.791 122.964 146.033 122.2C145.14 121.833 144.212 121.537 143.262 121.313ZM99.1943 62.5137H101.219C106.207 62.5137 110.228 64.1335 113.28 67.374C116.332 70.5523 117.858 74.7593 117.858 79.9941H111.52C111.52 76.5666 110.58 73.8241 108.702 71.7676C106.824 69.7112 104.329 68.6826 101.219 68.6826H91.2705C87.9254 68.6827 85.2552 69.4932 83.2598 71.1133C81.2643 72.6712 80.2657 74.7901 80.2656 77.4697V82.5176C80.2656 84.6987 80.9996 86.5376 82.4668 88.0332C83.9928 89.5289 86.0766 90.5259 88.7178 91.0244L104.477 93.9229C109.054 94.7953 112.605 96.4779 115.129 98.9707C117.653 101.401 118.915 104.517 118.915 108.318V114.301C118.915 118.85 117.271 122.527 113.984 125.331C110.698 128.073 106.384 129.444 101.043 129.444H99.1943V138.979H92.8555V129.444H90.9189C87.3975 129.444 84.2867 128.665 81.5869 127.107C78.8871 125.487 76.774 123.244 75.248 120.377C73.7807 117.448 73.0469 114.083 73.0469 110.281H79.3857C79.3857 114.145 80.4419 117.292 82.5547 119.723C84.7263 122.091 87.5732 123.275 91.0947 123.275H100.867C104.33 123.275 107.118 122.465 109.23 120.845C111.343 119.162 112.4 116.981 112.4 114.301V108.318C112.4 106.199 111.607 104.392 110.022 102.896C108.497 101.401 106.384 100.435 103.685 99.999L87.8369 97.1943C83.3767 96.3842 79.9142 94.7014 77.4492 92.1465C74.9841 89.5914 73.751 86.3814 73.751 82.5176V77.4697C73.7511 72.9208 75.3359 69.3066 78.5049 66.627C81.7329 63.8849 85.9883 62.5137 91.2705 62.5137H92.8555V52.9785H99.1943V62.5137ZM140.168 120.865C138.9 120.792 137.604 120.851 136.299 121.055C129.767 122.074 124.577 126.454 122.217 132.157C125.022 129.625 128.676 128.091 132.239 126.599C136.006 125.021 138.508 122.914 140.168 120.865ZM107.446 37.0352C135.073 42.4068 155.929 66.7328 155.929 95.9297C155.929 103.269 154.609 110.301 152.196 116.801C150.607 115.892 148.913 115.146 147.137 114.586C149.258 108.766 150.416 102.483 150.416 95.9297C150.416 69.7881 132.008 47.9444 107.446 42.6582V37.0352Z" fill="white"/>
<path d="M0 32C0 14.3269 14.3269 0 32 0C49.6731 0 64 14.3269 64 32C64 49.6731 49.6731 64 32 64C14.3269 64 0 49.6731 0 32Z" fill="url(#paint1_linear_3476_192)"/>
<path d="M34.1256 53.4944C34.1519 53.1715 34.166 52.845 34.166 52.5153C34.166 46.4062 29.5555 41.3729 23.6244 40.7063V12.0839C26.2 10.9994 29.0304 10.3999 32.0004 10.3999C43.9295 10.4001 53.6004 20.0707 53.6004 31.9999C53.6004 43.2119 45.0571 52.4265 34.1256 53.4944Z" fill="white" fill-opacity="0.5"/>
<path d="M20.9754 40.7028C18.2858 40.9972 15.8654 42.1888 14.0215 43.9724C11.7348 40.5454 10.4004 36.4289 10.4004 31.9999C10.4004 24.0986 14.6441 17.191 20.9754 13.4251V40.7028Z" fill="white" fill-opacity="0.5"/>
<path d="M23.6244 40.7064C29.5555 41.3729 34.166 46.4062 34.166 52.5153C34.166 52.8456 34.152 53.1727 34.1256 53.4962C33.427 53.5644 32.7169 53.5999 32.0004 53.5999C24.5004 53.5999 17.8958 49.7754 14.0233 43.9724C15.867 42.1893 18.2863 40.9971 20.9754 40.7028V13.4251C21.823 12.9209 22.7071 12.4719 23.6244 12.0856V40.7064Z" fill="white"/>
<defs>
<linearGradient id="paint0_linear_3476_192" x1="96" y1="0" x2="96" y2="192.216" gradientUnits="userSpaceOnUse">
<stop offset="0.001" stop-color="#0F0F0F"/>
<stop offset="1"/>
</linearGradient>
<linearGradient id="paint1_linear_3476_192" x1="32" y1="0" x2="32.2056" y2="63.9993" gradientUnits="userSpaceOnUse">
<stop stop-color="#1BE3C2"/>
<stop offset="1" stop-color="#18C9AC"/>
</linearGradient>
</defs>
</svg>
