<svg width="192" height="192" viewBox="0 0 192 192" fill="none" xmlns="http://www.w3.org/2000/svg">
    <rect width="192" height="192" rx="96" fill="url(#paint0_linear_2052_29955)"/>
    <path d="M57.6391 74.5C55.6391 73.5 54.1391 72 54.1391 69.5C54.1391 67 56.1391 65 59.1391 65H68.1391C69.1391 65 69.1391 64.5 69.1391 64C69.6391 60 70.1391 56 71.1391 52C71.6391 48 74.1391 46 78.1391 46H107.639C121.139 46.5 131.639 52.5 137.639 64.5C144.639 78 141.639 94.5 130.139 105C123.639 111 116.139 114 107.139 114H97.6391C97.1391 114 96.6391 114 96.6391 114.5C95.6391 122 94.1391 129 93.1391 136.5C93.1391 138 92.6391 139.5 92.6391 140.5C92.1391 143.5 89.6391 146 86.6391 146H63.6391C59.6391 146 57.1391 142.5 57.6391 138.5L60.6391 117.5C61.6391 110 63.1391 102.5 64.1391 95.5C64.1391 95 64.1391 94.5 63.1391 94.5H55.6391C53.6391 94.5 52.1391 93.5 51.1391 91.5C50.1391 89.5 50.6391 88 52.1391 86.5C53.1391 85.5 54.1391 85 55.6391 85H64.6391C65.6391 85 65.6391 85 65.6391 84C66.1391 82 66.1391 80 66.6391 77.5C67.1391 77 66.47 76.3899 66.97 75.8899C67.1479 75 67.1391 75 66.1391 75C63.6391 74.5 60.6391 74.5 57.6391 74.5ZM79.1391 63.5C78.6391 65 78.6391 65 80.1391 65H109.639C110.448 65 110.526 65.1504 111.139 65.5C115.139 66.5 118.139 69 120.139 72.5C125.639 82.5 118.639 94.5 107.139 94.5H75.6391C74.6391 94.5 74.1391 95 74.1391 95.5C73.6391 98.5 73.1391 102 72.6391 105L68.1391 135C68.1391 136 68.1391 136 69.1391 136H83.6391C84.1391 136 84.6391 136 84.6391 135C86.1391 126.5 87.1391 118.5 88.6391 110C89.1391 106 91.6391 103.5 96.1391 103.5H108.139C119.139 103.5 128.639 96 131.639 86C136.139 70.5 124.639 55.5 108.639 55H81.6391C81.1391 55 80.6391 55 80.6391 55.5C80.1391 58.5 79.6391 61 79.1391 63.5ZM92.1391 84.5H107.139C108.639 84.5 109.639 84 110.639 83C112.139 81.5 112.639 79.5 111.639 77.5C110.639 75.5 109.139 74.5 107.139 74.5H78.1391C77.6391 74.5 77.1391 74.5 77.1391 75C76.6391 78 76.6391 80.5 76.1391 83.5C76.1391 84.5 76.1391 84.5 77.1391 84.5H92.1391Z" fill="#FEFEFE"/>
    <defs>
        <linearGradient id="paint0_linear_2052_29955" x1="96" y1="0" x2="96" y2="192.216" gradientUnits="userSpaceOnUse">
            <stop offset="0.001" stop-color="#0070E0"/>
            <stop offset="1" stop-color="#003087"/>
        </linearGradient>
    </defs>
</svg>
