<svg width="193" height="193" viewBox="0 0 193 193" fill="none" xmlns="http://www.w3.org/2000/svg" data-reactroot=""><circle cx="96.5" cy="96.5" r="96.5" fill="url(#renfil_icon_506f645d-0c24-4985-8d16-0a49bf8279b0)"></circle><path fill-rule="evenodd" clip-rule="evenodd" d="M133.7 47.0329C135.977 49.3099 136.219 50.0879 135.386 52.4659C133.969 56.5099 131.028 56.4439 126.992 52.2799C119.854 44.9159 115.232 49.1199 109.54 68.1509C105.188 82.7039 105.068 82.2949 113.945 83.2499C127.175 84.6739 127.186 84.6769 126.466 87.5929C126.107 89.0489 125.482 90.5809 125.078 90.9959C124.675 91.4109 119.897 91.0829 114.461 90.2669C109.026 89.4509 104.452 88.9089 104.298 89.0629C104.144 89.2169 103.721 91.8719 103.358 94.9619L102.698 100.58L107.076 101.123C123.901 103.211 123.438 103.082 123.713 105.741C124.186 110.307 123.223 110.59 112.857 108.939C107.578 108.098 102.561 107.678 101.706 108.006C100.83 108.342 99.8405 110.451 99.4355 112.85C98.3635 119.194 91.2125 137.561 88.1635 141.804C83.4075 148.419 79.6755 150.241 70.8815 150.241C64.6955 150.241 62.7455 149.863 61.0585 148.336C58.7275 146.226 58.3065 142.788 60.1535 140.941C62.2205 138.874 64.2865 139.606 68.0745 143.751C71.9275 147.965 73.4685 148.147 77.3055 144.841C80.4355 142.145 82.0335 137.986 86.0685 122.035C88.2055 113.586 89.9535 106.512 89.9535 106.314C89.9535 105.507 86.4255 104.72 77.9225 103.63C68.9565 102.48 68.9535 102.478 68.9535 99.5789C68.9535 95.8019 70.5955 95.2769 78.2145 96.6129C81.6455 97.2159 85.9925 97.8279 87.8725 97.9749C91.1945 98.2329 91.3285 98.0989 92.5745 93.2759C93.2795 90.5449 93.6235 88.0699 93.3405 87.7759C93.0565 87.4819 88.2405 86.5659 82.6385 85.7409C72.5735 84.2589 72.4495 84.2069 72.1255 81.3689C71.9445 79.7899 72.2155 78.0789 72.7265 77.5679C73.2985 76.9959 77.3585 77.2349 83.2935 78.1899C96.2405 80.2729 95.7115 80.3779 96.9805 75.4909C102.757 53.2459 111.728 43.2659 125.248 44.0419C129.929 44.3109 131.553 44.8859 133.7 47.0329Z" fill="white"></path><defs><linearGradient id="renfil_icon_506f645d-0c24-4985-8d16-0a49bf8279b0" x1="96.5" y1="0" x2="96.5" y2="193" gradientUnits="userSpaceOnUse"><stop stop-color="#0090FF"></stop><stop offset="1" stop-color="#0F6692"></stop></linearGradient></defs></svg>