<svg width="192" height="192" viewBox="0 0 192 192" fill="none" xmlns="http://www.w3.org/2000/svg">
<path d="M0 96C0 42.9807 42.9807 0 96 0C149.019 0 192 42.9807 192 96C192 149.019 149.019 192 96 192C42.9807 192 0 149.019 0 96Z" fill="url(#paint0_linear_2733_3126)"/>
<path d="M137.728 97.5139L76.4455 132.895C72.2133 135.339 70.7626 140.749 73.2053 144.98C75.6478 149.21 81.0587 150.659 85.2909 148.216L146.574 112.835C150.806 110.391 152.257 104.981 149.814 100.75C147.371 96.5195 141.96 95.0706 137.728 97.5139Z" fill="#FF7829"/>
<path d="M95.3422 86.2025L49.3803 112.739C45.1482 115.182 43.6974 120.592 46.14 124.823C48.5826 129.054 53.9936 130.503 58.2258 128.059L104.188 101.523C108.42 99.0797 109.87 93.6692 107.428 89.4385C104.985 85.2079 99.5744 83.759 95.3422 86.2025Z" fill="#FCBF22"/>
<path d="M106.709 43.784L45.4265 79.1654C41.1943 81.6088 39.7436 87.0193 42.1862 91.25C44.6288 95.4806 50.0397 96.9295 54.2718 94.486L115.554 59.1046C119.786 56.6612 121.237 51.2507 118.795 47.0201C116.352 42.7894 110.941 41.3406 106.709 43.784Z" fill="#2AE5B9"/>
<defs>
<linearGradient id="paint0_linear_2733_3126" x1="96" y1="0" x2="96" y2="192" gradientUnits="userSpaceOnUse">
<stop stop-color="#132D49"/>
<stop offset="1" stop-color="#08131F"/>
</linearGradient>
</defs>
</svg>
