<svg width="16" height="16" viewBox="0 0 16 16" fill="none" xmlns="http://www.w3.org/2000/svg">
<g id="ic-euler">
<g id="Union">
<path d="M1.25719 5.75523L9.42818 1.0377C9.99248 0.711911 10.7139 0.90509 11.0396 1.46918C11.3653 2.03326 11.1719 2.75466 10.6076 3.08045L2.43657 7.79798C1.87228 8.12378 1.15083 7.93059 0.825149 7.36651C0.499472 6.80241 0.692901 6.08102 1.25719 5.75523Z" fill="#2AE5B9"/>
<path d="M7.91263 6.69351L1.78438 10.2316C1.2201 10.5574 1.02666 11.2788 1.35234 11.8429C1.67802 12.407 2.39949 12.6002 2.96378 12.2744L9.09202 8.73626C9.65629 8.41048 9.84973 7.68907 9.52405 7.12498C9.19838 6.5609 8.47692 6.36771 7.91263 6.69351Z" fill="#2AE5B9"/>
<path d="M13.5641 8.20166L5.39305 12.9192C4.82876 13.245 4.63533 13.9664 4.96102 14.5305C5.28668 15.0945 6.00815 15.2877 6.57244 14.9619L14.7434 10.2444C15.3078 9.91862 15.5012 9.19725 15.1755 8.63314C14.8498 8.06907 14.1284 7.87589 13.5641 8.20166Z" fill="#2AE5B9"/>
</g>
</g>
</svg>
