<svg width="192" height="192" viewBox="0 0 192 192" fill="none" xmlns="http://www.w3.org/2000/svg">
<path d="M0 96C0 42.9807 42.9807 0 96 0V0C149.019 0 192 42.9807 192 96V96C192 149.019 149.019 192 96 192V192C42.9807 192 0 149.019 0 96V96Z" fill="url(#paint0_linear_3304_49212)"/>
<g clip-path="url(#clip0_3304_49212)">
<path d="M133.491 109.161C129.276 106.757 124.52 106.041 119.805 105.862C115.884 105.747 109.999 103.164 109.999 96.0037C109.999 90.6664 114.307 86.3578 119.865 86.1453C124.579 85.9664 129.335 85.2508 133.547 82.8244C139.265 79.5225 143.438 74.0853 145.149 67.7078C146.86 61.3303 145.969 54.5344 142.671 48.8138C139.345 43.0894 133.884 38.9182 127.486 37.2154C121.089 35.5125 114.277 36.4171 108.545 39.7306C104.752 41.9082 101.603 45.0507 99.4171 48.8389C97.2314 52.6272 96.0869 56.9263 96.1 61.2999C96.1 66.1303 97.8294 70.5582 100.021 74.714C101.87 78.1691 102.76 84.6321 96.4876 88.2624C91.7727 90.9609 85.8912 89.2762 82.9803 84.5762C80.5166 80.5955 77.5423 76.887 73.3306 74.483C61.4148 67.5914 46.1556 71.6838 39.3237 83.5661C36.0283 89.2888 35.1398 96.0857 36.8535 102.463C38.5672 108.84 42.7429 114.277 48.4628 117.577C52.2488 119.753 56.5392 120.898 60.906 120.898C65.2728 120.898 69.5632 119.753 73.3492 117.577C77.5423 115.165 80.5166 111.46 82.9803 107.483C84.9967 104.237 90.1029 100.085 96.4876 103.79C101.21 106.47 102.664 112.433 100.021 117.361C97.848 121.434 96.1 125.922 96.1 130.752C96.1 144.498 107.248 155.62 120.986 155.639C127.586 155.636 133.914 153.013 138.581 148.346C143.247 143.68 145.87 137.352 145.873 130.752C145.895 126.381 144.761 122.082 142.586 118.291C140.411 114.5 137.272 111.351 133.487 109.164L133.491 109.161Z" fill="white"/>
</g>
<defs>
<linearGradient id="paint0_linear_3304_49212" x1="96" y1="0" x2="96" y2="192" gradientUnits="userSpaceOnUse">
<stop stop-color="#008CFF"/>
<stop offset="1" stop-color="#007EE6"/>
</linearGradient>
<clipPath id="clip0_3304_49212">
<rect width="120" height="120" fill="white" transform="translate(36 36)"/>
</clipPath>
</defs>
</svg>
