<svg width="193" height="193" viewBox="0 0 193 193" fill="none" xmlns="http://www.w3.org/2000/svg" data-reactroot=""><path d="M96.5 193C149.795 193 193 149.796 193 96.5C193 43.2046 149.795 2.61911e-05 96.5 1.68726e-05C43.2045 7.55412e-06 -7.55412e-06 43.2045 -1.68726e-05 96.5C-2.61911e-05 149.795 43.2045 193 96.5 193Z" fill="url(#rook_icon_26a3dcc3-b4c5-4eb2-ab19-978cfcfb9445)"></path><path d="M51.998 52.0063H69.678V69.6863H51.998V52.0063ZM105.025 69.68V52H87.358V69.68H69.678V140.4H122.712V69.68H105.025ZM106.247 106.255H86.1366V86.1448H106.247V106.255Z" fill="white"></path><path d="M122.712 52.0063H140.392V69.6863H122.712V52.0063Z" fill="white"></path><defs><linearGradient id="rook_icon_26a3dcc3-b4c5-4eb2-ab19-978cfcfb9445" x1="96.5" y1="1.68726e-05" x2="96.5" y2="193" gradientUnits="userSpaceOnUse"><stop stop-color="#303030"></stop><stop offset="1" stop-color="#101010"></stop></linearGradient></defs></svg>