<svg width="193" height="193" viewBox="0 0 193 193" fill="none" xmlns="http://www.w3.org/2000/svg" data-reactroot=""><circle cx="96.4998" cy="96.5" r="96.5" fill="url(#rpl_icon_fac8de66-ec28-440b-b415-1129be79bc4a)"></circle><path fill-rule="evenodd" clip-rule="evenodd" d="M132.304 61.3041C126.149 59.8837 109.151 62.5257 89.8337 83.8887L79.1806 86.3034L70.232 95.252L81.8794 99.5132C81.7847 100.65 81.8794 103.377 83.0157 105.195L79.7488 109.882L81.7374 111.871L81.8794 112.013L83.868 114.001L88.5553 110.734C90.3735 111.871 93.1007 111.965 94.237 111.871L98.4982 123.518L107.447 114.57L109.862 103.916C131.225 84.5989 133.724 67.4592 132.304 61.3041ZM102.759 90.8487C105.27 93.359 109.34 93.359 111.85 90.8487C114.36 88.3384 114.36 84.2683 111.85 81.758C109.34 79.2477 105.27 79.2477 102.759 81.758C100.249 84.2683 100.249 88.3384 102.759 90.8487Z" fill="white"></path><path d="M72.3628 107.61C73.1473 106.825 74.4191 106.825 75.2036 107.61C75.9881 108.394 75.9881 109.666 75.2036 110.45L56.4542 129.2C55.6697 129.984 54.3978 129.984 53.6134 129.2C52.8289 128.415 52.8289 127.143 53.6134 126.359L72.3628 107.61Z" fill="white"></path><path d="M77.7602 113.007C78.5447 112.223 79.8166 112.223 80.6011 113.007C81.3855 113.792 81.3855 115.063 80.6011 115.848L57.6862 138.763C56.9018 139.547 55.6299 139.547 54.8454 138.763C54.061 137.978 54.061 136.706 54.8454 135.922L77.7602 113.007Z" fill="white"></path><path d="M83.1577 118.405C83.9422 117.62 85.2141 117.62 85.9985 118.405C86.783 119.189 86.783 120.461 85.9985 121.245L67.2491 139.995C66.4646 140.779 65.1927 140.779 64.4083 139.995C63.6238 139.21 63.6238 137.939 64.4083 137.154L83.1577 118.405Z" fill="white"></path><defs><linearGradient id="rpl_icon_fac8de66-ec28-440b-b415-1129be79bc4a" x1="96.4998" y1="1.52588e-05" x2="96.4998" y2="193" gradientUnits="userSpaceOnUse"><stop stop-color="#FB895E"></stop><stop offset="1" stop-color="#D36136"></stop></linearGradient></defs></svg>