<svg width="193" height="193" viewBox="0 0 193 193" fill="none" xmlns="http://www.w3.org/2000/svg">
<path d="M0.889038 96.7185C0.889038 43.6992 43.8697 0.718506 96.889 0.718506C149.908 0.718506 192.889 43.6992 192.889 96.7185C192.889 149.738 149.908 192.719 96.889 192.719C43.8697 192.719 0.889038 149.738 0.889038 96.7185Z" fill="url(#paint0_linear_2323_41384)"/>
<g clip-path="url(#clip0_2323_41384)">
<path fill-rule="evenodd" clip-rule="evenodd" d="M96.294 47.4875L114.816 37.0081C116.289 36.175 118.113 37.2388 118.113 38.9305V39.3826C118.113 41.7225 119.225 43.923 121.109 45.3107L139.17 58.6135C145.372 63.1815 144.825 72.6189 138.137 76.4394L120.882 86.2963C116.7 88.6852 116.361 94.5869 120.24 97.4402L139.139 111.339C145.35 115.907 144.801 125.357 138.102 129.175L119.483 139.788C118.01 140.627 116.18 139.564 116.18 137.868V137.317C116.18 134.989 115.079 132.798 113.211 131.409L95.2056 118.021C89.0273 113.427 89.6133 103.997 96.3126 100.204L113.378 90.5392C117.561 88.1707 117.932 82.2859 114.08 79.4109L95.1678 65.2951C89.003 60.6939 89.5989 51.2755 96.294 47.4875ZM55.6794 64.1233L74.2018 53.6438C75.6743 52.8108 77.4982 53.8745 77.4982 55.5663V56.0184C77.4982 58.3582 78.6105 60.5588 80.4945 61.9464L98.5555 75.2492C104.757 79.8174 104.21 89.2545 97.522 93.0754L80.2677 102.932C76.0859 105.321 75.7458 111.223 79.6257 114.076L98.524 127.975C104.736 132.543 104.186 141.993 97.4878 145.811L78.8681 156.423C77.3956 157.263 75.5656 156.199 75.5656 154.504V153.953C75.5656 151.625 74.4645 149.434 72.5963 148.045L54.5908 134.656C48.4127 130.062 48.9986 120.633 55.6978 116.839L72.7634 107.175C76.9459 104.806 77.3168 98.9215 73.4649 96.0466L54.5531 81.9309C48.3885 77.3298 48.9842 67.9112 55.6794 64.1233Z" fill="#F6F8F9"/>
</g>
<defs>
<linearGradient id="paint0_linear_2323_41384" x1="96.889" y1="0.718506" x2="96.889" y2="192.719" gradientUnits="userSpaceOnUse">
<stop stop-color="#0A7B7B"/>
<stop offset="1" stop-color="#075A5A"/>
</linearGradient>
<clipPath id="clip0_2323_41384">
<rect width="120" height="120" fill="white" transform="translate(36.889 36.7185)"/>
</clipPath>
</defs>
</svg>
