<svg width="192" height="192" viewBox="0 0 192 192" fill="none" xmlns="http://www.w3.org/2000/svg">
<path d="M0 96C0 42.9807 42.9807 0 96 0C149.019 0 192 42.9807 192 96C192 149.019 149.019 192 96 192C42.9807 192 0 149.019 0 96Z" fill="url(#paint0_linear_3645_14545)"/>
<path d="M108.821 51V78.2002C113.249 75.9304 118.268 74.6495 123.586 74.6494C141.487 74.6494 156 89.1615 156 107.062C156 124.963 141.487 139.475 123.586 139.475C118.268 139.475 113.249 138.194 108.821 135.924V139.483H79.1758V51H108.821ZM108.821 78.2002C98.3439 83.5709 91.1738 94.4796 91.1738 107.062C91.174 119.645 98.344 130.553 108.821 135.924V78.2002ZM53.9834 82.4434C59.3491 82.4434 63.5791 83.5556 66.6729 85.7793C69.7824 88.0029 71.4178 91.0803 71.5791 95.0117H59.3008C59.2362 94.2547 58.97 93.6024 58.5029 93.0547C58.0356 92.507 57.4314 92.0878 56.6904 91.7979C55.9654 91.4917 55.1594 91.3379 54.2734 91.3379C53.1293 91.3379 52.1461 91.5478 51.3242 91.9668C50.5026 92.3856 50.0992 92.9817 50.1152 93.7549C50.0991 94.3028 50.333 94.8109 50.8164 95.2783C51.3158 95.7456 52.2753 96.1074 53.6934 96.3652L61.2344 97.7188C65.0369 98.4117 67.8647 99.5802 69.7178 101.224C71.5869 102.851 72.5297 105.035 72.5459 107.774C72.5297 110.417 71.7398 112.713 70.1768 114.663C68.6299 116.597 66.5111 118.095 63.8203 119.158C61.1456 120.206 58.0922 120.729 54.6602 120.729C48.9881 120.729 44.5485 119.569 41.3418 117.249C38.1514 114.929 36.3707 111.867 36 108.064H49.2451C49.4224 109.241 50.0025 110.151 50.9854 110.796C51.9844 111.424 53.2421 111.738 54.7568 111.738C55.9812 111.738 56.9879 111.528 57.7773 111.109C58.583 110.691 58.9947 110.095 59.0107 109.321C58.9947 108.612 58.6401 108.048 57.9473 107.629C57.2706 107.21 56.2068 106.872 54.7568 106.614L48.1816 105.454C44.3951 104.793 41.5591 103.537 39.6738 101.684C37.7886 99.8305 36.854 97.4449 36.8701 94.5283C36.854 91.9503 37.5308 89.7671 38.9004 87.9785C40.2861 86.1738 42.2602 84.8038 44.8223 83.8691C47.4004 82.9185 50.4545 82.4434 53.9834 82.4434Z" fill="black"/>
<defs>
<linearGradient id="paint0_linear_3645_14545" x1="96" y1="0" x2="96" y2="192" gradientUnits="userSpaceOnUse">
<stop stop-color="#FCDD33"/>
<stop offset="1" stop-color="#F6D104"/>
</linearGradient>
</defs>
</svg>
