<svg width="192" height="192" viewBox="0 0 192 192" fill="none" xmlns="http://www.w3.org/2000/svg">
<rect width="192" height="192" rx="96" fill="url(#paint0_linear_1386_24701)"/>
<path d="M150.97 80.2932H139.692C133.485 63.0636 116.792 51.2465 94.777 51.2465H58.5734V80.2932H46V90.7153H58.5734V101.643H46V112.061H58.5734V140.758H94.777C116.537 140.758 133.102 129.04 139.468 112.061H150.966V101.639H142.003C142.232 99.7689 142.349 97.8866 142.353 96.0024V95.7478C142.353 94.0373 142.258 92.3573 142.098 90.7115H151V80.2894L150.97 80.2932ZM68.7104 60.5283H94.777C110.931 60.5283 122.934 68.4799 128.48 80.2628H68.7104V60.5283ZM94.777 131.385H68.7104V112.031H128.415C122.843 123.624 110.87 131.385 94.777 131.385ZM131.866 96.2267C131.869 98.0288 131.742 99.8288 131.486 101.613H68.7104V90.6849H131.52C131.75 92.4392 131.867 94.2065 131.87 95.9758L131.866 96.2267Z" fill="white"/>
<defs>
<linearGradient id="paint0_linear_1386_24701" x1="96" y1="219.264" x2="96" y2="-20.16" gradientUnits="userSpaceOnUse">
<stop stop-color="#4CAF50"/>
<stop offset="1" stop-color="#8BC34A"/>
</linearGradient>
</defs>
</svg>
