<svg width="192" height="192" viewBox="0 0 192 192" fill="none" xmlns="http://www.w3.org/2000/svg">
<path d="M0 96C0 42.9807 42.9807 0 96 0C149.019 0 192 42.9807 192 96C192 149.019 149.019 192 96 192C42.9807 192 0 149.019 0 96Z" fill="url(#paint0_linear_3771_447)"/>
<path d="M150.999 80.8467H141.633V59.0879H92.8036L124.727 95.999L92.8065 132.908H141.633V111.149H150.999V142.275H80.3983L40.9989 95.998L80.3983 49.7207H150.999V80.8467ZM53.3007 95.998L82.5897 130.4L112.344 95.999L82.5887 61.5957L53.3007 95.998Z" fill="white"/>
<defs>
<linearGradient id="paint0_linear_3771_447" x1="96" y1="0" x2="96" y2="192.216" gradientUnits="userSpaceOnUse">
<stop offset="0.001" stop-color="#0F0F0F"/>
<stop offset="1"/>
</linearGradient>
</defs>
</svg>
