<svg width="192" height="192" viewBox="0 0 192 192" fill="none" xmlns="http://www.w3.org/2000/svg">
    <path d="M0 96C0 42.9807 42.9807 0 96 0C149.019 0 192 42.9807 192 96C192 149.019 149.019 192 96 192C42.9807 192 0 149.019 0 96Z" fill="url(#paint0_linear_2995_46512)"/>
    <path fill-rule="evenodd" clip-rule="evenodd" d="M139.006 67.1062C144.493 75.3948 147.695 85.3145 147.695 95.9756C147.695 106.748 144.426 116.771 138.829 125.119L155.057 141.348L140.422 155.983L124.142 139.702C115.853 145.188 105.933 148.391 95.2724 148.391C84.5001 148.391 74.4766 145.122 66.1435 139.524L49.9147 155.753L35.2798 141.118L51.5531 124.838C46.0669 116.549 42.8641 106.629 42.8641 95.9682C42.8641 85.1959 46.1336 75.1724 51.731 66.8393L35.5022 50.6105L50.1371 35.9756L66.4178 52.2489C74.7065 46.7627 84.6261 43.5599 95.2872 43.5599C106.059 43.5599 116.083 46.8294 124.416 52.4268L140.645 36.198L155.28 50.8329L139.006 67.1062ZM95.2872 64.2593C77.798 64.2593 63.5709 78.4864 63.5709 95.9756C63.5709 113.465 77.798 127.692 95.2872 127.692C112.776 127.692 127.003 113.465 127.003 95.9756C127.003 78.4864 112.776 64.2593 95.2872 64.2593ZM84.0273 103.606C82.3892 103.606 81.1269 104.895 81.1269 106.722C81.1269 108.252 82.04 109.891 83.7319 111.448C86.1489 113.731 90.3652 115.047 95.1186 115.047C103.874 115.047 109.433 110.616 109.433 103.633C109.433 98.2353 106.264 94.9857 99.5498 93.455L94.0444 92.1391C90.6338 91.3603 88.9687 89.7489 88.9687 87.4662C88.9687 84.6195 91.4126 82.7934 95.2261 82.7934C98.395 82.7934 100.866 84.163 102.504 86.6068C103.363 87.6811 104.33 88.1645 105.458 88.1645C107.204 88.1645 108.385 87.0097 108.385 85.3178C108.385 83.6259 107.499 81.9071 105.834 80.4032C103.417 78.1742 99.4961 76.912 95.1186 76.912C86.9546 76.912 81.6372 81.2895 81.6372 88.0302C81.6372 93.3476 84.7793 96.7045 91.0903 98.1547L96.5688 99.4975C100.543 100.437 102.262 101.968 102.262 104.439C102.262 107.42 99.8184 109.139 95.5215 109.139C92.3257 109.139 89.5864 107.903 87.5186 105.513C86.2295 104.117 85.2358 103.606 84.0273 103.606Z" fill="#F6F8F9"/>
    <defs>
        <linearGradient id="paint0_linear_2995_46512" x1="96" y1="0" x2="96" y2="192" gradientUnits="userSpaceOnUse">
            <stop/>
            <stop offset="1" stop-color="#0A0A0A"/>
        </linearGradient>
    </defs>
</svg>
