<svg width="193" height="193" viewBox="0 0 193 193" fill="none" xmlns="http://www.w3.org/2000/svg" data-reactroot=""><path fill-rule="evenodd" clip-rule="evenodd" d="M193 96.5C193 43.2046 149.795 0 96.5 0C43.2046 0 0 43.2046 0 96.5C0 149.795 43.2046 193 96.5 193C149.795 193 193 149.795 193 96.5Z" fill="url(#snx_icon_737523e1-660b-45fa-96a3-40ad1619a507)"></path><path fill-rule="evenodd" clip-rule="evenodd" d="M101.351 93.3503C102.59 93.3821 103.768 93.8967 104.634 94.7845C105.499 95.6723 105.983 96.8631 105.983 98.1029C105.983 99.3427 105.499 100.533 104.634 101.421C103.768 102.309 102.59 102.824 101.351 102.855H89.0605C83.3675 102.787 77.9309 100.478 73.9293 96.4277C69.9277 92.3778 67.6836 86.9139 67.6836 81.2204C67.6836 75.527 69.9277 70.0631 73.9293 66.0132C77.9309 61.9632 83.3675 59.6538 89.0605 59.5854H120.754C121.993 59.6172 123.171 60.1318 124.036 61.0196C124.902 61.9075 125.386 63.0982 125.386 64.338C125.386 65.5778 124.902 66.7686 124.036 67.6564C123.171 68.5442 121.993 69.0589 120.754 69.0906H89.0605C85.8435 69.0906 82.7582 70.3685 80.4834 72.6433C78.2086 74.9181 76.9307 78.0034 76.9307 81.2204C76.9307 84.4375 78.2086 87.5228 80.4834 89.7976C82.7582 92.0724 85.8435 93.3503 89.0605 93.3503H101.351Z" fill="white"></path><path fill-rule="evenodd" clip-rule="evenodd" d="M91.6492 102.855C90.4098 102.824 89.2318 102.309 88.3665 101.421C87.5011 100.533 87.0168 99.3427 87.0168 98.1029C87.0168 96.8631 87.5011 95.6724 88.3665 94.7845C89.2318 93.8967 90.4098 93.3821 91.6492 93.3503H103.94C109.633 93.4187 115.069 95.7281 119.071 99.7781C123.072 103.828 125.316 109.292 125.316 114.985C125.316 120.679 123.072 126.143 119.071 130.193C115.069 134.243 109.633 136.552 103.94 136.62H72.2433C71.0039 136.589 69.8259 136.074 68.9605 135.186C68.0952 134.298 67.6108 133.108 67.6108 131.868C67.6108 130.628 68.0952 129.437 68.9605 128.549C69.8259 127.662 71.0039 127.147 72.2433 127.115H103.94C107.157 127.115 110.242 125.837 112.517 123.562C114.791 121.288 116.069 118.202 116.069 114.985C116.069 111.768 114.791 108.683 112.517 106.408C110.242 104.133 107.157 102.855 103.94 102.855H91.6492Z" fill="white"></path><defs><linearGradient id="snx_icon_737523e1-660b-45fa-96a3-40ad1619a507" x1="96.5" y1="0" x2="96.5" y2="193" gradientUnits="userSpaceOnUse"><stop stop-color="#1E1A31"></stop><stop offset="1" stop-color="#141027"></stop></linearGradient></defs></svg>