<svg width="193" height="193" viewBox="0 0 193 193" fill="none" xmlns="http://www.w3.org/2000/svg" data-reactroot=""><circle cx="96.5" cy="96.5" r="96.5" fill="url(#spank_icon_9578ca76-113d-43f5-b324-0655d5813a6e)"></circle><path fill-rule="evenodd" clip-rule="evenodd" d="M65.3191 122.039V122.633H59.2067V111.423L59.0171 112.043L53.1718 110.256L56.4739 99.4552L56.0674 100.058L51 96.64L57.3319 87.2524L56.7281 87.7415L52.8814 82.9913L61.9935 75.6123L60.8291 76.0594L58.6386 70.3529L69.5222 66.1751L68.2503 66.264L67.8239 60.1665L79.2188 59.3697L78.19 59.1322L79.565 53.1764L90.45 55.6894L89.7641 55.2935L92.8203 50L102.314 55.4812L101.944 55.085L106.415 50.9163L113.808 58.8443L113.65 58.5211L119.144 55.8417L123.887 65.5656L123.844 65.2935L129.881 64.3373L131.66 75.5678L131.786 74.7683L137.823 75.7246L136.018 87.1232L136.464 86.2078L141.958 88.8875L136.871 99.3167L137.615 98.5196L142.085 102.688L134.182 111.163L135.139 110.611L138.195 115.904L128.261 121.64L129.261 121.409L130.635 127.365L119.659 129.899L120.505 129.958L120.078 136.055L109.091 135.287L109.65 135.502L107.46 141.209L96.9423 137.171L97.6068 137.709L93.7602 142.46L85.079 135.43L85.5076 136.065L80.4401 139.483L74.2346 130.283L74.4192 130.886L68.5707 132.674L65.3191 122.039ZM65.3191 114.776L69.1368 113.609L72.1038 123.313L75.4048 121.087L81.0464 129.451L83.5662 126.34L91.3849 132.671L92.7834 129.028L102.205 132.644L102.482 128.698L112.564 129.403L111.657 125.473L121.54 123.191L119.493 119.644L128.315 114.551L125.293 111.733L132.262 104.26L128.544 102.446L133.026 93.2571L128.96 92.613L130.558 82.5224L126.67 83.138L125.072 73.0516L121.57 74.7596L117.121 65.6365L114.266 68.2983L107.381 60.9146L105.411 64.327L96.6946 59.2948L95.7939 63.1964L85.9885 60.9326L86.2731 65.0037L76.2079 65.7076L77.6962 69.5847L68.2189 73.2226L70.7688 76.3716L62.8122 82.8147L66.1704 85.0797L60.4342 93.5839L64.2994 94.7657L61.3031 104.566H65.3191V114.776Z" fill="white"></path><path d="M95.3454 102.411C95.3454 100.892 94.8091 99.7291 93.7361 98.9245C92.6633 98.1021 90.7321 97.2438 87.9427 96.3496C85.1532 95.4378 82.9449 94.5437 81.3177 93.6675C76.8832 91.2714 74.666 88.0439 74.666 83.9849C74.666 81.8749 75.256 79.9974 76.4362 78.3524C77.6342 76.6894 79.3419 75.393 81.5591 74.4632C83.7942 73.5334 86.2976 73.0685 89.0692 73.0685C91.8586 73.0685 94.3442 73.5781 96.5256 74.5973C98.7071 75.5987 100.397 77.0202 101.595 78.862C102.811 80.7037 103.419 82.7958 103.419 85.1382H95.3723C95.3723 83.3501 94.8091 81.9643 93.6825 80.9809C92.556 79.9795 90.9735 79.4789 88.9351 79.4789C86.9682 79.4789 85.4393 79.8991 84.3486 80.7395C83.2578 81.562 82.7125 82.6528 82.7125 84.0118C82.7125 85.2813 83.3472 86.3452 84.6168 87.2035C85.9042 88.0617 87.7907 88.8663 90.2762 89.6174C94.8538 90.9943 98.1884 92.7019 100.281 94.7403C102.373 96.7789 103.419 99.318 103.419 102.358C103.419 105.737 102.14 108.393 99.5832 110.324C97.0263 112.237 93.5842 113.194 89.2569 113.194C86.2529 113.194 83.5171 112.648 81.0495 111.558C78.5819 110.449 76.6955 108.938 75.3901 107.025C74.1027 105.111 73.459 102.894 73.459 100.373H81.5323C81.5323 104.682 84.1072 106.837 89.2569 106.837C91.1702 106.837 92.6633 106.452 93.7361 105.684C94.8091 104.897 95.3454 103.806 95.3454 102.411Z" fill="white"></path><path fill-rule="evenodd" clip-rule="evenodd" d="M119.895 78.4637L112.153 106.763L105.762 106.316L110.583 77.1376L119.895 78.4637ZM113.144 109.715L111.131 119.714L102.631 117.238L104.579 107.645L113.144 109.715Z" fill="white"></path><defs><linearGradient id="spank_icon_9578ca76-113d-43f5-b324-0655d5813a6e" x1="96.5" y1="0" x2="96.5" y2="193" gradientUnits="userSpaceOnUse"><stop stop-color="#FC4082"></stop><stop offset="1" stop-color="#A92855"></stop></linearGradient></defs></svg>