<svg width="193" height="193" viewBox="0 0 193 193" fill="none" xmlns="http://www.w3.org/2000/svg" data-reactroot=""><circle opacity="0.9" cx="96.5" cy="96.5" r="96.5" fill="url(#spell_icon_515e53ee-5c8d-45c5-948c-ee4d672af530)"></circle><path fill-rule="evenodd" clip-rule="evenodd" d="M57 70.5088V84.0175H58.9298H60.8596V86.8246C60.8596 89.3975 60.9182 89.6316 61.5614 89.6316C62.0291 89.6316 62.2632 89.8656 62.2632 90.3333C62.2632 90.7232 62.4972 91.0351 62.7895 91.0351C63.1572 91.0351 63.3158 90.6646 63.3158 89.807C63.3158 88.9495 63.4744 88.5789 63.8421 88.5789C64.193 88.5789 64.3684 88.2281 64.3684 87.5263C64.3684 86.8246 64.193 86.4737 63.8421 86.4737C63.5526 86.4737 63.3158 86.2368 63.3158 85.9474C63.3158 85.6579 63.5526 85.4211 63.8421 85.4211C64.1344 85.4211 64.3684 85.1091 64.3684 84.7193C64.3684 84.2046 64.6025 84.0175 65.2456 84.0175C66.0512 84.0175 66.1228 84.1463 66.1228 85.5965V87.1754L68.1404 87.2386C69.2502 87.2733 70.6575 87.2681 71.2684 87.227C72.2274 87.1628 72.3533 87.2498 72.1923 87.8656C72.0898 88.2579 71.7874 88.5789 71.5204 88.5789C71.1996 88.5789 71.0351 88.9954 71.0351 89.807C71.0351 90.6646 71.1937 91.0351 71.5614 91.0351C71.9972 91.0351 72.0877 91.6979 72.0877 94.8947V98.7544H71.0351C70.2165 98.7544 69.9825 98.5986 69.9825 98.0526C69.9825 97.6628 69.7484 97.3509 69.4561 97.3509C69.1639 97.3509 68.9298 97.6628 68.9298 98.0526C68.9298 98.4425 69.1639 98.7544 69.4561 98.7544C69.846 98.7544 69.9825 99.1639 69.9825 100.333C69.9825 101.503 70.1189 101.912 70.5088 101.912C70.7982 101.912 71.0351 102.149 71.0351 102.439C71.0351 102.789 71.386 102.965 72.0877 102.965C72.7895 102.965 73.1404 103.14 73.1404 103.491C73.1404 103.781 73.3772 104.018 73.6667 104.018C74.0565 104.018 74.193 103.608 74.193 102.439C74.193 101.269 74.0565 100.86 73.6667 100.86C73.3158 100.86 73.1404 100.509 73.1404 99.807C73.1404 99.1053 73.3158 98.7544 73.6667 98.7544C73.9561 98.7544 74.193 98.9912 74.193 99.2807C74.193 99.6484 74.5635 99.807 75.4211 99.807C76.2786 99.807 76.6491 99.9656 76.6491 100.333C76.6491 100.623 76.886 100.86 77.1754 100.86C77.4649 100.86 77.7018 100.623 77.7018 100.333C77.7018 100.044 77.9386 99.807 78.2281 99.807C78.5175 99.807 78.7544 100.044 78.7544 100.333C78.7544 100.623 78.9912 100.86 79.2807 100.86C79.5702 100.86 79.807 101.096 79.807 101.386C79.807 101.675 80.0439 101.912 80.3333 101.912C80.6228 101.912 80.8596 102.149 80.8596 102.439C80.8596 102.728 80.6228 102.965 80.3333 102.965C80.0439 102.965 79.807 103.202 79.807 103.491C79.807 103.781 80.0439 104.018 80.3333 104.018C80.7011 104.018 80.8596 104.388 80.8596 105.246C80.8596 106.376 80.9432 106.474 81.9123 106.474C82.614 106.474 82.9649 106.649 82.9649 107C82.9649 107.368 83.3354 107.526 84.193 107.526C85.0505 107.526 85.4211 107.685 85.4211 108.053C85.4211 108.442 85.8305 108.579 87 108.579C88.1695 108.579 88.5789 108.442 88.5789 108.053C88.5789 107.763 88.8158 107.526 89.1053 107.526C89.3947 107.526 89.6316 107.763 89.6316 108.053C89.6316 108.342 89.3947 108.579 89.1053 108.579C88.8158 108.579 88.5789 108.816 88.5789 109.105C88.5789 109.473 88.9495 109.632 89.807 109.632C90.9375 109.632 91.0351 109.715 91.0351 110.684V111.737H93.6667C95.7719 111.737 96.2982 111.632 96.2982 111.211C96.2982 110.921 96.5351 110.684 96.8246 110.684C97.1754 110.684 97.3509 110.333 97.3509 109.632C97.3509 108.813 97.5067 108.579 98.0526 108.579C98.4425 108.579 98.7544 108.345 98.7544 108.053C98.7544 107.76 98.4425 107.526 98.0526 107.526C97.6628 107.526 97.3509 107.292 97.3509 107C97.3509 106.711 97.114 106.474 96.8246 106.474C96.5323 106.474 96.2982 106.162 96.2982 105.772C96.2982 105.187 96.5323 105.07 97.7018 105.07H99.1053V106.474V107.877H100.684H102.263V109.456V111.035H103.667H105.07V112.614V114.193H106.649H108.228V115.596V117H109.807H111.386V118.579V120.158H112.789H114.193V121.737V123.316H115.772H117.351V124.719V126.123H118.93H120.509V127.702V129.281H121.912H123.316V130.86V132.439H124.895H126.474V133.842V135.246H128.053C129.503 135.246 129.632 135.317 129.632 136.123V137H133.316H137V132.614V128.228H135.421H133.842V126.649V125.07H132.439H131.035V123.491V121.912H129.456H127.877V120.509V119.105H126.298H124.719V117.526V115.947H123.316H121.912V114.368V112.789H120.333H118.754V111.386V109.982H117.175H115.596V108.404V106.825H114.193H112.789V105.246V103.667H111.211H109.632V101.211C109.632 99.2611 109.523 98.7544 109.105 98.7544C108.816 98.7544 108.579 98.9912 108.579 99.2807C108.579 99.6316 108.228 99.807 107.526 99.807C106.591 99.807 106.474 99.6902 106.474 98.7544C106.474 97.7604 106.396 97.7018 105.07 97.7018C103.617 97.7018 103.489 97.5218 103.888 96.0351C104.123 95.1568 105.07 94.946 105.07 95.7719C105.07 96.1396 105.441 96.2982 106.298 96.2982C107.156 96.2982 107.526 96.1396 107.526 95.7719C107.526 95.4825 107.763 95.2456 108.053 95.2456C108.342 95.2456 108.579 95.0088 108.579 94.7193C108.579 94.4298 108.816 94.193 109.105 94.193C109.456 94.193 109.632 93.8421 109.632 93.1404C109.632 92.4386 109.807 92.0877 110.158 92.0877C110.447 92.0877 110.684 91.8509 110.684 91.5614C110.684 91.2719 110.447 91.0351 110.158 91.0351C109.76 91.0351 109.632 90.6063 109.632 89.2807V87.5263H111.386C113.101 87.5263 113.14 87.5028 113.14 86.4737C113.14 85.6551 112.985 85.4211 112.439 85.4211C112.049 85.4211 111.737 85.187 111.737 84.8947C111.737 84.6053 111.5 84.3684 111.211 84.3684C110.843 84.3684 110.684 83.9979 110.684 83.1404C110.684 82.2828 110.526 81.9123 110.158 81.9123C109.744 81.9123 109.632 82.3996 109.632 84.193V86.4737H108.579C107.877 86.4737 107.526 86.6491 107.526 87C107.526 87.2895 107.289 87.5263 107 87.5263C106.711 87.5263 106.474 87.2895 106.474 87C106.474 86.7077 106.162 86.4737 105.772 86.4737C105.382 86.4737 105.07 86.2397 105.07 85.9474C105.07 85.6579 104.833 85.4211 104.544 85.4211C104.193 85.4211 104.018 85.0702 104.018 84.3684C104.018 83.3993 104.115 83.3158 105.246 83.3158C106.103 83.3158 106.474 83.4744 106.474 83.8421C106.474 84.1316 106.711 84.3684 107 84.3684C107.44 84.3684 107.526 83.647 107.526 79.9825V75.5965H106.298C105.304 75.5965 105.07 75.4628 105.07 74.8947C105.07 74.5049 104.836 74.193 104.544 74.193C104.254 74.193 104.018 73.9561 104.018 73.6667C104.018 73.3772 103.781 73.1404 103.491 73.1404C103.202 73.1404 102.965 72.9035 102.965 72.614C102.965 72.3246 102.728 72.0877 102.439 72.0877C102.088 72.0877 101.912 71.7368 101.912 71.0351C101.912 70.3333 101.737 69.9825 101.386 69.9825C101.096 69.9825 100.86 69.7456 100.86 69.4561C100.86 69.0586 100.431 68.9298 99.1053 68.9298C97.7797 68.9298 97.3509 68.8011 97.3509 68.4035C97.3509 67.9639 96.6295 67.8772 92.9649 67.8772C88.813 67.8772 88.5789 67.8396 88.5789 67.1754C88.5789 66.5905 88.3449 66.4737 87.1754 66.4737C85.9123 66.4737 85.7719 66.386 85.7719 65.5965C85.7719 64.807 85.6316 64.7193 84.3684 64.7193C83.1989 64.7193 82.9649 64.6025 82.9649 64.0175C82.9649 63.4495 83.1989 63.3158 84.193 63.3158C85.0505 63.3158 85.4211 63.1572 85.4211 62.7895C85.4211 62.5 85.6579 62.2632 85.9474 62.2632C86.2368 62.2632 86.4737 62.0263 86.4737 61.7368C86.4737 61.386 86.1228 61.2105 85.4211 61.2105C84.7193 61.2105 84.3684 61.0351 84.3684 60.6842C84.3684 60.3568 84.0372 60.1579 83.4912 60.1579C82.6856 60.1579 82.614 60.0291 82.614 58.5789V57H69.807H57V70.5088ZM94.193 61.7368C94.193 62.1267 93.7835 62.2632 92.614 62.2632C91.4446 62.2632 91.0351 62.3996 91.0351 62.7895C91.0351 63.1404 91.386 63.3158 92.0877 63.3158C92.7895 63.3158 93.1404 63.4912 93.1404 63.8421C93.1404 64.2516 93.6081 64.3684 95.2456 64.3684C96.8832 64.3684 97.3509 64.2516 97.3509 63.8421C97.3509 63.5526 97.114 63.3158 96.8246 63.3158C96.5351 63.3158 96.2982 63.0789 96.2982 62.7895C96.2982 62.5 96.0614 62.2632 95.7719 62.2632C95.4825 62.2632 95.2456 62.0263 95.2456 61.7368C95.2456 61.4474 95.0088 61.2105 94.7193 61.2105C94.4298 61.2105 94.193 61.4474 94.193 61.7368ZM109.632 68.9298C109.632 69.8656 109.748 69.9825 110.684 69.9825C111.386 69.9825 111.737 69.807 111.737 69.4561C111.737 69.1667 111.5 68.9298 111.211 68.9298C110.921 68.9298 110.684 68.693 110.684 68.4035C110.684 68.114 110.447 67.8772 110.158 67.8772C109.807 67.8772 109.632 68.2281 109.632 68.9298ZM87.5263 70.5088C87.5263 70.8596 87.8772 71.0351 88.5789 71.0351C89.2807 71.0351 89.6316 70.8596 89.6316 70.5088C89.6316 70.1411 90.0021 69.9825 90.8596 69.9825C91.7172 69.9825 92.0877 70.1411 92.0877 70.5088C92.0877 70.7982 92.3246 71.0351 92.614 71.0351C92.9035 71.0351 93.1404 71.2719 93.1404 71.5614C93.1404 71.9923 92.5361 72.0877 89.807 72.0877C87.0779 72.0877 86.4737 72.1832 86.4737 72.614C86.4737 72.9035 86.3158 73.1404 86.1228 73.1404C85.9298 73.1404 85.7719 72.6667 85.7719 72.0877C85.7719 71.5088 85.9298 71.0351 86.1228 71.0351C86.3158 71.0351 86.4737 70.7982 86.4737 70.5088C86.4737 70.2193 86.7105 69.9825 87 69.9825C87.2895 69.9825 87.5263 70.2193 87.5263 70.5088ZM98.7544 74.8947C98.7544 75.3625 98.5204 75.5965 98.0526 75.5965C97.5849 75.5965 97.3509 75.3625 97.3509 74.8947C97.3509 74.427 97.5849 74.193 98.0526 74.193C98.5204 74.193 98.7544 74.427 98.7544 74.8947ZM91.0351 77.1754C91.0351 77.5653 91.4446 77.7018 92.614 77.7018C93.7835 77.7018 94.193 77.8382 94.193 78.2281C94.193 78.5175 94.4298 78.7544 94.7193 78.7544C95.0088 78.7544 95.2456 78.9912 95.2456 79.2807C95.2456 79.5702 95.4825 79.807 95.7719 79.807C96.0614 79.807 96.2982 80.0439 96.2982 80.3333C96.2982 80.7011 96.6688 80.8596 97.5263 80.8596C98.6958 80.8596 98.7544 80.9182 98.7544 82.0877C98.7544 82.9453 98.913 83.3158 99.2807 83.3158C99.5702 83.3158 99.807 83.5526 99.807 83.8421C99.807 84.1316 100.044 84.3684 100.333 84.3684C100.623 84.3684 100.86 84.6053 100.86 84.8947C100.86 85.1842 100.623 85.4211 100.333 85.4211C99.9239 85.4211 99.807 85.8888 99.807 87.5263C99.807 89.1639 99.6902 89.6316 99.2807 89.6316C98.9884 89.6316 98.7544 89.9435 98.7544 90.3333C98.7544 90.7232 98.9884 91.0351 99.2807 91.0351C99.5702 91.0351 99.807 91.2719 99.807 91.5614C99.807 91.9123 99.4561 92.0877 98.7544 92.0877C97.7407 92.0877 97.7018 92.0291 97.7018 90.5088V88.9298H96.2982H94.8947V87.5263V86.1228H93.3158H91.7368V84.5439V82.9649H90.3333H88.9298V80.3333C88.9298 78.813 89.0779 77.7018 89.2807 77.7018C89.4737 77.7018 89.6316 77.4649 89.6316 77.1754C89.6316 76.8832 89.9435 76.6491 90.3333 76.6491C90.7232 76.6491 91.0351 76.8832 91.0351 77.1754ZM100.86 77.1754C100.86 77.4649 100.623 77.7018 100.333 77.7018C100.044 77.7018 99.807 77.4649 99.807 77.1754C99.807 76.886 100.044 76.6491 100.333 76.6491C100.623 76.6491 100.86 76.886 100.86 77.1754ZM99.807 79.2807C99.807 79.5702 99.5702 79.807 99.2807 79.807C98.9912 79.807 98.7544 79.5702 98.7544 79.2807C98.7544 78.9912 98.9912 78.7544 99.2807 78.7544C99.5702 78.7544 99.807 78.9912 99.807 79.2807ZM84.3684 88.9298V90.3333H85.9474H87.5263V91.9123V93.4912H88.9298H90.3333V94.8947C90.3333 96.2947 90.3368 96.2982 91.7158 96.2982C93.0597 96.2982 93.1011 96.3347 93.207 97.614C93.3014 98.7565 93.4428 98.9446 94.2807 99.0407C95.5832 99.1909 95.5126 99.807 94.193 99.807C93.4912 99.807 93.1404 99.9825 93.1404 100.333C93.1404 100.684 92.7895 100.86 92.0877 100.86C91.386 100.86 91.0351 101.035 91.0351 101.386C91.0351 101.784 90.6063 101.912 89.2807 101.912C87.9551 101.912 87.5263 102.041 87.5263 102.439C87.5263 102.728 87.2895 102.965 87 102.965C86.7105 102.965 86.4737 102.728 86.4737 102.439C86.4737 102.041 86.0449 101.912 84.7193 101.912C83.3937 101.912 82.9649 101.784 82.9649 101.386C82.9649 101.096 82.7281 100.86 82.4386 100.86C82.1491 100.86 81.9123 100.623 81.9123 100.333C81.9123 100.044 81.6754 99.807 81.386 99.807C81.0965 99.807 80.8596 99.5702 80.8596 99.2807C80.8596 98.9912 80.6228 98.7544 80.3333 98.7544C80.0411 98.7544 79.807 98.4425 79.807 98.0526C79.807 97.6628 79.573 97.3509 79.2807 97.3509C78.9298 97.3509 78.7544 97 78.7544 96.2982C78.7544 95.5965 78.5789 95.2456 78.2281 95.2456C77.8772 95.2456 77.7018 94.8947 77.7018 94.193C77.7018 93.4912 77.5263 93.1404 77.1754 93.1404C76.7779 93.1404 76.6491 92.7116 76.6491 91.386C76.6491 90.0603 76.7779 89.6316 77.1754 89.6316C77.4649 89.6316 77.7018 89.3947 77.7018 89.1053C77.7018 88.8158 77.4649 88.5789 77.1754 88.5789C76.886 88.5789 76.6491 88.8158 76.6491 89.1053C76.6491 89.3975 76.3372 89.6316 75.9474 89.6316C75.5575 89.6316 75.2456 89.3975 75.2456 89.1053C75.2456 88.813 75.5575 88.5789 75.9474 88.5789C76.3372 88.5789 76.6491 88.3449 76.6491 88.0526C76.6491 87.6168 77.3119 87.5263 80.5088 87.5263H84.3684V88.9298ZM102.965 88.0526C102.965 88.3421 102.728 88.5789 102.439 88.5789C102.149 88.5789 101.912 88.3421 101.912 88.0526C101.912 87.7632 102.149 87.5263 102.439 87.5263C102.728 87.5263 102.965 87.7632 102.965 88.0526ZM101.912 90.8596C101.912 91.7172 102.071 92.0877 102.439 92.0877C102.789 92.0877 102.965 92.4386 102.965 93.1404C102.965 94.1158 102.872 94.193 101.696 94.193C100.551 94.193 100.448 94.1158 100.639 93.4035C100.755 92.9695 100.852 91.9432 100.855 91.1228C100.858 90.0333 101.001 89.6316 101.386 89.6316C101.754 89.6316 101.912 90.0021 101.912 90.8596ZM118.404 94.7193C118.404 95.0088 118.167 95.2456 117.877 95.2456C117.48 95.2456 117.351 95.6744 117.351 97C117.351 98.3256 117.48 98.7544 117.877 98.7544C118.169 98.7544 118.404 98.4425 118.404 98.0526C118.404 97.6628 118.638 97.3509 118.93 97.3509C119.32 97.3509 119.456 96.9414 119.456 95.7719C119.456 94.6025 119.32 94.193 118.93 94.193C118.64 94.193 118.404 94.4298 118.404 94.7193ZM65.4211 101.912C65.4211 102.614 65.5965 102.965 65.9474 102.965C66.2368 102.965 66.4737 103.202 66.4737 103.491C66.4737 103.781 66.7105 104.018 67 104.018C67.3509 104.018 67.5263 103.667 67.5263 102.965C67.5263 102.263 67.3509 101.912 67 101.912C66.7105 101.912 66.4737 101.675 66.4737 101.386C66.4737 101.096 66.2368 100.86 65.9474 100.86C65.5965 100.86 65.4211 101.211 65.4211 101.912ZM68.9298 107.526C68.9298 108.462 69.0467 108.579 69.9825 108.579C70.9182 108.579 71.0351 108.462 71.0351 107.526C71.0351 106.591 70.9182 106.474 69.9825 106.474C69.0467 106.474 68.9298 106.591 68.9298 107.526Z" fill="white"></path><defs><linearGradient id="spell_icon_515e53ee-5c8d-45c5-948c-ee4d672af530" x1="96.5" y1="0" x2="96.5" y2="193" gradientUnits="userSpaceOnUse"><stop stop-color="#A39DE4"></stop><stop offset="1" stop-color="#605B92"></stop></linearGradient></defs></svg>