<svg width="192" height="193" viewBox="0 0 192 193" fill="none" xmlns="http://www.w3.org/2000/svg">
    <path d="M0 96.5C0 43.4807 42.9807 0.5 96 0.5C149.019 0.5 192 43.4807 192 96.5C192 149.519 149.019 192.5 96 192.5C42.9807 192.5 0 149.519 0 96.5Z" fill="url(#paint0_linear_1443_31939)"/>
    <path d="M112.172 103.999L154.556 104C156.208 104 156.541 101.749 155.038 101.062L111 81.4998V38.0411C111 36.4308 108.848 35.9024 108.105 37.3309L90.2414 71.7274L70.4466 62.6355C68.5529 61.8707 67.3898 63.4127 68.0326 64.738L79.8282 89H37.4445C35.7917 89 35.4586 91.2533 36.9617 91.9407L81 111.499V154.959C81 156.569 83.1567 157.097 83.8999 155.669L101.764 121.272L121.558 130.364C123.452 131.129 124.615 129.587 123.973 128.262L112.172 103.999Z" fill="#F9FAFB"/>
    <defs>
        <linearGradient id="paint0_linear_1443_31939" x1="96.0009" y1="-17.5017" x2="96.0009" y2="185.397" gradientUnits="userSpaceOnUse">
            <stop stop-color="#F2B72D"/>
            <stop offset="1" stop-color="#FA43BD"/>
        </linearGradient>
    </defs>
</svg>
