<svg width="16" height="16" viewBox="0 0 24 24" fill="none" xmlns="http://www.w3.org/2000/svg">
    <path
        d="M15.2344 13.4999L23.7112 13.5C24.0417 13.5 24.1083 13.0499 23.8077 12.9124L15 8.99996V0.308215C15 -0.0138449 14.5696 -0.119523 14.421 0.166187L10.8483 7.04548L6.88932 5.22711C6.51058 5.07414 6.27796 5.38253 6.40652 5.64761L8.76564 10.5H0.288897C-0.0416594 10.5 -0.108278 10.9507 0.192336 11.0881L9.00001 14.9999V23.6917C9.00001 24.0139 9.43135 24.1195 9.57997 23.8339L13.1528 16.9545L17.1116 18.7729C17.4904 18.9259 17.723 18.6175 17.5945 18.3524L15.2344 13.4999Z"
        fill="url(#paint0_linear_2089_33311)" />
    <defs>
        <linearGradient id="paint0_linear_2089_33311" x1="19.3435" y1="6.36803" x2="3.86843"
            y2="18.2372" gradientUnits="userSpaceOnUse">
            <stop stopColor="#FA43BD" />
            <stop offset="1" stopColor="#FFA930" />
        </linearGradient>
    </defs>
</svg>
