<svg width="192" height="192" viewBox="0 0 192 192" fill="none" xmlns="http://www.w3.org/2000/svg">
<path d="M0 96C0 42.9807 42.9807 0 96 0C149.019 0 192 42.9807 192 96C192 149.019 149.019 192 96 192C42.9807 192 0 149.019 0 96Z" fill="url(#paint0_linear_2991_2243)"/>
<path fill-rule="evenodd" clip-rule="evenodd" d="M41 97.0549C40.992 66.1008 65.6215 41 96 41C126.376 41 151.005 66.1008 151 97.0549H136.949C136.949 73.8572 118.761 55.0494 96 55.0494C73.2393 55.0494 55.0508 73.8572 55.0508 97.0549H41ZM81.396 98.3745C87.5749 98.3745 92.5841 93.3649 92.5841 87.1851C92.5841 81.0056 87.5749 75.996 81.396 75.996C75.2169 75.996 70.2077 81.0056 70.2077 87.1851C70.2077 93.3649 75.2169 98.3745 81.396 98.3745ZM110.639 98.3745C116.818 98.3745 121.827 93.3649 121.827 87.1851C121.827 81.0056 116.818 75.996 110.639 75.996C104.46 75.996 99.4509 81.0056 99.4509 87.1851C99.4509 93.3649 104.46 98.3745 110.639 98.3745Z" fill="white"/>
<defs>
<linearGradient id="paint0_linear_2991_2243" x1="96" y1="0" x2="96" y2="192" gradientUnits="userSpaceOnUse">
<stop stop-color="#FFB800"/>
<stop offset="1" stop-color="#CC9300"/>
</linearGradient>
</defs>
</svg>
