<svg width="193" height="193" viewBox="0 0 193 193" fill="none" xmlns="http://www.w3.org/2000/svg" data-reactroot=""><circle cx="96.5" cy="96.5" r="96.5" fill="url(#stkaave_icon_73c9f138-3343-4fe1-90c1-e521cb9eb038_1)"></circle><path d="M190.56 44.5C190.56 67.7291 171.729 86.56 148.5 86.56C125.271 86.56 106.44 67.7291 106.44 44.5C106.44 21.2709 125.271 2.44 148.5 2.44C171.729 2.44 190.56 21.2709 190.56 44.5Z" fill="url(#stkaave_icon_e19ba81d-cb87-4d2e-9651-346a86a828ae_2)" stroke="white" stroke-width="4.88"></path><path d="M148.133 69.7403C144.66 69.7403 141.292 69.28 138.029 68.3596C134.808 67.3974 132.214 66.1631 130.247 64.657L133.699 57.0007C135.582 58.3813 137.82 59.49 140.414 60.3268C143.008 61.1635 145.602 61.5819 148.196 61.5819C151.082 61.5819 153.216 61.1635 154.597 60.3268C155.977 59.4482 156.668 58.2977 156.668 56.8752C156.668 55.8293 156.249 54.9716 155.413 54.3022C154.618 53.5909 153.572 53.0261 152.275 52.6078C151.02 52.1894 149.304 51.7292 147.129 51.2271C143.782 50.4322 141.041 49.6373 138.908 48.8424C136.774 48.0475 134.933 46.7714 133.385 45.0142C131.879 43.2571 131.126 40.9141 131.126 37.9855C131.126 35.4334 131.816 33.1324 133.197 31.0823C134.577 28.9904 136.648 27.3378 139.41 26.1246C142.213 24.9113 145.623 24.3046 149.639 24.3046C152.442 24.3046 155.182 24.6393 157.86 25.3087C160.538 25.9781 162.881 26.9404 164.889 28.1955L161.751 35.9146C157.693 33.6135 153.634 32.4629 149.576 32.4629C146.731 32.4629 144.618 32.9232 143.238 33.8436C141.899 34.764 141.23 35.9773 141.23 37.4835C141.23 38.9896 142.004 40.1192 143.552 40.8723C145.141 41.5835 147.547 42.2948 150.769 43.006C154.116 43.8009 156.856 44.5959 158.99 45.3908C161.123 46.1857 162.943 47.4408 164.449 49.1562C165.997 50.8715 166.771 53.1935 166.771 56.1221C166.771 58.6324 166.06 60.9334 164.638 63.0253C163.257 65.0754 161.165 66.707 158.362 67.9203C155.559 69.1336 152.149 69.7403 148.133 69.7403Z" fill="white"></path><path d="M140.09 129.327L108.581 52.874C108.04 51.1899 106.985 49.7176 105.564 48.664C104.143 47.6104 102.428 47.0285 100.659 47H97.8877C96.1242 47.0347 94.4155 47.6195 93.0005 48.6727C91.5856 49.7258 90.5349 51.1947 89.9954 52.874L76.2894 86.1903H65.8969C64.4026 86.206 62.9744 86.8087 61.9206 87.8682C60.8667 88.9277 60.2717 90.3591 60.2638 91.8534V91.9137C60.2717 93.408 60.8667 94.8394 61.9206 95.8989C62.9744 96.9584 64.4026 97.561 65.8969 97.5768H71.4697L58.3962 129.327C58.1472 130.023 58.0148 130.756 58.0046 131.496C57.9433 133.057 58.4946 134.582 59.5409 135.743C60.0821 136.297 60.7358 136.73 61.4581 137.01C62.1804 137.291 62.9544 137.413 63.728 137.37C64.8985 137.353 66.035 136.974 66.9813 136.285C67.9663 135.547 68.736 134.559 69.2104 133.423L83.6394 97.5768H93.6102C95.1097 97.5689 96.5456 96.9697 97.6059 95.9094C98.6663 94.849 99.2655 93.4132 99.2734 91.9137V91.763C99.2655 90.2635 98.6663 88.8277 97.6059 87.7673C96.5456 86.707 95.1097 86.1078 93.6102 86.0999H88.2784L99.2734 58.6275L129.246 133.423C129.72 134.559 130.49 135.547 131.475 136.285C132.421 136.974 133.558 137.353 134.728 137.37C135.507 137.418 136.287 137.297 137.015 137.017C137.742 136.736 138.401 136.301 138.946 135.743C139.981 134.577 140.521 133.053 140.452 131.496C140.49 130.755 140.366 130.015 140.09 129.327Z" fill="white"></path><defs><linearGradient id="stkaave_icon_73c9f138-3343-4fe1-90c1-e521cb9eb038_1" x1="96.5" y1="0" x2="96.5" y2="193" gradientUnits="userSpaceOnUse"><stop stop-color="#2E8997"></stop><stop offset="1" stop-color="#3B698E"></stop></linearGradient><linearGradient id="stkaave_icon_e19ba81d-cb87-4d2e-9651-346a86a828ae_2" x1="148.5" y1="0" x2="148.5" y2="89" gradientUnits="userSpaceOnUse"><stop stop-color="#2E8997"></stop><stop offset="1" stop-color="#3B698E"></stop></linearGradient></defs></svg>