<svg width="192" height="192" viewBox="0 0 192 192" fill="none" xmlns="http://www.w3.org/2000/svg">
<path d="M0 96C0 42.9807 42.9807 0 96 0C149.019 0 192 42.9807 192 96C192 149.019 149.019 192 96 192C42.9807 192 0 149.019 0 96Z" fill="url(#paint0_linear_2936_46850)"/>
<path fill-rule="evenodd" clip-rule="evenodd" d="M52.1654 96C52.1654 120.83 71.635 139.817 96 139.817V139.816C118.05 139.816 135.669 124.267 138.899 102.909H154.874V152.406H140.105V131.77C140.034 131.751 139.958 131.731 139.88 131.711C139.75 131.678 139.615 131.643 139.487 131.604C130.734 146.52 116.459 156 96 156C63.4824 156 37.1171 129.131 37.126 96C37.1171 62.8686 63.4824 36 96 36C125.427 36 150.511 58.0056 154.874 86.7435H138.899C134.751 66.5262 117.237 51.8253 96 51.8253C71.635 51.8253 52.1654 71.1699 52.1654 96ZM67.942 86.7422C67.942 93.6025 73.5027 99.1631 80.363 99.1631C87.2233 99.1631 92.7839 93.6025 92.7839 86.7422C92.7839 79.8819 87.2233 74.3212 80.363 74.3212C73.5027 74.3212 67.942 79.8819 67.942 86.7422ZM99.2469 86.7422C99.2469 93.6025 104.808 99.1631 111.668 99.1631C118.528 99.1631 124.089 93.6025 124.089 86.7422C124.089 79.8819 118.528 74.3212 111.668 74.3212C104.808 74.3212 99.2469 79.8819 99.2469 86.7422Z" fill="white"/>
<defs>
<linearGradient id="paint0_linear_2936_46850" x1="96" y1="0" x2="96" y2="192" gradientUnits="userSpaceOnUse">
<stop stop-color="#FFB800"/>
<stop offset="1" stop-color="#CC9300"/>
</linearGradient>
</defs>
</svg>
