<svg width="250" height="250" viewBox="0 0 2436 2436" fill="none" xmlns="http://www.w3.org/2000/svg">
    <path d="M1215.3 2431.63C1884.63 2431.63 2427.24 1889.02 2427.24 1219.69C2427.24 550.35 1884.63 7.74609 1215.3 7.74609C545.96 7.74609 3.35547 550.35 3.35547 1219.69C3.35547 1889.02 545.96 2431.63 1215.3 2431.63Z" fill="url(#paint0_radial_390_19461)"/>
    <path d="M751.701 1538.28H579.232C593.312 1807.53 818.576 2041.61 1218.06 2041.61C1615.8 2041.61 1869.23 1823.37 1869.23 1541.79C1869.23 1006.79 1061.44 1036.71 1061.44 726.969C1061.44 640.736 1126.56 538.662 1277.91 538.662C1446.85 538.662 1645.72 670.654 1659.8 839.602H1830.51C1812.91 566.819 1547.17 376.752 1209.27 376.752C859.054 376.752 595.071 580.898 595.071 869.52C595.071 1420.37 1402.86 1348.21 1402.86 1687.87C1402.86 1793.46 1337.74 1881.45 1174.07 1881.45C969.927 1881.45 764.019 1738.9 751.701 1538.28ZM896.012 767.446C896.012 1186.3 1696.76 1103.58 1696.76 1550.59C1696.76 1684.35 1608.77 1802.26 1503.17 1832.17C1540.13 1796.98 1568.29 1719.55 1568.29 1645.63C1568.29 1232.06 765.78 1288.37 765.78 864.24C765.78 721.69 857.294 607.297 971.687 572.1C927.69 624.896 896.012 693.531 896.012 767.446Z" fill="white"/>
    <defs>
        <radialGradient id="paint0_radial_390_19461" cx="0" cy="0" r="1" gradientUnits="userSpaceOnUse" gradientTransform="translate(1215.3 3782.95) rotate(-90) scale(3775.21)">
            <stop stop-color="#FDC079"/>
            <stop offset="1" stop-color="#EC63DA"/>
        </radialGradient>
    </defs>
</svg>
