<svg width="193" height="193" viewBox="0 0 193 193" fill="none" xmlns="http://www.w3.org/2000/svg" data-reactroot=""><path d="M96.5 193C149.795 193 193 149.795 193 96.5C193 43.2045 149.795 0 96.5 0C43.2045 0 0 43.2045 0 96.5C0 149.795 43.2045 193 96.5 193Z" fill="url(#susd_icon_5b0180a1-6a36-44a6-956e-68bc83d6ca3b)"></path><path fill-rule="evenodd" clip-rule="evenodd" d="M82.6359 90.1542C85.2189 90.1542 87.3161 92.3008 87.3161 94.9548C87.3161 97.6055 85.2189 99.7554 82.6327 99.7554H70.4801C58.7103 99.7554 49.1697 89.9721 49.1697 77.9055C49.1697 65.8389 58.7103 56.0588 70.4801 56.0588H101.823C104.409 56.0588 106.504 58.2055 106.504 60.8562C106.504 63.5069 104.409 65.6568 101.823 65.6568H70.4769C63.8795 65.6568 58.5302 71.1404 58.5302 77.9055C58.5302 84.6706 63.8795 90.1542 70.4769 90.1542H82.6294H82.6359Z" fill="white"></path><path fill-rule="evenodd" clip-rule="evenodd" d="M73.0406 99.7559C70.4544 99.7559 68.3571 97.606 68.3571 94.9553C68.3571 92.3045 70.4544 90.1547 73.0406 90.1547H85.1932C96.963 90.1547 106.504 99.938 106.504 112.005C106.504 124.071 96.963 133.851 85.1932 133.851H53.8468C51.2606 133.851 49.1665 131.705 49.1665 129.051C49.1665 126.4 51.2606 124.253 53.8468 124.253H85.19C91.7873 124.253 97.1367 118.77 97.1367 112.005C97.1367 105.239 91.7873 99.7559 85.19 99.7559H73.0374H73.0406Z" fill="white"></path><path fill-rule="evenodd" clip-rule="evenodd" d="M57.5523 131.913L49.9385 126.322L97.8121 57.8317L105.426 63.4259L57.5523 131.913Z" fill="white" fill-opacity="0.5"></path><path d="M114.047 124.643H129.226C131.343 124.643 132.938 124.233 134.01 123.414C135.081 122.594 135.618 121.3 135.618 119.537C135.618 117.771 135.081 116.473 134.01 115.64C132.938 114.808 131.343 114.391 129.226 114.391H114.047V108.797H128.927C132.665 108.797 135.518 109.711 137.484 111.539C139.455 113.367 140.443 116.031 140.443 119.537C140.443 123.04 139.455 125.7 137.484 127.515C135.521 129.327 132.668 130.237 128.93 130.237H114.047V124.643ZM131.694 100.074C132.987 99.9766 134.029 99.4464 134.814 98.4902C135.599 97.534 135.991 96.259 135.991 94.6686C135.991 93.3513 135.711 92.2748 135.151 91.4422C134.902 91.0468 134.556 90.7237 134.146 90.5048C133.736 90.2858 133.276 90.1784 132.813 90.1932C132.115 90.1932 131.558 90.4241 131.15 90.8827C130.738 91.3446 130.413 91.9886 130.179 92.8212C129.84 94.0969 129.547 95.3846 129.3 96.6818C128.975 98.3959 128.561 99.8367 128.046 101.008C127.556 102.15 126.767 103.136 125.765 103.86C124.758 104.592 123.417 104.959 121.748 104.959C120.226 104.959 118.869 104.543 117.672 103.71C116.44 102.833 115.465 101.635 114.851 100.243C114.166 98.7634 113.822 97.0917 113.822 95.228C113.822 93.3123 114.176 91.5918 114.886 90.0631C115.597 88.5345 116.575 87.3311 117.823 86.4464C119.061 85.5675 120.535 85.093 122.047 85.0869V90.5672C121.525 90.6115 121.017 90.7596 120.553 91.003C120.088 91.2464 119.675 91.5802 119.338 91.9853C118.65 92.8049 118.309 93.8847 118.309 95.228C118.309 96.4704 118.57 97.4657 119.094 98.2105C119.618 98.9586 120.364 99.3293 121.336 99.3293C122.034 99.3293 122.578 99.1049 122.964 98.6561C123.35 98.2105 123.662 97.5763 123.896 96.7566C124.134 95.937 124.414 94.6686 124.739 92.9513C125.061 91.2145 125.466 89.7476 125.955 88.554C126.438 87.3603 127.177 86.3976 128.158 85.6658C129.143 84.9308 130.458 84.5632 132.102 84.5632C133.698 84.5632 135.126 84.9991 136.383 85.8707C137.641 86.7391 138.635 87.9523 139.356 89.5037C140.097 91.1461 140.467 92.9349 140.44 94.7401C140.44 96.8315 140.06 98.6886 139.301 100.318C138.612 101.858 137.52 103.179 136.142 104.136C134.807 105.054 133.231 105.547 131.616 105.555L131.694 100.074ZM114.047 81.21V72.1487C114.047 69.5402 114.6 67.2375 115.71 65.234C116.78 63.2712 118.39 61.6646 120.345 60.609C122.327 59.5292 124.591 58.9893 127.132 58.9893C129.674 58.9893 131.935 59.5292 133.92 60.609C135.874 61.6651 137.483 63.2717 138.552 65.234C139.661 67.2342 140.215 69.5402 140.215 72.1487V81.21H114.047ZM135.544 72.1487C135.544 69.7874 134.775 67.953 133.244 66.652C131.71 65.3445 129.674 64.6941 127.132 64.6941C124.591 64.6941 122.552 65.3445 121.021 66.6488C119.483 67.9563 118.721 69.7874 118.721 72.1487V75.6158H135.544V72.1487Z" fill="black"></path><path d="M114.047 124.643H129.226C131.343 124.643 132.938 124.233 134.01 123.414C135.081 122.594 135.618 121.3 135.618 119.537C135.618 117.771 135.081 116.473 134.01 115.64C132.938 114.808 131.343 114.391 129.226 114.391H114.047V108.797H128.927C132.665 108.797 135.518 109.711 137.484 111.539C139.455 113.367 140.443 116.031 140.443 119.537C140.443 123.04 139.455 125.7 137.484 127.515C135.521 129.327 132.668 130.237 128.93 130.237H114.047V124.643ZM131.694 100.074C132.987 99.9766 134.029 99.4464 134.814 98.4902C135.599 97.534 135.991 96.259 135.991 94.6686C135.991 93.3513 135.711 92.2748 135.151 91.4422C134.902 91.0468 134.556 90.7237 134.146 90.5048C133.736 90.2858 133.276 90.1784 132.813 90.1932C132.115 90.1932 131.558 90.4241 131.15 90.8827C130.738 91.3446 130.413 91.9886 130.179 92.8212C129.84 94.0969 129.547 95.3846 129.3 96.6818C128.975 98.3959 128.561 99.8367 128.046 101.008C127.556 102.15 126.767 103.136 125.765 103.86C124.758 104.592 123.417 104.959 121.748 104.959C120.226 104.959 118.869 104.543 117.672 103.71C116.44 102.833 115.465 101.635 114.851 100.243C114.166 98.7634 113.822 97.0917 113.822 95.228C113.822 93.3123 114.176 91.5918 114.886 90.0631C115.597 88.5345 116.575 87.3311 117.823 86.4464C119.061 85.5675 120.535 85.093 122.047 85.0869V90.5672C121.525 90.6115 121.017 90.7596 120.553 91.003C120.088 91.2464 119.675 91.5802 119.338 91.9853C118.65 92.8049 118.309 93.8847 118.309 95.228C118.309 96.4704 118.57 97.4657 119.094 98.2105C119.618 98.9586 120.364 99.3293 121.336 99.3293C122.034 99.3293 122.578 99.1049 122.964 98.6561C123.35 98.2105 123.662 97.5763 123.896 96.7566C124.134 95.937 124.414 94.6686 124.739 92.9513C125.061 91.2145 125.466 89.7476 125.955 88.554C126.438 87.3603 127.177 86.3976 128.158 85.6658C129.143 84.9308 130.458 84.5632 132.102 84.5632C133.698 84.5632 135.126 84.9991 136.383 85.8707C137.641 86.7391 138.635 87.9523 139.356 89.5037C140.097 91.1461 140.467 92.9349 140.44 94.7401C140.44 96.8315 140.06 98.6886 139.301 100.318C138.612 101.858 137.52 103.179 136.142 104.136C134.807 105.054 133.231 105.547 131.616 105.555L131.694 100.074ZM114.047 81.21V72.1487C114.047 69.5402 114.6 67.2375 115.71 65.234C116.78 63.2712 118.39 61.6646 120.345 60.609C122.327 59.5292 124.591 58.9893 127.132 58.9893C129.674 58.9893 131.935 59.5292 133.92 60.609C135.874 61.6651 137.483 63.2717 138.552 65.234C139.661 67.2342 140.215 69.5402 140.215 72.1487V81.21H114.047ZM135.544 72.1487C135.544 69.7874 134.775 67.953 133.244 66.652C131.71 65.3445 129.674 64.6941 127.132 64.6941C124.591 64.6941 122.552 65.3445 121.021 66.6488C119.483 67.9563 118.721 69.7874 118.721 72.1487V75.6158H135.544V72.1487Z" fill="white"></path><defs><linearGradient id="susd_icon_5b0180a1-6a36-44a6-956e-68bc83d6ca3b" x1="96.5" y1="0" x2="96.5" y2="193" gradientUnits="userSpaceOnUse"><stop stop-color="#1E1A31"></stop><stop offset="1" stop-color="#141027"></stop></linearGradient></defs></svg>