<svg width="192" height="192" viewBox="0 0 192 192" fill="none" xmlns="http://www.w3.org/2000/svg">
<path d="M0 96C0 42.9807 42.9807 0 96 0C149.019 0 192 42.9807 192 96C192 149.019 149.019 192 96 192C42.9807 192 0 149.019 0 96Z" fill="url(#paint0_radial_2677_13504)"/>
<path d="M65.2251 117.225H53.8298C54.7599 135.016 69.6437 150.481 96.0388 150.481C122.318 150.481 139.062 136.062 139.062 117.458C139.062 82.1091 85.6902 84.0859 85.6902 63.6208C85.6902 57.9231 89.9925 51.1788 99.9924 51.1788C111.155 51.1788 124.295 59.8999 125.225 71.0625H136.504C135.341 53.0392 117.783 40.4812 95.4574 40.4812C72.3182 40.4812 54.8762 53.9696 54.8762 73.0393C54.8762 109.435 108.248 104.667 108.248 127.109C108.248 134.086 103.946 139.9 93.132 139.9C79.6436 139.9 66.0388 130.481 65.2251 117.225ZM74.76 66.2952C74.76 93.9694 127.667 88.5045 127.667 118.039C127.667 126.877 121.853 134.667 114.876 136.644C117.318 134.318 119.178 129.202 119.178 124.318C119.178 96.9929 66.1552 100.714 66.1552 72.6906C66.1552 63.2717 72.2018 55.7137 79.7599 53.3882C76.8528 56.8764 74.76 61.4113 74.76 66.2952Z" fill="white"/>
<defs>
    <radialGradient id="paint0_radial_2677_13504" cx="0" cy="0" r="1" gradientUnits="userSpaceOnUse" gradientTransform="translate(96 299.041) rotate(-90) scale(299.041)">
        <stop stop-color="#FFEF79"/>
        <stop offset="1" stop-color="#00C2A1"/>
    </radialGradient>
</defs>
</svg>
