<svg width="194" height="194" viewBox="0 0 194 194" fill="none" xmlns="http://www.w3.org/2000/svg">
<path d="M96.6725 2.24529H96.6762C149.007 2.24529 191.429 44.6676 191.429 96.9982V97.0018C191.429 149.332 149.007 191.755 96.6762 191.755H96.6725C44.3419 191.755 1.91961 149.332 1.91961 97.0018V96.9982C1.91961 44.6676 44.3419 2.24529 96.6725 2.24529Z" fill="white" stroke="black" stroke-width="3.49058"/>
<path fill-rule="evenodd" clip-rule="evenodd" d="M68.5577 21.1434C37.7649 32.5434 15.8164 62.1738 15.8164 96.9306C15.8164 131.687 37.7649 161.318 68.5577 172.718V164.748C41.9526 153.733 23.2357 127.517 23.2357 96.9306C23.2357 66.3437 41.9526 40.1284 68.5577 29.1131V21.1434ZM124.654 29.114V21.1443C155.446 32.5448 177.393 62.1746 177.393 96.9306C177.393 131.686 155.446 161.316 124.654 172.717V164.747C151.258 153.731 169.974 127.517 169.974 96.9306C169.974 66.3446 151.258 40.1299 124.654 29.114Z" fill="black"/>
<path fill-rule="evenodd" clip-rule="evenodd" d="M96.61 29.1066L100.842 36.3769L126.742 80.8762H143.12V88.2956H50.1313V80.8762H66.4716L92.3777 36.3765L96.61 29.1066ZM96.6091 48.5738L115.41 80.8762H77.8038L96.6091 48.5738ZM126.788 112.532H143.12V105.113H50.1313V112.532H66.4255L92.3777 157.111L96.61 164.381L100.842 157.11L126.788 112.532ZM115.456 112.532H77.7578L96.6091 144.914L115.456 112.532Z" fill="black"/>
</svg>
