<svg width="193" height="193" viewBox="0 0 193 193" fill="none" xmlns="http://www.w3.org/2000/svg" data-reactroot=""><path d="M96.5 193C149.795 193 193 149.795 193 96.5C193 43.2045 149.795 0 96.5 0C43.2045 0 0 43.2045 0 96.5C0 149.795 43.2045 193 96.5 193Z" fill="url(#xsushi_icon_8fc674b0-b7ca-46aa-8e6f-a2d6308ef9cc)"></path><path fill-rule="evenodd" clip-rule="evenodd" d="M128.071 128.309L128.043 128.344C124.134 133.221 121.073 137.041 121.044 137.078C114.07 146.111 92.7068 142.168 72.9745 128.118C53.2686 114.086 42.5568 95.2203 48.7571 85.6629C48.8023 85.5932 56.4399 76.0563 63.0157 67.8452L63.017 67.8435C67.9774 61.6496 72.3332 56.2105 72.3697 56.1593C79.0887 46.7231 100.715 50.5938 120.673 64.8048C140.631 79.0157 151.363 98.1856 144.644 107.622C144.595 107.69 135.009 119.651 128.071 128.309ZM141.245 105.837C135.089 114.483 115.275 110.937 96.9888 97.9162C78.7028 84.8957 68.8695 67.3318 75.0257 58.6861C81.1818 50.0404 100.996 53.5869 119.282 66.6073C137.568 79.6278 147.401 97.1917 141.245 105.837ZM102.461 90.381C112.379 97.443 123.126 99.3665 126.465 94.6773C129.804 89.9881 124.47 80.4619 114.552 73.3999C104.635 66.338 93.8878 64.4145 90.5489 69.1037C87.2099 73.7929 92.5432 83.3191 102.461 90.381Z" fill="white"></path><defs><linearGradient id="xsushi_icon_8fc674b0-b7ca-46aa-8e6f-a2d6308ef9cc" x1="96.5" y1="0" x2="96.5" y2="193" gradientUnits="userSpaceOnUse"><stop stop-color="#FFC564"></stop><stop offset="1" stop-color="#FFA25B"></stop></linearGradient></defs></svg>