<svg width="192" height="192" viewBox="0 0 192 192" fill="none" xmlns="http://www.w3.org/2000/svg">
<path d="M0 96C0 42.9807 42.9807 0 96 0C149.019 0 192 42.9807 192 96C192 149.019 149.019 192 96 192C42.9807 192 0 149.019 0 96Z" fill="url(#paint0_linear_3984_961)"/>
<path d="M107.048 79.5796V66.2737H137.512V46H54.5585V66.2737H85.0258V79.5689C60.2647 80.7048 41.647 85.6029 41.647 91.4705C41.647 97.3381 60.2737 102.236 85.0258 103.379V146H107.055V103.376C131.772 102.236 150.352 97.3417 150.352 91.4794C150.352 85.6172 131.772 80.7227 107.055 79.5832L107.048 79.5796ZM107.055 99.7656V99.7549C106.434 99.7943 103.241 99.9857 96.1302 99.9857C90.4454 99.9857 86.446 99.8247 85.0365 99.7513V99.7692C63.1608 98.8014 46.832 94.9964 46.832 90.4436C46.832 85.8909 63.1626 82.0912 85.0365 81.1216V95.9785C86.4693 96.0769 90.5672 96.3184 96.2233 96.3184C103.017 96.3184 106.432 96.0358 107.059 95.9785V81.1216C128.892 82.093 145.183 85.9016 145.183 90.4383C145.183 94.975 128.885 98.7853 107.059 99.7567" fill="#F9FAFB"/>
<defs>
<linearGradient id="paint0_linear_3984_961" x1="192" y1="2.45045" x2="192" y2="192" gradientUnits="userSpaceOnUse">
<stop stop-color="#FC784A"/>
<stop offset="1" stop-color="#FB5318"/>
</linearGradient>
</defs>
</svg>
