<svg width="192" height="192" viewBox="0 0 192 192" fill="none" xmlns="http://www.w3.org/2000/svg">
<path d="M0 96C0 42.9807 42.9807 0 96 0C149.019 0 192 42.9807 192 96C192 149.019 149.019 192 96 192C42.9807 192 0 149.019 0 96Z" fill="url(#paint0_linear_3694_7458)"/>
<path fill-rule="evenodd" clip-rule="evenodd" d="M81.7203 43.7299C81.7203 41.3586 81.6083 40.9933 80.5595 39.9444C78.9955 38.3805 78.8438 38.4007 71.872 41.0933C66.7263 43.081 58.8463 48.5393 53.7156 53.6699C48.6167 58.7688 43.1024 66.7152 41.1847 71.727C40.7629 72.8295 40.0862 74.5972 39.6807 75.6548C39.025 77.3648 37.7411 82.1281 37.0405 85.4474C36.7216 86.9597 36 94.5324 36 96.3687C36 98.4664 36.7454 105.834 37.1855 108.084C37.8864 111.667 40.7959 119.836 42.6148 123.327C48.3927 134.414 59.7362 145.4 70.4114 150.248C77.3677 153.406 78.932 153.738 80.5793 152.404C81.3891 151.749 81.5313 151.231 81.6556 148.492C81.7958 145.406 81.7695 145.301 80.5047 143.86C79.2374 142.417 75.9578 140.451 74.8172 140.451C74.5007 140.451 72.1127 139.044 69.5106 137.325C61.5583 132.071 56.3689 126.247 52.1457 117.839C48.3459 110.273 47.021 104.619 47.021 95.9716C47.021 87.248 48.3367 81.6932 52.2506 73.8938C57.3046 63.8232 64.5468 56.8113 75.3148 51.5639C81.4054 48.5961 81.7203 48.2109 81.7203 43.7299ZM132.635 48.6024C127.251 44.4432 122.331 41.7752 115.912 39.5334C113.092 38.5485 112.847 38.5731 111.433 39.9861C110.267 41.1525 110.235 41.2816 110.373 44.3141C110.484 46.745 110.691 47.6354 111.308 48.3193C111.744 48.8034 114.338 50.3205 117.071 51.6914C127.914 57.1286 134.722 63.816 139.889 74.1043C143.689 81.6706 145.014 87.3239 145.014 95.9716C145.014 103.967 144.496 106.45 140.707 116.606C137.321 125.686 124.883 137.815 115.425 141.262C111.265 142.778 110.329 144.037 110.32 148.127C110.315 150.598 110.417 150.941 111.475 151.999C113.241 153.764 114.27 153.587 121.623 150.248C130.395 146.264 140.343 137.581 146 128.969C149.676 123.372 152.576 117.25 153.822 112.453C156.332 102.793 156.672 93.2925 154.845 83.8588C154.156 80.2969 151.244 72.117 149.42 68.6167C145.707 61.492 139.059 53.5651 132.635 48.6024ZM101.567 61.7998C101.393 58.5067 101.222 57.7116 100.538 57.0273C99.8732 56.3625 99.1567 56.1926 96.7751 56.1326C91.2 55.9932 90.7131 56.3864 90.5428 61.1631C90.4382 64.0877 90.4119 65.2609 89.8159 65.9142C89.398 66.3721 88.7002 66.5745 87.4991 66.9455C86.0948 67.3792 84.2457 68.0908 83.3903 68.5273C81.1214 69.685 77.1238 73.9034 75.8633 76.4709C74.8633 78.507 74.7704 79.084 74.7704 83.2631C74.7704 87.4232 74.8661 88.0252 75.8446 90.0173C77.8986 94.1999 82.4836 97.5764 87.6774 98.7317C88.8787 98.999 90.5078 99.3806 91.2977 99.5804C92.0876 99.7798 93.202 99.943 93.7743 99.943C94.8926 99.943 97.3116 100.46 100.745 101.433C104.162 102.401 107.137 105.537 107.137 108.169C107.137 109.438 105.844 113.207 105.102 114.101C103.957 115.481 98.6531 117.417 96.0173 117.417C94.6647 117.417 91.2457 116.567 89.2596 115.736C87.3982 114.958 85.432 112.651 84.8784 110.596C84.6313 109.678 83.8375 108.335 83.1143 107.612C81.8406 106.338 81.6989 106.297 78.5523 106.297C75.4928 106.297 75.2378 106.364 74.1441 107.458C73.5055 108.097 72.9832 108.871 72.9832 109.18C72.9832 110.201 74.621 114.809 75.5579 116.424C77.8021 120.293 82.5007 123.838 86.9201 124.999C88.4991 125.413 89.8962 125.857 90.0249 125.985C90.1536 126.114 90.3525 127.991 90.4673 130.159C90.6595 133.79 90.7616 134.184 91.7671 135.19C92.7743 136.197 93.1011 136.281 96.0173 136.281C98.9387 136.281 99.2592 136.199 100.275 135.183C101.271 134.187 101.384 133.778 101.491 130.814C101.595 127.888 101.616 126.705 102.215 126.042C102.646 125.564 103.378 125.357 104.659 124.963C107.872 123.975 110.675 122.187 113.48 119.338C116.842 115.923 118.248 112.428 118.248 107.489C118.248 100.815 115.57 96.4057 109.637 93.3131C107.344 92.1177 105.902 91.6813 101.379 90.8131C100.068 90.5614 98.3497 90.1896 97.5598 89.9867C96.7699 89.7834 95.6075 89.6174 94.9768 89.6174C93.4983 89.6174 88.5487 87.8247 87.5622 86.9319C86.2838 85.7747 85.6917 84.1984 85.6917 81.9518C85.6917 78.4026 87.6635 76.1865 91.7675 75.123C94.4081 74.4387 96.1996 74.37 97.8446 74.8903C98.4776 75.0908 99.4919 75.3632 100.098 75.4963C101.761 75.8605 104.372 78.4443 105.385 80.7274C105.88 81.845 106.581 82.8724 106.943 83.011C107.304 83.1496 109.104 83.2631 110.943 83.2631C113.756 83.2631 114.412 83.1372 115.08 82.4689C116.272 81.277 116.094 79.1273 114.536 75.9049C112.528 71.7517 108.968 68.6341 104.556 67.1663C103.464 66.8029 102.391 66.3359 102.173 66.1282C101.955 65.9209 101.682 63.9729 101.567 61.7998Z" fill="#F9FAFB"/>
<defs>
<linearGradient id="paint0_linear_3694_7458" x1="192" y1="2.45045" x2="192" y2="192" gradientUnits="userSpaceOnUse">
<stop stop-color="#FC784A"/>
<stop offset="1" stop-color="#FB5318"/>
</linearGradient>
</defs>
</svg>
