<svg xmlns="http://www.w3.org/2000/svg" width="192" height="192" viewBox="0 0 192 192" fill="none">
    <path d="M0 96C0 42.9807 42.9807 0 96 0C149.019 0 192 42.9807 192 96C192 149.019 149.019 192 96 192C42.9807 192 0 149.019 0 96Z" fill="url(#paint0_linear_1820_33285)"/>
    <path fill-rule="evenodd" clip-rule="evenodd" d="M128.983 63.3197C140.932 64.3704 150.393 68.0498 151.443 79.0109L151.448 79.0081C152.231 87.0307 148.875 91.835 143.508 94.5787C152.34 96.7133 157.871 101.959 156.774 113.724C155.421 128.332 144.526 132.247 128.966 133.133V140.034H119.712V133.339C117.314 133.342 114.856 133.32 112.32 133.265V140.031H103.074V133.1C100.912 133.087 90.9358 133.043 88.6942 133.043L88.7628 125.001H96.4809V71.5398L88.76 71.4958L88.7875 63.3389C88.7875 63.3389 101.093 63.3498 103.096 63.3114V56.293H112.342V63.0123C114.814 62.9656 117.3 62.9191 119.731 62.9191V56.2984H128.983V63.3197ZM114.333 122.089C121.913 122.198 138.479 122.435 138.479 111.889H138.471C138.468 101.101 122.532 101.475 114.773 101.658C113.913 101.678 113.153 101.696 112.526 101.696V122.071C113.044 122.07 113.652 122.079 114.333 122.089ZM114.068 92.3882C120.396 92.4934 134.185 92.7228 134.185 83.1402C134.19 73.3396 120.935 73.6842 114.448 73.8529C113.716 73.8719 113.071 73.8887 112.54 73.8884V92.3701C112.977 92.3701 113.491 92.3786 114.068 92.3882ZM66.7221 75.8026H51.8181V90.7065L66.7222 90.7066L66.7221 75.8026ZM81.626 90.7067H66.7222V105.61L51.8181 105.609V120.513H66.7221L66.7222 105.61H81.626V90.7067ZM36.9119 90.7067H51.8157V105.61H36.9119V90.7067Z" fill="#F6F8F9"/>
    <defs>
        <linearGradient id="paint0_linear_1820_33285" x1="96" y1="0" x2="96" y2="192.216" gradientUnits="userSpaceOnUse">
            <stop offset="0.001" stop-color="#0F0F0F"/>
            <stop offset="1"/>
        </linearGradient>
    </defs>
</svg>
