<svg width="193" height="193" viewBox="0 0 193 193" fill="none" xmlns="http://www.w3.org/2000/svg" data-reactroot=""><path d="M96.5 193C149.795 193 193 149.796 193 96.5C193 43.2046 149.795 2.61911e-05 96.5 1.68726e-05C43.2045 7.55412e-06 -7.55412e-06 43.2045 -1.68726e-05 96.5C-2.61911e-05 149.795 43.2045 193 96.5 193Z" fill="url(#tend_icon_db16f56f-48d6-4a43-87ef-b3f854df49cc)"></path><path fill-rule="evenodd" clip-rule="evenodd" d="M94.5108 57.47C98.8257 60.4785 102.533 62.94 102.749 62.94C102.965 62.94 102.948 61.299 102.713 59.2934C102.476 57.2877 102.513 55.6467 102.795 55.6467C104.038 55.6467 108.176 59.5158 109.422 61.8446C111.155 65.0821 111.909 65.0828 111.909 61.846C111.909 60.4421 112.185 59.2934 112.522 59.2934C114.354 59.2934 117.696 65.721 117.725 69.2984L117.741 71.3274L119.167 69.5041L120.593 67.6807L123.091 70.5981C124.907 72.7197 125.478 73.9712 125.187 75.1856C124.936 76.23 125.27 77.394 126.077 78.2911C127.315 79.6674 127.313 79.9715 126.038 85.7376C124.281 93.6794 123.757 95.0308 122.43 95.0308C121.536 95.0308 121.408 95.6077 121.78 97.9482C122.161 100.348 122.034 100.866 121.064 100.866C119.626 100.866 119.594 102.089 120.971 104.512C122.454 107.123 122.304 109.234 120.179 115.654C118.392 121.051 118.084 121.484 113.938 124.409L109.576 127.486L110.096 132.227C110.993 140.401 110.998 140.366 108.647 141.766C104.767 144.076 103.946 143.651 97.6099 136.056C87.5137 123.954 89.8698 125.233 76.739 124.718C70.4676 124.471 65.1893 124.121 65.0088 123.939C64.8283 123.758 67.4403 118.575 70.8134 112.42C74.1865 106.266 78.0439 98.4784 79.3858 95.114C81.1488 90.6935 82.8916 87.8228 85.676 84.7567L89.5269 80.5148L85.9457 78.6893C81.9035 76.6282 71.3129 68.4013 71.3129 67.3219C71.3129 66.9339 72.6178 65.9464 74.2126 65.128C76.0576 64.1814 77.1124 63.1362 77.1124 62.2552C77.1124 60.1088 77.8946 58.564 78.9812 58.564C79.5257 58.564 81.815 59.3845 84.0688 60.3874C90.0372 63.0429 90.5128 62.8649 88.4547 58.7464C86.4213 54.6752 85.5231 52 86.1893 52C86.451 52 90.196 54.4615 94.5108 57.47ZM89.4363 56.7042C89.4363 58.3613 93.2821 64.4002 94.3419 64.4067C95.0328 64.4111 96.8219 64.6182 98.3167 64.8669C99.921 65.1339 101.035 65.0245 101.035 64.6015C101.035 64.2062 98.6698 62.2763 95.7795 60.3122C89.9394 56.3439 89.4363 56.0573 89.4363 56.7042ZM104.745 61.6637C104.793 62.9678 105.064 65.0186 105.348 66.222C105.842 68.3152 105.889 68.2605 106.43 64.9545C106.742 63.0545 106.807 61.0029 106.576 60.3961C105.824 58.4247 104.658 59.2321 104.745 61.6637ZM79.0653 62.2552C78.5738 64.1471 79.596 64.5519 84.0913 64.2441L87.6239 64.0027L84.1203 62.377C79.8229 60.3837 79.5539 60.3772 79.0653 62.2552ZM113.359 65.128C113.359 67.2803 114.289 68.0235 115.176 66.5802C115.759 65.6306 114.916 62.94 114.036 62.94C113.664 62.94 113.359 63.9246 113.359 65.128ZM106.793 70.7264C105.854 76.4094 105.582 77.0651 104.127 77.1672C103.235 77.2299 101.831 77.8958 101.006 78.647L99.5064 80.0131L101.177 81.3062C103.433 83.0529 103.8 82.9669 104.068 80.6264C104.226 79.2465 104.667 78.6813 105.483 78.8155C106.791 79.0306 111.184 72.7722 111.184 70.6929C111.184 68.9592 109.212 64.3987 108.462 64.3987C108.119 64.3987 107.369 67.246 106.793 70.7264ZM75.3312 66.5364C74.8034 67.3948 75.3979 67.7398 78.5622 68.4152L81.0995 68.9571L79.7185 67.4072C78.2853 65.799 76.0554 65.3563 75.3312 66.5364ZM81.462 66.4737C81.462 67.2708 83.9123 69.5048 84.7815 69.5004C85.1483 69.4982 86.4278 68.6894 87.6239 67.7033L89.7987 65.9099L85.6304 65.8836C83.3381 65.8691 81.462 66.1345 81.462 66.4737ZM94.1034 68.4801C94.8653 72.6482 95.5141 72.878 98.7909 70.14C102.016 67.4451 102.424 66.5911 100.492 66.5787C99.7934 66.5743 97.9536 66.3599 96.4029 66.1017L93.5829 65.6335L94.1034 68.4801ZM88.7954 68.8258C87.4471 69.6536 86.6315 70.5973 86.9831 70.9233C87.8197 71.6972 93.0711 73.3834 93.4524 72.9998C93.9004 72.549 92.3404 67.3153 91.7582 67.319C91.4777 67.3204 90.1445 67.9987 88.7954 68.8258ZM100.129 70.628C98.6343 72.0261 97.4106 73.3302 97.4106 73.5249C97.4106 73.7204 99.0417 73.8801 101.035 73.8801C104.386 73.8801 104.66 73.7466 104.66 72.1165C104.66 70.0671 103.985 68.0366 103.314 68.0651C103.057 68.076 101.625 69.2291 100.129 70.628ZM110.538 75.3387C108.056 78.949 106.215 81.9028 106.448 81.9028C106.68 81.9028 109.183 80.7315 112.008 79.2998C116.976 76.7836 117.13 76.6238 116.702 74.4679C116.458 73.2419 116.259 71.4594 116.259 70.5069C116.259 69.5544 115.988 68.7747 115.656 68.7747C115.324 68.7747 113.021 71.7285 110.538 75.3387ZM78.9247 72.0735C81.8563 74.6152 84.4676 75.1776 87.6065 73.9435C88.728 73.503 87.7805 72.9589 83.2547 71.4426C80.073 70.3763 77.145 69.5165 76.7477 69.5318C76.3497 69.5464 77.3298 70.6907 78.9247 72.0735ZM119.902 72.0079C118.542 75.6079 118.857 76.2621 121.333 74.9741C123.89 73.6445 124.002 73.0968 122.077 71.3442C120.69 70.081 120.622 70.1014 119.902 72.0079ZM86.5967 75.6407C86.7634 75.807 89.4718 76.6049 92.6166 77.4152C97.8339 78.7586 98.4849 78.7892 100.047 77.7587C100.99 77.138 101.76 76.3394 101.76 75.9842C101.76 75.629 98.2805 75.3387 94.0273 75.3387C89.7748 75.3387 86.4307 75.4744 86.5967 75.6407ZM113.903 80.1611C109.617 82.3294 106.11 84.4095 106.11 84.7836C106.11 85.1578 108.058 86.9724 110.439 88.8161L114.769 92.1674L118.453 84.7822C120.479 80.7205 122.037 77.1322 121.916 76.8076C121.795 76.4838 118.189 77.9928 113.903 80.1611ZM121.45 81.6154C120.552 83.4752 119.952 85.1323 120.116 85.2978C120.639 85.823 125.045 80.342 124.769 79.5091C124.165 77.6865 122.986 78.4348 121.45 81.6154ZM91.9482 81.1384C91.137 81.4688 89.9952 82.3221 89.4109 83.034C88.8266 83.7458 88.6751 84.1819 89.0738 84.004C91.9989 82.6948 93.7859 81.5775 93.7859 81.056C93.7859 80.3544 93.8816 80.35 91.9482 81.1384ZM95.9607 81.9028L94.1484 83.3294L97.7042 83.3454C101.214 83.3614 101.243 83.3425 99.9479 81.9028C98.3465 80.1225 98.2232 80.1225 95.9607 81.9028ZM120.971 87.0687C118.977 89.5025 117.346 91.8801 117.346 92.3512C117.346 92.8224 118.552 93.3081 120.026 93.4314C122.581 93.6451 122.738 93.5269 123.425 90.8787C124.398 87.1255 125.179 82.6307 124.857 82.6372C124.714 82.6401 122.965 84.6341 120.971 87.0687ZM91.7923 85.3029C91.2943 85.5057 90.8862 86.1446 90.8862 86.723C90.8862 87.6215 91.2029 87.6098 93.061 86.6435C94.2571 86.0213 95.2358 85.3562 95.2358 85.1658C95.2358 84.7282 92.9885 84.8172 91.7923 85.3029ZM102.485 85.4466C102.485 86.6909 103.343 88.4668 103.944 88.4668C104.673 88.4668 103.983 85.6654 103.122 85.1301C102.772 84.9127 102.485 85.055 102.485 85.4466ZM95.7157 86.7295C94.5833 87.3465 93.7786 87.973 93.9265 88.1218C94.4224 88.6207 100.31 86.8389 100.31 86.1898C100.31 85.2096 98.0079 85.4802 95.7157 86.7295ZM85.642 87.6886C83.8376 88.7243 80.0259 96.0169 80.8538 96.8498C81.2771 97.2764 88.1096 87.7134 87.8407 87.0701C87.7218 86.7849 86.7323 87.0636 85.642 87.6886ZM101.035 88.2881C101.035 88.6892 101.525 89.4259 102.123 89.9255C102.729 90.4316 103.21 90.5111 103.21 90.1042C103.21 89.703 102.721 88.9664 102.123 88.4668C101.516 87.9606 101.035 87.8811 101.035 88.2881ZM106.564 89.7431C107.757 94.6997 108.05 95.0374 110.431 94.2023C111.643 93.7771 112.634 93.1608 112.634 92.8326C112.634 92.1959 107.297 87.7375 106.535 87.7375C106.286 87.7375 106.299 88.6396 106.564 89.7431ZM91.7923 91.5862C89.5066 92.6379 89.7625 93.5721 92.336 93.5721C93.746 93.5721 94.5108 93.2024 94.5108 92.5212C94.5108 91.0166 93.6634 90.7255 91.7923 91.5862ZM82.3457 97.6112C79.1581 101.971 78.663 103.334 80.4463 102.841C81.2039 102.631 82.7212 102.259 83.818 102.013C85.6666 101.599 85.8116 101.303 85.8116 97.9343C85.8116 95.9359 85.5666 94.3146 85.2679 94.3299C84.9692 94.3452 83.6542 95.8221 82.3457 97.6112ZM90.9072 95.4764C90.9318 96.2342 99.0997 102.324 100.091 102.324C100.461 102.324 101.683 101.359 102.806 100.18C105.469 97.3829 104.896 95.7623 101.239 95.7536C99.7318 95.7507 96.7857 95.5406 94.6921 95.2875C92.5984 95.0345 90.8956 95.1198 90.9072 95.4764ZM87.2615 101.68C87.2615 106.969 87.397 107.562 88.5301 107.24C94.5094 105.543 98.8554 104.086 98.8423 103.783C98.822 103.342 88.2713 95.7602 87.6783 95.7602C87.4492 95.7602 87.2615 98.4237 87.2615 101.68ZM102.945 102.275L99.5665 106.602L103.382 111.11C110.098 119.046 110.814 119.841 111.24 119.835C111.47 119.831 110.654 114.905 109.428 108.888C108.201 102.871 107.001 97.9482 106.761 97.9482C106.52 97.9482 104.803 99.8955 102.945 102.275ZM109.442 102.871C110.341 107.801 111.088 108.86 111.139 105.278C111.184 102.076 112.167 101.838 112.795 104.877C113.037 106.046 113.339 105.775 114.315 103.512C115.844 99.9684 115.874 100.136 113.722 100.136C112.725 100.136 111.909 100.53 111.909 101.011C111.909 101.692 111.716 101.692 111.039 101.011C109.482 99.4448 108.934 100.082 109.442 102.871ZM82.5494 103.641C79.5851 103.988 79.0008 104.754 80.5942 106.206C81.8585 107.357 82.0347 107.322 83.6353 105.608C85.605 103.498 85.4941 103.296 82.5494 103.641ZM117.709 109.253C117.709 116.007 118.413 116.727 119.876 111.469C120.612 108.824 120.613 107.742 119.881 105.964C118.256 102.019 117.709 102.847 117.709 109.253ZM114.409 106.518C113.447 108.815 113.408 109.696 114.165 112.024C115.643 116.574 116.259 115.879 116.259 109.661C116.259 106.428 116.1 103.783 115.906 103.783C115.712 103.783 115.038 105.014 114.409 106.518ZM74.3801 109.528C73.0919 111.885 72.0378 114.03 72.0378 114.293C72.0378 114.557 73.993 113.386 76.3831 111.69L80.7276 108.607L79.156 106.925C78.2918 105.999 77.3907 105.242 77.1537 105.242C76.9159 105.242 75.6683 107.171 74.3801 109.528ZM92.5173 107.323C90.4236 107.973 88.7128 108.673 88.7142 108.879C88.7179 109.362 97.096 116.182 97.6868 116.182C98.2602 116.182 98.2544 109.773 97.6788 107.612C97.4381 106.71 97.0351 106.009 96.7821 106.055C96.5298 106.103 94.6109 106.672 92.5173 107.323ZM83.6165 107.819C82.8495 108.748 83.1409 109.89 85.3368 114.565C86.791 117.659 88.272 120.288 88.6287 120.408C88.9854 120.528 89.7937 119.1 90.4258 117.234L91.5741 113.843L88.6932 110.973C87.1085 109.394 85.8116 107.787 85.8116 107.401C85.8116 106.341 84.6539 106.561 83.6165 107.819ZM76.5687 113.002C74.077 114.825 72.0378 116.568 72.0378 116.876C72.0378 117.518 86.6126 122.912 87.0788 122.443C87.3898 122.131 81.7505 109.588 81.3279 109.652C81.2025 109.671 79.061 111.178 76.5687 113.002ZM99.5854 112.068C99.5854 113.016 99.7876 115.276 100.036 117.092C100.444 120.092 100.694 120.432 102.754 120.794C104.002 121.013 106.083 121.419 107.378 121.696C109.014 122.045 109.734 121.929 109.734 121.316C109.734 120.275 101.109 110.347 100.204 110.347C99.8638 110.347 99.5854 111.121 99.5854 112.068ZM113.418 118.187C113.359 122 113.941 122.854 115.396 121.089C115.946 120.423 115.783 119.344 114.819 117.26L113.477 114.358L113.418 118.187ZM91.5292 118.187C89.4015 123.725 89.6088 124.43 95.3278 131.097C98.2675 134.524 100.881 137.329 101.135 137.33C101.799 137.333 93.5351 116.228 92.8616 116.203C92.5528 116.191 91.9533 117.084 91.5292 118.187ZM95.2358 117.175C95.2358 118.087 102.626 136.267 103.266 136.931C103.678 137.357 103.939 136.233 103.945 134.014C103.95 132.029 104.155 129.654 104.398 128.737C104.746 127.432 104.209 126.464 101.923 124.276C100.318 122.74 98.8902 120.904 98.751 120.196C98.5168 119.005 95.2358 116.185 95.2358 117.175ZM68.4385 119.78C66.9944 122.495 67.4939 122.746 74.3576 122.746C78.0258 122.746 80.7167 122.471 80.3383 122.134C79.5257 121.413 71.1643 118.37 69.9957 118.37C69.552 118.37 68.8517 119.004 68.4385 119.78ZM103.21 122.822C103.21 123.126 104.232 124.107 105.481 125.002C107.136 126.189 108.056 126.435 108.881 125.911C111.024 124.551 110.472 123.765 106.846 123.018C104.846 122.606 103.21 122.518 103.21 122.822ZM105.167 134.574C104.928 138.271 104.852 141.416 104.997 141.562C105.347 141.913 108.532 140.208 109.071 139.38C109.54 138.661 108.077 130.013 107.262 128.687C106.088 126.774 105.576 128.211 105.167 134.574Z" fill="white"></path><defs><linearGradient id="tend_icon_db16f56f-48d6-4a43-87ef-b3f854df49cc" x1="96.5" y1="1.68726e-05" x2="96.5" y2="193" gradientUnits="userSpaceOnUse"><stop stop-color="#303030"></stop><stop offset="1" stop-color="#101010"></stop></linearGradient></defs></svg>