<svg width="192" height="192" viewBox="0 0 192 192" fill="none" xmlns="http://www.w3.org/2000/svg">
<path d="M0 96C0 42.9807 42.9807 0 96 0C149.019 0 192 42.9807 192 96C192 149.019 149.019 192 96 192C42.9807 192 0 149.019 0 96Z" fill="url(#paint0_linear_3538_55940)"/>
<g clip-path="url(#clip0_3538_55940)">
<path d="M96 157.711L78.6087 118.958L61.1796 108.675L96 157.711Z" fill="#007FED"/>
<path d="M130.82 108.675L96 157.711L113.391 118.958L130.82 108.675Z" fill="url(#paint1_linear_3538_55940)"/>
<path d="M96 88.0696L61.1796 108.675L78.6087 118.958L96 108.675L113.391 118.958L130.82 108.675L96 88.0696Z" fill="url(#paint2_linear_3538_55940)"/>
<path d="M96 95.4787V37.7093L78.6087 105.762L96 95.4787Z" fill="#008CA3"/>
<path d="M96 95.4787V37.7093L113.391 105.762L96 95.4787Z" fill="#28ACAC"/>
<path d="M61.1796 95.4785L96 37.7091L78.6087 105.762L61.1796 95.4785Z" fill="#28ACAC"/>
<path d="M130.82 95.4787L96 37.7093L113.391 105.762L130.82 95.4787Z" fill="#008CA3"/>
<path d="M96 157.711L78.6087 118.958L96 108.675V157.711Z" fill="url(#paint3_linear_3538_55940)"/>
<path d="M96 157.711L113.391 118.958L96 108.675V157.711Z" fill="#007FED"/>
<path d="M96 74.8734L61.1796 95.4783L78.6087 105.762L96 95.4783L113.391 105.762L130.82 95.4783L96 74.8734Z" fill="url(#paint4_linear_3538_55940)"/>
</g>
<defs>
<linearGradient id="paint0_linear_3538_55940" x1="96" y1="-17" x2="96" y2="192" gradientUnits="userSpaceOnUse">
<stop stop-color="white"/>
<stop offset="1" stop-color="#F0F0F0"/>
</linearGradient>
<linearGradient id="paint1_linear_3538_55940" x1="96" y1="133.193" x2="130.82" y2="133.193" gradientUnits="userSpaceOnUse">
<stop offset="0.000235553" stop-color="#0069E0"/>
<stop offset="0.9848" stop-color="#0069E0"/>
</linearGradient>
<linearGradient id="paint2_linear_3538_55940" x1="96" y1="134.194" x2="96" y2="103.306" gradientUnits="userSpaceOnUse">
<stop offset="0.25" stop-color="#00A5E6"/>
<stop offset="1" stop-color="#0098E6"/>
</linearGradient>
<linearGradient id="paint3_linear_3538_55940" x1="78.6087" y1="133.193" x2="96" y2="133.193" gradientUnits="userSpaceOnUse">
<stop offset="0.000235553" stop-color="#0069E0"/>
<stop offset="0.9848" stop-color="#0069E0"/>
</linearGradient>
<linearGradient id="paint4_linear_3538_55940" x1="96" y1="105.762" x2="96" y2="74.8734" gradientUnits="userSpaceOnUse">
<stop stop-color="#00A5E6" stop-opacity="0.8"/>
<stop offset="0.6" stop-color="#42E4AE" stop-opacity="0.6"/>
</linearGradient>
<clipPath id="clip0_3538_55940">
<rect width="120" height="120" fill="white" transform="translate(36 36)"/>
</clipPath>
</defs>
</svg>
