<svg width="193" height="193" viewBox="0 0 193 193" fill="none" xmlns="http://www.w3.org/2000/svg" data-reactroot=""><circle cx="96.5" cy="96.5" r="96.5" fill="url(#thales_icon_475ddb10-6580-424b-addf-5e9a09b04397)"></circle><path d="M114.365 65.299C109.488 61.243 103.117 58.988 96.7735 59C93.6065 59.008 90.4175 59.535 87.4155 60.609C84.4141 61.691 81.6198 63.2782 79.1535 65.302C74.2375 69.333 70.7575 75.091 69.5255 81.352C68.2835 87.586 69.2585 94.232 72.2885 99.83C74.8565 104.692 78.9285 108.677 83.7585 111.256C83.8635 111.575 83.9565 111.896 84.0765 112.213C84.5315 113.38 85.0625 114.532 85.8555 115.633C86.3115 116.266 86.9397 116.754 87.6653 117.041C88.3909 117.327 89.1834 117.399 89.9487 117.248C90.714 117.097 91.4199 116.73 91.9825 116.189C92.5451 115.649 92.9408 114.959 93.1225 114.2C93.4385 112.881 93.4935 111.613 93.4705 110.361C93.4341 109.122 93.3007 107.887 93.0715 106.669C92.7685 105.107 91.7235 103.684 90.1555 102.998L90.0425 102.949C86.3975 101.354 83.2665 98.512 81.4575 94.968C79.5915 91.467 79.0595 87.301 79.8365 83.417C80.6075 79.542 82.7745 75.965 85.8455 73.453C88.9381 70.9291 92.7998 69.5367 96.7915 69.506C100.775 69.474 104.692 70.856 107.802 73.351C110.943 75.8664 113.123 79.3851 113.977 83.317C114.829 87.228 114.341 91.467 112.492 95.054C110.694 98.661 107.583 101.614 103.892 103.342L103.822 103.37C103.39 103.557 102.984 103.802 102.616 104.098C102.482 104.214 102.353 104.335 102.229 104.462C101.641 105.082 101.59 105.284 101.368 105.644L101.234 105.897L101.161 106.07L101.036 106.399C100.957 106.594 100.892 106.794 100.839 106.998C100.65 107.693 100.605 108.203 100.524 108.724C100.444 109.613 100.388 110.503 100.358 111.395L100.29 116.178C100.293 117.732 100.243 119.268 100.223 120.795C100.117 122.331 99.8925 123.847 99.0885 125.41L99.0675 125.449C98.5818 126.398 98.3536 127.458 98.4056 128.523C98.4577 129.588 98.7882 130.621 99.3642 131.518C99.9401 132.415 100.741 133.146 101.688 133.636C102.634 134.127 103.693 134.361 104.758 134.315C105.824 134.268 106.858 133.943 107.758 133.372C108.659 132.801 109.393 132.004 109.889 131.06C110.385 130.116 110.625 129.058 110.584 127.993C110.543 126.928 110.224 125.891 109.657 124.988C108.766 123.568 108.403 122.103 108.268 120.655C108.185 119.199 108.131 117.751 108.181 116.321C108.213 114.895 108.323 113.477 108.547 112.166C108.598 111.873 108.658 111.591 108.722 111.319C113.948 108.864 118.409 104.753 121.136 99.598C124.154 94.07 125.119 87.488 123.927 81.288C122.718 75.062 119.265 69.322 114.365 65.299Z" fill="white"></path><path d="M103.89 93.9189L96.8265 86.8549L89.7625 79.7909L89.1945 79.2219C88.1904 80.2231 87.3942 81.4128 86.8515 82.7228C86.3089 84.0327 86.0305 85.437 86.0325 86.8549C86.0325 92.8169 90.8655 97.6499 96.8265 97.6499C99.8075 97.6499 102.506 96.4419 104.459 94.4879L103.89 93.9189Z" fill="white"></path><defs><linearGradient id="thales_icon_475ddb10-6580-424b-addf-5e9a09b04397" x1="96.5" y1="0" x2="96.5" y2="193" gradientUnits="userSpaceOnUse"><stop stop-color="#121A6E"></stop><stop offset="1" stop-color="#0B0F40"></stop></linearGradient></defs></svg>