<svg width="193" height="193" viewBox="0 0 193 193" fill="none" xmlns="http://www.w3.org/2000/svg" data-reactroot=""><circle cx="96.5" cy="96.5" r="96.5" fill="url(#torn_icon_4aa60f9b-e3ab-4ca6-9c66-d82a73e466b7)"></circle><path fill-rule="evenodd" clip-rule="evenodd" d="M119.263 70.21C125.757 70.7647 131.833 73.6362 136.377 78.2979C140.921 82.9596 143.627 89.0989 144 95.59C143.766 87.0337 140.799 78.7756 135.531 72.0187C130.264 65.2619 122.971 60.3592 114.715 58.0251C106.459 55.691 97.6722 56.0473 89.6337 59.0421C81.5952 62.037 74.7254 67.5139 70.0251 74.675C70.5812 68.197 73.4599 62.1361 78.1332 57.6039C82.8066 53.0717 88.9613 50.372 95.4687 50C86.9713 50.3847 78.8107 53.4269 72.1433 58.6958C65.4759 63.9646 60.6397 71.1927 58.3201 79.356C56.0005 87.5193 56.3151 96.2037 59.2193 104.179C62.1235 112.154 67.47 119.015 74.5013 123.79C68.0492 123.182 62.0294 120.287 57.5341 115.63C53.0388 110.974 50.3657 104.864 50 98.41C50.2099 106.94 53.136 115.181 58.3546 121.941C63.5732 128.701 70.8134 133.629 79.0268 136.011C87.2402 138.393 96.0005 138.105 104.039 135.19C112.078 132.275 118.978 126.883 123.739 119.795C123.13 126.169 120.253 132.114 115.629 136.554C111.005 140.994 104.939 143.636 98.5313 144C107.089 143.719 115.335 140.725 122.072 135.453C128.809 130.181 133.687 122.905 135.997 114.681C138.308 106.457 137.932 97.7117 134.923 89.7151C131.913 81.7186 126.428 74.8865 119.263 70.21ZM96.8822 113.92C94.6864 113.934 92.5106 113.503 90.4861 112.655C88.4615 111.807 86.6303 110.559 85.1028 108.985C82.3767 106.243 80.6884 102.644 80.3255 98.7993C79.9626 94.9549 80.9478 91.104 83.1129 87.9031C85.278 84.7022 88.4891 82.3495 92.1987 81.246C95.9083 80.1426 99.8868 80.3568 103.456 81.852C107.025 83.3472 109.964 86.031 111.771 89.4457C113.578 92.8605 114.142 96.7947 113.366 100.578C112.591 104.361 110.524 107.759 107.518 110.192C104.512 112.625 100.753 113.942 96.8822 113.92Z" fill="white"></path><defs><linearGradient id="torn_icon_4aa60f9b-e3ab-4ca6-9c66-d82a73e466b7" x1="96.5" y1="1.52588e-05" x2="96.5" y2="193" gradientUnits="userSpaceOnUse"><stop stop-color="#44F1A6"></stop><stop offset="1" stop-color="#08B56A"></stop></linearGradient></defs></svg>