<svg width="193" height="193" viewBox="0 0 193 193" fill="none" xmlns="http://www.w3.org/2000/svg" data-reactroot=""><circle cx="96.5" cy="96.5" r="96.5" fill="url(#trac_icon_42940a4f-2cdc-4bfa-84ad-5b09836c7d8d)"></circle><path fill-rule="evenodd" clip-rule="evenodd" d="M97.0001 76.3922C85.6195 76.3922 76.3922 85.618 76.3922 97.0001C76.3922 108.38 85.6195 117.606 97.0001 117.606C103.326 117.606 108.985 114.755 112.765 110.268L128.366 123.4C120.845 132.327 109.586 138 97.0001 138C74.3556 138 56 119.643 56 97.0001C56 74.3556 74.3556 56 97.0001 56V76.3922ZM132.427 117.646L114.805 107.377C115.407 106.347 115.922 105.261 116.339 104.128L135.479 111.182C134.648 113.437 133.623 115.597 132.427 117.646ZM117.606 96.9998H138C138 94.5712 137.788 92.1922 137.382 89.8794L117.296 93.4212C117.5 94.5837 117.606 95.7793 117.606 96.9998ZM128.516 70.7764L112.84 83.8198C112.073 82.8979 111.226 82.0449 110.311 81.2696L123.483 65.703C125.304 67.2454 126.989 68.9426 128.516 70.7764Z" fill="white"></path><defs><linearGradient id="trac_icon_42940a4f-2cdc-4bfa-84ad-5b09836c7d8d" x1="96.5" y1="0" x2="96.5" y2="193" gradientUnits="userSpaceOnUse"><stop stop-color="#563FD0"></stop><stop offset="1" stop-color="#372884"></stop></linearGradient></defs></svg>