<svg width="193" height="193" viewBox="0 0 193 193" fill="none" xmlns="http://www.w3.org/2000/svg" data-reactroot=""><circle cx="96.5" cy="96.5" r="96.5" fill="url(#tribe_icon_c4cd2a17-09dc-4b62-aec0-3d28707b651b)"></circle><path fill-rule="evenodd" clip-rule="evenodd" d="M128.016 61.3102C130.764 64.5143 131.277 66.2334 130.651 70.1502C130.224 72.824 128.678 75.9928 127.216 77.1909C123.743 80.0374 101.954 81.5837 83.3747 80.3013C67.3834 79.1969 63.2915 76.8006 63.2915 68.5345C63.2915 58.0543 67.5951 56.6984 99.7149 57.0561C99.7149 57.0561 113.506 56.6522 119.613 58.0122C125.721 59.3722 128.016 61.3102 128.016 61.3102ZM80.7378 96.6703C86.2749 99.5399 87.7203 104.199 87.7203 119.18C87.7203 135.5 86.8056 136.892 76.0881 136.892C66.9708 136.892 63.8738 134.232 62.5288 125.247C61.1024 115.714 62.7215 100.338 65.4725 97.2918C68.2519 94.2141 75.4326 93.9217 80.7378 96.6703ZM127.542 97.2156C132.443 102.642 132.03 129.21 126.967 134.284C123.598 137.659 110.705 137.971 107.495 134.756C104.708 131.961 104.525 106.623 107.258 101.682C110.99 94.9322 123.077 92.2707 127.542 97.2156Z" fill="white"></path><defs><linearGradient id="tribe_icon_c4cd2a17-09dc-4b62-aec0-3d28707b651b" x1="96.5" y1="0" x2="96.5" y2="193" gradientUnits="userSpaceOnUse"><stop stop-color="#238ECD"></stop><stop offset="1" stop-color="#0D5985"></stop></linearGradient></defs></svg>