<svg width="193" height="193" viewBox="0 0 193 193" fill="none" xmlns="http://www.w3.org/2000/svg" data-reactroot=""><circle cx="96.5" cy="96.5" r="96.5" fill="url(#uma_icon_86fe60a9-5b9d-489c-bd29-ac22adae9474)"></circle><path d="M115.875 113.316H110.081C109.823 113.316 109.567 113.266 109.328 113.167C109.089 113.069 108.872 112.924 108.689 112.742C108.506 112.559 108.36 112.343 108.261 112.104C108.162 111.865 108.111 111.609 108.11 111.351V96.082L97.9402 102.441C97.5216 102.703 97.0379 102.841 96.5442 102.841C96.0506 102.841 95.5669 102.703 95.1482 102.441L84.9762 96.081V111.351C84.9758 111.609 84.9245 111.865 84.8253 112.104C84.726 112.343 84.5807 112.559 84.3977 112.742C84.2147 112.924 83.9975 113.069 83.7586 113.167C83.5197 113.266 83.2637 113.316 83.0052 113.316H77.2112C76.9528 113.316 76.6968 113.266 76.4579 113.167C76.219 113.069 76.0018 112.924 75.8188 112.742C75.6357 112.559 75.4905 112.343 75.3912 112.104C75.2919 111.865 75.2406 111.609 75.2402 111.351V81.921C75.2417 81.4433 75.3733 80.9751 75.6209 80.5666C75.8685 80.1581 76.2228 79.8248 76.6457 79.6026C77.0685 79.3804 77.5439 79.2776 78.0208 79.3053C78.4977 79.3331 78.958 79.4903 79.3522 79.76L95.4302 90.741C95.7584 90.9653 96.1467 91.0854 96.5442 91.0854C96.9418 91.0854 97.33 90.9653 97.6582 90.741L113.733 79.76C114.127 79.4897 114.588 79.332 115.065 79.3039C115.542 79.2758 116.018 79.3783 116.441 79.6005C116.864 79.8227 117.218 80.1561 117.466 80.5649C117.714 80.9736 117.845 81.4421 117.846 81.92V111.351C117.846 111.609 117.795 111.865 117.695 112.104C117.596 112.343 117.451 112.559 117.268 112.742C117.085 112.924 116.868 113.069 116.629 113.167C116.39 113.266 116.134 113.316 115.875 113.316Z" fill="white"></path><path d="M66.511 113.054H30.615C30.2719 113.054 29.9321 112.987 29.615 112.856C29.2979 112.725 29.0096 112.533 28.7668 112.291C28.524 112.048 28.3313 111.761 28.1997 111.444C28.0681 111.127 28.0003 110.787 28 110.444V80.957C28.0003 80.6997 28.0512 80.4451 28.1499 80.2075C28.2486 79.9699 28.3931 79.7541 28.5752 79.5724C28.7573 79.3906 28.9734 79.2466 29.2112 79.1484C29.4489 79.0502 29.7037 78.9997 29.961 79H35.728C35.9853 78.9997 36.2401 79.0502 36.4778 79.1484C36.7156 79.2466 36.9317 79.3906 37.1138 79.5724C37.2959 79.7541 37.4404 79.9699 37.5391 80.2075C37.6378 80.4451 37.6887 80.6997 37.689 80.957V103.387H59.437V80.957C59.4371 80.6995 59.488 80.4446 59.5868 80.2069C59.6856 79.9691 59.8303 79.7531 60.0126 79.5714C60.1949 79.3896 60.4113 79.2456 60.6494 79.1475C60.8875 79.0495 61.1425 78.9993 61.4 79H67.167C67.4243 78.9997 67.6791 79.0502 67.9168 79.1484C68.1546 79.2466 68.3707 79.3906 68.5528 79.5724C68.7349 79.7541 68.8794 79.9699 68.9781 80.2075C69.0768 80.4451 69.1277 80.6997 69.128 80.957V110.445C69.1276 110.788 69.0597 111.128 68.928 111.444C68.7964 111.761 68.6037 112.049 68.3608 112.291C68.118 112.533 67.8299 112.725 67.5128 112.856C67.1957 112.987 66.856 113.054 66.513 113.054" fill="white"></path><path d="M126.489 79H162.389C162.732 78.9996 163.072 79.0668 163.389 79.1977C163.706 79.3286 163.994 79.5206 164.237 79.7629C164.48 80.0052 164.672 80.2929 164.804 80.6097C164.936 80.9264 165.004 81.266 165.004 81.609V111.1C165.004 111.357 164.953 111.612 164.854 111.85C164.755 112.087 164.611 112.303 164.429 112.485C164.247 112.666 164.031 112.81 163.793 112.909C163.555 113.007 163.3 113.057 163.043 113.057H157.274C157.017 113.058 156.762 113.007 156.524 112.909C156.286 112.811 156.069 112.667 155.887 112.485C155.705 112.304 155.56 112.088 155.461 111.85C155.362 111.612 155.311 111.357 155.311 111.1V89.971C155.309 89.6253 155.171 89.2944 154.926 89.0507C154.68 88.807 154.349 88.6705 154.003 88.671H134.874C134.528 88.6705 134.197 88.807 133.951 89.0507C133.706 89.2944 133.568 89.6253 133.566 89.971V111.1C133.566 111.357 133.515 111.612 133.416 111.85C133.317 112.087 133.173 112.303 132.991 112.485C132.809 112.666 132.593 112.81 132.355 112.909C132.117 113.007 131.862 113.057 131.605 113.057H125.835C125.578 113.057 125.323 113.007 125.085 112.909C124.847 112.81 124.631 112.666 124.449 112.485C124.267 112.303 124.123 112.087 124.024 111.85C123.925 111.612 123.874 111.357 123.874 111.1V81.609C123.874 81.266 123.942 80.9264 124.074 80.6097C124.206 80.2929 124.398 80.0052 124.641 79.7629C124.884 79.5206 125.172 79.3286 125.489 79.1977C125.806 79.0668 126.146 78.9996 126.489 79Z" fill="white"></path><path d="M139.591 96.922V102.728C139.592 102.984 139.644 103.238 139.743 103.475C139.843 103.711 139.988 103.926 140.17 104.106C140.352 104.286 140.568 104.429 140.806 104.526C141.043 104.623 141.297 104.672 141.554 104.671H147.32C147.576 104.672 147.831 104.623 148.068 104.526C148.305 104.429 148.521 104.286 148.704 104.106C148.886 103.926 149.031 103.711 149.13 103.475C149.23 103.238 149.282 102.984 149.283 102.728V96.922C149.282 96.6655 149.23 96.4118 149.13 96.1754C149.031 95.9389 148.886 95.7244 148.704 95.5439C148.521 95.3635 148.305 95.2208 148.068 95.1238C147.831 95.0269 147.576 94.9777 147.32 94.979H141.554C141.297 94.9777 141.043 95.0269 140.806 95.1238C140.568 95.2208 140.352 95.3635 140.17 95.5439C139.988 95.7244 139.843 95.9389 139.743 96.1754C139.644 96.4118 139.592 96.6655 139.591 96.922" fill="white"></path><defs><linearGradient id="uma_icon_86fe60a9-5b9d-489c-bd29-ac22adae9474" x1="96.5" y1="0" x2="96.5" y2="193" gradientUnits="userSpaceOnUse"><stop stop-color="#FF4A4A"></stop><stop offset="1" stop-color="#C30E0E"></stop></linearGradient></defs></svg>