<svg width="193" height="193" viewBox="0 0 193 193" fill="none" xmlns="http://www.w3.org/2000/svg" data-reactroot=""><circle cx="96.5" cy="96.5" r="96.5" fill="url(#1_wbtc_dai_univ2_icon_a9c96c34-1a38-4c98-ac21-6aadfa936165)"></circle><path d="M136.775 77L136.259 78.7535V129.637L136.775 130.152L160.394 116.191L136.775 77Z" fill="#DEDEDE"></path><path d="M136.778 77L113.158 116.191L136.778 130.152V105.455V77Z" fill="white"></path><path d="M136.776 134.626L136.485 134.981V153.106L136.776 153.955L160.41 120.672L136.776 134.626Z" fill="#DEDEDE"></path><path d="M136.778 153.955V134.626L113.158 120.671L136.778 153.955Z" fill="white"></path><path d="M136.78 130.152L160.399 116.191L136.78 105.455V130.152Z" fill="#BDBDBD"></path><path d="M113.158 116.191L136.777 130.153V105.455L113.158 116.191Z" fill="#DEDEDE"></path><mask id="1_mask_wbtc_dai_univ2_icon_a9c96c34-1a38-4c98-ac21-6aadfa936165" style="mask-type:alpha" maskUnits="userSpaceOnUse" x="-1" y="-1" width="146" height="182"><path d="M48.25 180.071C26.0855 167.275 9.91221 146.197 3.28816 121.476C-3.3359 96.7547 0.131853 70.4145 12.9285 48.25C25.7252 26.0855 46.8026 9.91222 71.524 3.28816C96.2453 -3.3359 122.585 0.131851 144.75 12.9285L96.5 96.5L48.25 180.071Z" fill="#C4C4C4"></path></mask><g mask="url(#1_mask_wbtc_dai_univ2_icon_a9c96c34-1a38-4c98-ac21-6aadfa936165)"><circle cx="96.5" cy="96.5" r="96.5" transform="rotate(-180 96.5 96.5)" fill="url(#2_wbtc_dai_univ2_icon_a9c96c34-1a38-4c98-ac21-6aadfa936165)"></circle><path opacity="0.9" fill-rule="evenodd" clip-rule="evenodd" d="M38.8809 50.6878C38.8809 58.5009 38.8719 59.3856 38.7908 59.4757C38.711 59.5643 38.3197 59.5757 35.3504 59.5757H32V62.6959V65.8161H35.3504C38.3197 65.8161 38.711 65.8275 38.7908 65.9162C38.8703 66.0044 38.8809 66.384 38.8809 69.1274C38.8809 71.8707 38.8703 72.2503 38.7908 72.3386C38.711 72.4272 38.3197 72.4386 35.3504 72.4386H32V75.5588V78.679H35.3504C38.3197 78.679 38.711 78.6904 38.7908 78.779C38.8719 78.869 38.8809 79.7422 38.8809 87.4396V96L49.016 95.9725C59.7335 95.9434 60.8739 95.9142 62.6775 95.6227C62.8825 95.5896 63.2437 95.5328 63.4802 95.4966C64.0057 95.416 64.0736 95.401 64.9711 95.1661C65.3653 95.0629 65.8169 94.9469 65.9746 94.9082C66.598 94.7554 68.4739 94.0719 69.3004 93.6965C70.523 93.1412 72.2589 92.1689 73.0849 91.5767C73.2741 91.441 73.6095 91.2009 73.8303 91.0431C74.2133 90.7695 75.6972 89.5504 75.8698 89.3677C75.915 89.3198 76.0932 89.1519 76.2659 88.9945C76.6733 88.6231 78.114 87.0228 78.4455 86.5735C78.587 86.3817 78.7169 86.2105 78.7342 86.193C78.7516 86.1754 78.9204 85.9462 79.1093 85.6835C79.8949 84.5915 80.8738 82.965 81.2555 82.1176C81.3265 81.96 81.4701 81.6734 81.5746 81.4808C81.6792 81.2882 81.8976 80.7867 82.0601 80.3665C82.5618 79.069 82.6553 78.8592 82.7731 78.7676C82.8668 78.6947 83.4072 78.6789 85.813 78.6781C87.4223 78.6777 88.7977 78.6598 88.8695 78.6384L89 78.5996L88.973 76.4902C88.9372 73.6845 88.8803 72.5796 88.7677 72.5007C88.7175 72.4657 87.7564 72.4401 86.4637 72.4395C84.4804 72.4387 84.2359 72.4275 84.1514 72.3336C84.0887 72.264 84.0707 72.1834 84.098 72.0948C84.216 71.7112 84.276 68.9347 84.2078 67.0061C84.1817 66.2689 84.1905 65.9748 84.2406 65.9077C84.298 65.831 84.665 65.8161 86.5056 65.8161C88.426 65.8161 88.7135 65.8035 88.7923 65.7161C88.8715 65.628 88.8823 65.2656 88.8823 62.6959C88.8823 60.1262 88.8715 59.7638 88.7923 59.6758C88.7127 59.5875 88.3652 59.5757 85.8366 59.5757H82.971L82.8303 59.4194C82.7529 59.3334 82.6895 59.218 82.6895 59.1629C82.6895 59.1077 82.6121 58.8924 82.5175 58.6842C82.4229 58.4761 82.3451 58.2692 82.3447 58.2244C82.3434 58.0888 81.1551 55.5044 80.8431 54.9591C79.9458 53.39 79.2071 52.2799 78.4307 51.3337C77.2039 49.8384 77.2272 49.8656 76.9553 49.6203C76.845 49.5208 76.5868 49.2708 76.3816 49.0648C75.5014 48.1811 74.1691 47.1097 72.8842 46.2523C72.1784 45.7812 70.2799 44.6954 69.8596 44.5224C69.6607 44.4405 69.5271 44.3819 68.77 44.0443C67.7347 43.5827 65.0803 42.7629 64.111 42.6053C63.9691 42.5822 63.711 42.5369 63.5376 42.5045C62.7221 42.3522 61.451 42.2005 60.3265 42.1212C59.7538 42.0809 55.3352 42.0437 49.1306 42.0273L38.8809 42V50.6878ZM60.8999 47.72C62.0993 47.883 62.3746 47.9218 62.5628 47.9547C63.838 48.1779 66.1655 48.9027 67.0678 49.3577C69.2311 50.4485 70.3965 51.203 71.68 52.3436C71.9165 52.5538 72.123 52.7415 72.1387 52.7608C72.1545 52.78 72.3088 52.9243 72.4817 53.0815C72.8822 53.4456 73.5267 54.1608 73.859 54.6099C74.0009 54.8017 74.1749 55.0243 74.2455 55.1045C74.5817 55.486 75.5423 56.9842 76.0508 57.9201C76.6247 58.9766 76.7795 59.4512 76.578 59.5371C76.5281 59.5583 69.2791 59.5757 60.4693 59.5757C45.9838 59.5757 44.4426 59.5662 44.3611 59.4757C44.2805 59.3861 44.271 58.7647 44.271 53.59C44.271 48.3993 44.2803 47.7941 44.3617 47.7037C44.4438 47.6126 45.2128 47.6054 52.4325 47.6285C57.4586 47.6444 60.5929 47.6784 60.8999 47.72ZM78.3183 65.8694C78.5161 66.0087 78.6305 67.1996 78.6314 69.1274C78.6321 70.88 78.502 72.2562 78.3237 72.3817C78.2803 72.4122 70.7235 72.4371 61.3484 72.4376C46.063 72.4385 44.4426 72.429 44.3611 72.3386C44.2817 72.2503 44.271 71.8707 44.271 69.1274C44.271 66.384 44.2817 66.0044 44.3611 65.9162C44.4426 65.8257 46.063 65.8162 61.3484 65.8171C70.6419 65.8176 78.2783 65.8411 78.3183 65.8694ZM76.6141 78.7782C76.7065 78.9019 76.6151 79.123 76.0003 80.2622C75.5635 81.0716 75.053 81.8705 74.4081 82.754C73.9547 83.375 72.4583 85.0354 71.909 85.5268C70.6524 86.651 69.213 87.6075 67.4129 88.5145C66.8731 88.7864 65.1323 89.4065 64.2257 89.6498C62.8774 90.0116 62.8815 90.0108 60.8999 90.28C60.5929 90.3216 57.4586 90.3556 52.4325 90.3715C45.2128 90.3946 44.4438 90.3874 44.3617 90.2963C44.2803 90.2059 44.271 89.6119 44.271 84.5373C44.271 79.4784 44.2805 78.8685 44.3611 78.779C44.4426 78.6885 45.9862 78.679 60.4956 78.679C74.9545 78.679 76.5473 78.6888 76.6141 78.7782Z" fill="white"></path></g><path d="M193 104L89 104L89 0L163 0C179.569 0 193 13.4315 193 30V104Z" fill="#FD007A"></path><circle cx="96.5" cy="96.5" r="96.5" fill="url(#3_wbtc_dai_univ2_icon_a9c96c34-1a38-4c98-ac21-6aadfa936165)"></circle><path opacity="0.9" fill-rule="evenodd" clip-rule="evenodd" d="M114.881 98.6878C114.881 106.501 114.872 107.386 114.791 107.476C114.711 107.564 114.32 107.576 111.35 107.576H108V110.696V113.816H111.35C114.32 113.816 114.711 113.828 114.791 113.916C114.87 114.004 114.881 114.384 114.881 117.127C114.881 119.871 114.87 120.25 114.791 120.339C114.711 120.427 114.32 120.439 111.35 120.439H108V123.559V126.679H111.35C114.32 126.679 114.711 126.69 114.791 126.779C114.872 126.869 114.881 127.742 114.881 135.44V144L125.016 143.972C135.733 143.943 136.874 143.914 138.677 143.623C138.882 143.59 139.244 143.533 139.48 143.497C140.006 143.416 140.074 143.401 140.971 143.166C141.365 143.063 141.817 142.947 141.975 142.908C142.598 142.755 144.474 142.072 145.3 141.697C146.523 141.141 148.259 140.169 149.085 139.577C149.274 139.441 149.61 139.201 149.83 139.043C150.213 138.769 151.697 137.55 151.87 137.368C151.915 137.32 152.093 137.152 152.266 136.995C152.673 136.623 154.114 135.023 154.445 134.573C154.587 134.382 154.717 134.21 154.734 134.193C154.752 134.175 154.92 133.946 155.109 133.684C155.895 132.591 156.874 130.965 157.256 130.118C157.327 129.96 157.47 129.673 157.575 129.481C157.679 129.288 157.898 128.787 158.06 128.366C158.562 127.069 158.655 126.859 158.773 126.768C158.867 126.695 159.407 126.679 161.813 126.678C163.422 126.678 164.798 126.66 164.869 126.638L165 126.6L164.973 124.49C164.937 121.685 164.88 120.58 164.768 120.501C164.718 120.466 163.756 120.44 162.464 120.44C160.48 120.439 160.236 120.428 160.151 120.334C160.089 120.264 160.071 120.183 160.098 120.095C160.216 119.711 160.276 116.935 160.208 115.006C160.182 114.269 160.191 113.975 160.241 113.908C160.298 113.831 160.665 113.816 162.506 113.816C164.426 113.816 164.713 113.804 164.792 113.716C164.872 113.628 164.882 113.266 164.882 110.696C164.882 108.126 164.872 107.764 164.792 107.676C164.713 107.587 164.365 107.576 161.837 107.576H158.971L158.83 107.419C158.753 107.333 158.69 107.218 158.69 107.163C158.69 107.108 158.612 106.892 158.517 106.684C158.423 106.476 158.345 106.269 158.345 106.224C158.343 106.089 157.155 103.504 156.843 102.959C155.946 101.39 155.207 100.28 154.431 99.3337C153.204 97.8384 153.227 97.8656 152.955 97.6203C152.845 97.5208 152.587 97.2708 152.382 97.0648C151.501 96.1811 150.169 95.1097 148.884 94.2523C148.178 93.7812 146.28 92.6954 145.86 92.5224C145.661 92.4405 145.527 92.3819 144.77 92.0443C143.735 91.5827 141.08 90.7629 140.111 90.6053C139.969 90.5822 139.711 90.5369 139.538 90.5045C138.722 90.3522 137.451 90.2005 136.326 90.1212C135.754 90.0809 131.335 90.0437 125.131 90.0273L114.881 90V98.6878ZM136.9 95.72C138.099 95.883 138.375 95.9218 138.563 95.9547C139.838 96.1779 142.165 96.9027 143.068 97.3577C145.231 98.4485 146.396 99.203 147.68 100.344C147.917 100.554 148.123 100.742 148.139 100.761C148.155 100.78 148.309 100.924 148.482 101.081C148.882 101.446 149.527 102.161 149.859 102.61C150.001 102.802 150.175 103.024 150.246 103.104C150.582 103.486 151.542 104.984 152.051 105.92C152.625 106.977 152.779 107.451 152.578 107.537C152.528 107.558 145.279 107.576 136.469 107.576C121.984 107.576 120.443 107.566 120.361 107.476C120.281 107.386 120.271 106.765 120.271 101.59C120.271 96.3993 120.28 95.7941 120.362 95.7037C120.444 95.6126 121.213 95.6054 128.432 95.6285C133.459 95.6444 136.593 95.6784 136.9 95.72ZM154.318 113.869C154.516 114.009 154.631 115.2 154.631 117.127C154.632 118.88 154.502 120.256 154.324 120.382C154.28 120.412 146.724 120.437 137.348 120.438C122.063 120.439 120.443 120.429 120.361 120.339C120.282 120.25 120.271 119.871 120.271 117.127C120.271 114.384 120.282 114.004 120.361 113.916C120.443 113.826 122.063 113.816 137.348 113.817C146.642 113.818 154.278 113.841 154.318 113.869ZM152.614 126.778C152.707 126.902 152.615 127.123 152 128.262C151.563 129.072 151.053 129.871 150.408 130.754C149.955 131.375 148.458 133.035 147.909 133.527C146.652 134.651 145.213 135.608 143.413 136.515C142.873 136.786 141.132 137.407 140.226 137.65C138.877 138.012 138.881 138.011 136.9 138.28C136.593 138.322 133.459 138.356 128.432 138.372C121.213 138.395 120.444 138.387 120.362 138.296C120.28 138.206 120.271 137.612 120.271 132.537C120.271 127.478 120.281 126.868 120.361 126.779C120.443 126.689 121.986 126.679 136.496 126.679C150.954 126.679 152.547 126.689 152.614 126.778Z" fill="white"></path><mask id="2_mask_wbtc_dai_univ2_icon_a9c96c34-1a38-4c98-ac21-6aadfa936165" style="mask-type:alpha" maskUnits="userSpaceOnUse" x="-1" y="-1" width="146" height="182"><path d="M48.25 180.071C26.0855 167.275 9.91221 146.197 3.28816 121.476C-3.3359 96.7547 0.131853 70.4145 12.9285 48.25C25.7252 26.0855 46.8026 9.91222 71.524 3.28816C96.2453 -3.3359 122.585 0.131851 144.75 12.9285L96.5 96.5L48.25 180.071Z" fill="#C4C4C4"></path></mask><g mask="url(#2_mask_wbtc_dai_univ2_icon_a9c96c34-1a38-4c98-ac21-6aadfa936165)"><circle cx="96.5" cy="96.5" r="96.5" transform="rotate(-180 96.5 96.5)" fill="url(#4_wbtc_dai_univ2_icon_a9c96c34-1a38-4c98-ac21-6aadfa936165)"></circle><path fill-rule="evenodd" clip-rule="evenodd" d="M66.4839 60.5462C66.4839 66.4101 57.432 65.6967 54.5562 65.6967V55.3665C57.432 55.3665 66.4839 54.4478 66.4839 60.5462ZM68.8483 76.5839C68.8483 82.9951 58.0014 82.2621 54.5466 82.2621V70.8862C58.0014 70.896 68.8483 69.8894 68.8483 76.5839ZM75.9894 58.23C75.4104 52.112 70.1993 50.0597 63.6082 49.4342V41H58.5128V49.2681C57.1714 49.2681 55.8011 49.2681 54.4404 49.3169V41H49.374V49.4831H46.1315H39.0483V55.0049C39.0483 55.0049 42.8119 54.9365 42.7539 55.0049C44.1648 54.8475 45.4444 55.8503 45.649 57.2723V80.503C45.5873 81.5106 44.7313 82.2758 43.7363 82.2142C43.7306 82.2142 43.7248 82.2142 43.719 82.2133C43.7865 82.2719 40.0133 82.2133 40.0133 82.2133L39 88.3801H45.6394H49.2872V97H54.3825V88.5072H58.4549V96.9609H63.5599V88.4387C72.1679 87.911 78.1704 85.7609 78.9231 77.6004C79.5311 71.0328 76.4816 68.1009 71.6082 66.9183C74.5709 65.3937 76.4333 62.7061 75.9894 58.23Z" fill="white"></path></g><defs><linearGradient id="1_wbtc_dai_univ2_icon_a9c96c34-1a38-4c98-ac21-6aadfa936165" x1="193" y1="2.46321" x2="193" y2="193" gradientUnits="userSpaceOnUse"><stop stop-color="#697DBC"></stop><stop offset="1" stop-color="#49589B"></stop></linearGradient><linearGradient id="2_wbtc_dai_univ2_icon_a9c96c34-1a38-4c98-ac21-6aadfa936165" x1="193" y1="2.46321" x2="193" y2="193" gradientUnits="userSpaceOnUse"><stop stop-color="#E3A92F"></stop><stop offset="1" stop-color="#E3BB60"></stop></linearGradient><linearGradient id="3_wbtc_dai_univ2_icon_a9c96c34-1a38-4c98-ac21-6aadfa936165" x1="193" y1="2.46321" x2="193" y2="193" gradientUnits="userSpaceOnUse"><stop stop-color="#E3BB5F"></stop><stop offset="1" stop-color="#E3AB35"></stop></linearGradient><linearGradient id="4_wbtc_dai_univ2_icon_a9c96c34-1a38-4c98-ac21-6aadfa936165" x1="193" y1="2.46321" x2="193" y2="193" gradientUnits="userSpaceOnUse"><stop stop-color="#D37F29"></stop><stop offset="1" stop-color="#E28E39"></stop></linearGradient></defs></svg>