<svg width="193" height="193" viewBox="0 0 193 193" fill="none" xmlns="http://www.w3.org/2000/svg" data-reactroot=""><circle cx="96.5" cy="96.5" r="96.5" fill="url(#1_uni_eth_univ2_icon_3a7668be-992f-437c-953f-c0dcf64c17b1)"></circle><path d="M136.775 77L136.259 78.7535V129.637L136.775 130.152L160.394 116.191L136.775 77Z" fill="#DEDEDE"></path><path d="M136.778 77L113.158 116.191L136.778 130.152V105.455V77Z" fill="white"></path><path d="M136.776 134.626L136.485 134.981V153.106L136.776 153.955L160.41 120.672L136.776 134.626Z" fill="#DEDEDE"></path><path d="M136.778 153.955V134.626L113.158 120.671L136.778 153.955Z" fill="white"></path><path d="M136.78 130.152L160.399 116.191L136.78 105.455V130.152Z" fill="#BDBDBD"></path><path d="M113.158 116.191L136.777 130.153V105.455L113.158 116.191Z" fill="#DEDEDE"></path><mask id="1_mask_uni_eth_univ2_icon_3a7668be-992f-437c-953f-c0dcf64c17b1" style="mask-type:alpha" maskUnits="userSpaceOnUse" x="-1" y="-1" width="146" height="182"><path d="M48.25 180.071C26.0855 167.275 9.91221 146.197 3.28816 121.476C-3.3359 96.7547 0.131853 70.4145 12.9285 48.25C25.7252 26.0855 46.8026 9.91222 71.524 3.28816C96.2453 -3.3359 122.585 0.131851 144.75 12.9285L96.5 96.5L48.25 180.071Z" fill="#C4C4C4"></path></mask><g mask="url(#1_mask_uni_eth_univ2_icon_3a7668be-992f-437c-953f-c0dcf64c17b1)"><circle cx="96.5" cy="96.5" r="96.5" transform="rotate(-180 96.5 96.5)" fill="url(#2_uni_eth_univ2_icon_3a7668be-992f-437c-953f-c0dcf64c17b1)"></circle><path opacity="0.9" fill-rule="evenodd" clip-rule="evenodd" d="M38.8809 50.6878C38.8809 58.5009 38.8719 59.3856 38.7908 59.4757C38.711 59.5643 38.3197 59.5757 35.3504 59.5757H32V62.6959V65.8161H35.3504C38.3197 65.8161 38.711 65.8275 38.7908 65.9162C38.8703 66.0044 38.8809 66.384 38.8809 69.1274C38.8809 71.8707 38.8703 72.2503 38.7908 72.3386C38.711 72.4272 38.3197 72.4386 35.3504 72.4386H32V75.5588V78.679H35.3504C38.3197 78.679 38.711 78.6904 38.7908 78.779C38.8719 78.869 38.8809 79.7422 38.8809 87.4396V96L49.016 95.9725C59.7335 95.9434 60.8739 95.9142 62.6775 95.6227C62.8825 95.5896 63.2437 95.5328 63.4802 95.4966C64.0057 95.416 64.0736 95.401 64.9711 95.1661C65.3653 95.0629 65.8169 94.9469 65.9746 94.9082C66.598 94.7554 68.4739 94.0719 69.3004 93.6965C70.523 93.1412 72.2589 92.1689 73.0849 91.5767C73.2741 91.441 73.6095 91.2009 73.8303 91.0431C74.2133 90.7695 75.6972 89.5504 75.8698 89.3677C75.915 89.3198 76.0932 89.1519 76.2659 88.9945C76.6733 88.6231 78.114 87.0228 78.4455 86.5735C78.587 86.3817 78.7169 86.2105 78.7342 86.193C78.7516 86.1754 78.9204 85.9462 79.1093 85.6835C79.8949 84.5915 80.8738 82.965 81.2555 82.1176C81.3265 81.96 81.4701 81.6734 81.5746 81.4808C81.6792 81.2882 81.8976 80.7867 82.0601 80.3665C82.5618 79.069 82.6553 78.8592 82.7731 78.7676C82.8668 78.6947 83.4072 78.6789 85.813 78.6781C87.4223 78.6777 88.7977 78.6598 88.8695 78.6384L89 78.5996L88.973 76.4902C88.9372 73.6845 88.8803 72.5796 88.7677 72.5007C88.7175 72.4657 87.7564 72.4401 86.4637 72.4395C84.4804 72.4387 84.2359 72.4275 84.1514 72.3336C84.0887 72.264 84.0707 72.1834 84.098 72.0948C84.216 71.7112 84.276 68.9347 84.2078 67.0061C84.1817 66.2689 84.1905 65.9748 84.2406 65.9077C84.298 65.831 84.665 65.8161 86.5056 65.8161C88.426 65.8161 88.7135 65.8035 88.7923 65.7161C88.8715 65.628 88.8823 65.2656 88.8823 62.6959C88.8823 60.1262 88.8715 59.7638 88.7923 59.6758C88.7127 59.5875 88.3652 59.5757 85.8366 59.5757H82.971L82.8303 59.4194C82.7529 59.3334 82.6895 59.218 82.6895 59.1629C82.6895 59.1077 82.6121 58.8924 82.5175 58.6842C82.4229 58.4761 82.3451 58.2692 82.3447 58.2244C82.3434 58.0888 81.1551 55.5044 80.8431 54.9591C79.9458 53.39 79.2071 52.2799 78.4307 51.3337C77.2039 49.8384 77.2272 49.8656 76.9553 49.6203C76.845 49.5208 76.5868 49.2708 76.3816 49.0648C75.5014 48.1811 74.1691 47.1097 72.8842 46.2523C72.1784 45.7812 70.2799 44.6954 69.8596 44.5224C69.6607 44.4405 69.5271 44.3819 68.77 44.0443C67.7347 43.5827 65.0803 42.7629 64.111 42.6053C63.9691 42.5822 63.711 42.5369 63.5376 42.5045C62.7221 42.3522 61.451 42.2005 60.3265 42.1212C59.7538 42.0809 55.3352 42.0437 49.1306 42.0273L38.8809 42V50.6878ZM60.8999 47.72C62.0993 47.883 62.3746 47.9218 62.5628 47.9547C63.838 48.1779 66.1655 48.9027 67.0678 49.3577C69.2311 50.4485 70.3965 51.203 71.68 52.3436C71.9165 52.5538 72.123 52.7415 72.1387 52.7608C72.1545 52.78 72.3088 52.9243 72.4817 53.0815C72.8822 53.4456 73.5267 54.1608 73.859 54.6099C74.0009 54.8017 74.1749 55.0243 74.2455 55.1045C74.5817 55.486 75.5423 56.9842 76.0508 57.9201C76.6247 58.9766 76.7795 59.4512 76.578 59.5371C76.5281 59.5583 69.2791 59.5757 60.4693 59.5757C45.9838 59.5757 44.4426 59.5662 44.3611 59.4757C44.2805 59.3861 44.271 58.7647 44.271 53.59C44.271 48.3993 44.2803 47.7941 44.3617 47.7037C44.4438 47.6126 45.2128 47.6054 52.4325 47.6285C57.4586 47.6444 60.5929 47.6784 60.8999 47.72ZM78.3183 65.8694C78.5161 66.0087 78.6305 67.1996 78.6314 69.1274C78.6321 70.88 78.502 72.2562 78.3237 72.3817C78.2803 72.4122 70.7235 72.4371 61.3484 72.4376C46.063 72.4385 44.4426 72.429 44.3611 72.3386C44.2817 72.2503 44.271 71.8707 44.271 69.1274C44.271 66.384 44.2817 66.0044 44.3611 65.9162C44.4426 65.8257 46.063 65.8162 61.3484 65.8171C70.6419 65.8176 78.2783 65.8411 78.3183 65.8694ZM76.6141 78.7782C76.7065 78.9019 76.6151 79.123 76.0003 80.2622C75.5635 81.0716 75.053 81.8705 74.4081 82.754C73.9547 83.375 72.4583 85.0354 71.909 85.5268C70.6524 86.651 69.213 87.6075 67.4129 88.5145C66.8731 88.7864 65.1323 89.4065 64.2257 89.6498C62.8774 90.0116 62.8815 90.0108 60.8999 90.28C60.5929 90.3216 57.4586 90.3556 52.4325 90.3715C45.2128 90.3946 44.4438 90.3874 44.3617 90.2963C44.2803 90.2059 44.271 89.6119 44.271 84.5373C44.271 79.4784 44.2805 78.8685 44.3611 78.779C44.4426 78.6885 45.9862 78.679 60.4956 78.679C74.9545 78.679 76.5473 78.6888 76.6141 78.7782Z" fill="white"></path></g><path d="M193 104L89 104L89 0L163 0C179.569 0 193 13.4315 193 30V104Z" fill="#FD007A"></path><circle cx="96.5" cy="96.5" r="96.5" fill="url(#3_uni_eth_univ2_icon_3a7668be-992f-437c-953f-c0dcf64c17b1)"></circle><path d="M136.775 77L136.259 78.7535V129.637L136.775 130.152L160.394 116.191L136.775 77Z" fill="#DEDEDE"></path><path d="M136.778 77L113.158 116.191L136.778 130.152V105.455V77Z" fill="white"></path><path d="M136.776 134.626L136.485 134.981V153.106L136.776 153.955L160.41 120.672L136.776 134.626Z" fill="#DEDEDE"></path><path d="M136.778 153.955V134.626L113.158 120.671L136.778 153.955Z" fill="white"></path><path d="M136.78 130.152L160.399 116.191L136.78 105.455V130.152Z" fill="#BDBDBD"></path><path d="M113.158 116.191L136.777 130.153V105.455L113.158 116.191Z" fill="#DEDEDE"></path><mask id="2_mask_uni_eth_univ2_icon_3a7668be-992f-437c-953f-c0dcf64c17b1" style="mask-type:alpha" maskUnits="userSpaceOnUse" x="-1" y="-1" width="146" height="182"><path d="M48.25 180.071C26.0855 167.275 9.91221 146.197 3.28816 121.476C-3.3359 96.7547 0.131853 70.4145 12.9285 48.25C25.7252 26.0855 46.8026 9.91222 71.524 3.28816C96.2453 -3.3359 122.585 0.131851 144.75 12.9285L96.5 96.5L48.25 180.071Z" fill="#C4C4C4"></path></mask><g mask="url(#2_mask_uni_eth_univ2_icon_3a7668be-992f-437c-953f-c0dcf64c17b1)"><circle r="96.5" transform="matrix(-1 0 0 1 96.5 96.5)" fill="url(#4_uni_eth_univ2_icon_3a7668be-992f-437c-953f-c0dcf64c17b1)"></circle><g><path d="M49.7306 44.4899C48.9276 44.3661 48.8937 44.3516 49.2716 44.2938C49.9958 44.1832 51.7059 44.334 52.8843 44.6125C55.6354 45.2624 58.1386 46.9274 60.8108 49.8844L61.5207 50.67L62.5362 50.5077C66.8145 49.8244 71.1669 50.3675 74.8072 52.0389C75.8086 52.4987 77.3878 53.4141 77.5851 53.6493C77.6478 53.7242 77.7631 54.2068 77.8413 54.7217C78.1116 56.5031 77.9762 57.8686 77.4283 58.8885C77.1298 59.4435 77.1132 59.6194 77.3139 60.0943C77.474 60.4734 77.9203 60.7539 78.3623 60.7533C79.2667 60.7521 80.2404 59.2986 80.6917 57.2762L80.8711 56.4729L81.226 56.8726C83.1732 59.0654 84.7029 62.0559 84.9655 64.1845L85.0338 64.7396L84.7067 64.235C84.1435 63.3668 83.5772 62.7758 82.8525 62.2991C81.5458 61.4398 80.1644 61.1475 76.5059 60.9558C73.2015 60.7828 71.3313 60.5022 69.477 59.9012C66.3219 58.8788 64.7314 57.5172 60.9836 52.63C59.3189 50.4593 58.29 49.2583 57.2665 48.2911C54.941 46.0934 52.6558 44.9408 49.7306 44.4899Z" fill="white"></path></g><g><path d="M78.3312 49.3365C78.4144 47.8819 78.6126 46.9225 79.0119 46.0463C79.1699 45.6995 79.3176 45.4156 79.3407 45.4156C79.3633 45.4156 79.2946 45.6716 79.1878 45.9845C78.8979 46.8348 78.85 47.9979 79.0499 49.351C79.3035 51.068 79.4479 51.3157 81.2739 53.1704C82.1301 54.0403 83.1264 55.1375 83.4872 55.6085L84.144 56.465L83.4872 55.8529C82.6844 55.1044 80.8379 53.6445 80.4301 53.4359C80.1563 53.2959 80.1158 53.2983 79.9471 53.4652C79.7916 53.619 79.7588 53.8501 79.7374 54.9425C79.7037 56.6452 79.4701 57.738 78.9068 58.8307C78.6019 59.4217 78.5537 59.2956 78.8295 58.6285C79.0354 58.1304 79.0563 57.9114 79.055 56.2632C79.0516 52.9515 78.6561 52.1553 76.3365 50.7915C75.7489 50.446 74.7804 49.9477 74.1846 49.6841C73.5888 49.4206 73.1156 49.191 73.1328 49.1738C73.1985 49.1089 75.4606 49.7651 76.3715 50.1133C77.7261 50.6311 77.9494 50.6983 78.1138 50.6358C78.2244 50.5939 78.2778 50.2747 78.3312 49.3365Z" fill="white"></path></g><g><path d="M51.2907 55.0021C49.6605 52.7714 48.6518 49.3511 48.8702 46.7943L48.9377 46.0031L49.3088 46.0704C50.0057 46.1967 51.2072 46.6412 51.7698 46.9809C53.3138 47.9129 53.9823 49.1399 54.6623 52.2907C54.8615 53.2137 55.1228 54.2581 55.2431 54.6116C55.4367 55.1808 56.1682 56.5101 56.763 57.3735C57.1914 57.9953 56.9068 58.2899 55.9598 58.2049C54.5136 58.0752 52.5545 56.7314 51.2907 55.0021Z" fill="white"></path></g><g><path d="M76.3534 71.6046C68.7348 68.5558 66.0515 65.9094 66.0515 61.4441C66.0515 60.787 66.0743 60.2493 66.102 60.2493C66.1297 60.2493 66.4245 60.4662 66.757 60.7313C68.302 61.9629 70.032 62.4889 74.8212 63.1833C77.6396 63.592 79.2256 63.9221 80.6886 64.4043C85.3386 65.9371 88.2156 69.0477 88.9018 73.2845C89.1012 74.5156 88.9842 76.8242 88.661 78.041C88.406 79.002 87.6271 80.7343 87.4204 80.8009C87.3632 80.8193 87.3073 80.6011 87.2923 80.3042C87.2142 78.7133 86.4054 77.1645 85.047 76.0043C83.5024 74.6852 81.4274 73.6349 76.3534 71.6046Z" fill="white"></path></g><g><path d="M71.0049 72.8711C70.9094 72.3065 70.7438 71.5855 70.6369 71.2689L70.4426 70.6932L70.8036 71.096C71.3033 71.6535 71.6982 72.3668 72.0328 73.3168C72.2883 74.0419 72.317 74.2576 72.3151 75.4359C72.3131 76.5927 72.2812 76.8352 72.0454 77.4879C71.6735 78.517 71.2119 79.2468 70.4374 80.0301C69.0457 81.438 67.2564 82.2173 64.6744 82.5406C64.2256 82.5965 62.9175 82.6913 61.7674 82.7507C58.8692 82.9006 56.9616 83.2102 55.2476 83.8085C55.0012 83.8943 54.7811 83.9468 54.7588 83.9246C54.6895 83.8559 55.8565 83.1645 56.8204 82.7029C58.1795 82.0521 59.5325 81.6972 62.5638 81.1954C64.0613 80.9473 65.6077 80.6467 66.0004 80.5271C69.7087 79.397 71.6149 76.4808 71.0049 72.8711Z" fill="white"></path></g><g><path d="M74.4977 79.0355C73.4854 76.8728 73.253 74.7846 73.8075 72.8372C73.8669 72.6291 73.9623 72.4588 74.0197 72.4588C74.077 72.4588 74.3159 72.5871 74.5504 72.7439C75.017 73.0561 75.9526 73.5817 78.4448 74.9323C81.5549 76.6177 83.3284 77.9227 84.5344 79.4137C85.5904 80.7194 86.2438 82.2068 86.5585 84.0204C86.7366 85.0474 86.632 87.5191 86.3668 88.5534C85.5306 91.8151 83.5872 94.3769 80.8153 95.8719C80.4092 96.091 80.0445 96.2708 80.0052 96.2716C79.9655 96.2725 80.1137 95.8984 80.334 95.4406C81.2662 93.5031 81.3726 91.6186 80.6675 89.521C80.2358 88.2365 79.3557 86.6693 77.5788 84.0204C75.5124 80.941 75.0059 80.1215 74.4977 79.0355Z" fill="white"></path></g><g><path d="M45.8813 90.705C48.7085 88.3324 52.2263 86.6469 55.4307 86.1293C56.8117 85.9064 59.1122 85.9948 60.391 86.3202C62.4408 86.8416 64.2745 88.0096 65.2281 89.4009C66.16 90.7605 66.5599 91.9456 66.9761 94.5821C67.1404 95.6224 67.319 96.6665 67.373 96.903C67.6857 98.2695 68.294 99.3615 69.0479 99.9102C70.2453 100.781 72.3071 100.835 74.3354 100.049C74.6796 99.9153 74.9784 99.8231 74.9993 99.844C75.0732 99.9166 74.0517 100.596 73.3312 100.954C72.3617 101.435 71.5907 101.621 70.5664 101.621C68.7087 101.621 67.1665 100.682 65.8795 98.767C65.6263 98.39 65.0571 97.2613 64.6146 96.2582C63.2558 93.178 62.5849 92.2398 61.0073 91.2128C59.6343 90.3194 57.8637 90.1593 56.5317 90.8084C54.782 91.6612 54.2938 93.8835 55.5469 95.2918C56.045 95.8517 56.9738 96.3342 57.7333 96.4282C59.1542 96.6041 60.3753 95.5297 60.3753 94.1038C60.3753 93.178 60.0172 92.6498 59.116 92.2454C57.885 91.6932 56.5619 92.3389 56.5682 93.488C56.5709 93.9783 56.7856 94.2857 57.2799 94.5082C57.5971 94.6508 57.6044 94.6619 57.3458 94.6086C56.2164 94.3758 55.9518 93.0226 56.8599 92.1241C57.9502 91.0458 60.2047 91.5215 60.9789 92.9939C61.3042 93.6123 61.3419 94.8439 61.0584 95.5873C60.4237 97.2519 58.5732 98.1269 56.696 97.6508C55.4179 97.3262 54.8975 96.9752 53.3566 95.3977C50.679 92.6562 49.6395 92.1249 45.7793 91.5262L45.0396 91.4113L45.8813 90.705Z" fill="white"></path></g><path fill-rule="evenodd" clip-rule="evenodd" d="M33.3169 41.6398C42.2589 52.4266 48.4177 56.877 49.1021 57.8173C49.6672 58.5937 49.4545 59.2917 48.4865 59.8387C47.9481 60.1428 46.8413 60.451 46.2871 60.451C45.6603 60.451 45.4451 60.2107 45.4451 60.2107C45.0817 59.8681 44.877 59.928 43.0107 56.6354C40.4197 52.6395 38.2513 49.3246 38.1922 49.2691C38.0554 49.1408 38.0578 49.1451 42.7465 57.4834C43.5041 59.2213 42.8972 59.8593 42.8972 60.1068C42.8972 60.6103 42.759 60.875 42.134 61.5678C41.0922 62.723 40.6265 64.021 40.2903 66.7073C39.9134 69.7185 38.8536 71.8457 35.9166 75.4862C34.1974 77.6173 33.9161 78.0079 33.4822 78.8668C32.9358 79.9484 32.7856 80.5543 32.7247 81.92C32.6603 83.3642 32.7857 84.2973 33.2296 85.6779C33.6182 86.8868 34.0239 87.685 35.0609 89.2812C35.9559 90.6589 36.4712 91.6829 36.4712 92.0834C36.4712 92.402 36.5324 92.4024 37.9192 92.0911C41.238 91.3464 43.9328 90.0362 45.4484 88.4306C46.3865 87.4369 46.6067 86.8881 46.6138 85.5267C46.6185 84.6359 46.587 84.4493 46.3447 83.9369C45.9504 83.1029 45.2325 82.4094 43.6503 81.3345C41.5771 79.9259 40.6916 78.7919 40.4471 77.2323C40.2464 75.9527 40.4792 75.0499 41.6261 72.6608C42.8131 70.1879 43.1073 69.1341 43.3063 66.6415C43.4349 65.0311 43.6129 64.396 44.0784 63.8862C44.5639 63.3546 45.001 63.1746 46.2025 63.0114C48.1615 62.7454 49.4088 62.2417 50.4342 61.3026C51.3236 60.488 51.6958 59.7031 51.7529 58.5214L51.7963 57.6258L51.2992 57.0498C49.4992 54.9638 32.1115 40 32.0007 40C31.977 40 32.5693 40.7379 33.3169 41.6398ZM37.4816 83.5543C37.8886 82.8377 37.6723 81.917 36.9916 81.4669C36.3484 81.042 35.3492 81.2423 35.3492 81.7962C35.3492 81.9653 35.4432 82.0882 35.6552 82.1967C36.0121 82.3791 36.038 82.5845 35.7572 83.0038C35.4728 83.4287 35.4957 83.8024 35.8219 84.056C36.3477 84.4651 37.0918 84.2401 37.4816 83.5543Z" fill="white"></path><g><path fill-rule="evenodd" clip-rule="evenodd" d="M53.0326 63.4811C52.113 63.7619 51.219 64.7306 50.9423 65.7464C50.7735 66.366 50.8693 67.453 51.1221 67.7887C51.5306 68.3309 51.9257 68.4738 52.9954 68.4663C55.0897 68.4518 56.9103 67.559 57.122 66.443C57.2955 65.5282 56.4958 64.2604 55.3944 63.7038C54.8261 63.4167 53.6174 63.3028 53.0326 63.4811ZM55.4808 65.3839C55.8038 64.9278 55.6625 64.4348 55.1132 64.1015C54.0672 63.4666 52.4854 63.992 52.4854 64.9741C52.4854 65.463 53.3103 65.9964 54.0664 65.9964C54.5697 65.9964 55.2584 65.6981 55.4808 65.3839Z" fill="white"></path></g></g><defs><linearGradient id="1_uni_eth_univ2_icon_3a7668be-992f-437c-953f-c0dcf64c17b1" x1="193" y1="2.46321" x2="193" y2="193" gradientUnits="userSpaceOnUse"><stop stop-color="#697DBC"></stop><stop offset="1" stop-color="#49589B"></stop></linearGradient><linearGradient id="2_uni_eth_univ2_icon_3a7668be-992f-437c-953f-c0dcf64c17b1" x1="193" y1="2.46321" x2="193" y2="193" gradientUnits="userSpaceOnUse"><stop stop-color="#E3A92F"></stop><stop offset="1" stop-color="#E3BB60"></stop></linearGradient><linearGradient id="3_uni_eth_univ2_icon_3a7668be-992f-437c-953f-c0dcf64c17b1" x1="193" y1="2.46321" x2="193" y2="193" gradientUnits="userSpaceOnUse"><stop stop-color="#697DBC"></stop><stop offset="1" stop-color="#49589B"></stop></linearGradient><linearGradient id="4_uni_eth_univ2_icon_3a7668be-992f-437c-953f-c0dcf64c17b1" x1="96.5" y1="0" x2="96.5" y2="193" gradientUnits="userSpaceOnUse"><stop stop-color="#FC157B"></stop><stop offset="1" stop-color="#CA0049"></stop></linearGradient></defs></svg>