<svg width="193" height="193" viewBox="0 0 193 193" fill="none" xmlns="http://www.w3.org/2000/svg" data-reactroot=""><circle cx="96.5" cy="96.5" r="96.5" fill="url(#1_aave_eth_univ2_icon_95d4f0e2-76be-439f-beee-c48f222ee864)"></circle><path d="M136.775 77L136.259 78.7535V129.637L136.775 130.152L160.394 116.191L136.775 77Z" fill="#DEDEDE"></path><path d="M136.778 77L113.158 116.191L136.778 130.152V105.455V77Z" fill="white"></path><path d="M136.776 134.626L136.485 134.98V153.106L136.776 153.955L160.41 120.672L136.776 134.626Z" fill="#DEDEDE"></path><path d="M136.778 153.955V134.626L113.158 120.671L136.778 153.955Z" fill="white"></path><path d="M136.78 130.152L160.399 116.191L136.78 105.455V130.152Z" fill="#BDBDBD"></path><path d="M113.158 116.191L136.777 130.153V105.455L113.158 116.191Z" fill="#DEDEDE"></path><mask id="1_mask_aave_eth_univ2_icon_95d4f0e2-76be-439f-beee-c48f222ee864" style="mask-type:alpha" maskUnits="userSpaceOnUse" x="-1" y="-1" width="146" height="182"><path d="M48.25 180.071C26.0855 167.275 9.91221 146.197 3.28816 121.476C-3.3359 96.7547 0.131853 70.4145 12.9285 48.25C25.7252 26.0855 46.8026 9.91222 71.524 3.28816C96.2453 -3.3359 122.585 0.131851 144.75 12.9285L96.5 96.5L48.25 180.071Z" fill="#C4C4C4"></path></mask><g mask="url(#1_mask_aave_eth_univ2_icon_95d4f0e2-76be-439f-beee-c48f222ee864)"><circle cx="96.5" cy="96.5" r="96.5" transform="rotate(-180 96.5 96.5)" fill="url(#2_aave_eth_univ2_icon_95d4f0e2-76be-439f-beee-c48f222ee864)"></circle><path opacity="0.9" fill-rule="evenodd" clip-rule="evenodd" d="M38.8809 50.6878C38.8809 58.5009 38.8719 59.3856 38.7908 59.4757C38.711 59.5643 38.3197 59.5757 35.3504 59.5757H32V62.6959V65.8161H35.3504C38.3197 65.8161 38.711 65.8275 38.7908 65.9162C38.8703 66.0044 38.8809 66.384 38.8809 69.1274C38.8809 71.8707 38.8703 72.2503 38.7908 72.3386C38.711 72.4272 38.3197 72.4386 35.3504 72.4386H32V75.5588V78.679H35.3504C38.3197 78.679 38.711 78.6904 38.7908 78.779C38.8719 78.869 38.8809 79.7422 38.8809 87.4396V96L49.016 95.9725C59.7335 95.9434 60.8739 95.9142 62.6775 95.6227C62.8825 95.5896 63.2437 95.5328 63.4802 95.4966C64.0057 95.416 64.0736 95.401 64.9711 95.1661C65.3653 95.0629 65.8169 94.9469 65.9746 94.9082C66.598 94.7554 68.4739 94.0719 69.3004 93.6965C70.523 93.1412 72.2589 92.1689 73.0849 91.5767C73.2741 91.441 73.6095 91.2009 73.8303 91.0431C74.2133 90.7695 75.6972 89.5504 75.8698 89.3677C75.915 89.3198 76.0932 89.1519 76.2659 88.9945C76.6733 88.6231 78.114 87.0228 78.4455 86.5735C78.587 86.3817 78.7169 86.2105 78.7342 86.193C78.7516 86.1754 78.9204 85.9462 79.1093 85.6835C79.8949 84.5915 80.8738 82.965 81.2555 82.1176C81.3265 81.96 81.4701 81.6734 81.5746 81.4808C81.6792 81.2882 81.8976 80.7867 82.0601 80.3665C82.5618 79.069 82.6553 78.8592 82.7731 78.7676C82.8668 78.6947 83.4072 78.6789 85.813 78.6781C87.4223 78.6777 88.7977 78.6598 88.8695 78.6384L89 78.5996L88.973 76.4902C88.9372 73.6845 88.8803 72.5796 88.7677 72.5007C88.7175 72.4657 87.7564 72.4401 86.4637 72.4395C84.4804 72.4387 84.2359 72.4275 84.1514 72.3336C84.0887 72.264 84.0707 72.1834 84.098 72.0948C84.216 71.7112 84.276 68.9347 84.2078 67.0061C84.1817 66.2689 84.1905 65.9748 84.2406 65.9077C84.298 65.831 84.665 65.8161 86.5056 65.8161C88.426 65.8161 88.7135 65.8035 88.7923 65.7161C88.8715 65.628 88.8823 65.2656 88.8823 62.6959C88.8823 60.1262 88.8715 59.7638 88.7923 59.6758C88.7127 59.5875 88.3652 59.5757 85.8366 59.5757H82.971L82.8303 59.4194C82.7529 59.3334 82.6895 59.218 82.6895 59.1629C82.6895 59.1077 82.6121 58.8924 82.5175 58.6842C82.4229 58.4761 82.3451 58.2692 82.3447 58.2244C82.3434 58.0888 81.1551 55.5044 80.8431 54.9591C79.9458 53.39 79.2071 52.2799 78.4307 51.3337C77.2039 49.8384 77.2272 49.8656 76.9553 49.6203C76.845 49.5208 76.5868 49.2708 76.3816 49.0648C75.5014 48.1811 74.1691 47.1097 72.8842 46.2523C72.1784 45.7812 70.2799 44.6954 69.8596 44.5224C69.6607 44.4405 69.5271 44.3819 68.77 44.0443C67.7347 43.5827 65.0803 42.7629 64.111 42.6053C63.9691 42.5822 63.711 42.5369 63.5376 42.5045C62.7221 42.3522 61.451 42.2005 60.3265 42.1212C59.7538 42.0809 55.3352 42.0437 49.1306 42.0273L38.8809 42V50.6878ZM60.8999 47.72C62.0993 47.883 62.3746 47.9218 62.5628 47.9547C63.838 48.1779 66.1655 48.9027 67.0678 49.3577C69.2311 50.4485 70.3965 51.203 71.68 52.3436C71.9165 52.5538 72.123 52.7415 72.1387 52.7608C72.1545 52.78 72.3088 52.9243 72.4817 53.0815C72.8822 53.4456 73.5267 54.1608 73.859 54.6099C74.0009 54.8017 74.1749 55.0243 74.2455 55.1045C74.5817 55.486 75.5423 56.9842 76.0508 57.9201C76.6247 58.9766 76.7795 59.4512 76.578 59.5371C76.5281 59.5583 69.2791 59.5757 60.4693 59.5757C45.9838 59.5757 44.4426 59.5662 44.3611 59.4757C44.2805 59.3861 44.271 58.7647 44.271 53.59C44.271 48.3993 44.2803 47.7941 44.3617 47.7037C44.4438 47.6126 45.2128 47.6054 52.4325 47.6285C57.4586 47.6444 60.5929 47.6784 60.8999 47.72ZM78.3183 65.8694C78.5161 66.0087 78.6305 67.1996 78.6314 69.1274C78.6321 70.88 78.502 72.2562 78.3237 72.3817C78.2803 72.4122 70.7235 72.4371 61.3484 72.4376C46.063 72.4385 44.4426 72.429 44.3611 72.3386C44.2817 72.2503 44.271 71.8707 44.271 69.1274C44.271 66.384 44.2817 66.0044 44.3611 65.9162C44.4426 65.8257 46.063 65.8162 61.3484 65.8171C70.6419 65.8176 78.2783 65.8411 78.3183 65.8694ZM76.6141 78.7782C76.7065 78.9019 76.6151 79.123 76.0003 80.2622C75.5635 81.0716 75.053 81.8705 74.4081 82.754C73.9547 83.375 72.4583 85.0354 71.909 85.5268C70.6524 86.651 69.213 87.6075 67.4129 88.5145C66.8731 88.7864 65.1323 89.4065 64.2257 89.6498C62.8774 90.0116 62.8815 90.0108 60.8999 90.28C60.5929 90.3216 57.4586 90.3556 52.4325 90.3715C45.2128 90.3946 44.4438 90.3874 44.3617 90.2963C44.2803 90.2059 44.271 89.6119 44.271 84.5373C44.271 79.4784 44.2805 78.8685 44.3611 78.779C44.4426 78.6885 45.9862 78.679 60.4956 78.679C74.9545 78.679 76.5473 78.6888 76.6141 78.7782Z" fill="white"></path></g><path d="M193 104L89 104L89 0L163 0C179.569 0 193 13.4315 193 30V104Z" fill="#FD007A"></path><circle cx="96.5" cy="96.5" r="96.5" fill="url(#3_aave_eth_univ2_icon_95d4f0e2-76be-439f-beee-c48f222ee864)"></circle><path d="M136.775 77L136.259 78.7535V129.637L136.775 130.152L160.394 116.191L136.775 77Z" fill="#DEDEDE"></path><path d="M136.778 77L113.158 116.191L136.778 130.152V105.455V77Z" fill="white"></path><path d="M136.776 134.626L136.485 134.98V153.106L136.776 153.955L160.41 120.672L136.776 134.626Z" fill="#DEDEDE"></path><path d="M136.778 153.955V134.626L113.158 120.671L136.778 153.955Z" fill="white"></path><path d="M136.78 130.152L160.399 116.191L136.78 105.455V130.152Z" fill="#BDBDBD"></path><path d="M113.158 116.191L136.777 130.153V105.455L113.158 116.191Z" fill="#DEDEDE"></path><mask id="2_mask_aave_eth_univ2_icon_95d4f0e2-76be-439f-beee-c48f222ee864" style="mask-type:alpha" maskUnits="userSpaceOnUse" x="-1" y="-1" width="146" height="182"><path d="M48.25 180.071C26.0855 167.275 9.91221 146.197 3.28816 121.476C-3.3359 96.7547 0.131853 70.4145 12.9285 48.25C25.7252 26.0855 46.8026 9.91222 71.524 3.28816C96.2453 -3.3359 122.585 0.131851 144.75 12.9285L96.5 96.5L48.25 180.071Z" fill="#C4C4C4"></path></mask><g mask="url(#2_mask_aave_eth_univ2_icon_95d4f0e2-76be-439f-beee-c48f222ee864)"><circle r="96.5" transform="matrix(-1 0 0 1 96.5 96.5)" fill="url(#4_aave_eth_univ2_icon_95d4f0e2-76be-439f-beee-c48f222ee864)"></circle><path d="M42.0054 65.0739C42.002 65.1211 42.0002 65.1683 42 65.2156V98.9444C42 99.2144 42.0517 99.4817 42.1523 99.7311C42.2528 99.9805 42.4001 100.207 42.5858 100.398C42.7716 100.589 42.9921 100.74 43.2347 100.844C43.4774 100.947 43.7375 101 44.0001 101C45.1046 101 46.0002 100.08 46.0002 98.9444V92.967C46.0002 91.8317 46.8954 90.9112 47.9999 90.9112C48.5304 90.9112 49.0391 91.1278 49.4142 91.5134C49.7893 91.8989 50 92.4217 50.0001 92.967V95.8007C50.0001 96.3459 50.2107 96.8687 50.5858 97.2542C50.9609 97.6397 51.4695 97.8563 52 97.8563C52.2626 97.8563 52.5227 97.8032 52.7653 97.6999C53.008 97.5966 53.2285 97.4452 53.4142 97.2543C53.6 97.0634 53.7473 96.8368 53.8478 96.5874C53.9483 96.338 54.0001 96.0707 54.0001 95.8007V92.967C54.0001 91.8317 54.8953 90.9112 56 90.9112H56.0002C57.1045 90.9112 58.0001 91.8317 58.0001 92.967V93.7405C58.0001 94.2857 58.2108 94.8085 58.5859 95.194C58.9609 95.5795 59.4696 95.7961 60 95.7961C60.5304 95.7961 61.0391 95.5795 61.4141 95.194C61.7892 94.8085 61.9999 94.2857 61.9999 93.7405V92.967C61.9999 91.8317 62.8955 90.9112 63.9998 90.9112C65.1045 90.9112 66.0001 91.8317 66.0001 92.967V95.8007C66.0001 96.0706 66.0518 96.3379 66.1523 96.5873C66.2528 96.8367 66.4001 97.0633 66.5858 97.2542C66.7714 97.4451 66.9919 97.5965 67.2345 97.6998C67.4772 97.8031 67.7372 97.8563 67.9998 97.8563C68.2625 97.8563 68.5226 97.8032 68.7652 97.6999C69.0079 97.5966 69.2284 97.4452 69.4141 97.2543C69.5998 97.0634 69.7472 96.8368 69.8477 96.5874C69.9482 96.338 70 96.0707 70 95.8007V92.967C70 92.4217 70.2108 91.8989 70.5858 91.5134C70.9609 91.1278 71.4696 90.9112 72.0001 90.9112C73.1046 90.9112 73.9998 91.8317 73.9998 92.967V98.9444C73.9998 100.08 74.8954 101 76.0001 101C76.5305 101 77.0392 100.783 77.4143 100.398C77.7893 100.012 78 99.4896 78 98.9444V65.2156C78 65.1679 77.9978 65.1206 77.9946 65.0739C77.7737 55.0534 69.8021 47 60 47C50.1977 47 42.2261 55.0534 42.0054 65.0739ZM63.4343 64.2592C63.4343 62.1747 64.8683 60.4848 66.6372 60.4848C68.4059 60.4848 69.8399 62.1747 69.8399 64.2592C69.8399 66.344 68.4059 68.0337 66.6372 68.0337C64.8683 68.0337 63.4343 66.344 63.4343 64.2592ZM50.1603 64.2592C50.1603 62.1747 51.5941 60.4848 53.3628 60.4848C55.1317 60.4848 56.5659 62.1747 56.5659 64.2592C56.5659 66.344 55.1317 68.0337 53.3628 68.0337C51.5941 68.0337 50.1603 66.344 50.1603 64.2592ZM63.0502 71.1661C63.0502 72.379 61.7489 73.3621 60.1435 73.3621C58.5382 73.3621 57.2368 72.379 57.2368 71.1661C57.2368 69.9533 58.5382 70.6851 60.1435 70.6851C61.7489 70.6851 63.0502 69.9533 63.0502 71.1661Z" fill="white"></path></g><defs><linearGradient id="1_aave_eth_univ2_icon_95d4f0e2-76be-439f-beee-c48f222ee864" x1="193" y1="2.46321" x2="193" y2="193" gradientUnits="userSpaceOnUse"><stop stop-color="#697DBC"></stop><stop offset="1" stop-color="#49589B"></stop></linearGradient><linearGradient id="2_aave_eth_univ2_icon_95d4f0e2-76be-439f-beee-c48f222ee864" x1="193" y1="2.46321" x2="193" y2="193" gradientUnits="userSpaceOnUse"><stop stop-color="#E3A92F"></stop><stop offset="1" stop-color="#E3BB60"></stop></linearGradient><linearGradient id="3_aave_eth_univ2_icon_95d4f0e2-76be-439f-beee-c48f222ee864" x1="193" y1="2.46321" x2="193" y2="193" gradientUnits="userSpaceOnUse"><stop stop-color="#697DBC"></stop><stop offset="1" stop-color="#49589B"></stop></linearGradient><linearGradient id="4_aave_eth_univ2_icon_95d4f0e2-76be-439f-beee-c48f222ee864" x1="193" y1="2.46321" x2="193" y2="193" gradientUnits="userSpaceOnUse"><stop stop-color="#2E8997"></stop><stop offset="1" stop-color="#3B6A8E"></stop></linearGradient></defs></svg>