<svg width="192" height="192" viewBox="0 0 192 192" fill="none" xmlns="http://www.w3.org/2000/svg">
<rect width="192" height="192" rx="96" fill="url(#paint0_linear_2171_34994)"/>
<path d="M142.767 85.404L94.3865 36L46 85.404L70.1914 110.104L94.3865 85.404L118.577 110.104L142.767 85.404Z" fill="white"/>
<path fill-rule="evenodd" clip-rule="evenodd" d="M82.6656 143.249H89.5627V145.15C89.5627 146.745 90.0477 147.836 90.9225 148.556C91.8431 149.285 93.1407 149.691 94.8986 149.691C96.7196 149.691 97.9294 149.325 98.6615 148.726L98.6697 148.72C99.4503 148.099 99.8163 147.344 99.8163 146.404C99.8163 145.748 99.6287 145.283 99.3039 144.939L99.2892 144.924C98.9534 144.546 98.4089 144.197 97.589 143.915L97.5634 143.906C96.7434 143.589 95.7222 143.291 94.4905 143.018L93.5296 142.809C91.4853 142.354 89.7009 141.781 88.1928 141.085L88.1773 141.078C86.6628 140.336 85.4585 139.354 84.5965 138.122L84.5892 138.112C83.7317 136.843 83.3355 135.237 83.3355 133.353C83.3355 131.452 83.7821 129.785 84.7118 128.389C85.6598 126.983 86.973 125.918 88.622 125.198C90.2948 124.452 92.2256 124.091 94.3962 124.091C96.5696 124.091 98.526 124.467 100.251 125.239C102.017 125.989 103.414 127.137 104.416 128.684C105.462 130.226 105.96 132.133 105.96 134.357V136.342H99.0632V134.357C99.0632 133.332 98.8573 132.597 98.516 132.085L98.4968 132.056C98.1682 131.509 97.6896 131.109 97.0235 130.856L97.0033 130.849C96.3042 130.56 95.4413 130.402 94.3962 130.402C92.793 130.402 91.7479 130.713 91.1266 131.207C90.5409 131.667 90.2316 132.298 90.2316 133.186C90.2316 133.779 90.3762 134.234 90.6297 134.589C90.928 134.969 91.3892 135.318 92.0572 135.615C92.7491 135.922 93.6587 136.202 94.7998 136.446L95.7615 136.656C97.89 137.11 99.755 137.696 101.347 138.419C102.998 139.157 104.317 140.147 105.268 141.405C106.25 142.704 106.712 144.334 106.712 146.237C106.712 148.154 106.216 149.874 105.208 151.372C104.232 152.836 102.838 153.976 101.063 154.804C99.302 155.61 97.2367 156.002 94.8986 156.002C92.5523 156.002 90.4494 155.582 88.6073 154.72C86.7634 153.858 85.302 152.612 84.2469 150.984C83.1818 149.34 82.6656 147.384 82.6656 145.15V143.249ZM55.5606 154.613C53.7396 153.657 52.3248 152.306 51.3329 150.562L51.3256 150.549C50.3647 148.779 49.8989 146.716 49.8989 144.387V124.667H56.8802V144.555C56.8802 146.195 57.3368 147.402 58.1759 148.267C59.0316 149.12 60.298 149.598 62.0898 149.598C63.8861 149.598 65.1343 149.118 65.9597 148.271L65.9661 148.264C66.8318 147.398 67.3003 146.192 67.3003 144.555V124.667H74.2816V144.387C74.2816 146.719 73.7993 148.783 72.8083 150.556C71.8429 152.306 70.4235 153.66 68.5741 154.614C66.7476 155.542 64.5752 155.992 62.0898 155.992C59.6053 155.992 57.4246 155.545 55.5734 154.619L55.5606 154.613ZM115.1 149.095V155.407H127.876C131.925 155.407 135.119 154.386 137.336 152.23C139.587 150.041 140.653 146.853 140.653 142.798V137.276C140.653 133.224 139.589 130.048 137.336 127.885C135.12 125.701 131.925 124.667 127.876 124.667H115.1V130.978H118.949V149.095H115.1ZM127.96 131.145C130.074 131.145 131.464 131.699 132.307 132.655L132.313 132.661C133.183 133.626 133.672 135.071 133.672 137.109V142.965C133.672 144.971 133.185 146.421 132.307 147.419C131.464 148.374 130.074 148.928 127.96 148.928H125.929V131.145H127.96Z" fill="#1F2333"/>
<defs>
<linearGradient id="paint0_linear_2171_34994" x1="96" y1="0" x2="96" y2="192.191" gradientUnits="userSpaceOnUse">
<stop stop-color="#C3EEE4"/>
<stop offset="1" stop-color="#2AC8A5"/>
</linearGradient>
</defs>
</svg>
