<svg width="192" height="192" viewBox="0 0 192 192" fill="none" xmlns="http://www.w3.org/2000/svg">
    <g clip-path="url(#clip0_3989_18137)">
        <path d="M27.04 162.787C-9.84539 124.702 -8.87256 63.9257 29.2128 27.04C67.2985 -9.84539 128.074 -8.87256 164.96 29.2128C201.845 67.2985 200.873 128.074 162.787 164.96C124.702 201.845 63.9257 200.873 27.04 162.787Z" fill="#A99482"/>
        <path d="M35.5274 154.567C3.18171 121.169 4.03481 67.8733 37.4329 35.5274C70.831 3.18177 124.127 4.03486 156.473 37.4329C188.818 70.8311 187.965 124.127 154.567 156.473C121.169 188.818 67.8732 187.965 35.5274 154.567Z" fill="#141414"/>
        <path d="M81.6889 129.995L93.7361 145.71L96.2041 144.285L96.2082 144.288V121.106L81.6889 129.995ZM63.2002 105.871L77.7172 124.812V124.809L96.2082 113.488V85.6605L63.2002 105.871ZM63.2002 70.4277L44.7116 81.7491L59.2281 100.69V100.688L96.2082 78.0455L96.208 50.2178L63.2002 70.4277Z" fill="#FFF1E5"/>
        <path d="M96.1952 144.302L96.2242 144.285L98.6752 145.7L110.714 129.995L96.1952 121.106V144.302ZM96.1952 113.488L114.686 124.809V124.812L129.203 105.871L96.1952 85.6605V113.488ZM96.1952 78.0455L133.175 100.688V100.69L147.692 81.7491L129.203 70.4277L96.1954 50.2178L96.1952 78.0455Z" fill="#A99482"/>
    </g>
    <defs>
        <clipPath id="clip0_3989_18137">
            <rect width="192" height="192" fill="white"/>
        </clipPath>
    </defs>
</svg>
