<svg width="193" height="193" viewBox="0 0 193 193" fill="none" xmlns="http://www.w3.org/2000/svg" data-reactroot=""><circle cx="96.5" cy="96.5" r="96.5" fill="url(#usdc_icon_58ebc828-3ae6-4f3f-a890-f7e0a955b741)" fill-opacity="0.9"></circle><path fill-rule="evenodd" clip-rule="evenodd" d="M84.3319 52.1967C84.3319 50.1568 84.2355 49.8424 83.3332 48.9401C81.9878 47.5947 81.8573 47.6122 75.8597 49.9285C71.433 51.6385 64.654 56.3341 60.2402 60.7478C55.8538 65.1343 51.11 71.9703 49.4602 76.2819C49.0974 77.2303 48.5152 78.751 48.1664 79.6608C47.6023 81.1319 46.4978 85.2296 45.8951 88.0851C45.6208 89.3861 45 95.9007 45 97.4804C45 99.285 45.6413 105.623 46.0198 107.559C46.6228 110.641 49.1257 117.669 50.6905 120.671C55.6611 130.21 65.4196 139.661 74.6031 143.831C80.5874 146.548 81.9332 146.834 83.3503 145.686C84.0469 145.122 84.1692 144.677 84.2762 142.32C84.3968 139.666 84.3742 139.575 83.2861 138.336C82.1959 137.094 79.3746 135.403 78.3934 135.403C78.1211 135.403 76.0667 134.193 73.8283 132.714C66.9871 128.194 62.5228 123.184 58.8897 115.951C55.6208 109.442 54.4811 104.578 54.4811 97.1388C54.4811 89.6342 55.613 84.8555 58.9799 78.1459C63.3277 69.4824 69.558 63.4503 78.8214 58.9361C84.0609 56.3829 84.3319 56.0515 84.3319 52.1967ZM128.132 56.3884C123.5 52.8103 119.268 50.5151 113.746 48.5865C111.32 47.7393 111.109 47.7604 109.893 48.976C108.89 49.9794 108.863 50.0905 108.981 52.6993C109.076 54.7905 109.255 55.5565 109.786 56.1448C110.161 56.5613 112.392 57.8664 114.743 59.0457C124.071 63.7232 129.928 69.4763 134.373 78.327C137.642 84.8361 138.781 89.6994 138.781 97.1388C138.781 104.017 138.336 106.153 135.077 114.89C132.163 122.701 121.463 133.136 113.327 136.101C109.748 137.405 108.943 138.488 108.936 142.006C108.931 144.132 109.019 144.427 109.929 145.337C111.448 146.856 112.333 146.704 118.659 143.831C126.205 140.404 134.764 132.934 139.63 125.525C142.793 120.71 145.287 115.444 146.359 111.317C148.518 103.007 148.81 94.834 147.239 86.7185C146.646 83.6543 144.141 76.6174 142.572 73.6061C139.378 67.4769 133.659 60.6576 128.132 56.3884ZM101.406 67.7417C101.256 64.9088 101.109 64.2248 100.52 63.6361C99.9483 63.0642 99.3319 62.918 97.2831 62.8664C92.487 62.7465 92.0681 63.0847 91.9216 67.194C91.8316 69.7099 91.809 70.7192 91.2963 71.2812C90.9368 71.6751 90.3365 71.8493 89.3032 72.1684C88.0951 72.5415 86.5044 73.1538 85.7685 73.5292C83.8167 74.5251 80.3776 78.1541 79.2933 80.3629C78.433 82.1145 78.353 82.6109 78.353 86.2061C78.353 89.7848 78.4354 90.3028 79.2772 92.0165C81.0442 95.6147 84.9885 98.5194 89.4566 99.5132C90.4901 99.7432 91.8915 100.071 92.5711 100.243C93.2506 100.415 94.2093 100.555 94.7016 100.555C95.6637 100.555 97.7446 101 100.698 101.837C103.638 102.67 106.197 105.367 106.197 107.632C106.197 108.724 105.085 111.966 104.446 112.735C103.461 113.923 98.8987 115.588 96.6312 115.588C95.4675 115.588 92.5263 114.856 90.8177 114.142C89.2164 113.472 87.5249 111.487 87.0487 109.72C86.8362 108.93 86.1532 107.775 85.5311 107.152C84.4354 106.057 84.3134 106.022 81.6065 106.022C78.9745 106.022 78.7552 106.079 77.8143 107.02C77.2649 107.57 76.8156 108.236 76.8156 108.501C76.8156 109.38 78.2246 113.345 79.0305 114.734C80.9612 118.062 85.0032 121.112 88.8051 122.11C90.1635 122.467 91.3654 122.849 91.4761 122.959C91.5868 123.069 91.7579 124.684 91.8567 126.549C92.022 129.673 92.1098 130.012 92.9749 130.878C93.8413 131.744 94.1225 131.816 96.6312 131.816C99.1444 131.816 99.4201 131.745 100.294 130.871C101.151 130.015 101.248 129.663 101.34 127.113C101.43 124.596 101.448 123.578 101.963 123.008C102.334 122.596 102.964 122.418 104.065 122.079C106.829 121.229 109.241 119.691 111.654 117.241C114.546 114.302 115.756 111.296 115.756 107.047C115.756 101.305 113.452 97.5122 108.348 94.8518C106.375 93.8234 105.134 93.448 101.243 92.7011C100.116 92.4845 98.6377 92.1647 97.9582 91.9902C97.2786 91.8152 96.2786 91.6724 95.7361 91.6724C94.4641 91.6724 90.2062 90.1302 89.3575 89.3622C88.2578 88.3666 87.7484 87.0106 87.7484 85.0779C87.7484 82.0246 89.4446 80.1182 92.9752 79.2033C95.2468 78.6146 96.788 78.5555 98.2031 79.0031C98.7477 79.1756 99.6203 79.41 100.142 79.5245C101.572 79.8377 103.819 82.0605 104.69 84.0246C105.116 84.986 105.719 85.8699 106.03 85.9891C106.34 86.1084 107.889 86.2061 109.471 86.2061C111.892 86.2061 112.455 86.0978 113.03 85.5228C114.056 84.4975 113.902 82.6481 112.562 79.876C110.835 76.3031 107.772 73.6211 103.977 72.3584C103.037 72.0458 102.115 71.644 101.927 71.4653C101.739 71.287 101.504 69.6112 101.406 67.7417Z" fill="white"></path><defs><linearGradient id="usdc_icon_58ebc828-3ae6-4f3f-a890-f7e0a955b741" x1="193" y1="2.46321" x2="193" y2="193" gradientUnits="userSpaceOnUse"><stop stop-color="#368CD1"></stop><stop offset="1" stop-color="#294C73"></stop></linearGradient></defs></svg>