<svg width="194" height="194" viewBox="0 0 194 194" fill="none" xmlns="http://www.w3.org/2000/svg">
<path d="M97.3239 2.24529H97.3275C149.658 2.24529 192.08 44.6676 192.08 96.9982V97.0018C192.08 149.332 149.658 191.755 97.3275 191.755H97.3239C44.9933 191.755 2.57098 149.332 2.57098 97.0018V96.9982C2.57098 44.6676 44.9933 2.24529 97.3239 2.24529Z" fill="black" stroke="black" stroke-width="3.49058"/>
<path fill-rule="evenodd" clip-rule="evenodd" d="M69.2091 21.1434C38.4163 32.5434 16.4678 62.1738 16.4678 96.9306C16.4678 131.687 38.4163 161.318 69.2091 172.718V164.748C42.6039 153.733 23.8871 127.517 23.8871 96.9306C23.8871 66.3437 42.6039 40.1284 69.2091 29.1131V21.1434ZM125.306 29.114V21.1443C156.097 32.5448 178.045 62.1746 178.045 96.9306C178.045 131.686 156.097 161.316 125.306 172.717V164.747C151.91 153.731 170.626 127.517 170.626 96.9306C170.626 66.3446 151.91 40.1299 125.306 29.114Z" fill="white"/>
<path fill-rule="evenodd" clip-rule="evenodd" d="M97.2614 29.1066L101.493 36.3769L127.393 80.8762H143.772V88.2956H50.7827V80.8762H67.1229L93.029 36.3765L97.2614 29.1066ZM97.2605 48.5738L116.062 80.8762H78.4552L97.2605 48.5738ZM127.439 112.532H143.772V105.113H50.7827V112.532H67.0769L93.029 157.111L97.2614 164.381L101.493 157.11L127.439 112.532ZM116.108 112.532H78.4091L97.2605 144.914L116.108 112.532Z" fill="white"/>
</svg>
