<svg width="192" height="192" viewBox="0 0 192 192" fill="none" xmlns="http://www.w3.org/2000/svg">
    <path d="M0 96C0 42.9807 42.9807 0 96 0C149.019 0 192 42.9807 192 96C192 149.019 149.019 192 96 192C42.9807 192 0 149.019 0 96Z" fill="url(#paint0_linear_3847_5543)"/>
    <path d="M42.7295 107.519C48.0155 132.08 69.8574 150.489 95.999 150.489C122.141 150.489 143.982 132.08 149.269 107.519H154.895C149.523 135.144 125.196 155.998 95.999 155.998C66.802 155.998 42.4755 135.144 37.1035 107.519H42.7295ZM93.7568 62.5862H98.9189V53.052H105.226V62.9622C108.438 63.6127 111.147 65.1083 113.35 67.4475C116.401 70.6256 117.928 74.8322 117.928 80.0667H111.589C111.589 76.6394 110.649 73.8976 108.771 71.8411C106.894 69.7849 104.399 68.7561 101.288 68.7561H91.3398C87.9946 68.7562 85.3238 69.5664 83.3281 71.1868C81.333 72.7447 80.335 74.8636 80.335 77.5432V82.5911C80.335 84.772 81.0692 86.6102 82.5361 88.1057C84.0619 89.6013 86.1461 90.5983 88.7871 91.0969L104.545 93.9954C109.123 94.868 112.675 96.5506 115.198 99.0432C117.722 101.474 118.983 104.59 118.983 108.391V114.373C118.983 118.922 117.34 122.6 114.054 125.405C111.657 127.404 108.714 128.673 105.226 129.214V139.053H98.9189V129.517H93.7568V139.053H87.4492V129.23C85.3445 128.876 83.413 128.194 81.6562 127.18C78.9565 125.56 76.8434 123.316 75.3174 120.449C73.8502 117.521 73.1162 114.155 73.1162 110.354H79.4551C79.4551 114.217 80.5114 117.365 82.624 119.795C84.7957 122.163 87.6427 123.348 91.1641 123.348H100.936C104.398 123.348 107.187 122.538 109.3 120.917C111.413 119.235 112.469 117.053 112.469 114.373V108.391C112.469 106.272 111.677 104.464 110.092 102.969C108.566 101.474 106.452 100.508 103.753 100.072L87.9062 97.2668C83.4459 96.4567 79.9826 94.7738 77.5176 92.219C75.0529 89.664 73.8204 86.4544 73.8203 82.5911V77.5432C73.8203 72.994 75.405 69.3793 78.5742 66.6995C80.9678 64.6664 83.9264 63.3872 87.4492 62.8616V53.052H93.7568V62.5862ZM95.999 36.0012C125.233 36.0012 149.583 56.9079 154.914 84.5852H149.291C144.044 59.9719 122.178 41.511 95.999 41.511C69.8205 41.511 47.9536 59.9721 42.707 84.5852H37.084C42.415 56.9081 66.7653 36.0012 95.999 36.0012Z" fill="#151A1E"/>
    <defs>
        <linearGradient id="paint0_linear_3847_5543" x1="96" y1="-17" x2="96" y2="192" gradientUnits="userSpaceOnUse">
            <stop stop-color="white"/>
            <stop offset="1" stop-color="#F0F0F0"/>
        </linearGradient>
    </defs>
</svg>
