<svg width="192" height="192" viewBox="0 0 192 192" fill="none" xmlns="http://www.w3.org/2000/svg">
<g clip-path="url(#clip0_3038_37672)">
<path d="M192 96C192 121.776 181.845 145.173 165.312 162.418C164.839 162.912 164.359 163.399 163.879 163.879C163.399 164.359 162.939 164.805 162.466 165.264C159.086 168.507 155.472 171.504 151.653 174.226C149.678 175.639 147.641 176.976 145.55 178.238C131.088 186.974 114.13 192 96 192C77.8697 192 60.96 186.987 46.5051 178.265C44.4137 177.01 42.3703 175.673 40.3886 174.254C36.5691 171.538 32.9554 168.549 29.5817 165.312C28.6149 164.386 27.6686 163.44 26.7429 162.473C10.176 145.227 0 121.803 0 96C0 70.1966 10.7451 45.4903 28.1211 28.1211C45.4903 10.7451 69.4903 0 96 0C122.51 0 146.51 10.7451 163.879 28.1211C181.255 45.4903 192 69.4903 192 96Z" fill="#4281A4"/>
<mask id="mask0_3038_37672" style="mask-type:luminance" maskUnits="userSpaceOnUse" x="0" y="0" width="192" height="192">
<path d="M192 96C192 121.776 181.845 145.173 165.312 162.418C164.839 162.912 164.359 163.399 163.879 163.879C163.399 164.359 162.939 164.805 162.466 165.264C159.086 168.507 155.472 171.504 151.653 174.226C149.678 175.639 147.641 176.976 145.55 178.238C131.088 186.974 114.13 192 96 192C77.8697 192 60.96 186.987 46.5051 178.265C44.4137 177.01 42.3703 175.673 40.3886 174.254C36.5691 171.538 32.9554 168.549 29.5817 165.312C28.6149 164.386 27.6686 163.44 26.7429 162.473C10.176 145.227 0 121.803 0 96C0 70.1966 10.7451 45.4903 28.1211 28.1211C45.4903 10.7451 69.4903 0 96 0C122.51 0 146.51 10.7451 163.879 28.1211C181.255 45.4903 192 69.4903 192 96Z" fill="white"/>
</mask>
<g mask="url(#mask0_3038_37672)">
<g opacity="0.2">
<path d="M22.416 169.653L168.61 23.4514" stroke="#F6E8D7" stroke-width="4.11429" stroke-linecap="round" stroke-linejoin="round"/>
<path d="M20.6675 20.6331L173.17 173.136" stroke="#F6E8D7" stroke-width="4.11429" stroke-linecap="round" stroke-linejoin="round"/>
<path d="M96 -4.80687V210.864" stroke="#F6E8D7" stroke-width="4.11429" stroke-linecap="round" stroke-linejoin="round"/>
<path d="M-1.6665 65.6297L150.836 218.139" stroke="#F6E8D7" stroke-width="4.11429" stroke-linecap="round" stroke-linejoin="round"/>
<path d="M-13.8994 96H201.778" stroke="#F6E8D7" stroke-width="4.11429" stroke-linecap="round" stroke-linejoin="round"/>
<path d="M95.9998 163.358C133.2 163.358 163.358 133.201 163.358 96C163.358 58.7993 133.2 28.6423 95.9998 28.6423C58.7992 28.6423 28.6421 58.7993 28.6421 96C28.6421 133.201 58.7992 163.358 95.9998 163.358Z" stroke="#F6E8D7" stroke-width="4.11429" stroke-linecap="round" stroke-linejoin="round"/>
</g>
<path d="M96.0135 163.358L28.6626 163.399L62.3586 129.71L96.0135 163.358Z" stroke="#F6E8D7" stroke-width="4.11429" stroke-linecap="round" stroke-linejoin="round"/>
<path d="M163.392 95.9794C163.392 114.59 155.87 131.424 143.671 143.623L96.0068 95.9794V28.6011C133.234 28.6011 163.399 58.7726 163.399 95.9794H163.392Z" stroke="#F6E8D7" stroke-width="4.11429" stroke-linecap="round" stroke-linejoin="round"/>
<path d="M95.9999 28.6011C58.7793 28.6011 28.6079 58.7657 28.6079 95.9794H95.9999V28.6011Z" stroke="#F6E8D7" stroke-width="4.11429" stroke-linecap="round" stroke-linejoin="round"/>
<path d="M28.6079 95.9794L96.0136 163.358H163.364L163.392 163.337L95.9999 95.9794H28.6079Z" stroke="#F6E8D7" stroke-width="4.11429" stroke-linecap="round" stroke-linejoin="round"/>
</g>
</g>
<defs>
<clipPath id="clip0_3038_37672">
<rect width="192" height="192" fill="white"/>
</clipPath>
</defs>
</svg>
