<svg width="192" height="192" viewBox="0 0 192 192" fill="none" xmlns="http://www.w3.org/2000/svg">
    <rect width="192" height="192" rx="96" fill="url(#paint0_linear_2132_33566)"/>
    <path fill-rule="evenodd" clip-rule="evenodd" d="M61.0164 103.605C61.772 102.781 63.0014 102.6 63.9627 103.17L95.979 122.163L128.151 103.167C129.111 102.601 130.337 102.782 131.091 103.603C131.846 104.424 131.924 105.66 131.278 106.57L97.9025 153.574C97.3893 154.296 96.5148 154.671 95.6377 154.544C94.7605 154.417 94.0282 153.81 93.7411 152.971L93.4429 152.1L60.8366 106.578C60.1858 105.669 60.2608 104.428 61.0164 103.605ZM96.191 147.823L121.008 112.872L97.1774 126.943C96.4348 127.381 95.5124 127.38 94.7708 126.94L71.2318 112.976L96.191 147.823Z" fill="white"/>
    <path fill-rule="evenodd" clip-rule="evenodd" d="M97.6293 153.945C98.3912 153.134 98.4842 151.902 97.8524 150.986L77.8453 121.982C77.8288 121.958 77.8118 121.935 77.7944 121.911L64.516 104.109C63.9073 103.293 62.8444 102.958 61.8781 103.279C60.9119 103.6 60.2598 104.503 60.2598 105.521L60.2598 132.295C60.2598 133.124 60.694 133.892 61.404 134.319L94.6895 154.351C95.6428 154.925 96.8673 154.756 97.6293 153.945ZM64.9848 127.848L64.9848 112.64L72.5269 122.752L64.9848 127.848ZM75.2845 126.591L67.0126 132.18L87.7481 144.659L75.2845 126.591Z" fill="white"/>
    <path fill-rule="evenodd" clip-rule="evenodd" d="M94.1554 153.914C93.3955 153.1 93.3074 151.865 93.9442 150.951L114.136 121.972C114.152 121.948 114.169 121.925 114.187 121.902L127.465 104.265C128.076 103.453 129.138 103.123 130.102 103.446C131.065 103.768 131.715 104.67 131.715 105.686L131.715 132.258C131.715 133.088 131.279 133.858 130.566 134.285L97.0964 154.329C96.1408 154.901 94.9154 154.728 94.1554 153.914ZM126.99 127.821L126.99 112.752L119.46 122.753L126.99 127.821ZM116.684 126.58L124.948 132.142L104.116 144.617L116.684 126.58Z" fill="white"/>
    <path fill-rule="evenodd" clip-rule="evenodd" d="M94.3152 38.0044C93.5495 38.7719 93.4045 39.962 93.9634 40.891L111.88 70.6684L127.35 95.3885C127.909 96.2817 128.992 96.6967 130.005 96.4059C131.018 96.1152 131.715 95.1889 131.715 94.1352L131.715 59.8941C131.715 59.3477 131.526 58.8182 131.179 58.3957L130.769 57.8952C130.596 57.685 130.389 57.506 130.155 57.3664L97.2009 37.6457C96.2706 37.0891 95.0808 37.2369 94.3152 38.0044ZM126.99 64.1221L117.148 70.1793L126.99 85.9066L126.99 64.1221ZM114.677 66.1522L125.009 59.7932L102.885 46.5535L114.677 66.1522Z" fill="white"/>
    <path fill-rule="evenodd" clip-rule="evenodd" d="M97.6742 38.0382C98.4348 38.8137 98.5686 40.0078 97.9986 40.9324L79.6644 70.6692L64.1943 95.3895C63.6353 96.2827 62.5524 96.6978 61.5396 96.407C60.5269 96.1162 59.8291 95.1899 59.8291 94.1363L59.8291 59.8951C59.8291 59.3487 60.0185 58.8192 60.365 58.3968L60.7756 57.8963C60.9512 57.6822 61.163 57.5007 61.4014 57.36L94.7869 37.6579C95.7223 37.1059 96.9136 37.2628 97.6742 38.0382ZM64.5541 64.1232L74.3963 70.1804L64.5541 85.9077L64.5541 64.1232ZM76.8895 66.1667L66.5539 59.8058L88.966 46.5795L76.8895 66.1667Z" fill="white"/>
    <path fill-rule="evenodd" clip-rule="evenodd" d="M95.9802 37.3258C96.802 37.3275 97.5639 37.7562 97.992 38.4577L131.367 93.1486C131.703 93.6989 131.799 94.3627 131.633 94.9859C131.468 95.609 131.055 96.1374 130.49 96.4485L96.6783 115.074C95.9635 115.467 95.096 115.464 94.3839 115.065L61.1333 96.4404C60.5718 96.1259 60.1629 95.5959 60.0011 94.973C59.8394 94.3501 59.9388 93.6881 60.2763 93.1402L93.9638 38.4493C94.3948 37.7496 95.1584 37.3241 95.9802 37.3258ZM65.5908 93.5215L95.548 110.302L126.047 93.5016L95.9659 44.2082L65.5908 93.5215Z" fill="white"/>
    <defs>
        <linearGradient id="paint0_linear_2132_33566" x1="192" y1="2.45045" x2="192" y2="192" gradientUnits="userSpaceOnUse">
            <stop stop-color="#2EB3F8"/>
            <stop offset="1" stop-color="#AB5BF7"/>
        </linearGradient>
    </defs>
</svg>
