<svg width="192" height="192" viewBox="0 0 192 192" fill="none" xmlns="http://www.w3.org/2000/svg">
<path d="M0 96C0 42.9807 42.9807 0 96 0C149.019 0 192 42.9807 192 96C192 149.019 149.019 192 96 192C42.9807 192 0 149.019 0 96Z" fill="url(#paint0_linear_2828_46026)"/>
<path fill-rule="evenodd" clip-rule="evenodd" d="M63.2592 53.1327C64.0024 53.426 64.8923 53.5727 65.9289 53.5727C66.9654 53.5727 67.8651 53.4162 68.6279 53.1033C69.4102 52.7904 70.0067 52.2721 70.4174 51.5485C70.8477 50.8053 71.0628 49.8078 71.0628 48.5561C71.0628 47.4413 70.9357 46.5905 70.6814 46.0038C70.4272 45.3975 70.0262 44.9281 69.4786 44.5956C68.931 44.2436 68.2269 43.9013 67.3664 43.5688C66.897 43.3928 66.4569 43.2168 66.0462 43.0407C65.6355 42.8452 65.2932 42.5714 65.0194 42.2193C64.7652 41.8477 64.638 41.3392 64.638 40.6938C64.638 39.9897 64.7456 39.4812 64.9607 39.1683C65.1759 38.8553 65.5377 38.6989 66.0462 38.6989C66.5743 38.6989 66.9361 38.8749 67.1317 39.2269C67.3468 39.579 67.4544 40.1951 67.4544 41.0752V42.1313H69.1559H70.8575V40.0484C70.8575 38.6989 70.437 37.6916 69.596 37.0267C68.7745 36.3421 67.5815 35.9999 66.0169 35.9999C64.8043 35.9999 63.8361 36.1661 63.1125 36.4986C62.4084 36.8115 61.8999 37.32 61.587 38.0241C61.2936 38.7282 61.1469 39.6474 61.1469 40.7818C61.1469 41.6815 61.2545 42.4442 61.4696 43.0701C61.6848 43.6959 62.0173 44.2142 62.4671 44.6249C62.9169 45.0357 63.4841 45.3877 64.1686 45.6811C64.9314 46.0136 65.5573 46.2971 66.0462 46.5318C66.5351 46.747 66.8872 47.0403 67.1023 47.4119C67.337 47.764 67.4544 48.3018 67.4544 49.0255C67.4544 49.9643 67.3175 50.5999 67.0437 50.9324C66.7894 51.2453 66.4374 51.4018 65.9875 51.4018C65.6942 51.4018 65.4399 51.3333 65.2248 51.1964C65.0096 51.04 64.8434 50.7759 64.726 50.4043C64.6087 50.0132 64.55 49.4558 64.55 48.7321V47.4119H62.7898H61.0002V48.4387C61.0002 49.7882 61.1958 50.8346 61.587 51.5778C61.9781 52.321 62.5355 52.8393 63.2592 53.1327ZM123.643 38.4347V53.3672H127.046V38.4347H129.745V36.0291H120.944V38.4347H123.643ZM107.292 70.2926C106.476 70.2926 105.863 70.6191 105.455 71.2721L93.8236 92.2091C93.5787 92.5356 93.3338 92.5356 93.089 92.2091L81.2124 71.2721C80.8043 70.6191 80.1921 70.2926 79.3758 70.2926H68.1114C67.7033 70.2926 67.336 70.4558 67.0095 70.7823C66.7646 71.0272 66.6422 71.3537 66.6422 71.7618V154.531C66.6422 154.939 66.7646 155.306 67.0095 155.632C67.336 155.877 67.7033 156 68.1114 156H79.3758C79.7839 156 80.1104 155.877 80.3553 155.632C80.6818 155.306 80.8451 154.939 80.8451 154.531V96.7394C80.8451 96.4129 80.9267 96.2496 81.09 96.2496C81.2532 96.2496 81.4165 96.3721 81.5797 96.6169L92.2319 115.962C92.64 116.615 93.0073 116.942 93.3338 116.942C93.6603 116.942 94.0277 116.615 94.4358 115.962L105.088 96.6169C105.251 96.3721 105.414 96.2496 105.578 96.2496C105.741 96.2496 105.823 96.4129 105.823 96.7394V154.531C105.823 154.939 105.945 155.306 106.19 155.632C106.516 155.877 106.884 156 107.292 156H118.556C118.964 156 119.291 155.877 119.536 155.632C119.862 155.306 120.026 154.939 120.026 154.531V71.7618C120.026 71.3537 119.862 71.0272 119.536 70.7823C119.291 70.4558 118.964 70.2926 118.556 70.2926H107.292ZM107.246 53.3672V36.0291H113.583C114.737 36.0291 115.607 36.2931 116.194 36.8212C116.781 37.3297 117.074 38.0436 117.074 38.9628V41.6618C117.074 42.581 116.829 43.3536 116.34 43.9794C115.852 44.6053 115.089 44.9671 114.052 45.0649C114.717 45.1627 115.187 45.3876 115.46 45.7396C115.754 46.0721 116.008 46.6197 116.223 47.3825L117.866 53.3672H114.082L112.82 47.6172C112.703 47.1478 112.566 46.7566 112.409 46.4437C112.272 46.1112 112.067 45.945 111.793 45.945H110.796V53.3672H107.246ZM110.796 43.5687H112.204C112.752 43.5687 113.143 43.422 113.377 43.1286C113.612 42.8157 113.729 42.3268 113.729 41.6618V39.5789C113.729 38.953 113.622 38.513 113.407 38.2587C113.192 38.0045 112.859 37.8773 112.409 37.8773H110.796V43.5687ZM95.5229 36.0291L92.4132 53.3672H96.0803L96.5791 50.1695H99.102L99.6301 53.3672H103.444L100.393 36.0291H95.5229ZM99.0727 48.468H96.6377L97.8699 39.0508L99.0727 48.468ZM75.3352 53.3672V36.0291H79.5891L81.9654 47.2358L84.371 36.0291H88.5955V53.3672H85.6031V40.4003L83.1095 53.3672H80.7919L78.3276 40.4003V53.3672H75.3352Z" fill="#1B2A26"/>
<defs>
<linearGradient id="paint0_linear_2828_46026" x1="96" y1="0" x2="96" y2="192" gradientUnits="userSpaceOnUse">
<stop stop-color="#07F7BD"/>
<stop offset="1" stop-color="#07F7BD"/>
</linearGradient>
</defs>
</svg>
