<svg width="192" height="192" viewBox="0 0 192 192" fill="none" xmlns="http://www.w3.org/2000/svg">
<rect width="192" height="192" rx="96" fill="#030C17"/>
<path d="M104.942 87.3372C103.984 87.177 103.105 86.9378 102.227 86.7783C90.4106 84.3828 81.8677 82.7057 81.8677 74.4813C81.8677 69.3707 86.8979 65.298 95.9198 65.298C103.984 65.298 110.37 68.572 114.522 74.7205L115.161 74.88L128.016 61.7049L127.936 61.2258C122.826 55.1571 116.359 50.925 108.933 48.6892C107.896 48.3698 106.938 48.1302 105.9 47.8907H105.82C105.421 47.8108 105.101 47.7309 104.702 47.6511V35.9929H87.1371V47.6511C86.5783 47.7309 86.0195 47.8907 85.4608 47.9706H85.381C77.0774 49.9668 69.8121 54.2788 64.1435 60.9064C61.7482 64.8987 60.5505 69.6903 60.5505 75.1996C60.5505 94.0445 74.7619 100.034 88.6545 103.387C91.2092 104.026 93.7638 104.505 96.2393 104.904C104.942 106.501 112.447 107.859 112.447 115.684C112.447 120.555 107.098 126.624 95.9198 126.624C89.293 126.624 83.8636 124.388 79.8718 120.315C79.6326 120.076 79.3131 119.836 79.0732 119.597L63.9036 130.137V130.696C66.0596 133.251 68.4548 135.487 71.0094 137.403C71.8877 138.042 72.7661 138.601 73.6444 139.16C73.6444 139.16 73.6444 139.16 73.7241 139.16C74.6025 139.719 75.5605 140.198 76.4389 140.677C76.4389 140.677 76.5186 140.677 76.5186 140.758C77.4767 141.237 78.355 141.635 79.3131 142.035C79.3928 142.035 79.3928 142.035 79.4725 142.114C80.4306 142.514 81.3887 142.833 82.3467 143.153C82.4265 143.153 82.5068 143.153 82.5068 143.233C82.9859 143.392 83.3845 143.472 83.8636 143.632C83.9439 143.632 83.9439 143.632 84.0237 143.632C84.5027 143.792 84.9817 143.871 85.5405 144.031C85.6202 144.031 85.7 144.031 85.7803 144.111C86.179 144.191 86.658 144.271 87.0573 144.35V156.009H104.622V144.35C104.942 144.271 105.261 144.271 105.58 144.191C105.661 144.191 105.661 144.191 105.74 144.191C106.938 143.951 108.135 143.632 109.333 143.233C109.891 143.073 110.531 142.833 111.089 142.674C117.557 140.278 123.225 136.286 127.855 130.856C129.612 128.779 131.129 126.624 132.486 124.228C133.205 121.673 133.524 118.798 133.524 115.764C133.605 95.4818 118.275 89.9719 104.942 87.3372Z" fill="#FAFBFC"/>
<path d="M63.9839 130.616C63.1055 129.578 62.3071 128.54 61.5886 127.423C61.2692 126.944 60.9499 126.464 60.6305 126.065C60.5506 125.985 60.4708 125.825 60.391 125.745C60.1515 125.346 59.8321 124.867 59.5926 124.388C59.5127 124.228 59.4329 124.068 59.353 123.909C59.1135 123.509 58.874 123.03 58.6345 122.631C58.5546 122.472 58.4748 122.312 58.395 122.152C58.1555 121.753 57.916 121.274 57.7562 120.795C57.6764 120.635 57.5966 120.396 57.5167 120.236C57.2772 119.756 57.1175 119.357 56.878 118.878C56.7982 118.719 56.7183 118.559 56.6385 118.319C56.4788 117.84 56.2393 117.361 56.0796 116.882C56.0796 116.802 55.9998 116.643 55.9998 116.563C55.6006 115.445 55.2013 114.327 54.882 113.209C54.882 113.129 54.8022 113.049 54.8022 112.89C54.7223 112.49 54.5627 112.091 54.4828 111.692C54.403 111.373 54.3231 111.053 54.2433 110.733C54.1634 110.334 54.0836 110.015 54.0038 109.616C53.9239 109.296 53.8441 108.897 53.7642 108.578C53.6844 108.178 53.6046 107.859 53.5247 107.459C53.4449 107.061 53.3651 106.661 53.2852 106.262C53.2054 105.942 53.2054 105.543 53.1256 105.224C53.0457 104.825 52.9658 104.425 52.9658 103.946C52.886 103.627 52.886 103.308 52.8062 102.908C52.7263 102.429 52.7263 102.03 52.6465 101.551C52.6465 101.231 52.5667 100.912 52.5667 100.593C52.5667 100.034 52.4868 99.5546 52.4868 98.9951C52.4868 98.7559 52.4868 98.516 52.4069 98.197C52.4069 97.3983 52.3271 96.5996 52.3271 95.8015C52.3271 95.0028 52.3271 94.2845 52.4069 93.4858C52.4069 93.2459 52.4069 93.0067 52.4069 92.7668C52.4069 92.208 52.4868 91.7289 52.4868 91.1701C52.4868 90.9302 52.5667 90.6112 52.5667 90.3713C52.6465 89.8922 52.6465 89.3334 52.7263 88.8543C52.7263 88.6151 52.8062 88.3752 52.8062 88.136C52.886 87.4968 52.9658 86.9379 53.0457 86.3791C53.0457 86.2189 53.0457 86.0595 53.1256 85.9797C53.2054 85.2607 53.3651 84.5424 53.5247 83.8234C53.6046 83.5842 53.6046 83.3444 53.6844 83.1849C53.7642 82.7058 53.9239 82.2267 54.0038 81.7476C54.0836 81.5083 54.1634 81.1887 54.1634 80.9489C54.2433 80.4698 54.403 80.0711 54.4828 79.5913C54.5627 79.3521 54.6425 79.0325 54.7223 78.7932C54.882 78.3141 55.0417 77.8351 55.1215 77.356C55.2013 77.1161 55.2812 76.9566 55.3611 76.7167C55.6006 76.0781 55.8401 75.4396 56.0796 74.8003C56.1595 74.5611 56.2393 74.4016 56.3191 74.1618C56.4788 73.6827 56.6385 73.2833 56.878 72.8042C56.9579 72.565 57.1175 72.3251 57.1974 72.0055C57.3571 71.6068 57.5167 71.2872 57.7562 70.8878C57.916 70.6486 57.9957 70.329 58.1555 70.0891C58.3151 69.6904 58.5546 69.3708 58.7144 68.9714C58.874 68.7322 58.9539 68.4923 59.1135 68.2531C59.4329 67.6936 59.7523 67.1348 60.0716 66.5759C59.353 69.2113 59.0337 72.0859 59.0337 75.1199C59.0337 85.5006 63.4249 93.406 72.1275 98.7559C72.6065 108.099 75.3212 115.445 79.9521 120.156L63.9839 130.616Z" fill="url(#paint0_linear_877_24049)"/>
<path d="M114.603 74.7208C117.317 78.7935 119.074 83.904 119.713 90.0526C121.948 91.0905 123.864 92.2879 125.621 93.6455C132.088 98.6763 135.361 106.022 135.361 115.365C135.361 116.483 135.281 117.601 135.201 118.719V118.639C135.521 117.92 135.84 117.122 136.08 116.323C136.159 116.084 136.239 115.924 136.319 115.685C136.479 115.126 136.718 114.566 136.878 114.007C136.958 113.768 137.038 113.449 137.117 113.209C137.197 112.89 137.357 112.49 137.437 112.171C137.596 111.692 137.676 111.292 137.836 110.813C137.916 110.494 137.996 110.095 138.075 109.775C138.155 109.376 138.236 108.977 138.315 108.578C138.395 108.338 138.395 108.018 138.475 107.779C138.554 107.22 138.715 106.581 138.794 106.022C138.794 105.783 138.874 105.543 138.874 105.304C138.954 104.665 139.033 104.026 139.113 103.388C139.113 103.227 139.113 103.148 139.194 102.988C139.273 102.35 139.353 101.79 139.353 101.152C139.353 100.992 139.353 100.832 139.433 100.672C139.513 99.9535 139.512 99.2352 139.593 98.5162C139.593 98.3567 139.593 98.1972 139.593 98.0371C139.593 97.3188 139.673 96.5201 139.673 95.8018C139.673 95.003 139.673 94.2043 139.593 93.3259C139.593 93.0866 139.593 92.8468 139.512 92.5278C139.512 91.969 139.433 91.4095 139.433 90.9304C139.433 90.6114 139.353 90.2918 139.353 89.9722C139.273 89.4931 139.273 89.014 139.194 88.5349C139.194 88.2159 139.113 87.8963 139.033 87.497C138.954 87.0179 138.954 86.6185 138.874 86.1394C138.794 85.8204 138.794 85.4211 138.715 85.1015C138.634 84.7021 138.554 84.223 138.475 83.8237C138.395 83.5047 138.315 83.1053 138.236 82.7857C138.155 82.3864 138.075 81.9877 137.996 81.5883C137.916 81.2687 137.836 80.8693 137.756 80.5497C137.676 80.151 137.517 79.7516 137.437 79.3523C137.357 79.0327 137.277 78.6333 137.117 78.3144C137.038 77.915 136.878 77.5954 136.798 77.196C136.718 76.8771 136.559 76.4777 136.479 76.1581C136.319 75.7587 136.239 75.4398 136.08 75.1202C135.92 74.8005 135.84 74.4012 135.68 74.0822C135.521 73.7626 135.441 73.3632 135.281 73.0443C135.121 72.7247 134.962 72.3253 134.882 72.0057C134.722 71.6867 134.563 71.3671 134.403 71.0475C134.243 70.7285 134.084 70.4089 133.924 70.0096C133.764 69.6906 133.605 69.371 133.445 69.0514C133.285 68.7324 133.126 68.4128 132.886 68.0932C132.726 67.7742 132.567 67.4546 132.327 67.2147C132.168 66.8957 131.928 66.5761 131.768 66.2565C131.609 65.9376 131.369 65.6977 131.209 65.3781C130.651 64.5003 130.012 63.6216 129.373 62.7433C128.894 62.1044 128.415 61.5455 127.936 60.9866L114.603 74.7208Z" fill="url(#paint1_linear_877_24049)"/>
<path d="M36 120C16.1538 120 0 136.154 0 156C0 175.846 16.1538 192 36 192C55.8462 192 72 175.846 72 156C72 136.154 55.8672 120 36 120Z" fill="#0074F0"/>
<path d="M57.7559 143.119L51.1684 171.944H39.9237L36.588 155.58L33.2523 171.944H22.0076L15.4202 143.119H25.1544L27.7558 161.286L31.658 143.119H41.5181L45.4202 161.286L48.0216 143.119H57.7559Z" fill="white"/>
<defs>
<linearGradient id="paint0_linear_877_24049" x1="80.1019" y1="100.566" x2="42.6357" y2="72.6753" gradientUnits="userSpaceOnUse">
<stop offset="0.00058093" stop-color="white"/>
<stop offset="1" stop-color="#1E313F"/>
</linearGradient>
<linearGradient id="paint1_linear_877_24049" x1="112.779" y1="86.5227" x2="147.38" y2="113.494" gradientUnits="userSpaceOnUse">
<stop offset="0.00058093" stop-color="white"/>
<stop offset="0.9967" stop-color="#4E5A64"/>
</linearGradient>
</defs>
</svg>
