<svg width="192" height="192" viewBox="0 0 192 192" fill="none" xmlns="http://www.w3.org/2000/svg">
    <g clip-path="url(#clip0_3990_9154)">
        <path d="M191.929 96C191.929 121.776 181.774 145.173 165.241 162.418C164.768 162.912 164.288 163.399 163.808 163.879C163.328 164.359 162.868 164.805 162.395 165.264C159.015 168.507 155.401 171.504 151.582 174.226C149.607 175.639 147.57 176.976 145.479 178.238C131.017 186.974 114.059 192 95.929 192C77.7987 192 60.889 186.987 46.4341 178.265C44.3427 177.01 42.2992 175.673 40.3175 174.254C36.4981 171.538 32.8844 168.549 29.5107 165.312C28.5438 164.386 27.5975 163.44 26.6718 162.473C10.105 145.227 -0.0710449 121.803 -0.0710449 96C-0.0710449 70.1966 10.6741 45.4903 28.0501 28.1211C45.4192 10.7451 69.4192 0 95.929 0C122.439 0 146.439 10.7451 163.808 28.1211C181.184 45.4903 191.929 69.4903 191.929 96Z" fill="#4281A4"/>
        <g opacity="0.2">
            <path d="M25.5998 160.672C24.0377 162.234 24.0377 164.766 25.5998 166.328C27.1619 167.891 29.6946 167.891 31.2566 166.328L28.4282 163.5L25.5998 160.672ZM167.757 29.8284L170.585 27L164.928 21.3431L162.1 24.1716L164.928 27L167.757 29.8284ZM28.4282 163.5L31.2566 166.328L167.757 29.8284L164.928 27L162.1 24.1716L25.5998 160.672L28.4282 163.5Z" fill="#F6E8D7"/>
            <path d="M29.0066 23.4216C27.4446 21.8595 24.9119 21.8595 23.3498 23.4216C21.7877 24.9837 21.7877 27.5163 23.3498 29.0784L26.1782 26.25L29.0066 23.4216ZM162.365 168.094L165.194 170.922L170.851 165.266L168.022 162.437L165.194 165.266L162.365 168.094ZM26.1782 26.25L23.3498 29.0784L162.365 168.094L165.194 165.266L168.022 162.437L29.0066 23.4216L26.1782 26.25Z" fill="#F6E8D7"/>
            <path d="M95.9282 0L95.9282 192" stroke="#F6E8D7" stroke-width="8" stroke-linecap="square" stroke-linejoin="round"/>
            <path d="M4.49856 66L125.249 186.75" stroke="#F6E8D7" stroke-width="8" stroke-linecap="square" stroke-linejoin="round"/>
            <path d="M-0.0717773 96L191.928 96" stroke="#F6E8D7" stroke-width="8" stroke-linecap="square" stroke-linejoin="round"/>
            <path d="M95.9282 157.5C129.894 157.5 157.428 129.966 157.428 96C157.428 62.0345 129.894 34.5 95.9282 34.5C61.9627 34.5 34.4282 62.0345 34.4282 96C34.4282 129.966 61.9627 157.5 95.9282 157.5Z" stroke="#F6E8D7" stroke-width="8" stroke-linecap="round" stroke-linejoin="round"/>
        </g>
        <path d="M157.428 96C157.428 62.0345 129.894 34.5 95.9282 34.5V96L139.428 139.474C150.55 128.346 157.428 112.976 157.428 96Z" stroke="#F6E8D7" stroke-width="8" stroke-linecap="round" stroke-linejoin="round"/>
        <path d="M95.929 34.5C61.9634 34.5 34.429 62.0345 34.429 96H95.929V34.5Z" stroke="#F6E8D7" stroke-width="8" stroke-linecap="round" stroke-linejoin="round"/>
        <path d="M95.9282 96H34.4282L95.9282 157.5H157.428L95.9282 96Z" stroke="#F6E8D7" stroke-width="8" stroke-linecap="round" stroke-linejoin="round"/>
        <path d="M34.4282 157.5H95.9282L65.1782 126.75L34.4282 157.5Z" stroke="#F6E8D7" stroke-width="8" stroke-linecap="round" stroke-linejoin="round"/>
        <path d="M80 140C80 111.281 103.281 88 132 88C160.719 88 184 111.281 184 140C184 168.719 160.719 192 132 192C103.281 192 80 168.719 80 140Z" fill="black"/>
        <path d="M110.544 165.44L94.8 114.56H103.632L115.536 156.992L127.632 114.56H136.272L148.368 156.992L160.368 114.56H169.2L153.456 165.44H143.28L131.952 126.752L120.624 165.44H110.544Z" fill="#F6E8D7"/>
    </g>
    <rect x="2" y="2" width="188" height="188" rx="94" stroke="url(#paint0_linear_3990_9154)" stroke-width="4"/>
    <defs>
        <linearGradient id="paint0_linear_3990_9154" x1="96" y1="0" x2="96" y2="192" gradientUnits="userSpaceOnUse">
            <stop stop-color="white" stop-opacity="0.3"/>
            <stop offset="1" stop-opacity="0.1"/>
        </linearGradient>
        <clipPath id="clip0_3990_9154">
            <rect width="192" height="192" rx="96" fill="white"/>
        </clipPath>
    </defs>
</svg>
