<svg width="192" height="192" viewBox="0 0 192 192" fill="none" xmlns="http://www.w3.org/2000/svg">
<path d="M0 96C0 42.9807 42.9807 0 96 0C149.019 0 192 42.9807 192 96C192 149.019 149.019 192 96 192C42.9807 192 0 149.019 0 96Z" fill="url(#paint0_linear_2782_2941)"/>
<path d="M91.6387 53.8286C93.0722 53.682 94.5272 53.607 95.9994 53.607C119.406 53.607 138.38 72.5838 138.38 95.9932C138.38 114.248 126.842 129.808 110.661 135.775L96.2815 156C129.288 155.848 155.999 129.04 155.999 95.9932C155.999 64.9614 132.447 39.4315 102.246 36.307L91.6387 53.8286Z" fill="white"/>
<path d="M94.6382 36C62.1298 36.7239 36 63.3061 36 95.9925C36 126.572 58.8702 151.809 88.4368 155.528L100.822 138.107C99.2396 138.286 97.6303 138.379 95.9996 138.379C72.5933 138.379 53.619 119.402 53.619 95.9925C53.619 77.2336 65.8034 61.3209 82.689 55.7389L94.6382 36Z" fill="white"/>
<path d="M110.662 135.774C126.843 129.807 138.382 114.248 138.382 95.993H156C156 129.04 129.29 155.848 96.2825 156L110.662 135.774Z" fill="url(#paint1_linear_2782_2941)"/>
<path d="M94.6382 36C62.1298 36.7239 36 63.3061 36 95.9925C36 95.9925 53.619 96.2461 53.619 95.9925C53.619 77.2336 65.8034 61.3209 82.689 55.7389L94.6382 36Z" fill="url(#paint2_linear_2782_2941)"/>
<path d="M95.8913 145.051L126.018 102.62L95.8913 120.402L65.7815 102.62L95.8913 145.051Z" fill="white"/>
<path opacity="0.1" d="M95.892 145.051L126.018 102.62L95.892 120.402V145.051Z" fill="#0074F0"/>
<path d="M95.8003 114.766L126.076 96.9524L95.8003 46.9389L65.524 96.9524L95.8003 114.766Z" fill="url(#paint3_linear_2782_2941)"/>
<path d="M95.8003 114.766L126.076 96.9524L95.8003 46.9389L65.524 96.9524L95.8003 114.766Z" fill="white"/>
<path opacity="0.1" d="M95.8003 114.765L65.524 96.9524L95.8003 46.9389V114.765Z" fill="#0074F0"/>
<path opacity="0.1" d="M95.8002 114.77V82.7592L65.5239 96.9553L95.8002 114.77Z" fill="#0074F0"/>
<path opacity="0.1" d="M95.8004 114.77V82.7592L126.076 96.9553L95.8004 114.77Z" fill="#0074F0"/>
<defs>
<linearGradient id="paint0_linear_2782_2941" x1="192" y1="96" x2="0" y2="96" gradientUnits="userSpaceOnUse">
<stop stop-color="#D6453B"/>
<stop offset="0.5" stop-color="#8E2DC9"/>
<stop offset="1" stop-color="#1A82FF"/>
</linearGradient>
<linearGradient id="paint1_linear_2782_2941" x1="56.4971" y1="171.18" x2="122.581" y2="127.898" gradientUnits="userSpaceOnUse">
<stop stop-color="#1A82FF" stop-opacity="0.5"/>
<stop offset="1" stop-color="white"/>
</linearGradient>
<linearGradient id="paint2_linear_2782_2941" x1="128.38" y1="8.37839" x2="65.1504" y2="54.058" gradientUnits="userSpaceOnUse">
<stop stop-color="#1A82FF" stop-opacity="0.5"/>
<stop offset="1" stop-color="white"/>
</linearGradient>
<linearGradient id="paint3_linear_2782_2941" x1="31.3885" y1="65.0497" x2="84.4335" y2="97.4168" gradientUnits="userSpaceOnUse">
<stop stop-color="#1C313F"/>
<stop offset="1" stop-color="white"/>
</linearGradient>
</defs>
</svg>
