<svg width="192" height="192" viewBox="0 0 192 192" fill="none" xmlns="http://www.w3.org/2000/svg">
    <path d="M0 96C0 42.9807 42.9807 0 96 0C149.019 0 192 42.9807 192 96C192 149.019 149.019 192 96 192C42.9807 192 0 149.019 0 96Z" fill="url(#paint0_linear_2995_46622)"/>
    <g clip-path="url(#clip0_2995_46622)">
        <path fill-rule="evenodd" clip-rule="evenodd" d="M151.821 110.049C144.062 102.29 144.062 89.7098 151.821 81.9505C156.477 77.295 156.477 69.7468 151.821 65.0912L126.909 40.1789C122.253 35.5234 114.705 35.5234 110.049 40.1789C102.29 47.9382 89.7099 47.9382 81.9506 40.179C77.2951 35.5234 69.7469 35.5234 65.0914 40.179L40.179 65.0913C35.5235 69.7469 35.5235 77.295 40.179 81.9506C47.9383 89.7099 47.9382 102.29 40.179 110.049C35.5234 114.705 35.5233 122.253 40.1789 126.909L65.0912 151.821C69.7468 156.477 77.295 156.477 81.9505 151.821C89.7099 144.062 102.29 144.062 110.05 151.821C114.705 156.477 122.253 156.477 126.909 151.821L151.821 126.909C156.477 122.253 156.477 114.705 151.821 110.049ZM81.858 59.3518C89.6685 51.5413 102.332 51.5413 110.142 59.3518L132.648 81.858C140.459 89.6685 140.459 102.332 132.648 110.142L110.142 132.648C102.332 140.459 89.6685 140.459 81.858 132.648L59.3518 110.142C51.5413 102.332 51.5413 89.6685 59.3518 81.858L81.858 59.3518ZM96.0006 115.12C106.561 115.12 115.121 106.56 115.121 96C115.121 85.44 106.561 76.8795 96.0006 76.8795C85.4407 76.8795 76.8801 85.44 76.8801 96C76.8801 106.56 85.4407 115.12 96.0006 115.12Z" fill="#F6F8F9"/>
    </g>
    <defs>
        <linearGradient id="paint0_linear_2995_46622" x1="96" y1="0" x2="96" y2="192" gradientUnits="userSpaceOnUse">
            <stop/>
            <stop offset="1" stop-color="#0A0A0A"/>
        </linearGradient>
        <clipPath id="clip0_2995_46622">
            <rect width="120" height="120" fill="white" transform="translate(36 36)"/>
        </clipPath>
    </defs>
</svg>
