<svg width="192" height="192" viewBox="0 0 192 192" fill="none" xmlns="http://www.w3.org/2000/svg">
<path d="M0 96C0 42.9807 42.9807 0 96 0C149.019 0 192 42.9807 192 96C192 149.019 149.019 192 96 192C42.9807 192 0 149.019 0 96Z" fill="#162F29"/>
<g clip-path="url(#clip0_3955_7722)">
<path d="M156.625 96.9463C156.625 97.555 156.617 98.163 156.599 98.7716H156.53H127.416V97.442H99.328C99.328 97.1638 99.3365 96.8856 99.3365 96.6165C99.3365 96.3468 99.3365 96.0601 99.328 95.7904H127.416V94.4699H127.459H156.573C156.607 95.2954 156.625 96.1208 156.625 96.9463ZM98.8323 90.959L126.321 87.5781L126.486 88.8993L155.513 85.327C155.235 83.9021 154.904 82.4941 154.531 81.1122L125.956 84.6322L126.121 85.9527L98.5019 89.3512C98.624 89.89 98.737 90.4288 98.8323 90.976V90.959ZM97.3982 85.6399L123.67 79.0786L123.992 80.3649L151.871 73.4037C151.297 72.0566 150.681 70.7269 150.02 69.4321L122.958 76.1934L123.279 77.4796L96.7902 84.1019C97.0077 84.6145 97.2075 85.1272 97.3982 85.649V85.6399ZM95.0694 80.6603L119.629 71.3875L120.099 72.6302L146.083 62.8185C145.24 61.5844 144.354 60.3851 143.416 59.2206L118.578 68.5978L119.047 69.8405L94.1917 79.2264C94.496 79.6957 94.7912 80.1737 95.0694 80.6603ZM91.8452 76.0543L113.537 64.7478L114.145 65.9298L138.132 53.424C137.028 52.355 135.881 51.3382 134.698 50.3562L112.155 62.1059L112.763 63.2878L90.707 74.7855C91.089 75.2026 91.4717 75.6198 91.8368 76.0543H91.8452ZM86.6136 71.0833L106.254 58.5949L106.967 59.7159L128.641 45.9326C127.277 45.0636 125.886 44.2554 124.453 43.4993L104.664 56.0833L105.377 57.2044L85.171 70.0491C85.666 70.3793 86.144 70.7269 86.6221 71.0833H86.6136ZM81.9726 68.1806L98.4327 54.6841L99.2758 55.7096L117.813 40.501C116.24 39.9013 114.623 39.3626 112.989 38.8933L96.5466 52.3811L97.3897 53.4066L80.3301 67.3985C80.8863 67.6418 81.4338 67.9025 81.9726 68.1806ZM75.8283 65.7907L88.8294 52.8504L89.7594 53.7889L106.281 37.3724C104.49 37.0769 102.674 36.8596 100.831 36.7206L86.7435 50.7386L87.6735 51.6771L73.9425 65.3388C74.5769 65.4691 75.2026 65.6169 75.8283 65.7907ZM68.6412 64.7043L79.0091 52.1377L80.0346 52.9807L93.5314 36.625C91.4802 36.7206 89.455 36.9205 87.4652 37.216L76.7148 50.2432L77.7403 51.0862L66.512 64.6957C66.8249 64.687 67.1464 64.6783 67.4593 64.6783C67.8591 64.6783 68.2501 64.6783 68.6412 64.6957V64.7043ZM62.4275 65.0781L70.4141 52.72L71.5265 53.4413L81.1818 38.4935C78.9744 39.0671 76.8191 39.7623 74.716 40.5705L67.9199 51.0949L69.0323 51.8162L60.1852 65.5126C60.924 65.3388 61.6713 65.1911 62.4275 65.0694V65.0781ZM55.5271 66.9987L61.2716 56.231L62.4361 56.8568L70.0404 42.6129C67.5983 43.8034 65.2519 45.1505 63.0097 46.6452L58.6383 54.8318L59.8115 55.4576L53.0503 68.1285C53.8498 67.72 54.6754 67.3463 55.5184 67.0074L55.5271 66.9987ZM50.5734 69.5277L53.0155 62.5925L54.2669 63.0358L59.012 49.5653C56.6048 51.4772 54.3452 53.563 52.2507 55.8139L50.2084 61.6105L51.4599 62.0538L48.2617 71.1267C49.0091 70.5619 49.7739 70.0317 50.5647 69.5363L50.5734 69.5277ZM44.4813 74.49L45.5589 69.4494L46.8538 69.7276L49.0265 59.5769C46.7409 62.4796 44.716 65.5995 42.9865 68.8933L43.9512 69.1018L41.9697 77.4448C42.7432 76.4106 43.5862 75.4199 44.4813 74.49ZM40.0056 80.3823V73.7078C38.3892 77.9749 37.242 83.2849 36.625 88.4905C37.3811 85.6052 38.5282 82.8851 40.0056 80.3823ZM36.6684 104.916C37.3029 109.356 38.4152 113.641 39.9622 117.717V112.79C38.537 110.356 37.4159 107.714 36.6684 104.916ZM42.1783 116.083L43.9077 124.148L42.9431 124.357C44.6725 127.659 46.6974 130.77 48.9831 133.673L46.8104 123.523L45.5155 123.801L44.4205 118.699C43.6296 117.865 42.8736 116.996 42.1783 116.074V116.083ZM48.2009 122.08L51.4164 131.205L50.165 131.648L52.2073 137.445C54.3017 139.696 56.5613 141.782 58.9686 143.693L54.2235 130.223L52.972 130.666L50.5213 123.696C49.7304 123.192 48.957 122.662 48.2096 122.097L48.2009 122.08ZM52.9981 125.095L59.7768 137.801L58.6036 138.427L62.9749 146.614C65.2171 148.108 67.5636 149.455 70.0056 150.646L62.4014 136.402L61.2281 137.028L55.4663 126.234C54.6232 125.895 53.7976 125.513 52.9894 125.104L52.9981 125.095ZM60.1331 127.72L68.9888 141.433L67.8765 142.155L74.6725 152.679C76.7757 153.488 78.9309 154.183 81.1383 154.757L71.4831 139.809L70.3706 140.53L62.3753 128.155C61.6192 128.033 60.8631 127.885 60.1244 127.711L60.1331 127.72ZM66.4599 128.554L77.6881 142.164L76.6627 143.007L87.4129 156.034C89.4028 156.33 91.4279 156.53 93.4792 156.625L79.9825 140.261L78.957 141.104L68.5891 128.537C68.2154 128.554 67.833 128.554 67.4506 128.554C67.1203 128.554 66.7814 128.554 66.4512 128.537L66.4599 128.554ZM73.9077 127.911L87.6304 141.564L86.7004 142.503L100.788 156.521C102.63 156.381 104.447 156.165 106.237 155.869L89.7248 139.444L88.7863 140.391L75.7936 127.459C75.1766 127.625 74.5421 127.781 73.9077 127.911ZM80.304 125.869L97.3466 139.852L96.5035 140.878L112.946 154.365C114.58 153.896 116.196 153.357 117.769 152.758L99.2235 137.549L98.3804 138.574L81.9378 125.087C81.399 125.365 80.8515 125.625 80.2953 125.869H80.304ZM85.1357 123.21L105.315 136.046L104.603 137.166L124.391 149.751C125.825 148.995 127.225 148.178 128.581 147.318L106.906 133.534L106.194 134.655L86.579 122.184C86.1009 122.54 85.6229 122.888 85.1272 123.218L85.1357 123.21ZM90.6978 118.482L112.729 129.962L112.12 131.144L134.664 142.894C135.846 141.912 136.993 140.895 138.096 139.826L114.111 127.32L113.502 128.502L91.8368 117.213C91.4717 117.648 91.0975 118.073 90.707 118.482H90.6978ZM94.1832 114.032L119.003 123.41L118.534 124.652L143.372 134.029C144.302 132.865 145.188 131.666 146.04 130.431L120.055 120.62L119.585 121.863L95.0609 112.598C94.7827 113.085 94.4869 113.563 94.1832 114.032ZM96.7817 109.166L123.227 115.77L122.905 117.057L149.968 123.818C150.637 122.523 151.254 121.193 151.828 119.847L123.948 112.885L123.626 114.171L97.3897 107.619C97.1984 108.14 96.9901 108.653 96.7817 109.166ZM98.5019 103.916L126.077 107.306L125.912 108.627L154.487 112.146C154.861 110.756 155.191 109.348 155.469 107.931L126.442 104.36L126.277 105.68L98.8323 102.3C98.737 102.847 98.624 103.386 98.5019 103.925V103.916Z" fill="white"/>
</g>
<defs>
<clipPath id="clip0_3955_7722">
<rect width="120" height="120" fill="white" transform="translate(36 36)"/>
</clipPath>
</defs>
</svg>
