<svg width="192" height="192" viewBox="0 0 192 192" fill="none" xmlns="http://www.w3.org/2000/svg">
    <path d="M0 96C0 42.9807 42.9807 0 96 0C149.019 0 192 42.9807 192 96C192 149.019 149.019 192 96 192C42.9807 192 0 149.019 0 96Z" fill="url(#paint0_linear_3850_20690)"/>
    <path fill-rule="evenodd" clip-rule="evenodd" d="M62.1345 52.9967H131.253C132.903 52.9967 134.426 53.8513 135.249 55.2378L155.385 89.1829C156.43 90.9433 156.119 93.1652 154.63 94.5927L99.2023 147.713C97.4068 149.433 94.5183 149.433 92.7228 147.713L37.3697 94.6644C35.8456 93.2038 35.5602 90.917 36.681 89.1457L58.206 55.1289C59.0443 53.8041 60.5319 52.9967 62.1345 52.9967ZM122.329 68.152V77.6765H102.64V84.2801C116.468 84.9858 126.843 87.8842 126.92 91.3583L126.92 98.6005C126.843 102.075 116.468 104.973 102.64 105.679V121.885H89.5658V105.679C75.7375 104.973 65.3626 102.075 65.2856 98.6005L65.2861 91.3583C65.363 87.8842 75.7375 84.9858 89.5658 84.2801V77.6765H69.8767V68.152H122.329ZM96.1028 100.703C110.86 100.703 123.195 98.2522 126.213 94.9793C123.654 92.2039 114.395 90.0196 102.64 89.4197V96.3337C100.533 96.4412 98.3458 96.4979 96.1028 96.4979C93.8598 96.4979 91.6727 96.4412 89.5658 96.3337V89.4197C77.811 90.0196 68.552 92.2039 65.9922 94.9793C69.0108 98.2522 81.3455 100.703 96.1028 100.703Z" fill="#F9FAFB"/>
    <defs>
        <linearGradient id="paint0_linear_3850_20690" x1="96" y1="0" x2="96" y2="192" gradientUnits="userSpaceOnUse">
            <stop stop-color="#D3B25B"/>
            <stop offset="1" stop-color="#C59D35"/>
        </linearGradient>
    </defs>
</svg>
