<svg width="193" height="193" viewBox="0 0 193 193" fill="none" xmlns="http://www.w3.org/2000/svg" data-reactroot=""><circle cx="96.5" cy="96.5" r="96.5" fill="url(#yam_icon_fe138e1f-5160-4516-9ea4-ebb32472678f)"></circle><path fill-rule="evenodd" clip-rule="evenodd" d="M98.9605 58.554C95.0189 58.554 83.5677 61.7072 79.2527 63.5328C76.0822 64.8741 72.9117 67.2907 70.5417 69.0971C68.8799 70.3637 67.6117 71.3304 67.0131 71.4159C65.561 71.6233 53.7363 76.6021 53.7363 80.1288C53.7363 83.6554 57.0555 88.4268 59.9598 92.1609C62.8641 95.895 67.6355 102.119 68.4653 103.778C68.6011 104.05 68.7369 104.366 68.889 104.72C69.6666 106.53 70.8717 109.334 74.6888 112.284C76.2626 113.5 77.8856 114.987 79.4985 116.465C82.563 119.273 85.5907 122.048 88.1731 122.864C89.5614 123.302 91.516 123.869 93.6017 124.474C97.4373 125.587 101.716 126.829 103.732 127.635C104.873 128.091 106.32 128.882 107.818 129.701C110.408 131.115 113.15 132.614 114.727 132.614C117.216 132.614 119.291 132.821 122.817 133.858C126.344 134.896 130.078 135.311 130.078 130.124C130.078 128.24 130.352 126.904 130.601 125.688C131.038 123.555 131.399 121.791 130.078 118.092C129.491 116.447 128.504 113.222 127.32 109.354C124.325 99.562 120.069 85.651 117.838 82.8256C116.241 80.8022 114.042 77.4121 112.14 74.4794C110.337 71.6993 108.801 69.3303 108.296 68.9265C108.017 68.7035 107.498 67.8511 106.813 66.7237C104.947 63.6565 101.843 58.554 98.9605 58.554ZM85.062 75.8422C81.1262 77.8534 73.2047 81.9011 68.5407 83.1568C63.147 84.609 56.7161 85.6462 56.3012 83.9866C55.8863 82.327 57.131 79.2153 61.28 77.5557C63.7632 76.5624 67.9554 73.7114 71.5442 71.2709C73.9517 69.6337 76.0876 68.1811 77.2537 67.5981C77.3896 67.5301 77.5277 67.4608 77.6683 67.3903C80.5323 65.9536 84.4004 64.0132 90.5305 62.8267C92.3212 62.4801 93.8545 62.1175 95.1528 61.8104C98.5174 61.0146 100.304 60.592 100.903 61.7895C101.733 63.4491 101.318 66.1459 86.5889 75.0663C86.196 75.2627 85.6778 75.5275 85.062 75.8422Z" fill="white"></path><defs><linearGradient id="yam_icon_fe138e1f-5160-4516-9ea4-ebb32472678f" x1="96.5" y1="0" x2="96.5" y2="193" gradientUnits="userSpaceOnUse"><stop stop-color="#CF0D4F"></stop><stop offset="1" stop-color="#8C0B37"></stop></linearGradient></defs></svg>