<svg width="192" height="192" viewBox="0 0 192 192" fill="none" xmlns="http://www.w3.org/2000/svg">
<path d="M0 96C0 42.9807 42.9807 0 96 0C149.019 0 192 42.9807 192 96C192 149.019 149.019 192 96 192C42.9807 192 0 149.019 0 96Z" fill="url(#paint0_linear_3645_14544)"/>
<path d="M109.182 42.49L108.573 81.8103C93.925 89.0086 86.4635 106.105 91.7607 122.032C94.5595 130.44 100.404 136.984 107.661 140.843L107.583 145.898L79.0732 145.464L79.5234 116.33L36.4043 74.0808L56.0879 53.9871L80.1045 78.7937L80.6729 42.0554L109.182 42.49ZM112.763 80.0925C130.145 74.3115 148.92 83.7255 154.701 101.094C160.482 118.476 151.069 137.253 133.7 143.034C124.733 146.016 115.395 144.954 107.661 140.843L108.573 81.8103C109.911 81.1529 111.309 80.5764 112.763 80.0925Z" fill="white"/>
<defs>
<linearGradient id="paint0_linear_3645_14544" x1="96" y1="0" x2="96" y2="192" gradientUnits="userSpaceOnUse">
<stop stop-color="#1479F8"/>
<stop offset="1" stop-color="#1360B3"/>
</linearGradient>
</defs>
</svg>
