<svg width="193" height="194" viewBox="0 0 193 194" fill="none" xmlns="http://www.w3.org/2000/svg" data-reactroot=""><path d="M96.5 194C149.795 194 193 150.795 193 97.5C193 44.2045 149.795 1 96.5 1C43.2045 1 0 44.2045 0 97.5C0 150.795 43.2045 194 96.5 194Z" fill="url(#1_ycrv_icon_77fec0fa-1bd2-4c61-8f74-ea70fe0a49d5)"></path><path fill-rule="evenodd" clip-rule="evenodd" d="M92.1308 51.2803C86.275 52.3934 82.0009 54.8803 78.227 59.3713C75.9242 62.1117 74.1338 66.0921 73.3097 70.3036C72.9173 72.3087 73.1241 76.7259 73.7154 78.9642C74.7082 82.7229 77.3823 87.2173 80.1319 89.7482C82.6158 92.0342 87.4677 95.5833 88.3522 95.7611C89.6609 96.0244 90.0902 95.1065 89.9734 92.2943C89.8839 90.1355 89.8413 90.0008 88.9531 89.0747C88.4433 88.5431 87.2972 87.5834 86.4061 86.9421C83.2543 84.6734 81.524 82.2714 80.2174 78.3503C78.2859 72.5552 79.7585 66.5031 84.1825 62.0558C87.3944 58.8269 91.1034 57.268 95.5734 57.268C100.043 57.268 103.752 58.8266 106.965 62.0558C110.257 65.364 111.889 69.6513 111.68 74.4432C111.559 77.2166 111.058 78.3921 110.058 78.2484C109.367 78.1494 108.899 77.2405 108.268 74.7735C107.689 72.5113 107.197 71.7379 106.197 71.5172C105.13 71.2816 103.448 71.7789 102.447 72.6257C101.739 73.2252 101.634 73.468 101.732 74.2826C101.886 75.5517 106.048 89.8094 106.549 90.7824C107.282 92.2085 108.143 92.2147 111.916 90.82C118.637 88.3357 123.705 86.5513 124.039 86.5513C124.236 86.5513 124.764 86.2411 125.212 85.862C126.216 85.0134 126.251 84.2501 125.373 82.356C124.471 80.4079 123.842 80.1963 121.26 80.9736C118.335 81.8542 118.007 81.879 117.453 81.2627C116.981 80.7391 116.984 80.6363 117.56 77.7295C118.014 75.4391 118.114 74.2629 117.988 72.7237C117.62 68.2497 116.41 64.5033 114.317 61.3588C112.705 58.9347 109.374 55.5749 107.404 54.3841C102.859 51.6381 96.7651 50.3994 92.1308 51.2803ZM93.9641 69.227L93.1901 70.0051V97.7322V125.459L93.9943 126.268C94.7559 127.033 94.8899 127.07 96.5156 126.966C97.8442 126.881 98.3661 126.722 98.823 126.263L99.4132 125.67L99.5456 99.1226C99.6185 84.5214 99.6103 71.9288 99.5274 71.1387C99.316 69.1218 98.5166 68.4489 96.3326 68.4489C94.9236 68.4489 94.6484 68.5394 93.9641 69.227ZM102.43 100.86C102.276 101.263 102.19 102.491 102.239 103.589C102.345 105.967 102.552 106.299 105.265 108.439C108.427 110.932 110.236 113.751 111.242 117.751C113.261 125.776 108.405 134.306 100.34 136.901C97.9345 137.675 94.0868 137.854 91.8658 137.296C85.98 135.816 81.2584 131.072 79.7879 125.16C78.8653 121.451 79.8612 116.618 81.5894 116.417C82.2414 116.342 82.338 116.454 82.7149 117.73C82.9415 118.498 83.1274 119.613 83.1277 120.209C83.128 121.558 83.8443 123.039 84.7161 123.493C85.4742 123.889 87.044 123.735 88.1578 123.156C89.1986 122.615 89.5399 121.444 89.237 119.453C88.9936 117.853 88.7243 115.729 88.1374 110.777C87.5215 105.579 87.1643 104.034 86.4289 103.389C86.0531 103.06 85.5439 102.791 85.297 102.792C85.0502 102.792 82.8822 103.215 80.479 103.73C78.0758 104.245 74.3817 105.031 72.2698 105.476C70.1579 105.921 68.1639 106.459 67.8384 106.671C67.1123 107.144 66.857 108.074 67.0757 109.449C67.5069 112.158 68.2327 112.532 71.8405 111.905C75.6359 111.246 75.8458 111.675 74.0859 116.5C73.2862 118.693 73.212 119.156 73.212 121.957C73.2115 129.318 76.827 135.982 83.0917 140.169C85.7057 141.916 88.0138 142.846 91.473 143.546C94.3447 144.127 94.4104 144.128 97.6673 143.675C102.196 143.045 104.577 142.236 107.402 140.365C116.743 134.181 120.339 123.015 116.246 112.904C115.824 111.861 115.081 110.343 114.596 109.531C112.603 106.195 105.504 100.138 103.577 100.131C102.875 100.129 102.657 100.267 102.43 100.86Z" fill="white"></path><path d="M191.5 44.5C191.5 68.2482 172.248 87.5 148.5 87.5C124.752 87.5 105.5 68.2482 105.5 44.5C105.5 20.7518 124.752 1.5 148.5 1.5C172.248 1.5 191.5 20.7518 191.5 44.5Z" fill="url(#2_ycrv_icon_77fec0fa-1bd2-4c61-8f74-ea70fe0a49d5)" stroke="white" stroke-width="3"></path><path fill-rule="evenodd" clip-rule="evenodd" d="M139.147 68.2523C130.782 68.2523 127.088 54.9021 127.088 42.7223C126.871 36.6747 129.174 24.2971 140.125 23.1673C153.813 21.755 168.059 34.2484 170.978 40.2236C173.898 46.1987 173.694 51.1961 165.546 53.912C159.028 56.0848 150.48 58.1489 147.021 58.9094C146.249 64.5615 144.262 68.2523 139.147 68.2523ZM147.512 46.1987L147.458 46.1031C147.332 46.171 147.375 46.1987 147.512 46.1987ZM147.458 46.1031C144.405 40.6169 145.032 37.0713 150.649 37.0713C156.298 37.0713 170.869 40.5495 158.267 43.3741C150.421 45.1328 147.9 45.8649 147.458 46.1031ZM139.709 65.2353C143.359 64.5161 145.434 59.4472 144.344 53.9137C143.253 48.3801 139.411 44.4774 135.761 45.1966C132.111 45.9158 130.036 50.9846 131.127 56.5181C132.217 62.0517 136.06 65.9545 139.709 65.2353Z" fill="white"></path><defs><linearGradient id="1_ycrv_icon_77fec0fa-1bd2-4c61-8f74-ea70fe0a49d5" x1="96.5" y1="1" x2="96.5" y2="194" gradientUnits="userSpaceOnUse"><stop stop-color="#1479F8"></stop><stop offset="1" stop-color="#1360B3"></stop></linearGradient><linearGradient id="2_ycrv_icon_77fec0fa-1bd2-4c61-8f74-ea70fe0a49d5" x1="148.5" y1="0" x2="148.5" y2="89" gradientUnits="userSpaceOnUse"><stop stop-color="#3465A4"></stop><stop offset="1" stop-color="#164786"></stop></linearGradient></defs></svg>