<svg width="193" height="193" viewBox="0 0 193 193" fill="none" xmlns="http://www.w3.org/2000/svg" data-reactroot=""><path d="M96.5 193C149.795 193 193 149.796 193 96.5C193 43.2046 149.795 2.61911e-05 96.5 1.68726e-05C43.2045 7.55412e-06 -7.55412e-06 43.2045 -1.68726e-05 96.5C-2.61911e-05 149.795 43.2045 193 96.5 193Z" fill="url(#yfii_icon_59496628-4d1d-409b-8432-641e154f93b1)"></path><path fill-rule="evenodd" clip-rule="evenodd" d="M142.72 92.131C141.607 86.2751 139.12 82.001 134.629 78.2272C131.889 75.9243 127.908 74.134 123.697 73.3098C121.692 72.9174 117.275 73.1242 115.036 73.7155C111.278 74.7083 106.783 77.3824 104.252 80.132C101.966 82.6159 98.4172 87.4679 98.2394 88.3523C97.9761 89.661 98.894 90.0903 101.706 89.9735C103.865 89.884 104 89.8414 104.926 88.9532C105.457 88.4434 106.417 87.2973 107.058 86.4062C109.327 83.2544 111.729 81.5241 115.65 80.2175C121.445 78.286 127.497 79.7586 131.945 84.1826C135.174 87.3945 136.733 91.1035 136.733 95.5735C136.733 100.043 135.174 103.752 131.945 106.965C128.636 110.257 124.349 111.889 119.557 111.68C116.784 111.56 115.608 111.058 115.752 110.058C115.851 109.367 116.76 108.899 119.227 108.268C121.489 107.689 122.263 107.198 122.483 106.197C122.719 105.13 122.222 103.448 121.375 102.447C120.775 101.739 120.532 101.634 119.718 101.733C118.449 101.886 104.191 106.048 103.218 106.549C101.792 107.283 101.786 108.143 103.181 111.917C105.665 118.637 107.449 123.705 107.449 124.039C107.449 124.236 107.759 124.764 108.138 125.212C108.987 126.216 109.75 126.251 111.644 125.374C113.593 124.471 113.804 123.842 113.027 121.26C112.146 118.335 112.122 118.007 112.738 117.453C113.261 116.982 113.364 116.985 116.271 117.56C118.561 118.014 119.738 118.114 121.277 117.988C125.751 117.62 129.497 116.41 132.642 114.318C135.066 112.705 138.426 109.374 139.616 107.404C142.362 102.859 143.601 96.7652 142.72 92.131ZM124.773 93.9643L123.995 93.1902L96.2683 93.1902L68.5413 93.1902L67.7328 93.9945C66.9672 94.7561 66.9302 94.8901 67.0343 96.5157C67.1192 97.8443 67.2781 98.3663 67.7373 98.8231L68.3305 99.4133L94.8779 99.5457C109.479 99.6186 122.072 99.6104 122.862 99.5275C124.879 99.3162 125.552 98.5167 125.552 96.3328C125.552 94.9237 125.461 94.6485 124.773 93.9643ZM93.1403 102.43C92.7378 102.276 91.5098 102.19 90.4117 102.239C88.0333 102.345 87.7011 102.552 85.5615 105.265C83.0682 108.427 80.2493 110.236 76.2492 111.243C68.2245 113.261 59.6948 108.405 57.0995 100.34C56.3256 97.9346 56.1462 94.0869 56.7045 91.8659C58.1843 85.9801 62.9285 81.2585 68.8402 79.788C72.5494 78.8654 77.3824 79.8613 77.5832 81.5895C77.6588 82.2415 77.5462 82.3381 76.2702 82.715C75.5027 82.9417 74.3873 83.1276 73.7915 83.1278C72.4429 83.1281 70.962 83.8444 70.5073 84.7162C70.1117 85.4743 70.2658 87.0442 70.8446 88.158C71.3858 89.1987 72.5563 89.54 74.547 89.2371C76.1475 88.9937 78.2713 88.7244 83.2239 88.1376C88.4217 87.5216 89.9666 87.1644 90.6113 86.429C90.9409 86.0532 91.2098 85.544 91.209 85.2972C91.2082 85.0504 90.7857 82.8823 90.2706 80.4792C89.7552 78.076 88.9693 74.3818 88.5242 72.2699C88.0791 70.158 87.5416 68.164 87.3297 67.8385C86.8564 67.1124 85.9268 66.8571 84.551 67.0759C81.842 67.507 81.468 68.2328 82.0952 71.8407C82.7549 75.636 82.3255 75.846 77.5004 74.086C75.3076 73.2863 74.8449 73.2121 72.043 73.2121C64.6823 73.2116 58.0182 76.8271 53.8312 83.0918C52.0843 85.7058 51.1542 88.0139 50.4543 91.4732C49.8735 94.3448 49.8721 94.4105 50.3252 97.6674C50.9553 102.197 51.7646 104.577 53.635 107.402C59.8194 116.743 70.9851 120.339 81.0961 116.246C82.1391 115.824 83.6571 115.081 84.4698 114.596C87.806 112.603 93.862 105.504 93.8692 103.578C93.8719 102.875 93.7337 102.657 93.1403 102.43Z" fill="white"></path><defs><linearGradient id="yfii_icon_59496628-4d1d-409b-8432-641e154f93b1" x1="96.5" y1="1.68726e-05" x2="96.5" y2="193" gradientUnits="userSpaceOnUse"><stop stop-color="#ED4587"></stop><stop offset="1" stop-color="#B0245B"></stop></linearGradient></defs></svg>