<svg width="192" height="192" viewBox="0 0 192 192" fill="none" xmlns="http://www.w3.org/2000/svg">
<path d="M0 96C0 42.9807 42.9807 0 96 0C149.019 0 192 42.9807 192 96C192 149.019 149.019 192 96 192C42.9807 192 0 149.019 0 96Z" fill="url(#paint0_linear_3654_14455)"/>
<path d="M108.776 44.5132L108.167 83.8345C93.5192 91.0327 86.0578 108.129 91.3546 124.055C94.1531 132.463 99.9977 139.006 107.254 142.865L107.176 147.922L78.6671 147.487L79.1173 118.353L35.9991 76.105L55.6827 56.0112L79.6974 80.8169L80.2657 44.0786L108.776 44.5132ZM112.357 82.1167C129.738 76.3356 148.514 85.749 154.295 103.118C160.076 120.5 150.663 139.276 133.294 145.057C124.327 148.04 114.988 146.977 107.254 142.865L107.397 133.632C107.779 133.994 108.183 134.346 108.609 134.684C112.69 137.92 118.215 139.532 125.173 139.532C131.593 139.532 136.774 137.984 140.7 134.915C144.627 131.845 146.609 127.816 146.66 122.853C146.686 120.781 146.379 118.953 145.727 117.354C145.074 115.755 144.243 114.45 143.233 113.427C142.222 112.404 140.905 111.521 139.268 110.753C137.631 109.999 136.031 109.411 134.484 108.989C132.936 108.58 131.107 108.183 128.984 107.812C127.386 107.518 126.171 107.288 125.314 107.134C124.457 106.981 123.471 106.763 122.359 106.507C121.246 106.252 120.402 106.009 119.826 105.792C119.251 105.574 118.637 105.292 117.984 104.959C117.332 104.627 116.871 104.282 116.59 103.911C116.309 103.54 116.066 103.118 115.861 102.62C115.657 102.121 115.555 101.57 115.555 100.957C115.555 98.9613 116.334 97.4516 117.907 96.4028C119.481 95.354 121.578 94.8296 124.188 94.8296C127.001 94.8296 129.278 95.5205 131.005 96.9019C132.732 98.2832 133.729 100.112 134.011 102.402H145.56C145.47 97.3243 143.514 93.2953 139.664 90.2769C135.802 87.2712 130.647 85.7622 124.175 85.7622C118.01 85.7622 113.048 87.2451 109.287 90.2251C108.85 90.5719 108.438 90.9309 108.051 91.3013L108.167 83.8345C109.505 83.177 110.903 82.6006 112.357 82.1167ZM107.733 111.921C108.635 112.709 109.723 113.417 111.001 114.041C112.587 114.808 114.161 115.409 115.695 115.844C117.23 116.279 119.034 116.675 121.106 117.046C122.538 117.315 123.625 117.52 124.366 117.673C125.108 117.827 126.017 118.018 127.091 118.249C128.165 118.479 128.972 118.696 129.509 118.875C130.046 119.055 130.673 119.285 131.376 119.553C132.079 119.822 132.591 120.104 132.91 120.385C133.23 120.667 133.563 120.999 133.908 121.382C134.254 121.766 134.484 122.176 134.599 122.624C134.727 123.058 134.778 123.57 134.778 124.132C134.778 126.179 133.908 127.765 132.169 128.89C130.43 130.028 128.165 130.591 125.377 130.591C122.052 130.591 119.353 129.786 117.332 128.187C115.311 126.588 114.186 124.49 113.982 121.881L107.579 121.795L107.733 111.921Z" fill="white"/>
<defs>
<linearGradient id="paint0_linear_3654_14455" x1="96" y1="0" x2="96" y2="192" gradientUnits="userSpaceOnUse">
<stop stop-color="#1479F8"/>
<stop offset="1" stop-color="#1360B3"/>
</linearGradient>
</defs>
</svg>
