<svg width="193" height="193" viewBox="0 0 193 193" fill="none" xmlns="http://www.w3.org/2000/svg" data-reactroot=""><circle cx="96.5" cy="96.5" r="96.5" fill="url(#1_yvecrv_icon_5e021a26-725f-4433-bfe1-b8aa9345596b)"></circle><path fill-rule="evenodd" clip-rule="evenodd" d="M83.649 45.4485C88.5855 46.7993 93.6014 48.2669 96.9683 49.4779C101.612 51.1481 109.334 51.7766 115.534 50.7224C117.012 50.4711 118.463 50.1148 119.796 49.6244C124.795 52.1388 129.341 55.4209 133.28 59.3159C131.4 60.2772 128.451 60.6412 124.763 60.4404C116.446 59.9877 106.142 56.7889 101.946 54.9779C98.3568 53.4286 91.0263 51.2199 83.4467 49.1113C81.3842 48.5376 79.293 47.9684 77.2393 47.4187C79.3167 46.632 81.4564 45.9721 83.649 45.4485ZM72.1656 49.6519C69.715 50.8882 67.3733 52.3091 65.159 53.8964C70.9323 54.1936 77.4464 55.3385 83.4452 58.1074C87.2159 59.8479 91.7897 62.3291 96.6704 64.9855L97.1159 65.228C101.89 67.8268 106.97 70.5918 111.991 73.0635C117.173 75.6151 122.233 77.8242 126.766 79.2041C131.347 80.5988 135.154 81.0701 137.94 80.4021C141.263 79.6054 143.288 77.7886 144.483 75.5255C142.264 70.5267 139.295 65.9349 135.718 61.8932C132.888 63.7445 128.726 64.1184 124.575 63.8924C115.742 63.4116 105.033 60.0752 100.576 58.1519C97.2442 56.7137 90.1542 54.5656 82.5202 52.4419C79.0451 51.4752 75.4863 50.5213 72.1656 49.6519ZM146.025 79.4081C144.372 81.3962 142.016 82.9798 138.746 83.7639C135.042 84.6519 130.506 83.9563 125.759 82.5113C120.964 81.0515 115.71 78.7483 110.464 76.1651C109.061 75.4743 107.654 74.7614 106.252 74.0367C114.367 78.5443 123.328 84.2069 133.169 91.2587L133.287 91.343L133.389 91.4458C136.571 94.6504 142.808 101.331 147.901 107.88C148.632 104.371 149.016 100.734 149.016 97.0082C149.016 90.8386 147.962 84.9151 146.025 79.4081ZM146.817 112.169C141.722 105.266 134.61 97.5913 131.038 93.9842C105.499 75.6998 86.1639 67.0251 72.4404 63.5623C65.8014 61.8872 60.5071 61.4396 56.4756 61.694C56.1166 62.0956 55.7637 62.5026 55.4169 62.9151C56.0907 62.8799 56.7846 62.8835 57.4977 62.9314C60.0633 63.1036 65.0779 64.3398 71.1649 66.4775C77.3075 68.6347 84.6972 71.7649 92.0536 75.8238C106.657 83.8811 121.586 95.8505 125.797 111.509C127.949 119.511 126.172 125.981 121.864 130.972C117.639 135.865 111.104 139.202 103.928 141.386C94.0979 144.377 82.6642 145.325 73.2635 144.903C77.2263 146.788 81.4602 148.196 85.8907 149.052C93.5274 147.994 106.625 145.288 116.553 140.289C122.855 137.116 126.969 134.074 130.343 131.579L130.348 131.575C130.861 131.196 131.356 130.83 131.84 130.477C134.666 128.419 137.202 126.744 140.335 126.088C143.131 121.835 145.331 117.156 146.817 112.169ZM136.034 131.763C135.355 132.209 134.643 132.713 133.876 133.272C133.407 133.613 132.92 133.973 132.413 134.349L132.41 134.35C129.027 136.853 124.687 140.063 118.107 143.377C112.417 146.242 105.794 148.372 99.6731 149.892C114.169 148.902 127.065 142.084 136.034 131.763ZM66.089 140.772C75.7742 142.209 90.6828 141.803 102.921 138.079C109.805 135.984 115.63 132.902 119.247 128.713C122.78 124.62 124.324 119.342 122.459 112.407C118.636 98.1904 104.827 86.8201 90.3835 78.8507C83.2165 74.8963 76.0054 71.8415 70.0193 69.7392C63.9776 67.6174 59.3356 66.5196 57.2661 66.3806C55.4721 66.2602 53.8233 66.4947 52.3446 66.9437C50.9837 68.9163 49.7531 70.9857 48.6652 73.1394C50.0859 72.7669 51.6438 72.6464 53.3204 72.9062C55.5299 73.2485 59.5792 74.4759 64.3715 76.4378C69.1989 78.414 74.8928 81.1815 80.4007 84.6681C91.2869 91.5593 101.989 101.608 102.985 114.312C103.476 120.578 102.045 125.457 99.447 129.203C96.8677 132.923 93.2328 135.392 89.5234 137.034C82.1493 140.298 74.1217 140.449 72.2144 140.449C70.2603 140.449 66.5117 139.624 62.6389 138.197C63.7525 139.101 64.9034 139.96 66.089 140.772ZM54.0751 129.439C56.1653 131.419 59.293 133.146 62.5857 134.472C66.7559 136.152 70.6862 136.992 72.2144 136.992C74.0152 136.992 81.4381 136.832 88.1241 133.873C91.4447 132.403 94.4922 130.282 96.606 127.233C98.7015 124.211 99.974 120.143 99.5382 114.583C98.68 103.636 89.2961 94.3906 78.5516 87.5891C73.2442 84.2294 67.7364 81.5509 63.0617 79.6371C58.3519 77.709 54.5987 76.6025 52.7911 76.3225C50.3981 75.9517 48.302 76.6793 46.5499 77.8965C45.4149 80.8316 44.5337 83.8931 43.9332 87.054C44.5931 86.451 45.3388 85.9229 46.1798 85.5025C48.1918 84.4966 50.6 84.1819 53.397 84.7453C59.893 86.0537 67.8709 89.9298 74.2361 95.1381C80.5442 100.3 85.6854 107.122 85.6854 114.448C85.6854 121.677 82.0451 126.229 77.8556 128.898C73.7568 131.509 69.0991 132.358 66.6522 132.358C65.8658 132.358 64.8685 132.159 63.8076 131.847C62.7135 131.526 61.4376 131.051 60.0571 130.424C57.2974 129.172 54.0557 127.286 50.9523 124.728C50.8604 124.653 50.7686 124.576 50.677 124.5C51.7178 126.212 52.8529 127.861 54.0751 129.439ZM45.3669 112.719C47.3593 116.498 50.1646 119.6 53.1506 122.06C55.9957 124.405 58.9728 126.136 61.4856 127.276C62.7413 127.846 63.8651 128.261 64.782 128.53C65.732 128.809 66.3571 128.901 66.6522 128.901C68.5315 128.901 72.526 128.194 75.998 125.982C79.3793 123.828 82.2283 120.289 82.2283 114.448C82.2283 108.703 78.0992 102.766 72.0468 97.8137C66.0516 92.9081 58.5789 89.3155 52.7144 88.1343C50.5673 87.7018 48.9584 87.9784 47.7257 88.5946C46.4736 89.2206 45.4594 90.2732 44.6543 91.6313C43.8997 92.9042 43.3671 94.3824 43.0121 95.8633C43.0041 96.244 43 96.6256 43 97.0082C43 102.478 43.8285 107.755 45.3669 112.719ZM59.9111 58.1895C63.692 58.301 68.1434 58.9127 73.2862 60.2103C80.5225 62.0362 89.1621 65.2288 99.2803 70.3374C97.9955 69.6428 96.7288 68.9533 95.4877 68.2777L95.4857 68.2766L95.0178 68.022C90.1067 65.3491 85.6419 62.929 81.9964 61.2463C75.01 58.0215 67.1704 57.1749 60.9157 57.2785C60.5769 57.5779 60.242 57.8816 59.9111 58.1895ZM114.638 47.3662C108.842 45.1902 102.564 44 96.0082 44C94.5802 44 93.1653 44.0565 91.7657 44.1673C94.1637 44.8848 96.3659 45.5873 98.1383 46.2248C102.073 47.64 108.996 48.2599 114.638 47.3662Z" fill="white"></path><path d="M191.5 44.5C191.5 68.2482 172.248 87.5 148.5 87.5C124.752 87.5 105.5 68.2482 105.5 44.5C105.5 20.7518 124.752 1.5 148.5 1.5C172.248 1.5 191.5 20.7518 191.5 44.5Z" fill="url(#2_yvecrv_icon_5e021a26-725f-4433-bfe1-b8aa9345596b)" stroke="white" stroke-width="3"></path><path fill-rule="evenodd" clip-rule="evenodd" d="M139.147 68.2523C130.782 68.2523 127.088 54.9021 127.088 42.7223C126.871 36.6747 129.174 24.2971 140.125 23.1673C153.813 21.755 168.059 34.2484 170.978 40.2236C173.898 46.1987 173.694 51.1961 165.546 53.912C159.028 56.0848 150.48 58.1489 147.021 58.9094C146.249 64.5615 144.262 68.2523 139.147 68.2523ZM147.512 46.1987L147.458 46.1031C147.332 46.171 147.375 46.1987 147.512 46.1987ZM147.458 46.1031C144.405 40.6169 145.032 37.0713 150.649 37.0713C156.298 37.0713 170.869 40.5495 158.267 43.3741C150.421 45.1328 147.9 45.8649 147.458 46.1031ZM139.709 65.2353C143.359 64.5161 145.434 59.4472 144.344 53.9137C143.253 48.3801 139.411 44.4774 135.761 45.1966C132.111 45.9158 130.036 50.9846 131.127 56.5181C132.217 62.0517 136.06 65.9545 139.709 65.2353Z" fill="white"></path><defs><linearGradient id="1_yvecrv_icon_5e021a26-725f-4433-bfe1-b8aa9345596b" x1="96.5" y1="0" x2="96.5" y2="193" gradientUnits="userSpaceOnUse"><stop stop-color="#FF4A4A"></stop><stop offset="1" stop-color="#C30E0E"></stop></linearGradient><linearGradient id="2_yvecrv_icon_5e021a26-725f-4433-bfe1-b8aa9345596b" x1="148.5" y1="0" x2="148.5" y2="89" gradientUnits="userSpaceOnUse"><stop stop-color="#3465A4"></stop><stop offset="1" stop-color="#164786"></stop></linearGradient></defs></svg>